%TF.GenerationSoftware,KiCad,Pcbnew,9.0.7*%
%TF.CreationDate,2026-09-07T12:58:17+02:00*%
%TF.ProjectId,chatgpt_astra_test2,63686174-6770-4745-9f61-737472615f74,rev?*%
%TF.SameCoordinates,Original*%
%TF.FileFunction,Copper,L3,Inr*%
%TF.FilePolarity,Positive*%
%FSLAX46Y46*%
G04 Gerber Fmt 4.6, Leading zero omitted, Abs format (unit mm)*
G04 Created by KiCad (PCBNEW 9.0.7) date 2026-09-07 12:58:17*
%MOMM*%
%LPD*%
G01*
G04 APERTURE LIST*
G04 Aperture macros list*
%AMRoundRect*
0 Rectangle with rounded corners*
0 $1 Rounding radius*
0 $2 $3 $4 $5 $6 $7 $8 $9 X,Y pos of 4 corners*
0 Add a 4 corners polygon primitive as box body*
4,1,4,$2,$3,$4,$5,$6,$7,$8,$9,$2,$3,0*
0 Add four circle primitives for the rounded corners*
1,1,$1+$1,$2,$3*
1,1,$1+$1,$4,$5*
1,1,$1+$1,$6,$7*
1,1,$1+$1,$8,$9*
0 Add four rect primitives between the rounded corners*
20,1,$1+$1,$2,$3,$4,$5,0*
20,1,$1+$1,$4,$5,$6,$7,0*
20,1,$1+$1,$6,$7,$8,$9,0*
20,1,$1+$1,$8,$9,$2,$3,0*%
G04 Aperture macros list end*
%TA.AperFunction,ComponentPad*%
%ADD10C,0.630000*%
%TD*%
%TA.AperFunction,ComponentPad*%
%ADD11R,1.700000X1.700000*%
%TD*%
%TA.AperFunction,ComponentPad*%
%ADD12C,1.700000*%
%TD*%
%TA.AperFunction,ComponentPad*%
%ADD13RoundRect,0.249999X-0.850001X-0.850001X0.850001X-0.850001X0.850001X0.850001X-0.850001X0.850001X0*%
%TD*%
%TA.AperFunction,ComponentPad*%
%ADD14C,2.200000*%
%TD*%
%TA.AperFunction,HeatsinkPad*%
%ADD15C,0.600000*%
%TD*%
%TA.AperFunction,ComponentPad*%
%ADD16RoundRect,0.250000X-1.050000X-1.050000X1.050000X-1.050000X1.050000X1.050000X-1.050000X1.050000X0*%
%TD*%
%TA.AperFunction,ComponentPad*%
%ADD17C,2.600000*%
%TD*%
%TA.AperFunction,HeatsinkPad*%
%ADD18O,1.000000X2.100000*%
%TD*%
%TA.AperFunction,HeatsinkPad*%
%ADD19O,1.000000X1.600000*%
%TD*%
%TA.AperFunction,ComponentPad*%
%ADD20R,1.905000X2.000000*%
%TD*%
%TA.AperFunction,ComponentPad*%
%ADD21O,1.905000X2.000000*%
%TD*%
%TA.AperFunction,ViaPad*%
%ADD22C,0.600000*%
%TD*%
%TA.AperFunction,ViaPad*%
%ADD23C,0.500000*%
%TD*%
%TA.AperFunction,Conductor*%
%ADD24C,0.250000*%
%TD*%
%TA.AperFunction,Conductor*%
%ADD25C,0.150000*%
%TD*%
%TA.AperFunction,Conductor*%
%ADD26C,0.600000*%
%TD*%
G04 APERTURE END LIST*
D10*
%TO.N,GND*%
%TO.C,U2*%
X66350000Y-83700000D03*
X66350000Y-85000000D03*
X66350000Y-86300000D03*
X67650000Y-83700000D03*
X67650000Y-85000000D03*
X67650000Y-86300000D03*
%TD*%
D11*
%TO.N,GND*%
%TO.C,J5*%
X141000000Y-75000000D03*
D12*
%TO.N,/03 / ESP32 AND USB/UART_TX*%
X141000000Y-77540000D03*
%TO.N,/03 / ESP32 AND USB/UART_RX*%
X141000000Y-80080000D03*
%TO.N,V3V3*%
X141000000Y-82620000D03*
%TD*%
D13*
%TO.N,/04 / PROTECTED CURRENT INPUT/AI_PROT*%
%TO.C,D6*%
X105000000Y-117000000D03*
D14*
%TO.N,GND*%
X115160000Y-117000000D03*
%TD*%
D15*
%TO.N,GND*%
%TO.C,U4*%
X122100000Y-58460000D03*
X122100000Y-59860000D03*
X122800000Y-57760000D03*
X122800000Y-59160000D03*
X122800000Y-60560000D03*
X123500000Y-58460000D03*
X123500000Y-59860000D03*
X124200000Y-57760000D03*
X124200000Y-59160000D03*
X124200000Y-60560000D03*
X124900000Y-58460000D03*
X124900000Y-59860000D03*
%TD*%
D16*
%TO.N,VIN24*%
%TO.C,J1*%
X63000000Y-123000000D03*
D17*
%TO.N,GND*%
X68080000Y-123000000D03*
%TD*%
D18*
%TO.N,GND*%
%TO.C,J4*%
X99320000Y-57930000D03*
D19*
X99320000Y-53750000D03*
D18*
X90680000Y-57930000D03*
D19*
X90680000Y-53750000D03*
%TD*%
D16*
%TO.N,AO_OUT*%
%TO.C,J3*%
X130000000Y-123000000D03*
D17*
%TO.N,GND*%
X135080000Y-123000000D03*
%TD*%
D20*
%TO.N,/05 / PRECISION CURRENT OUTPUT/XTR_GATE*%
%TO.C,Q3*%
X137000000Y-110000000D03*
D21*
%TO.N,/05 / PRECISION CURRENT OUTPUT/AO_DRAIN*%
X139540000Y-110000000D03*
%TO.N,/05 / PRECISION CURRENT OUTPUT/PMOS_SOURCE*%
X142080000Y-110000000D03*
%TD*%
D15*
%TO.N,GND*%
%TO.C,U12*%
X127350000Y-99700000D03*
X127350000Y-101000000D03*
X127350000Y-102300000D03*
X128650000Y-99700000D03*
X128650000Y-101000000D03*
X128650000Y-102300000D03*
%TD*%
%TO.N,/02 / POWER AND SENSOR SUPPLY/EF_RTN*%
%TO.C,U1*%
X64800000Y-101200000D03*
X64800000Y-102400000D03*
X64800000Y-103600000D03*
X64800000Y-104800000D03*
X66000000Y-101200000D03*
X66000000Y-102400000D03*
X66000000Y-103600000D03*
X66000000Y-104800000D03*
X67200000Y-101200000D03*
X67200000Y-102400000D03*
X67200000Y-103600000D03*
X67200000Y-104800000D03*
%TD*%
D16*
%TO.N,SENSOR_PWR*%
%TO.C,J2*%
X89000000Y-123000000D03*
D17*
%TO.N,AI_IN*%
X94080000Y-123000000D03*
%TO.N,GND*%
X99160000Y-123000000D03*
%TD*%
D22*
%TO.N,/02 / POWER AND SENSOR SUPPLY/BUCK_FB*%
X76500000Y-90700000D03*
X71000000Y-87100000D03*
%TO.N,/02 / POWER AND SENSOR SUPPLY/EF_ILIM*%
X70500000Y-103975000D03*
X70087500Y-95700000D03*
%TO.N,/02 / POWER AND SENSOR SUPPLY/EF_OV*%
X58354200Y-108311000D03*
X59219500Y-104072000D03*
%TO.N,/02 / POWER AND SENSOR SUPPLY/EF_RTN*%
X72257500Y-98210200D03*
X60370600Y-101088000D03*
X74031100Y-101868000D03*
%TO.N,/02 / POWER AND SENSOR SUPPLY/EF_UV*%
X60694700Y-97073400D03*
X61460400Y-102025000D03*
%TO.N,/02 / POWER AND SENSOR SUPPLY/SENS_RAW*%
X88500000Y-105500000D03*
X88500000Y-104500000D03*
%TO.N,/03 / ESP32 AND USB/BOOT_N*%
X108847000Y-52578100D03*
X116555000Y-72878000D03*
%TO.N,/03 / ESP32 AND USB/ESP_EN*%
X115915400Y-74015400D03*
X112384400Y-70484400D03*
%TO.N,/03 / ESP32 AND USB/LED_STATUS*%
X67290800Y-64203200D03*
X125635000Y-67935800D03*
%TO.N,/03 / ESP32 AND USB/UART_RX*%
X135012000Y-56520000D03*
%TO.N,/03 / ESP32 AND USB/UART_TX*%
X135944000Y-55250000D03*
%TO.N,/03 / ESP32 AND USB/USB_CC2*%
X93437500Y-57589400D03*
X100041100Y-68194300D03*
D23*
%TO.N,/03 / ESP32 AND USB/USB_DM*%
X92400000Y-63225000D03*
X94750000Y-61100000D03*
X95750000Y-61100000D03*
%TO.N,/03 / ESP32 AND USB/USB_DP*%
X95250000Y-60300000D03*
X91600000Y-64950000D03*
X94250000Y-60300000D03*
D22*
%TO.N,/04 / PROTECTED CURRENT INPUT/AI_CLAMP*%
X100789000Y-87700000D03*
X102386000Y-95377100D03*
%TO.N,/04 / PROTECTED CURRENT INPUT/AI_LIMIT_OUT*%
X101500000Y-104700000D03*
X101500000Y-103700000D03*
%TO.N,/04 / PROTECTED CURRENT INPUT/AI_SHUNT*%
X101700000Y-97000000D03*
X105800000Y-104463000D03*
%TO.N,/05 / PRECISION CURRENT OUTPUT/XTR_GATE*%
X124764000Y-102456000D03*
%TO.N,/05 / PRECISION CURRENT OUTPUT/XTR_IS*%
X129692000Y-103889000D03*
X124600000Y-100400000D03*
%TO.N,/05 / PRECISION CURRENT OUTPUT/XTR_OD*%
X134032000Y-98203500D03*
X125282000Y-107000000D03*
X131600000Y-100500000D03*
%TO.N,/05 / PRECISION CURRENT OUTPUT/XTR_REG*%
X124133000Y-109296000D03*
X125758000Y-102653000D03*
X131187000Y-97900400D03*
%TO.N,/05 / PRECISION CURRENT OUTPUT/XTR_SET*%
X124000000Y-104000000D03*
X132000000Y-103000000D03*
%TO.N,AO_ENABLE*%
X121825000Y-70455800D03*
X114180000Y-105245000D03*
%TO.N,AO_FAULT_N*%
X133802000Y-92110800D03*
X123095000Y-70454600D03*
%TO.N,GND*%
X70900000Y-90000000D03*
X131500000Y-99300000D03*
X124000000Y-99800000D03*
X95500000Y-88050000D03*
X111000000Y-51700000D03*
X80850000Y-59200000D03*
X84300000Y-82525000D03*
X112500000Y-84000000D03*
X114200000Y-91050000D03*
X108062000Y-98200000D03*
D23*
X94800000Y-64000000D03*
D22*
X135200000Y-51440000D03*
X114200000Y-87050000D03*
X127300000Y-88050000D03*
D23*
X90800000Y-65200000D03*
D22*
X64000000Y-81900000D03*
X57000000Y-80525000D03*
X108400000Y-89050000D03*
X79500000Y-96525000D03*
D23*
X96800000Y-60600000D03*
D22*
X113000000Y-112950000D03*
X102600000Y-81050000D03*
X110500000Y-63200000D03*
D23*
X90800000Y-63800000D03*
D22*
X84300000Y-87525000D03*
X123000000Y-100100000D03*
X124700000Y-117850000D03*
X70000000Y-105275000D03*
X103500000Y-89650000D03*
X102400000Y-101537000D03*
X114500000Y-94350000D03*
X77100000Y-106000000D03*
X61500000Y-82000000D03*
X143400000Y-115000000D03*
X114300000Y-57050000D03*
X128000000Y-105000000D03*
X76000000Y-94000000D03*
X104000000Y-75900000D03*
X121600000Y-108050000D03*
X77500000Y-112050000D03*
X109700000Y-109088000D03*
X84300000Y-77525000D03*
%TO.N,I2C_SCL*%
X119157000Y-82000000D03*
X121481000Y-91000000D03*
X120485000Y-70455800D03*
%TO.N,I2C_SDA*%
X118327000Y-78148900D03*
X118259000Y-65410000D03*
%TO.N,SYS_OK*%
X105864400Y-75146200D03*
X99391100Y-86348900D03*
X105436000Y-111807000D03*
%TO.N,V24_PROT*%
X126086000Y-99340300D03*
X120362000Y-101526000D03*
%TO.N,V3V3*%
X110030000Y-55919600D03*
X111580100Y-77951600D03*
X113886000Y-89698100D03*
X113600000Y-82050000D03*
%TD*%
D24*
%TO.N,/02 / POWER AND SENSOR SUPPLY/EF_OV*%
X58354200Y-108311000D02*
X58354200Y-104937000D01*
X58354200Y-104937000D02*
X59219500Y-104072000D01*
D25*
%TO.N,/02 / POWER AND SENSOR SUPPLY/EF_RTN*%
X66000000Y-102400000D02*
X66000000Y-101200000D01*
X71340600Y-101200000D02*
X72351700Y-100189000D01*
X64800000Y-102400000D02*
X64800000Y-101200000D01*
X67200000Y-102400000D02*
X67200000Y-101200000D01*
X72351700Y-100189000D02*
X72351700Y-98304400D01*
X72351700Y-100189000D02*
X74031100Y-101868000D01*
X67200000Y-103600000D02*
X67200000Y-102400000D01*
X67200000Y-104800000D02*
X67200000Y-103600000D01*
X72351700Y-98304400D02*
X72257500Y-98210200D01*
X66000000Y-104800000D02*
X66000000Y-103600000D01*
X67200000Y-101200000D02*
X71340600Y-101200000D01*
X64800000Y-103600000D02*
X64800000Y-102400000D01*
D24*
%TO.N,/02 / POWER AND SENSOR SUPPLY/EF_UV*%
X61460300Y-102025000D02*
X61460400Y-102025000D01*
X60694700Y-97073400D02*
X61460300Y-97839000D01*
X61460300Y-97839000D02*
X61460300Y-102025000D01*
%TO.N,/03 / ESP32 AND USB/BOOT_N*%
X116555000Y-72878000D02*
X116555000Y-60286100D01*
D25*
X116555000Y-60286100D02*
X108847000Y-52578100D01*
%TO.N,/03 / ESP32 AND USB/ESP_EN*%
X112384400Y-70484400D02*
X115915400Y-74015400D01*
D24*
%TO.N,/03 / ESP32 AND USB/UART_RX*%
X135012000Y-74092400D02*
X135012000Y-56520000D01*
X141000000Y-80080000D02*
X135012000Y-74092400D01*
%TO.N,/03 / ESP32 AND USB/UART_TX*%
X141000000Y-77540000D02*
X135944000Y-72484400D01*
X135944000Y-72484400D02*
X135944000Y-55250000D01*
D25*
%TO.N,/03 / ESP32 AND USB/USB_CC2*%
X100041100Y-68194300D02*
X100041100Y-64648300D01*
X100041100Y-64648300D02*
X96127500Y-60734700D01*
X96127500Y-60279400D02*
X93437500Y-57589400D01*
X96127500Y-60734700D02*
X96127500Y-60279400D01*
D24*
%TO.N,/04 / PROTECTED CURRENT INPUT/AI_CLAMP*%
X100789000Y-93780100D02*
X100789000Y-87700000D01*
X102386000Y-95377100D02*
X100789000Y-93780100D01*
%TO.N,/05 / PRECISION CURRENT OUTPUT/XTR_GATE*%
X124625000Y-107229000D02*
X124625000Y-102595000D01*
X137000000Y-110000000D02*
X127396000Y-110000000D01*
X127396000Y-110000000D02*
X124625000Y-107229000D01*
X124625000Y-102595000D02*
X124764000Y-102456000D01*
%TO.N,/05 / PRECISION CURRENT OUTPUT/XTR_OD*%
X128250000Y-104141000D02*
X131745000Y-100645000D01*
X131745000Y-100645000D02*
X134032000Y-98358300D01*
X134032000Y-98358300D02*
X134032000Y-98203500D01*
X125282000Y-107000000D02*
X125282000Y-106805000D01*
D25*
X131600000Y-100500000D02*
X131745000Y-100645000D01*
D24*
X125282000Y-106805000D02*
X127946000Y-104141000D01*
X127946000Y-104141000D02*
X128250000Y-104141000D01*
D25*
%TO.N,/05 / PRECISION CURRENT OUTPUT/XTR_REG*%
X124511000Y-101867000D02*
X123417000Y-102961000D01*
X131187000Y-98025600D02*
X128863000Y-100350000D01*
X125758000Y-101867000D02*
X125758000Y-102653000D01*
X123417000Y-108580000D02*
X124133000Y-109296000D01*
X127185000Y-100350000D02*
X125758000Y-101778000D01*
X125758000Y-101867000D02*
X124511000Y-101867000D01*
X123417000Y-102961000D02*
X123417000Y-108580000D01*
X125758000Y-101778000D02*
X125758000Y-101867000D01*
X131187000Y-97900400D02*
X131187000Y-98025600D01*
X128863000Y-100350000D02*
X127185000Y-100350000D01*
D24*
%TO.N,AO_ENABLE*%
X122116000Y-70746600D02*
X121825000Y-70455800D01*
X122116000Y-97309600D02*
X122116000Y-70746600D01*
X114180000Y-105245000D02*
X122116000Y-97309600D01*
D25*
%TO.N,AO_FAULT_N*%
X133802000Y-81161300D02*
X123095000Y-70454600D01*
X133802000Y-92110800D02*
X133802000Y-81161300D01*
%TO.N,I2C_SCL*%
X121481000Y-84324400D02*
X121481000Y-91000000D01*
D24*
X119157000Y-82000000D02*
X119157000Y-71783500D01*
D25*
X119157000Y-82000000D02*
X121481000Y-84324400D01*
D24*
X119157000Y-71783500D02*
X120485000Y-70455800D01*
%TO.N,I2C_SDA*%
X118259000Y-65410000D02*
X118327000Y-65477400D01*
X118327000Y-65477400D02*
X118327000Y-78148900D01*
%TO.N,SYS_OK*%
X99391100Y-86348900D02*
X99391100Y-79878600D01*
X105436000Y-111807000D02*
X99391100Y-105762000D01*
D25*
X101132000Y-79878600D02*
X105864400Y-75146200D01*
X99391100Y-79878600D02*
X101132000Y-79878600D01*
D24*
X99391100Y-105762000D02*
X99391100Y-86348900D01*
D25*
%TO.N,V3V3*%
X111552300Y-57441600D02*
X111552300Y-77979400D01*
X111552300Y-80001800D02*
X113000000Y-81449500D01*
X111552300Y-77979400D02*
X111580100Y-77951600D01*
X113600000Y-89412500D02*
X113886000Y-89698100D01*
X113600000Y-82050000D02*
X113600000Y-89412500D01*
D26*
X110030000Y-55919600D02*
X111552300Y-57441600D01*
X113000000Y-81449500D02*
X113600000Y-82050000D01*
D25*
X111552300Y-77979400D02*
X111552300Y-80001800D01*
%TD*%
%TA.AperFunction,Conductor*%
%TO.N,GND*%
G36*
X93932082Y-59818907D02*
G01*
X93968046Y-59868407D01*
X93968046Y-59929593D01*
X93943896Y-59969001D01*
X93889511Y-60023387D01*
X93889508Y-60023390D01*
X93889507Y-60023391D01*
X93830202Y-60126109D01*
X93822997Y-60152998D01*
X93799500Y-60240691D01*
X93799500Y-60359309D01*
X93808666Y-60393515D01*
X93830202Y-60473890D01*
X93889507Y-60576608D01*
X93889509Y-60576610D01*
X93889511Y-60576613D01*
X93973387Y-60660489D01*
X93973389Y-60660490D01*
X93973391Y-60660492D01*
X94076110Y-60719797D01*
X94076111Y-60719797D01*
X94076114Y-60719799D01*
X94190691Y-60750500D01*
X94190693Y-60750500D01*
X94260119Y-60750500D01*
X94318310Y-60769407D01*
X94354274Y-60818907D01*
X94354274Y-60880093D01*
X94345855Y-60899001D01*
X94330202Y-60926111D01*
X94330201Y-60926113D01*
X94330201Y-60926114D01*
X94299500Y-61040691D01*
X94299500Y-61159309D01*
X94307532Y-61189283D01*
X94330202Y-61273890D01*
X94389507Y-61376608D01*
X94389509Y-61376610D01*
X94389511Y-61376613D01*
X94473387Y-61460489D01*
X94473389Y-61460490D01*
X94473391Y-61460492D01*
X94576110Y-61519797D01*
X94576111Y-61519797D01*
X94576114Y-61519799D01*
X94690691Y-61550500D01*
X94690693Y-61550500D01*
X94809307Y-61550500D01*
X94809309Y-61550500D01*
X94923886Y-61519799D01*
X94923888Y-61519797D01*
X94923890Y-61519797D01*
X95026608Y-61460492D01*
X95026608Y-61460491D01*
X95026613Y-61460489D01*
X95110489Y-61376613D01*
X95156392Y-61297108D01*
X95164264Y-61283474D01*
X95209733Y-61242533D01*
X95270584Y-61236137D01*
X95323572Y-61266730D01*
X95335736Y-61283474D01*
X95389507Y-61376608D01*
X95389509Y-61376610D01*
X95389511Y-61376613D01*
X95473387Y-61460489D01*
X95473389Y-61460490D01*
X95473391Y-61460492D01*
X95576110Y-61519797D01*
X95576111Y-61519797D01*
X95576114Y-61519799D01*
X95690691Y-61550500D01*
X95690693Y-61550500D01*
X95809307Y-61550500D01*
X95809309Y-61550500D01*
X95923886Y-61519799D01*
X95923888Y-61519797D01*
X95923890Y-61519797D01*
X96026608Y-61460492D01*
X96026608Y-61460491D01*
X96026613Y-61460489D01*
X96110489Y-61376613D01*
X96144554Y-61317611D01*
X96190021Y-61276671D01*
X96250871Y-61270275D01*
X96300293Y-61297108D01*
X97971004Y-62967819D01*
X97998781Y-63022336D01*
X98000000Y-63037823D01*
X98000000Y-65901000D01*
X97981093Y-65959191D01*
X97931593Y-65995155D01*
X97901000Y-66000000D01*
X90599000Y-66000000D01*
X90540809Y-65981093D01*
X90504845Y-65931593D01*
X90500000Y-65901000D01*
X90500000Y-64890691D01*
X91149500Y-64890691D01*
X91149500Y-65009309D01*
X91176574Y-65110351D01*
X91180202Y-65123890D01*
X91239507Y-65226608D01*
X91239509Y-65226610D01*
X91239511Y-65226613D01*
X91323387Y-65310489D01*
X91323389Y-65310490D01*
X91323391Y-65310492D01*
X91426110Y-65369797D01*
X91426111Y-65369797D01*
X91426114Y-65369799D01*
X91540691Y-65400500D01*
X91540693Y-65400500D01*
X91659307Y-65400500D01*
X91659309Y-65400500D01*
X91773886Y-65369799D01*
X91773888Y-65369797D01*
X91773890Y-65369797D01*
X91876608Y-65310492D01*
X91876608Y-65310491D01*
X91876613Y-65310489D01*
X91960489Y-65226613D01*
X92019799Y-65123886D01*
X92050500Y-65009309D01*
X92050500Y-64890691D01*
X92019799Y-64776114D01*
X92019797Y-64776111D01*
X92019797Y-64776109D01*
X91960492Y-64673391D01*
X91960490Y-64673389D01*
X91960489Y-64673387D01*
X91876613Y-64589511D01*
X91876610Y-64589509D01*
X91876608Y-64589507D01*
X91773889Y-64530202D01*
X91773890Y-64530202D01*
X91760351Y-64526574D01*
X91659309Y-64499500D01*
X91540691Y-64499500D01*
X91470567Y-64518289D01*
X91426109Y-64530202D01*
X91323391Y-64589507D01*
X91239507Y-64673391D01*
X91180202Y-64776109D01*
X91180201Y-64776114D01*
X91149500Y-64890691D01*
X90500000Y-64890691D01*
X90500000Y-63165691D01*
X91949500Y-63165691D01*
X91949500Y-63284309D01*
X91976574Y-63385351D01*
X91980202Y-63398890D01*
X92039507Y-63501608D01*
X92039509Y-63501610D01*
X92039511Y-63501613D01*
X92123387Y-63585489D01*
X92123389Y-63585490D01*
X92123391Y-63585492D01*
X92226110Y-63644797D01*
X92226111Y-63644797D01*
X92226114Y-63644799D01*
X92340691Y-63675500D01*
X92340693Y-63675500D01*
X92459307Y-63675500D01*
X92459309Y-63675500D01*
X92573886Y-63644799D01*
X92573888Y-63644797D01*
X92573890Y-63644797D01*
X92676608Y-63585492D01*
X92676608Y-63585491D01*
X92676613Y-63585489D01*
X92760489Y-63501613D01*
X92819799Y-63398886D01*
X92850500Y-63284309D01*
X92850500Y-63165691D01*
X92819799Y-63051114D01*
X92819797Y-63051111D01*
X92819797Y-63051109D01*
X92760492Y-62948391D01*
X92760490Y-62948389D01*
X92760489Y-62948387D01*
X92676613Y-62864511D01*
X92676610Y-62864509D01*
X92676608Y-62864507D01*
X92573889Y-62805202D01*
X92573890Y-62805202D01*
X92560351Y-62801574D01*
X92459309Y-62774500D01*
X92340691Y-62774500D01*
X92270567Y-62793289D01*
X92226109Y-62805202D01*
X92123391Y-62864507D01*
X92039507Y-62948391D01*
X91980202Y-63051109D01*
X91980201Y-63051114D01*
X91949500Y-63165691D01*
X90500000Y-63165691D01*
X90500000Y-59899000D01*
X90518907Y-59840809D01*
X90568407Y-59804845D01*
X90599000Y-59800000D01*
X93873891Y-59800000D01*
X93932082Y-59818907D01*
G37*
%TD.AperFunction*%
%TA.AperFunction,Conductor*%
G36*
X97959191Y-59818907D02*
G01*
X97995155Y-59868407D01*
X98000000Y-59899000D01*
X98000000Y-61978576D01*
X97981093Y-62036767D01*
X97931593Y-62072731D01*
X97870407Y-62072731D01*
X97830996Y-62048580D01*
X96431996Y-60649580D01*
X96404219Y-60595063D01*
X96403000Y-60579576D01*
X96403000Y-60224600D01*
X96373341Y-60152998D01*
X96373341Y-60152997D01*
X96363840Y-60130060D01*
X96361057Y-60123341D01*
X96206718Y-59969002D01*
X96178942Y-59914487D01*
X96188513Y-59854055D01*
X96231778Y-59810790D01*
X96276723Y-59800000D01*
X97901000Y-59800000D01*
X97959191Y-59818907D01*
G37*
%TD.AperFunction*%
%TD*%
M02*
