%TF.GenerationSoftware,KiCad,Pcbnew,9.0.7*%
%TF.CreationDate,2026-09-07T12:58:17+02:00*%
%TF.ProjectId,chatgpt_astra_test2,63686174-6770-4745-9f61-737472615f74,rev?*%
%TF.SameCoordinates,Original*%
%TF.FileFunction,Copper,L4,Bot*%
%TF.FilePolarity,Positive*%
%FSLAX46Y46*%
G04 Gerber Fmt 4.6, Leading zero omitted, Abs format (unit mm)*
G04 Created by KiCad (PCBNEW 9.0.7) date 2026-09-07 12:58:17*
%MOMM*%
%LPD*%
G01*
G04 APERTURE LIST*
G04 Aperture macros list*
%AMRoundRect*
0 Rectangle with rounded corners*
0 $1 Rounding radius*
0 $2 $3 $4 $5 $6 $7 $8 $9 X,Y pos of 4 corners*
0 Add a 4 corners polygon primitive as box body*
4,1,4,$2,$3,$4,$5,$6,$7,$8,$9,$2,$3,0*
0 Add four circle primitives for the rounded corners*
1,1,$1+$1,$2,$3*
1,1,$1+$1,$4,$5*
1,1,$1+$1,$6,$7*
1,1,$1+$1,$8,$9*
0 Add four rect primitives between the rounded corners*
20,1,$1+$1,$2,$3,$4,$5,0*
20,1,$1+$1,$4,$5,$6,$7,0*
20,1,$1+$1,$6,$7,$8,$9,0*
20,1,$1+$1,$8,$9,$2,$3,0*%
G04 Aperture macros list end*
%TA.AperFunction,ComponentPad*%
%ADD10C,0.630000*%
%TD*%
%TA.AperFunction,SMDPad,CuDef*%
%ADD11R,2.600000X3.300000*%
%TD*%
%TA.AperFunction,ComponentPad*%
%ADD12R,1.700000X1.700000*%
%TD*%
%TA.AperFunction,ComponentPad*%
%ADD13C,1.700000*%
%TD*%
%TA.AperFunction,ComponentPad*%
%ADD14RoundRect,0.249999X-0.850001X-0.850001X0.850001X-0.850001X0.850001X0.850001X-0.850001X0.850001X0*%
%TD*%
%TA.AperFunction,ComponentPad*%
%ADD15C,2.200000*%
%TD*%
%TA.AperFunction,HeatsinkPad*%
%ADD16C,0.600000*%
%TD*%
%TA.AperFunction,ComponentPad*%
%ADD17RoundRect,0.250000X-1.050000X-1.050000X1.050000X-1.050000X1.050000X1.050000X-1.050000X1.050000X0*%
%TD*%
%TA.AperFunction,ComponentPad*%
%ADD18C,2.600000*%
%TD*%
%TA.AperFunction,HeatsinkPad*%
%ADD19O,1.000000X2.100000*%
%TD*%
%TA.AperFunction,HeatsinkPad*%
%ADD20O,1.000000X1.600000*%
%TD*%
%TA.AperFunction,ComponentPad*%
%ADD21R,1.905000X2.000000*%
%TD*%
%TA.AperFunction,ComponentPad*%
%ADD22O,1.905000X2.000000*%
%TD*%
%TA.AperFunction,HeatsinkPad*%
%ADD23R,1.800000X3.100000*%
%TD*%
%TA.AperFunction,HeatsinkPad*%
%ADD24R,2.900000X4.100000*%
%TD*%
%TA.AperFunction,ViaPad*%
%ADD25C,0.600000*%
%TD*%
%TA.AperFunction,ViaPad*%
%ADD26C,0.500000*%
%TD*%
%TA.AperFunction,Conductor*%
%ADD27C,0.250000*%
%TD*%
%TA.AperFunction,Conductor*%
%ADD28C,0.150000*%
%TD*%
G04 APERTURE END LIST*
D10*
%TO.P,U2,9*%
%TO.N,GND*%
X66350000Y-83700000D03*
X66350000Y-85000000D03*
X66350000Y-86300000D03*
D11*
X67000000Y-85000000D03*
D10*
X67650000Y-83700000D03*
X67650000Y-85000000D03*
X67650000Y-86300000D03*
%TD*%
D12*
%TO.P,J5,1*%
%TO.N,GND*%
X141000000Y-75000000D03*
D13*
%TO.P,J5,2*%
%TO.N,/03 / ESP32 AND USB/UART_TX*%
X141000000Y-77540000D03*
%TO.P,J5,3*%
%TO.N,/03 / ESP32 AND USB/UART_RX*%
X141000000Y-80080000D03*
%TO.P,J5,4*%
%TO.N,V3V3*%
X141000000Y-82620000D03*
%TD*%
D14*
%TO.P,D6,1*%
%TO.N,/04 / PROTECTED CURRENT INPUT/AI_PROT*%
X105000000Y-117000000D03*
D15*
%TO.P,D6,2*%
%TO.N,GND*%
X115160000Y-117000000D03*
%TD*%
D16*
%TO.P,U4,41*%
%TO.N,GND*%
X122100000Y-58460000D03*
X122100000Y-59860000D03*
X122800000Y-57760000D03*
X122800000Y-59160000D03*
X122800000Y-60560000D03*
X123500000Y-58460000D03*
X123500000Y-59860000D03*
X124200000Y-57760000D03*
X124200000Y-59160000D03*
X124200000Y-60560000D03*
X124900000Y-58460000D03*
X124900000Y-59860000D03*
%TD*%
D17*
%TO.P,J1,1*%
%TO.N,VIN24*%
X63000000Y-123000000D03*
D18*
%TO.P,J1,2*%
%TO.N,GND*%
X68080000Y-123000000D03*
%TD*%
D19*
%TO.P,J4,S1*%
%TO.N,GND*%
X99320000Y-57930000D03*
D20*
X99320000Y-53750000D03*
D19*
X90680000Y-57930000D03*
D20*
X90680000Y-53750000D03*
%TD*%
D17*
%TO.P,J3,1*%
%TO.N,AO_OUT*%
X130000000Y-123000000D03*
D18*
%TO.P,J3,2*%
%TO.N,GND*%
X135080000Y-123000000D03*
%TD*%
D21*
%TO.P,Q3,1*%
%TO.N,/05 / PRECISION CURRENT OUTPUT/XTR_GATE*%
X137000000Y-110000000D03*
D22*
%TO.P,Q3,2*%
%TO.N,/05 / PRECISION CURRENT OUTPUT/AO_DRAIN*%
X139540000Y-110000000D03*
%TO.P,Q3,3*%
%TO.N,/05 / PRECISION CURRENT OUTPUT/PMOS_SOURCE*%
X142080000Y-110000000D03*
%TD*%
D16*
%TO.P,U12,11*%
%TO.N,GND*%
X127350000Y-99700000D03*
X127350000Y-101000000D03*
X127350000Y-102300000D03*
D23*
X128000000Y-101000000D03*
D16*
X128650000Y-99700000D03*
X128650000Y-101000000D03*
X128650000Y-102300000D03*
%TD*%
%TO.P,U1,17*%
%TO.N,/02 / POWER AND SENSOR SUPPLY/EF_RTN*%
X64800000Y-101200000D03*
X64800000Y-102400000D03*
X64800000Y-103600000D03*
X64800000Y-104800000D03*
X66000000Y-101200000D03*
X66000000Y-102400000D03*
D24*
X66000000Y-103000000D03*
D16*
X66000000Y-103600000D03*
X66000000Y-104800000D03*
X67200000Y-101200000D03*
X67200000Y-102400000D03*
X67200000Y-103600000D03*
X67200000Y-104800000D03*
%TD*%
D17*
%TO.P,J2,1*%
%TO.N,SENSOR_PWR*%
X89000000Y-123000000D03*
D18*
%TO.P,J2,2*%
%TO.N,AI_IN*%
X94080000Y-123000000D03*
%TO.P,J2,3*%
%TO.N,GND*%
X99160000Y-123000000D03*
%TD*%
D25*
%TO.N,/02 / POWER AND SENSOR SUPPLY/BUCK_FB*%
X76500000Y-90700000D03*
X71000000Y-87100000D03*
%TO.N,/02 / POWER AND SENSOR SUPPLY/EF_ILIM*%
X70500000Y-103975000D03*
X70087500Y-95700000D03*
%TO.N,/02 / POWER AND SENSOR SUPPLY/EF_OV*%
X58354200Y-108311000D03*
X59219500Y-104072000D03*
%TO.N,/02 / POWER AND SENSOR SUPPLY/EF_RTN*%
X72257500Y-98210200D03*
X60370600Y-101088000D03*
X74031100Y-101868000D03*
%TO.N,/02 / POWER AND SENSOR SUPPLY/EF_UV*%
X60694700Y-97073400D03*
X61460400Y-102025000D03*
%TO.N,/02 / POWER AND SENSOR SUPPLY/SENS_RAW*%
X88500000Y-105500000D03*
X88500000Y-104500000D03*
%TO.N,/03 / ESP32 AND USB/BOOT_N*%
X108847000Y-52578100D03*
X116555000Y-72878000D03*
%TO.N,/03 / ESP32 AND USB/ESP_EN*%
X115915400Y-74015400D03*
X112384400Y-70484400D03*
%TO.N,/03 / ESP32 AND USB/LED_STATUS*%
X67290800Y-64203200D03*
X125635000Y-67935800D03*
%TO.N,/03 / ESP32 AND USB/UART_RX*%
X135012000Y-56520000D03*
%TO.N,/03 / ESP32 AND USB/UART_TX*%
X135944000Y-55250000D03*
%TO.N,/03 / ESP32 AND USB/USB_CC2*%
X93437500Y-57589400D03*
X100041100Y-68194300D03*
D26*
%TO.N,/03 / ESP32 AND USB/USB_DM*%
X92400000Y-63225000D03*
X94750000Y-61100000D03*
X95750000Y-61100000D03*
%TO.N,/03 / ESP32 AND USB/USB_DP*%
X95250000Y-60300000D03*
X91600000Y-64950000D03*
X94250000Y-60300000D03*
D25*
%TO.N,/04 / PROTECTED CURRENT INPUT/AI_CLAMP*%
X100789000Y-87700000D03*
X102386000Y-95377100D03*
%TO.N,/04 / PROTECTED CURRENT INPUT/AI_LIMIT_OUT*%
X101500000Y-104700000D03*
X101500000Y-103700000D03*
%TO.N,/04 / PROTECTED CURRENT INPUT/AI_SHUNT*%
X101700000Y-97000000D03*
X105800000Y-104463000D03*
%TO.N,/05 / PRECISION CURRENT OUTPUT/XTR_GATE*%
X124764000Y-102456000D03*
%TO.N,/05 / PRECISION CURRENT OUTPUT/XTR_IS*%
X129692000Y-103889000D03*
X124600000Y-100400000D03*
%TO.N,/05 / PRECISION CURRENT OUTPUT/XTR_OD*%
X134032000Y-98203500D03*
X125282000Y-107000000D03*
X131600000Y-100500000D03*
%TO.N,/05 / PRECISION CURRENT OUTPUT/XTR_REG*%
X124133000Y-109296000D03*
X125758000Y-102653000D03*
X131187000Y-97900400D03*
%TO.N,/05 / PRECISION CURRENT OUTPUT/XTR_SET*%
X124000000Y-104000000D03*
X132000000Y-103000000D03*
%TO.N,AO_ENABLE*%
X121825000Y-70455800D03*
X114180000Y-105245000D03*
%TO.N,AO_FAULT_N*%
X133802000Y-92110800D03*
X123095000Y-70454600D03*
%TO.N,GND*%
X70900000Y-90000000D03*
X131500000Y-99300000D03*
X124000000Y-99800000D03*
X95500000Y-88050000D03*
X111000000Y-51700000D03*
X80850000Y-59200000D03*
X84300000Y-82525000D03*
X112500000Y-84000000D03*
X114200000Y-91050000D03*
X108062000Y-98200000D03*
D26*
X94800000Y-64000000D03*
D25*
X135200000Y-51440000D03*
X114200000Y-87050000D03*
X127300000Y-88050000D03*
D26*
X90800000Y-65200000D03*
D25*
X64000000Y-81900000D03*
X57000000Y-80525000D03*
X108400000Y-89050000D03*
X79500000Y-96525000D03*
D26*
X96800000Y-60600000D03*
D25*
X113000000Y-112950000D03*
X102600000Y-81050000D03*
X110500000Y-63200000D03*
D26*
X90800000Y-63800000D03*
D25*
X84300000Y-87525000D03*
X123000000Y-100100000D03*
X124700000Y-117850000D03*
X70000000Y-105275000D03*
X103500000Y-89650000D03*
X102400000Y-101537000D03*
X114500000Y-94350000D03*
X77100000Y-106000000D03*
X61500000Y-82000000D03*
X143400000Y-115000000D03*
X114300000Y-57050000D03*
X128000000Y-105000000D03*
X76000000Y-94000000D03*
X104000000Y-75900000D03*
X121600000Y-108050000D03*
X77500000Y-112050000D03*
X109700000Y-109088000D03*
X84300000Y-77525000D03*
%TO.N,I2C_SCL*%
X119157000Y-82000000D03*
X121481000Y-91000000D03*
X120485000Y-70455800D03*
%TO.N,I2C_SDA*%
X118327000Y-78148900D03*
X118259000Y-65410000D03*
%TO.N,SYS_OK*%
X105864400Y-75146200D03*
X99391100Y-86348900D03*
X105436000Y-111807000D03*
%TO.N,V24_PROT*%
X126086000Y-99340300D03*
X120362000Y-101526000D03*
%TO.N,V3V3*%
X110030000Y-55919600D03*
X111580100Y-77951600D03*
X113886000Y-89698100D03*
X113600000Y-82050000D03*
%TD*%
D27*
%TO.N,/02 / POWER AND SENSOR SUPPLY/BUCK_FB*%
X72000000Y-88100000D02*
X72000000Y-90000000D01*
X71000000Y-87100000D02*
X72000000Y-88100000D01*
X72000000Y-90000000D02*
X72700000Y-90700000D01*
X72700000Y-90700000D02*
X76500000Y-90700000D01*
D28*
%TO.N,/02 / POWER AND SENSOR SUPPLY/EF_ILIM*%
X71500000Y-102975000D02*
X71500000Y-97112500D01*
X71500000Y-97112500D02*
X70087500Y-95700000D01*
X70500000Y-103975000D02*
X71500000Y-102975000D01*
%TO.N,/02 / POWER AND SENSOR SUPPLY/EF_RTN*%
X60483100Y-101200000D02*
X60370600Y-101088000D01*
X64800000Y-101200000D02*
X60483100Y-101200000D01*
X66000000Y-103000000D02*
X66000000Y-103600000D01*
%TO.N,/03 / ESP32 AND USB/LED_STATUS*%
X70405300Y-67317700D02*
X67290800Y-64203200D01*
D27*
X125635000Y-67935800D02*
X125017000Y-67317700D01*
D28*
X125017000Y-67317700D02*
X70405300Y-67317700D01*
D27*
%TO.N,/03 / ESP32 AND USB/USB_DM*%
X94650000Y-61700000D02*
X93925000Y-61700000D01*
X95250000Y-61100000D02*
X94650000Y-61700000D01*
D28*
X95250000Y-61100000D02*
X95750000Y-61100000D01*
X94750000Y-61100000D02*
X95250000Y-61100000D01*
D27*
X93925000Y-61700000D02*
X92400000Y-63225000D01*
%TO.N,/03 / ESP32 AND USB/USB_DP*%
X92750000Y-62300000D02*
X91600000Y-62300000D01*
X94750000Y-60300000D02*
X92750000Y-62300000D01*
X91600000Y-62300000D02*
X91600000Y-64950000D01*
D28*
X94750000Y-60300000D02*
X95250000Y-60300000D01*
X94250000Y-60300000D02*
X94750000Y-60300000D01*
D27*
%TO.N,/04 / PROTECTED CURRENT INPUT/AI_SHUNT*%
X103800000Y-97000000D02*
X101700000Y-97000000D01*
X105800000Y-104463000D02*
X105800000Y-99000000D01*
X105800000Y-99000000D02*
X103800000Y-97000000D01*
D28*
%TO.N,/05 / PRECISION CURRENT OUTPUT/XTR_IS*%
X124600000Y-100400000D02*
X124600000Y-100522000D01*
X127967000Y-103889000D02*
X129692000Y-103889000D01*
X124600000Y-100522000D02*
X127967000Y-103889000D01*
D27*
%TO.N,/05 / PRECISION CURRENT OUTPUT/XTR_SET*%
X124000000Y-104000000D02*
X126000000Y-106000000D01*
X129000000Y-106000000D02*
X132000000Y-103000000D01*
X126000000Y-106000000D02*
X129000000Y-106000000D01*
%TO.N,GND*%
X67650000Y-85000000D02*
X67000000Y-85000000D01*
X128650000Y-101000000D02*
X128000000Y-101000000D01*
D28*
%TO.N,V24_PROT*%
X122744000Y-99143300D02*
X120362000Y-101526000D01*
X126086000Y-99340300D02*
X125889000Y-99143300D01*
X125889000Y-99143300D02*
X122744000Y-99143300D01*
%TD*%
%TA.AperFunction,Conductor*%
%TO.N,/02 / POWER AND SENSOR SUPPLY/EF_RTN*%
G36*
X69959191Y-97018907D02*
G01*
X69995155Y-97068407D01*
X70000000Y-97099000D01*
X70000000Y-103713498D01*
X69988576Y-103756134D01*
X69989500Y-103756517D01*
X69987017Y-103762510D01*
X69987016Y-103762515D01*
X69949500Y-103902525D01*
X69949500Y-104047475D01*
X69987016Y-104187485D01*
X69987018Y-104187490D01*
X69989500Y-104193480D01*
X69988573Y-104193863D01*
X70000000Y-104236500D01*
X70000000Y-104629114D01*
X69981093Y-104687305D01*
X69931593Y-104723269D01*
X69926624Y-104724740D01*
X69787515Y-104762015D01*
X69787511Y-104762017D01*
X69661989Y-104834487D01*
X69559487Y-104936989D01*
X69487017Y-105062510D01*
X69449500Y-105202525D01*
X69449500Y-105347474D01*
X69487017Y-105487489D01*
X69559487Y-105613010D01*
X69559489Y-105613012D01*
X69559491Y-105613015D01*
X69661985Y-105715509D01*
X69661987Y-105715510D01*
X69661989Y-105715512D01*
X69787511Y-105787982D01*
X69787512Y-105787982D01*
X69787515Y-105787984D01*
X69926623Y-105825258D01*
X69977938Y-105858583D01*
X69999864Y-105915704D01*
X70000000Y-105920885D01*
X70000000Y-106901000D01*
X69981093Y-106959191D01*
X69931593Y-106995155D01*
X69901000Y-107000000D01*
X61099000Y-107000000D01*
X61040809Y-106981093D01*
X61004845Y-106931593D01*
X61000000Y-106901000D01*
X61000000Y-102566323D01*
X61018907Y-102508132D01*
X61068407Y-102472168D01*
X61129593Y-102472168D01*
X61148500Y-102480587D01*
X61247911Y-102537982D01*
X61247912Y-102537982D01*
X61247915Y-102537984D01*
X61387925Y-102575500D01*
X61387926Y-102575500D01*
X61532874Y-102575500D01*
X61532875Y-102575500D01*
X61672885Y-102537984D01*
X61672887Y-102537982D01*
X61672889Y-102537982D01*
X61798410Y-102465512D01*
X61798410Y-102465511D01*
X61798415Y-102465509D01*
X61900909Y-102363015D01*
X61973384Y-102237485D01*
X62010900Y-102097475D01*
X62010900Y-101952525D01*
X61973384Y-101812515D01*
X61973382Y-101812512D01*
X61973382Y-101812510D01*
X61900912Y-101686989D01*
X61900910Y-101686987D01*
X61900909Y-101686985D01*
X61798415Y-101584491D01*
X61798412Y-101584489D01*
X61798410Y-101584487D01*
X61672888Y-101512017D01*
X61672889Y-101512017D01*
X61643296Y-101504087D01*
X61532875Y-101474500D01*
X61387925Y-101474500D01*
X61353680Y-101483676D01*
X61247913Y-101512016D01*
X61148500Y-101569413D01*
X61088651Y-101582134D01*
X61032756Y-101557247D01*
X61002163Y-101504259D01*
X61000000Y-101483676D01*
X61000000Y-97587631D01*
X61018907Y-97529440D01*
X61028996Y-97517627D01*
X61032712Y-97513910D01*
X61032715Y-97513909D01*
X61135209Y-97411415D01*
X61157408Y-97372965D01*
X61207682Y-97285889D01*
X61207682Y-97285887D01*
X61207684Y-97285885D01*
X61245200Y-97145875D01*
X61245200Y-97099000D01*
X61264107Y-97040809D01*
X61313607Y-97004845D01*
X61344200Y-97000000D01*
X69901000Y-97000000D01*
X69959191Y-97018907D01*
G37*
%TD.AperFunction*%
%TD*%
%TA.AperFunction,Conductor*%
%TO.N,/04 / PROTECTED CURRENT INPUT/AI_LIMIT_OUT*%
G36*
X105286146Y-99018907D02*
G01*
X105297959Y-99028996D01*
X105395504Y-99126541D01*
X105423281Y-99181058D01*
X105424500Y-99196545D01*
X105424500Y-104018968D01*
X105405593Y-104077159D01*
X105395504Y-104088971D01*
X105359492Y-104124983D01*
X105359487Y-104124989D01*
X105287017Y-104250510D01*
X105249500Y-104390525D01*
X105249500Y-104535474D01*
X105287017Y-104675489D01*
X105359487Y-104801010D01*
X105359489Y-104801012D01*
X105359491Y-104801015D01*
X105461985Y-104903509D01*
X105461987Y-104903510D01*
X105461989Y-104903512D01*
X105587511Y-104975982D01*
X105587512Y-104975982D01*
X105587515Y-104975984D01*
X105727525Y-105013500D01*
X105727526Y-105013500D01*
X105872475Y-105013500D01*
X105875375Y-105012723D01*
X105877522Y-105012835D01*
X105878909Y-105012653D01*
X105878942Y-105012909D01*
X105936477Y-105015924D01*
X105984027Y-105054428D01*
X106000000Y-105108349D01*
X106000000Y-111353469D01*
X105981093Y-111411660D01*
X105931593Y-111447624D01*
X105870407Y-111447624D01*
X105830998Y-111423474D01*
X105774015Y-111366491D01*
X105774012Y-111366489D01*
X105774010Y-111366487D01*
X105648488Y-111294017D01*
X105648489Y-111294017D01*
X105618896Y-111286087D01*
X105508475Y-111256500D01*
X105363525Y-111256500D01*
X105301790Y-111273041D01*
X105223510Y-111294017D01*
X105097989Y-111366487D01*
X104995487Y-111468989D01*
X104923017Y-111594510D01*
X104885500Y-111734525D01*
X104885500Y-111879474D01*
X104923017Y-112019489D01*
X104995487Y-112145010D01*
X104995489Y-112145012D01*
X104995491Y-112145015D01*
X105097985Y-112247509D01*
X105097987Y-112247510D01*
X105097989Y-112247512D01*
X105223511Y-112319982D01*
X105223512Y-112319982D01*
X105223515Y-112319984D01*
X105363525Y-112357500D01*
X105363526Y-112357500D01*
X105508474Y-112357500D01*
X105508475Y-112357500D01*
X105648485Y-112319984D01*
X105648487Y-112319982D01*
X105648489Y-112319982D01*
X105774010Y-112247512D01*
X105774010Y-112247511D01*
X105774015Y-112247509D01*
X105830998Y-112190525D01*
X105885513Y-112162750D01*
X105945945Y-112172321D01*
X105989210Y-112215586D01*
X106000000Y-112260531D01*
X106000000Y-115550525D01*
X105981093Y-115608716D01*
X105931593Y-115644680D01*
X105900525Y-115648766D01*
X105900525Y-115649500D01*
X105897874Y-115649500D01*
X104102126Y-115649500D01*
X104077635Y-115652133D01*
X104042521Y-115655908D01*
X104042510Y-115655910D01*
X103907670Y-115706202D01*
X103792455Y-115792451D01*
X103792451Y-115792455D01*
X103706204Y-115907668D01*
X103706204Y-115907669D01*
X103695787Y-115935596D01*
X103657739Y-115983510D01*
X103603030Y-116000000D01*
X94099000Y-116000000D01*
X94040809Y-115981093D01*
X94004845Y-115931593D01*
X94000000Y-115901000D01*
X94000000Y-101464525D01*
X101849500Y-101464525D01*
X101849500Y-101609474D01*
X101887017Y-101749489D01*
X101959487Y-101875010D01*
X101959489Y-101875012D01*
X101959491Y-101875015D01*
X102061985Y-101977509D01*
X102061987Y-101977510D01*
X102061989Y-101977512D01*
X102187511Y-102049982D01*
X102187512Y-102049982D01*
X102187515Y-102049984D01*
X102327525Y-102087500D01*
X102327526Y-102087500D01*
X102472474Y-102087500D01*
X102472475Y-102087500D01*
X102612485Y-102049984D01*
X102612487Y-102049982D01*
X102612489Y-102049982D01*
X102738010Y-101977512D01*
X102738010Y-101977511D01*
X102738015Y-101977509D01*
X102840509Y-101875015D01*
X102912984Y-101749485D01*
X102950500Y-101609475D01*
X102950500Y-101464525D01*
X102912984Y-101324515D01*
X102912982Y-101324512D01*
X102912982Y-101324510D01*
X102840512Y-101198989D01*
X102840510Y-101198987D01*
X102840509Y-101198985D01*
X102738015Y-101096491D01*
X102738012Y-101096489D01*
X102738010Y-101096487D01*
X102612488Y-101024017D01*
X102612489Y-101024017D01*
X102582896Y-101016087D01*
X102472475Y-100986500D01*
X102327525Y-100986500D01*
X102265790Y-101003041D01*
X102187510Y-101024017D01*
X102061989Y-101096487D01*
X101959487Y-101198989D01*
X101887017Y-101324510D01*
X101849500Y-101464525D01*
X94000000Y-101464525D01*
X94000000Y-99099000D01*
X94018907Y-99040809D01*
X94068407Y-99004845D01*
X94099000Y-99000000D01*
X105227955Y-99000000D01*
X105286146Y-99018907D01*
G37*
%TD.AperFunction*%
%TD*%
%TA.AperFunction,Conductor*%
%TO.N,/02 / POWER AND SENSOR SUPPLY/SENS_RAW*%
G36*
X91959191Y-100018907D02*
G01*
X91995155Y-100068407D01*
X92000000Y-100099000D01*
X92000000Y-123901000D01*
X91981093Y-123959191D01*
X91931593Y-123995155D01*
X91901000Y-124000000D01*
X90649500Y-124000000D01*
X90591309Y-123981093D01*
X90555345Y-123931593D01*
X90550500Y-123901000D01*
X90550499Y-121902133D01*
X90550499Y-121902128D01*
X90544091Y-121842517D01*
X90544089Y-121842511D01*
X90493797Y-121707670D01*
X90407549Y-121592458D01*
X90407548Y-121592457D01*
X90407546Y-121592454D01*
X90407541Y-121592450D01*
X90292329Y-121506202D01*
X90157488Y-121455910D01*
X90157483Y-121455909D01*
X90157481Y-121455908D01*
X90157477Y-121455908D01*
X90126249Y-121452550D01*
X90097873Y-121449500D01*
X90097870Y-121449500D01*
X87902133Y-121449500D01*
X87902129Y-121449500D01*
X87902128Y-121449501D01*
X87894949Y-121450272D01*
X87842519Y-121455908D01*
X87842514Y-121455909D01*
X87707670Y-121506202D01*
X87592458Y-121592450D01*
X87592450Y-121592458D01*
X87506202Y-121707670D01*
X87455910Y-121842511D01*
X87455908Y-121842522D01*
X87449500Y-121902129D01*
X87449501Y-123901000D01*
X87430594Y-123959191D01*
X87381094Y-123995155D01*
X87350501Y-124000000D01*
X77099000Y-124000000D01*
X77040809Y-123981093D01*
X77004845Y-123931593D01*
X77000000Y-123901000D01*
X77000000Y-112566965D01*
X77018907Y-112508774D01*
X77068407Y-112472810D01*
X77129593Y-112472810D01*
X77159273Y-112488428D01*
X77161982Y-112490506D01*
X77161985Y-112490509D01*
X77161987Y-112490510D01*
X77287511Y-112562982D01*
X77287512Y-112562982D01*
X77287515Y-112562984D01*
X77427525Y-112600500D01*
X77427526Y-112600500D01*
X77572474Y-112600500D01*
X77572475Y-112600500D01*
X77712485Y-112562984D01*
X77712487Y-112562982D01*
X77712489Y-112562982D01*
X77838010Y-112490512D01*
X77838010Y-112490511D01*
X77838015Y-112490509D01*
X77940509Y-112388015D01*
X78012984Y-112262485D01*
X78050500Y-112122475D01*
X78050500Y-111977525D01*
X78012984Y-111837515D01*
X78012982Y-111837512D01*
X78012982Y-111837510D01*
X77940512Y-111711989D01*
X77940510Y-111711987D01*
X77940509Y-111711985D01*
X77838015Y-111609491D01*
X77838012Y-111609489D01*
X77838010Y-111609487D01*
X77712488Y-111537017D01*
X77712489Y-111537017D01*
X77682896Y-111529087D01*
X77572475Y-111499500D01*
X77427525Y-111499500D01*
X77365790Y-111516041D01*
X77287510Y-111537017D01*
X77161985Y-111609489D01*
X77159267Y-111611576D01*
X77156953Y-111612395D01*
X77156365Y-111612735D01*
X77156302Y-111612625D01*
X77101591Y-111632000D01*
X77042926Y-111614622D01*
X77005678Y-111566081D01*
X77000000Y-111533034D01*
X77000000Y-106649500D01*
X77018907Y-106591309D01*
X77068407Y-106555345D01*
X77099000Y-106550500D01*
X77172474Y-106550500D01*
X77172475Y-106550500D01*
X77312485Y-106512984D01*
X77312487Y-106512982D01*
X77312489Y-106512982D01*
X77438010Y-106440512D01*
X77438010Y-106440511D01*
X77438015Y-106440509D01*
X77540509Y-106338015D01*
X77612984Y-106212485D01*
X77650500Y-106072475D01*
X77650500Y-105927525D01*
X77612984Y-105787515D01*
X77612982Y-105787512D01*
X77612982Y-105787510D01*
X77540512Y-105661989D01*
X77540510Y-105661987D01*
X77540509Y-105661985D01*
X77438015Y-105559491D01*
X77438012Y-105559489D01*
X77438010Y-105559487D01*
X77312488Y-105487017D01*
X77312489Y-105487017D01*
X77282896Y-105479087D01*
X77172475Y-105449500D01*
X77099000Y-105449500D01*
X77040809Y-105430593D01*
X77004845Y-105381093D01*
X77000000Y-105350500D01*
X77000000Y-100099000D01*
X77018907Y-100040809D01*
X77068407Y-100004845D01*
X77099000Y-100000000D01*
X91901000Y-100000000D01*
X91959191Y-100018907D01*
G37*
%TD.AperFunction*%
%TD*%
M02*
