%TF.GenerationSoftware,KiCad,Pcbnew,9.0.7*%
%TF.CreationDate,2026-09-07T13:16:34+02:00*%
%TF.ProjectId,chatgpt_astra_test2,63686174-6770-4745-9f61-737472615f74,rev?*%
%TF.SameCoordinates,Original*%
%TF.FileFunction,Copper,L1,Top*%
%TF.FilePolarity,Positive*%
%FSLAX46Y46*%
G04 Gerber Fmt 4.6, Leading zero omitted, Abs format (unit mm)*
G04 Created by KiCad (PCBNEW 9.0.7) date 2026-09-07 13:16:34*
%MOMM*%
%LPD*%
G01*
G04 APERTURE LIST*
G04 Aperture macros list*
%AMRoundRect*
0 Rectangle with rounded corners*
0 $1 Rounding radius*
0 $2 $3 $4 $5 $6 $7 $8 $9 X,Y pos of 4 corners*
0 Add a 4 corners polygon primitive as box body*
4,1,4,$2,$3,$4,$5,$6,$7,$8,$9,$2,$3,0*
0 Add four circle primitives for the rounded corners*
1,1,$1+$1,$2,$3*
1,1,$1+$1,$4,$5*
1,1,$1+$1,$6,$7*
1,1,$1+$1,$8,$9*
0 Add four rect primitives between the rounded corners*
20,1,$1+$1,$2,$3,$4,$5,0*
20,1,$1+$1,$4,$5,$6,$7,0*
20,1,$1+$1,$6,$7,$8,$9,0*
20,1,$1+$1,$8,$9,$2,$3,0*%
G04 Aperture macros list end*
%TA.AperFunction,SMDPad,CuDef*%
%ADD10RoundRect,0.250000X-0.262500X-0.450000X0.262500X-0.450000X0.262500X0.450000X-0.262500X0.450000X0*%
%TD*%
%TA.AperFunction,SMDPad,CuDef*%
%ADD11RoundRect,0.250000X0.450000X-0.262500X0.450000X0.262500X-0.450000X0.262500X-0.450000X-0.262500X0*%
%TD*%
%TA.AperFunction,SMDPad,CuDef*%
%ADD12RoundRect,0.250000X-0.250000X-0.475000X0.250000X-0.475000X0.250000X0.475000X-0.250000X0.475000X0*%
%TD*%
%TA.AperFunction,SMDPad,CuDef*%
%ADD13C,1.500000*%
%TD*%
%TA.AperFunction,SMDPad,CuDef*%
%ADD14RoundRect,0.250000X0.475000X-0.250000X0.475000X0.250000X-0.475000X0.250000X-0.475000X-0.250000X0*%
%TD*%
%TA.AperFunction,SMDPad,CuDef*%
%ADD15RoundRect,0.225000X0.375000X-0.225000X0.375000X0.225000X-0.375000X0.225000X-0.375000X-0.225000X0*%
%TD*%
%TA.AperFunction,SMDPad,CuDef*%
%ADD16RoundRect,0.100000X-0.637500X-0.100000X0.637500X-0.100000X0.637500X0.100000X-0.637500X0.100000X0*%
%TD*%
%TA.AperFunction,SMDPad,CuDef*%
%ADD17R,2.200000X0.500000*%
%TD*%
%TA.AperFunction,ComponentPad*%
%ADD18C,0.630000*%
%TD*%
%TA.AperFunction,SMDPad,CuDef*%
%ADD19R,2.950000X4.900000*%
%TD*%
%TA.AperFunction,ComponentPad*%
%ADD20R,1.700000X1.700000*%
%TD*%
%TA.AperFunction,ComponentPad*%
%ADD21C,1.700000*%
%TD*%
%TA.AperFunction,SMDPad,CuDef*%
%ADD22RoundRect,0.250000X0.625000X-0.312500X0.625000X0.312500X-0.625000X0.312500X-0.625000X-0.312500X0*%
%TD*%
%TA.AperFunction,SMDPad,CuDef*%
%ADD23RoundRect,0.250000X-1.000000X-0.900000X1.000000X-0.900000X1.000000X0.900000X-1.000000X0.900000X0*%
%TD*%
%TA.AperFunction,SMDPad,CuDef*%
%ADD24R,1.100000X0.250000*%
%TD*%
%TA.AperFunction,SMDPad,CuDef*%
%ADD25RoundRect,0.250000X1.100000X-0.325000X1.100000X0.325000X-1.100000X0.325000X-1.100000X-0.325000X0*%
%TD*%
%TA.AperFunction,SMDPad,CuDef*%
%ADD26RoundRect,0.250000X-1.000000X-0.650000X1.000000X-0.650000X1.000000X0.650000X-1.000000X0.650000X0*%
%TD*%
%TA.AperFunction,SMDPad,CuDef*%
%ADD27RoundRect,0.225000X-0.225000X-0.375000X0.225000X-0.375000X0.225000X0.375000X-0.225000X0.375000X0*%
%TD*%
%TA.AperFunction,SMDPad,CuDef*%
%ADD28RoundRect,0.250000X0.650000X-0.325000X0.650000X0.325000X-0.650000X0.325000X-0.650000X-0.325000X0*%
%TD*%
%TA.AperFunction,ComponentPad*%
%ADD29RoundRect,0.249999X-0.850001X-0.850001X0.850001X-0.850001X0.850001X0.850001X-0.850001X0.850001X0*%
%TD*%
%TA.AperFunction,ComponentPad*%
%ADD30C,2.200000*%
%TD*%
%TA.AperFunction,SMDPad,CuDef*%
%ADD31RoundRect,0.375000X-0.625000X-0.375000X0.625000X-0.375000X0.625000X0.375000X-0.625000X0.375000X0*%
%TD*%
%TA.AperFunction,SMDPad,CuDef*%
%ADD32RoundRect,0.500000X-0.500000X-1.400000X0.500000X-1.400000X0.500000X1.400000X-0.500000X1.400000X0*%
%TD*%
%TA.AperFunction,SMDPad,CuDef*%
%ADD33R,1.500000X0.900000*%
%TD*%
%TA.AperFunction,SMDPad,CuDef*%
%ADD34R,0.900000X1.500000*%
%TD*%
%TA.AperFunction,HeatsinkPad*%
%ADD35C,0.600000*%
%TD*%
%TA.AperFunction,HeatsinkPad*%
%ADD36R,3.900000X3.900000*%
%TD*%
%TA.AperFunction,SMDPad,CuDef*%
%ADD37RoundRect,0.250000X0.625000X-0.375000X0.625000X0.375000X-0.625000X0.375000X-0.625000X-0.375000X0*%
%TD*%
%TA.AperFunction,ComponentPad*%
%ADD38RoundRect,0.250000X-1.050000X-1.050000X1.050000X-1.050000X1.050000X1.050000X-1.050000X1.050000X0*%
%TD*%
%TA.AperFunction,ComponentPad*%
%ADD39C,2.600000*%
%TD*%
%TA.AperFunction,SMDPad,CuDef*%
%ADD40R,0.600000X1.450000*%
%TD*%
%TA.AperFunction,SMDPad,CuDef*%
%ADD41R,0.300000X1.450000*%
%TD*%
%TA.AperFunction,HeatsinkPad*%
%ADD42O,1.000000X2.100000*%
%TD*%
%TA.AperFunction,HeatsinkPad*%
%ADD43O,1.000000X1.600000*%
%TD*%
%TA.AperFunction,SMDPad,CuDef*%
%ADD44RoundRect,0.075000X-0.650000X-0.075000X0.650000X-0.075000X0.650000X0.075000X-0.650000X0.075000X0*%
%TD*%
%TA.AperFunction,ComponentPad*%
%ADD45R,1.905000X2.000000*%
%TD*%
%TA.AperFunction,ComponentPad*%
%ADD46O,1.905000X2.000000*%
%TD*%
%TA.AperFunction,SMDPad,CuDef*%
%ADD47RoundRect,0.243750X-0.243750X-0.456250X0.243750X-0.456250X0.243750X0.456250X-0.243750X0.456250X0*%
%TD*%
%TA.AperFunction,SMDPad,CuDef*%
%ADD48R,1.700000X1.000000*%
%TD*%
%TA.AperFunction,HeatsinkPad*%
%ADD49R,2.200000X3.100000*%
%TD*%
%TA.AperFunction,SMDPad,CuDef*%
%ADD50RoundRect,0.250000X-0.312500X-0.625000X0.312500X-0.625000X0.312500X0.625000X-0.312500X0.625000X0*%
%TD*%
%TA.AperFunction,SMDPad,CuDef*%
%ADD51RoundRect,0.250000X0.900000X-1.000000X0.900000X1.000000X-0.900000X1.000000X-0.900000X-1.000000X0*%
%TD*%
%TA.AperFunction,SMDPad,CuDef*%
%ADD52RoundRect,0.150000X-0.512500X-0.150000X0.512500X-0.150000X0.512500X0.150000X-0.512500X0.150000X0*%
%TD*%
%TA.AperFunction,SMDPad,CuDef*%
%ADD53RoundRect,0.100000X-0.687500X-0.100000X0.687500X-0.100000X0.687500X0.100000X-0.687500X0.100000X0*%
%TD*%
%TA.AperFunction,HeatsinkPad*%
%ADD54R,3.400000X5.000000*%
%TD*%
%TA.AperFunction,SMDPad,CuDef*%
%ADD55RoundRect,0.150000X-0.587500X-0.150000X0.587500X-0.150000X0.587500X0.150000X-0.587500X0.150000X0*%
%TD*%
%TA.AperFunction,SMDPad,CuDef*%
%ADD56R,2.350000X5.100000*%
%TD*%
%TA.AperFunction,ViaPad*%
%ADD57C,0.600000*%
%TD*%
%TA.AperFunction,ViaPad*%
%ADD58C,0.500000*%
%TD*%
%TA.AperFunction,Conductor*%
%ADD59C,0.300000*%
%TD*%
%TA.AperFunction,Conductor*%
%ADD60C,0.250000*%
%TD*%
%TA.AperFunction,Conductor*%
%ADD61C,0.600000*%
%TD*%
%TA.AperFunction,Conductor*%
%ADD62C,0.150000*%
%TD*%
%TA.AperFunction,Conductor*%
%ADD63C,0.750000*%
%TD*%
%TA.AperFunction,Conductor*%
%ADD64C,0.400600*%
%TD*%
%TA.AperFunction,Conductor*%
%ADD65C,0.200000*%
%TD*%
%TA.AperFunction,Conductor*%
%ADD66C,0.450000*%
%TD*%
%TA.AperFunction,Conductor*%
%ADD67C,0.800000*%
%TD*%
%TA.AperFunction,Conductor*%
%ADD68C,0.249800*%
%TD*%
G04 APERTURE END LIST*
D10*
%TO.P,R21,1*%
%TO.N,/04 / PROTECTED CURRENT INPUT/AI_LIMIT_OUT*%
X98087500Y-100000000D03*
%TO.P,R21,2*%
%TO.N,/04 / PROTECTED CURRENT INPUT/AI_SHUNT*%
X99912500Y-100000000D03*
%TD*%
D11*
%TO.P,R1,1*%
%TO.N,/02 / POWER AND SENSOR SUPPLY/VIN_FUSED*%
X59000000Y-98912500D03*
%TO.P,R1,2*%
%TO.N,/02 / POWER AND SENSOR SUPPLY/EF_UV*%
X59000000Y-97087500D03*
%TD*%
D12*
%TO.P,C2,1*%
%TO.N,/02 / POWER AND SENSOR SUPPLY/EF_DVDT*%
X73050000Y-101000000D03*
%TO.P,C2,2*%
%TO.N,/02 / POWER AND SENSOR SUPPLY/EF_RTN*%
X74950000Y-101000000D03*
%TD*%
D13*
%TO.P,TP1,1*%
%TO.N,/04 / PROTECTED CURRENT INPUT/AI_SHUNT*%
X108000000Y-107000000D03*
%TD*%
D14*
%TO.P,C1,1*%
%TO.N,/02 / POWER AND SENSOR SUPPLY/VIN_FUSED*%
X76000000Y-113950000D03*
%TO.P,C1,2*%
%TO.N,GND*%
X76000000Y-112050000D03*
%TD*%
D15*
%TO.P,D7,1*%
%TO.N,/04 / PROTECTED CURRENT INPUT/AI_CLAMP*%
X113000000Y-97650000D03*
%TO.P,D7,2*%
%TO.N,GND*%
X113000000Y-94350000D03*
%TD*%
D14*
%TO.P,C21,1*%
%TO.N,/05 / PRECISION CURRENT OUTPUT/DAC_REF*%
X126000000Y-89950000D03*
%TO.P,C21,2*%
%TO.N,GND*%
X126000000Y-88050000D03*
%TD*%
D16*
%TO.P,U9,1*%
%TO.N,SYS_OK*%
X99137500Y-87050000D03*
%TO.P,U9,2*%
%TO.N,/04 / PROTECTED CURRENT INPUT/AI_CLAMP*%
X99137500Y-87700000D03*
%TO.P,U9,3*%
%TO.N,/04 / PROTECTED CURRENT INPUT/AI_ADC*%
X99137500Y-88350000D03*
%TO.P,U9,4*%
%TO.N,GND*%
X99137500Y-89000000D03*
%TO.P,U9,5*%
X99137500Y-89650000D03*
%TO.P,U9,6*%
%TO.N,unconnected-(U9-D2-Pad6)*%
X99137500Y-90300000D03*
%TO.P,U9,7*%
%TO.N,GND*%
X99137500Y-90950000D03*
%TO.P,U9,8*%
%TO.N,unconnected-(U9-D3-Pad8)*%
X104862500Y-90950000D03*
%TO.P,U9,9*%
%TO.N,GND*%
X104862500Y-90300000D03*
%TO.P,U9,10*%
X104862500Y-89650000D03*
%TO.P,U9,11*%
%TO.N,unconnected-(U9-D4-Pad11)*%
X104862500Y-89000000D03*
%TO.P,U9,12*%
%TO.N,GND*%
X104862500Y-88350000D03*
%TO.P,U9,13*%
X104862500Y-87700000D03*
%TO.P,U9,14*%
%TO.N,V3V3*%
X104862500Y-87050000D03*
%TD*%
D10*
%TO.P,R14,1*%
%TO.N,/03 / ESP32 AND USB/LED_STATUS*%
X63087500Y-60000000D03*
%TO.P,R14,2*%
%TO.N,/03 / ESP32 AND USB/LED_A*%
X64912500Y-60000000D03*
%TD*%
D17*
%TO.P,U2,1*%
%TO.N,GND*%
X64125000Y-83095000D03*
%TO.P,U2,2*%
%TO.N,V24_PROT*%
X64125000Y-84365000D03*
%TO.P,U2,3*%
X64125000Y-85635000D03*
%TO.P,U2,4*%
%TO.N,unconnected-(U2-PG-Pad4)*%
X64125000Y-86905000D03*
%TO.P,U2,5*%
%TO.N,/02 / POWER AND SENSOR SUPPLY/BUCK_FB*%
X69875000Y-86905000D03*
%TO.P,U2,6*%
%TO.N,/02 / POWER AND SENSOR SUPPLY/BUCK_VCC*%
X69875000Y-85635000D03*
%TO.P,U2,7*%
%TO.N,/02 / POWER AND SENSOR SUPPLY/BUCK_BOOT*%
X69875000Y-84365000D03*
%TO.P,U2,8*%
%TO.N,/02 / POWER AND SENSOR SUPPLY/BUCK_SW*%
X69875000Y-83095000D03*
D18*
%TO.P,U2,9*%
%TO.N,GND*%
X66350000Y-83700000D03*
X66350000Y-85000000D03*
X66350000Y-86300000D03*
D19*
X67000000Y-85000000D03*
D18*
X67650000Y-83700000D03*
X67650000Y-85000000D03*
X67650000Y-86300000D03*
%TD*%
D11*
%TO.P,R4,1*%
%TO.N,/02 / POWER AND SENSOR SUPPLY/EF_OV*%
X55000000Y-108912500D03*
%TO.P,R4,2*%
%TO.N,/02 / POWER AND SENSOR SUPPLY/EF_RTN*%
X55000000Y-107087500D03*
%TD*%
D20*
%TO.P,J5,1*%
%TO.N,GND*%
X141000000Y-75000000D03*
D21*
%TO.P,J5,2*%
%TO.N,/03 / ESP32 AND USB/UART_TX*%
X141000000Y-77540000D03*
%TO.P,J5,3*%
%TO.N,/03 / ESP32 AND USB/UART_RX*%
X141000000Y-80080000D03*
%TO.P,J5,4*%
%TO.N,V3V3*%
X141000000Y-82620000D03*
%TD*%
D22*
%TO.P,R22,1*%
%TO.N,/04 / PROTECTED CURRENT INPUT/AI_SHUNT*%
X104000000Y-104462500D03*
%TO.P,R22,2*%
%TO.N,GND*%
X104000000Y-101537500D03*
%TD*%
D23*
%TO.P,D1,1*%
%TO.N,/02 / POWER AND SENSOR SUPPLY/VIN_FUSED*%
X67850000Y-114000000D03*
%TO.P,D1,2*%
%TO.N,GND*%
X72150000Y-114000000D03*
%TD*%
D14*
%TO.P,C18,1*%
%TO.N,V3V3*%
X104000000Y-78950000D03*
%TO.P,C18,2*%
%TO.N,GND*%
X104000000Y-77050000D03*
%TD*%
D24*
%TO.P,U10,1*%
%TO.N,GND*%
X106850000Y-82000000D03*
%TO.P,U10,2*%
%TO.N,ADC_RDY*%
X106850000Y-82500000D03*
%TO.P,U10,3*%
%TO.N,GND*%
X106850000Y-83000000D03*
%TO.P,U10,4*%
%TO.N,/04 / PROTECTED CURRENT INPUT/AI_ADC*%
X106850000Y-83500000D03*
%TO.P,U10,5*%
%TO.N,GND*%
X106850000Y-84000000D03*
%TO.P,U10,6*%
X111150000Y-84000000D03*
%TO.P,U10,7*%
X111150000Y-83500000D03*
%TO.P,U10,8*%
%TO.N,V3V3*%
X111150000Y-83000000D03*
%TO.P,U10,9*%
%TO.N,I2C_SDA*%
X111150000Y-82500000D03*
%TO.P,U10,10*%
%TO.N,I2C_SCL*%
X111150000Y-82000000D03*
%TD*%
D25*
%TO.P,C4,1*%
%TO.N,V24_PROT*%
X58500000Y-83475000D03*
%TO.P,C4,2*%
%TO.N,GND*%
X58500000Y-80525000D03*
%TD*%
D11*
%TO.P,R24,1*%
%TO.N,V3V3*%
X111000000Y-76912500D03*
%TO.P,R24,2*%
%TO.N,ADC_RDY*%
X111000000Y-75087500D03*
%TD*%
D10*
%TO.P,R7,1*%
%TO.N,/02 / POWER AND SENSOR SUPPLY/BUCK_FB*%
X73087500Y-94000000D03*
%TO.P,R7,2*%
%TO.N,GND*%
X74912500Y-94000000D03*
%TD*%
D13*
%TO.P,TP2,1*%
%TO.N,/04 / PROTECTED CURRENT INPUT/AI_ADC*%
X110000000Y-91000000D03*
%TD*%
D26*
%TO.P,D2,1*%
%TO.N,V24_PROT*%
X72000000Y-106000000D03*
%TO.P,D2,2*%
%TO.N,GND*%
X76000000Y-106000000D03*
%TD*%
D27*
%TO.P,D8,1*%
%TO.N,AO_OUT*%
X128350000Y-114000000D03*
%TO.P,D8,2*%
%TO.N,/05 / PRECISION CURRENT OUTPUT/AO_FILTER*%
X131650000Y-114000000D03*
%TD*%
D28*
%TO.P,C8,1*%
%TO.N,V3V3*%
X83000000Y-80475000D03*
%TO.P,C8,2*%
%TO.N,GND*%
X83000000Y-77525000D03*
%TD*%
D14*
%TO.P,C23,1*%
%TO.N,V24_PROT*%
X128000000Y-107950000D03*
%TO.P,C23,2*%
%TO.N,GND*%
X128000000Y-106050000D03*
%TD*%
%TO.P,C20,1*%
%TO.N,V3V3*%
X115500000Y-92950000D03*
%TO.P,C20,2*%
%TO.N,GND*%
X115500000Y-91050000D03*
%TD*%
D29*
%TO.P,D6,1*%
%TO.N,/04 / PROTECTED CURRENT INPUT/AI_PROT*%
X105000000Y-117000000D03*
D30*
%TO.P,D6,2*%
%TO.N,GND*%
X115160000Y-117000000D03*
%TD*%
D31*
%TO.P,U7,1*%
%TO.N,/04 / PROTECTED CURRENT INPUT/AI_SET*%
X92850000Y-103700000D03*
%TO.P,U7,2*%
%TO.N,/04 / PROTECTED CURRENT INPUT/AI_LIMIT_OUT*%
X92850000Y-106000000D03*
D32*
X99150000Y-106000000D03*
D31*
%TO.P,U7,3*%
%TO.N,/04 / PROTECTED CURRENT INPUT/AI_PROT*%
X92850000Y-108300000D03*
%TD*%
D14*
%TO.P,C19,1*%
%TO.N,V3V3*%
X115500000Y-88950000D03*
%TO.P,C19,2*%
%TO.N,GND*%
X115500000Y-87050000D03*
%TD*%
D10*
%TO.P,R11,1*%
%TO.N,V3V3*%
X113087500Y-73000000D03*
%TO.P,R11,2*%
%TO.N,/03 / ESP32 AND USB/BOOT_N*%
X114912500Y-73000000D03*
%TD*%
%TO.P,R6,1*%
%TO.N,V3V3*%
X73087500Y-91000000D03*
%TO.P,R6,2*%
%TO.N,/02 / POWER AND SENSOR SUPPLY/BUCK_FB*%
X74912500Y-91000000D03*
%TD*%
D33*
%TO.P,U4,1*%
%TO.N,GND*%
X116250000Y-51440000D03*
%TO.P,U4,2*%
%TO.N,V3V3*%
X116250000Y-52710000D03*
%TO.P,U4,3*%
%TO.N,/03 / ESP32 AND USB/ESP_EN*%
X116250000Y-53980000D03*
%TO.P,U4,4*%
%TO.N,unconnected-(U4-IO4-Pad4)*%
X116250000Y-55250000D03*
%TO.P,U4,5*%
%TO.N,unconnected-(U4-IO5-Pad5)*%
X116250000Y-56520000D03*
%TO.P,U4,6*%
%TO.N,unconnected-(U4-IO6-Pad6)*%
X116250000Y-57790000D03*
%TO.P,U4,7*%
%TO.N,unconnected-(U4-IO7-Pad7)*%
X116250000Y-59060000D03*
%TO.P,U4,8*%
%TO.N,unconnected-(U4-IO15-Pad8)*%
X116250000Y-60330000D03*
%TO.P,U4,9*%
%TO.N,unconnected-(U4-IO16-Pad9)*%
X116250000Y-61600000D03*
%TO.P,U4,10*%
%TO.N,unconnected-(U4-IO17-Pad10)*%
X116250000Y-62870000D03*
%TO.P,U4,11*%
%TO.N,unconnected-(U4-IO18-Pad11)*%
X116250000Y-64140000D03*
%TO.P,U4,12*%
%TO.N,I2C_SDA*%
X116250000Y-65410000D03*
%TO.P,U4,13*%
%TO.N,/03 / ESP32 AND USB/USB_DM_MCU*%
X116250000Y-66680000D03*
%TO.P,U4,14*%
%TO.N,/03 / ESP32 AND USB/USB_DP_MCU*%
X116250000Y-67950000D03*
D34*
%TO.P,U4,15*%
%TO.N,unconnected-(U4-IO3-Pad15)*%
X118015000Y-69200000D03*
%TO.P,U4,16*%
%TO.N,unconnected-(U4-IO46-Pad16)*%
X119285000Y-69200000D03*
%TO.P,U4,17*%
%TO.N,I2C_SCL*%
X120555000Y-69200000D03*
%TO.P,U4,18*%
%TO.N,AO_ENABLE*%
X121825000Y-69200000D03*
%TO.P,U4,19*%
%TO.N,AO_FAULT_N*%
X123095000Y-69200000D03*
%TO.P,U4,20*%
%TO.N,ADC_RDY*%
X124365000Y-69200000D03*
%TO.P,U4,21*%
%TO.N,/03 / ESP32 AND USB/LED_STATUS*%
X125635000Y-69200000D03*
%TO.P,U4,22*%
%TO.N,unconnected-(U4-IO14-Pad22)*%
X126905000Y-69200000D03*
%TO.P,U4,23*%
%TO.N,unconnected-(U4-IO21-Pad23)*%
X128175000Y-69200000D03*
%TO.P,U4,24*%
%TO.N,unconnected-(U4-IO47-Pad24)*%
X129445000Y-69200000D03*
%TO.P,U4,25*%
%TO.N,unconnected-(U4-IO48-Pad25)*%
X130715000Y-69200000D03*
%TO.P,U4,26*%
%TO.N,unconnected-(U4-IO45-Pad26)*%
X131985000Y-69200000D03*
D33*
%TO.P,U4,27*%
%TO.N,/03 / ESP32 AND USB/BOOT_N*%
X133750000Y-67950000D03*
%TO.P,U4,28*%
%TO.N,unconnected-(U4-IO35-Pad28)*%
X133750000Y-66680000D03*
%TO.P,U4,29*%
%TO.N,unconnected-(U4-IO36-Pad29)*%
X133750000Y-65410000D03*
%TO.P,U4,30*%
%TO.N,unconnected-(U4-IO37-Pad30)*%
X133750000Y-64140000D03*
%TO.P,U4,31*%
%TO.N,unconnected-(U4-IO38-Pad31)*%
X133750000Y-62870000D03*
%TO.P,U4,32*%
%TO.N,unconnected-(U4-IO39-Pad32)*%
X133750000Y-61600000D03*
%TO.P,U4,33*%
%TO.N,unconnected-(U4-IO40-Pad33)*%
X133750000Y-60330000D03*
%TO.P,U4,34*%
%TO.N,unconnected-(U4-IO41-Pad34)*%
X133750000Y-59060000D03*
%TO.P,U4,35*%
%TO.N,unconnected-(U4-IO42-Pad35)*%
X133750000Y-57790000D03*
%TO.P,U4,36*%
%TO.N,/03 / ESP32 AND USB/UART_RX*%
X133750000Y-56520000D03*
%TO.P,U4,37*%
%TO.N,/03 / ESP32 AND USB/UART_TX*%
X133750000Y-55250000D03*
%TO.P,U4,38*%
%TO.N,unconnected-(U4-IO2-Pad38)*%
X133750000Y-53980000D03*
%TO.P,U4,39*%
%TO.N,unconnected-(U4-IO1-Pad39)*%
X133750000Y-52710000D03*
%TO.P,U4,40*%
%TO.N,GND*%
X133750000Y-51440000D03*
D35*
%TO.P,U4,41*%
X122100000Y-58460000D03*
X122100000Y-59860000D03*
X122800000Y-57760000D03*
X122800000Y-59160000D03*
X122800000Y-60560000D03*
X123500000Y-58460000D03*
D36*
X123500000Y-59160000D03*
D35*
X123500000Y-59860000D03*
X124200000Y-57760000D03*
X124200000Y-59160000D03*
X124200000Y-60560000D03*
X124900000Y-58460000D03*
X124900000Y-59860000D03*
%TD*%
D37*
%TO.P,F1,1*%
%TO.N,VIN24*%
X60000000Y-114400000D03*
%TO.P,F1,2*%
%TO.N,/02 / POWER AND SENSOR SUPPLY/VIN_FUSED*%
X60000000Y-111600000D03*
%TD*%
D38*
%TO.P,J1,1*%
%TO.N,VIN24*%
X63000000Y-123000000D03*
D39*
%TO.P,J1,2*%
%TO.N,GND*%
X68080000Y-123000000D03*
%TD*%
D10*
%TO.P,R25,1*%
%TO.N,/05 / PRECISION CURRENT OUTPUT/DAC_RAW*%
X121087500Y-96000000D03*
%TO.P,R25,2*%
%TO.N,/05 / PRECISION CURRENT OUTPUT/DAC_FILTER*%
X122912500Y-96000000D03*
%TD*%
D40*
%TO.P,J4,A1*%
%TO.N,GND*%
X98250000Y-58845000D03*
%TO.P,J4,A4*%
%TO.N,/03 / ESP32 AND USB/USB_VBUS*%
X97450000Y-58845000D03*
D41*
%TO.P,J4,A5*%
%TO.N,/03 / ESP32 AND USB/USB_CC1*%
X96250000Y-58845000D03*
%TO.P,J4,A6*%
%TO.N,/03 / ESP32 AND USB/USB_DP*%
X95250000Y-58845000D03*
%TO.P,J4,A7*%
%TO.N,/03 / ESP32 AND USB/USB_DM*%
X94750000Y-58845000D03*
%TO.P,J4,A8*%
%TO.N,unconnected-(J4-SBU1-PadA8)*%
X93750000Y-58845000D03*
D40*
%TO.P,J4,A9*%
%TO.N,/03 / ESP32 AND USB/USB_VBUS*%
X92550000Y-58845000D03*
%TO.P,J4,A12*%
%TO.N,GND*%
X91750000Y-58845000D03*
%TO.P,J4,B1*%
X91750000Y-58845000D03*
%TO.P,J4,B4*%
%TO.N,/03 / ESP32 AND USB/USB_VBUS*%
X92550000Y-58845000D03*
D41*
%TO.P,J4,B5*%
%TO.N,/03 / ESP32 AND USB/USB_CC2*%
X93250000Y-58845000D03*
%TO.P,J4,B6*%
%TO.N,/03 / ESP32 AND USB/USB_DP*%
X94250000Y-58845000D03*
%TO.P,J4,B7*%
%TO.N,/03 / ESP32 AND USB/USB_DM*%
X95750000Y-58845000D03*
%TO.P,J4,B8*%
%TO.N,unconnected-(J4-SBU2-PadB8)*%
X96750000Y-58845000D03*
D40*
%TO.P,J4,B9*%
%TO.N,/03 / ESP32 AND USB/USB_VBUS*%
X97450000Y-58845000D03*
%TO.P,J4,B12*%
%TO.N,GND*%
X98250000Y-58845000D03*
D42*
%TO.P,J4,S1*%
X99320000Y-57930000D03*
D43*
X99320000Y-53750000D03*
D42*
X90680000Y-57930000D03*
D43*
X90680000Y-53750000D03*
%TD*%
D38*
%TO.P,J3,1*%
%TO.N,AO_OUT*%
X130000000Y-123000000D03*
D39*
%TO.P,J3,2*%
%TO.N,GND*%
X135080000Y-123000000D03*
%TD*%
D11*
%TO.P,R26,1*%
%TO.N,/05 / PRECISION CURRENT OUTPUT/XTR_SET*%
X123000000Y-102912500D03*
%TO.P,R26,2*%
%TO.N,GND*%
X123000000Y-101087500D03*
%TD*%
%TO.P,R29,1*%
%TO.N,AO_ENABLE*%
X111000000Y-110912500D03*
%TO.P,R29,2*%
%TO.N,GND*%
X111000000Y-109087500D03*
%TD*%
D10*
%TO.P,R8,1*%
%TO.N,/02 / POWER AND SENSOR SUPPLY/SENS_SET*%
X80087500Y-113000000D03*
%TO.P,R8,2*%
%TO.N,SENSOR_PWR*%
X81912500Y-113000000D03*
%TD*%
D14*
%TO.P,C5,1*%
%TO.N,V24_PROT*%
X61500000Y-85310000D03*
%TO.P,C5,2*%
%TO.N,GND*%
X61500000Y-83410000D03*
%TD*%
D12*
%TO.P,C25,1*%
%TO.N,/05 / PRECISION CURRENT OUTPUT/AO_FILTER*%
X140050000Y-115000000D03*
%TO.P,C25,2*%
%TO.N,GND*%
X141950000Y-115000000D03*
%TD*%
%TO.P,C22,1*%
%TO.N,/05 / PRECISION CURRENT OUTPUT/DAC_FILTER*%
X121050000Y-99000000D03*
%TO.P,C22,2*%
%TO.N,GND*%
X122950000Y-99000000D03*
%TD*%
D11*
%TO.P,R3,1*%
%TO.N,/02 / POWER AND SENSOR SUPPLY/VIN_FUSED*%
X59000000Y-106912500D03*
%TO.P,R3,2*%
%TO.N,/02 / POWER AND SENSOR SUPPLY/EF_OV*%
X59000000Y-105087500D03*
%TD*%
D14*
%TO.P,C17,1*%
%TO.N,V3V3*%
X104000000Y-82950000D03*
%TO.P,C17,2*%
%TO.N,GND*%
X104000000Y-81050000D03*
%TD*%
%TO.P,C14,1*%
%TO.N,V3V3*%
X103800000Y-74350000D03*
%TO.P,C14,2*%
%TO.N,GND*%
X103800000Y-72450000D03*
%TD*%
D10*
%TO.P,R28,1*%
%TO.N,V3V3*%
X131087500Y-93000000D03*
%TO.P,R28,2*%
%TO.N,AO_FAULT_N*%
X132912500Y-93000000D03*
%TD*%
D44*
%TO.P,U11,1*%
%TO.N,V3V3*%
X118800000Y-89000000D03*
%TO.P,U11,2*%
%TO.N,/05 / PRECISION CURRENT OUTPUT/DAC_RAW*%
X118800000Y-89500000D03*
%TO.P,U11,3*%
%TO.N,unconnected-(U11-NC-Pad3)*%
X118800000Y-90000000D03*
%TO.P,U11,4*%
%TO.N,GND*%
X118800000Y-90500000D03*
%TO.P,U11,5*%
%TO.N,V3V3*%
X118800000Y-91000000D03*
%TO.P,U11,6*%
%TO.N,I2C_SCL*%
X123200000Y-91000000D03*
%TO.P,U11,7*%
%TO.N,V3V3*%
X123200000Y-90500000D03*
%TO.P,U11,8*%
%TO.N,I2C_SDA*%
X123200000Y-90000000D03*
%TO.P,U11,9*%
%TO.N,unconnected-(U11-NC-Pad9)*%
X123200000Y-89500000D03*
%TO.P,U11,10*%
%TO.N,/05 / PRECISION CURRENT OUTPUT/DAC_REF*%
X123200000Y-89000000D03*
%TD*%
D14*
%TO.P,C24,1*%
%TO.N,/05 / PRECISION CURRENT OUTPUT/XTR_REG*%
X123000000Y-109950000D03*
%TO.P,C24,2*%
%TO.N,GND*%
X123000000Y-108050000D03*
%TD*%
D45*
%TO.P,Q3,1*%
%TO.N,/05 / PRECISION CURRENT OUTPUT/XTR_GATE*%
X137000000Y-110000000D03*
D46*
%TO.P,Q3,2*%
%TO.N,/05 / PRECISION CURRENT OUTPUT/AO_DRAIN*%
X139540000Y-110000000D03*
%TO.P,Q3,3*%
%TO.N,/05 / PRECISION CURRENT OUTPUT/PMOS_SOURCE*%
X142080000Y-110000000D03*
%TD*%
D10*
%TO.P,R5,1*%
%TO.N,/02 / POWER AND SENSOR SUPPLY/EF_ILIM*%
X70087500Y-97000000D03*
%TO.P,R5,2*%
%TO.N,/02 / POWER AND SENSOR SUPPLY/EF_RTN*%
X71912500Y-97000000D03*
%TD*%
D47*
%TO.P,D4,1*%
%TO.N,GND*%
X63062500Y-56000000D03*
%TO.P,D4,2*%
%TO.N,/03 / ESP32 AND USB/LED_A*%
X64937500Y-56000000D03*
%TD*%
D14*
%TO.P,C11,1*%
%TO.N,V3V3*%
X111000000Y-54950000D03*
%TO.P,C11,2*%
%TO.N,GND*%
X111000000Y-53050000D03*
%TD*%
D10*
%TO.P,R12,1*%
%TO.N,V3V3*%
X115087500Y-78000000D03*
%TO.P,R12,2*%
%TO.N,I2C_SDA*%
X116912500Y-78000000D03*
%TD*%
D48*
%TO.P,SW1,1*%
%TO.N,/03 / ESP32 AND USB/ESP_EN*%
X80850000Y-54100000D03*
X87150000Y-54100000D03*
%TO.P,SW1,2*%
%TO.N,GND*%
X80850000Y-57900000D03*
X87150000Y-57900000D03*
%TD*%
%TO.P,SW2,1*%
%TO.N,/03 / ESP32 AND USB/BOOT_N*%
X70850000Y-54100000D03*
X77150000Y-54100000D03*
%TO.P,SW2,2*%
%TO.N,GND*%
X70850000Y-57900000D03*
X77150000Y-57900000D03*
%TD*%
D44*
%TO.P,U12,1*%
%TO.N,V24_PROT*%
X125850000Y-100000000D03*
%TO.P,U12,2*%
%TO.N,/05 / PRECISION CURRENT OUTPUT/XTR_IS*%
X125850000Y-100500000D03*
%TO.P,U12,3*%
%TO.N,/05 / PRECISION CURRENT OUTPUT/XTR_GATE*%
X125850000Y-101000000D03*
%TO.P,U12,4*%
%TO.N,/05 / PRECISION CURRENT OUTPUT/XTR_REG*%
X125850000Y-101500000D03*
%TO.P,U12,5*%
X125850000Y-102000000D03*
%TO.P,U12,6*%
%TO.N,/05 / PRECISION CURRENT OUTPUT/DAC_FILTER*%
X130150000Y-102000000D03*
%TO.P,U12,7*%
%TO.N,/05 / PRECISION CURRENT OUTPUT/XTR_SET*%
X130150000Y-101500000D03*
%TO.P,U12,8*%
%TO.N,AO_FAULT_N*%
X130150000Y-101000000D03*
%TO.P,U12,9*%
%TO.N,/05 / PRECISION CURRENT OUTPUT/XTR_OD*%
X130150000Y-100500000D03*
%TO.P,U12,10*%
%TO.N,GND*%
X130150000Y-100000000D03*
D35*
%TO.P,U12,11*%
X127350000Y-99700000D03*
X127350000Y-101000000D03*
X127350000Y-102300000D03*
D49*
X128000000Y-101000000D03*
D35*
X128650000Y-99700000D03*
X128650000Y-101000000D03*
X128650000Y-102300000D03*
%TD*%
D50*
%TO.P,R19,1*%
%TO.N,/04 / PROTECTED CURRENT INPUT/AI_DIODE*%
X95537500Y-113000000D03*
%TO.P,R19,2*%
%TO.N,/04 / PROTECTED CURRENT INPUT/AI_PROT*%
X98462500Y-113000000D03*
%TD*%
D10*
%TO.P,R31,1*%
%TO.N,/05 / PRECISION CURRENT OUTPUT/AO_DRAIN*%
X134087500Y-115000000D03*
%TO.P,R31,2*%
%TO.N,/05 / PRECISION CURRENT OUTPUT/AO_FILTER*%
X135912500Y-115000000D03*
%TD*%
D51*
%TO.P,D9,1*%
%TO.N,AO_OUT*%
X123000000Y-122150000D03*
%TO.P,D9,2*%
%TO.N,GND*%
X123000000Y-117850000D03*
%TD*%
D11*
%TO.P,R16,1*%
%TO.N,/03 / ESP32 AND USB/USB_CC2*%
X99500000Y-71412500D03*
%TO.P,R16,2*%
%TO.N,GND*%
X99500000Y-69587500D03*
%TD*%
D52*
%TO.P,U6,1*%
%TO.N,/03 / ESP32 AND USB/USB_DM*%
X93862500Y-63050000D03*
%TO.P,U6,2*%
%TO.N,GND*%
X93862500Y-64000000D03*
%TO.P,U6,3*%
%TO.N,/03 / ESP32 AND USB/USB_DP*%
X93862500Y-64950000D03*
%TO.P,U6,4*%
%TO.N,/03 / ESP32 AND USB/USB_DP_ESD*%
X96137500Y-64950000D03*
%TO.P,U6,5*%
%TO.N,/03 / ESP32 AND USB/USB_VBUS*%
X96137500Y-64000000D03*
%TO.P,U6,6*%
%TO.N,/03 / ESP32 AND USB/USB_DM_ESD*%
X96137500Y-63050000D03*
%TD*%
D10*
%TO.P,R13,1*%
%TO.N,V3V3*%
X115087500Y-82000000D03*
%TO.P,R13,2*%
%TO.N,I2C_SCL*%
X116912500Y-82000000D03*
%TD*%
D53*
%TO.P,U1,1*%
%TO.N,/02 / POWER AND SENSOR SUPPLY/VIN_FUSED*%
X63137500Y-100725000D03*
%TO.P,U1,2*%
X63137500Y-101375000D03*
%TO.P,U1,3*%
%TO.N,/02 / POWER AND SENSOR SUPPLY/EF_UV*%
X63137500Y-102025000D03*
%TO.P,U1,4*%
%TO.N,unconnected-(U1-NC-Pad4)*%
X63137500Y-102675000D03*
%TO.P,U1,5*%
%TO.N,/02 / POWER AND SENSOR SUPPLY/EF_OV*%
X63137500Y-103325000D03*
%TO.P,U1,6*%
%TO.N,/02 / POWER AND SENSOR SUPPLY/EF_RTN*%
X63137500Y-103975000D03*
%TO.P,U1,7*%
%TO.N,/02 / POWER AND SENSOR SUPPLY/VIN_FUSED*%
X63137500Y-104625000D03*
%TO.P,U1,8*%
%TO.N,/02 / POWER AND SENSOR SUPPLY/EF_RTN*%
X63137500Y-105275000D03*
%TO.P,U1,9*%
%TO.N,GND*%
X68862500Y-105275000D03*
%TO.P,U1,10*%
%TO.N,unconnected-(U1-IMON-Pad10)*%
X68862500Y-104625000D03*
%TO.P,U1,11*%
%TO.N,/02 / POWER AND SENSOR SUPPLY/EF_ILIM*%
X68862500Y-103975000D03*
%TO.P,U1,12*%
%TO.N,/02 / POWER AND SENSOR SUPPLY/EF_DVDT*%
X68862500Y-103325000D03*
%TO.P,U1,13*%
%TO.N,unconnected-(U1-NC-Pad13)*%
X68862500Y-102675000D03*
%TO.P,U1,14*%
%TO.N,unconnected-(U1-~{FLT}-Pad14)*%
X68862500Y-102025000D03*
%TO.P,U1,15*%
%TO.N,V24_PROT*%
X68862500Y-101375000D03*
%TO.P,U1,16*%
X68862500Y-100725000D03*
D35*
%TO.P,U1,17*%
%TO.N,/02 / POWER AND SENSOR SUPPLY/EF_RTN*%
X64800000Y-101200000D03*
X64800000Y-102400000D03*
X64800000Y-103600000D03*
X64800000Y-104800000D03*
X66000000Y-101200000D03*
X66000000Y-102400000D03*
D54*
X66000000Y-103000000D03*
D35*
X66000000Y-103600000D03*
X66000000Y-104800000D03*
X67200000Y-101200000D03*
X67200000Y-102400000D03*
X67200000Y-103600000D03*
X67200000Y-104800000D03*
%TD*%
D14*
%TO.P,C12,1*%
%TO.N,V3V3*%
X113000000Y-58950000D03*
%TO.P,C12,2*%
%TO.N,GND*%
X113000000Y-57050000D03*
%TD*%
D55*
%TO.P,U8,1*%
%TO.N,/04 / PROTECTED CURRENT INPUT/AI_CLAMP*%
X108062500Y-95050000D03*
%TO.P,U8,2*%
%TO.N,GND*%
X108062500Y-96950000D03*
%TO.P,U8,3*%
%TO.N,unconnected-(U8-NC-Pad3)*%
X109937500Y-96000000D03*
%TD*%
D10*
%TO.P,R20,1*%
%TO.N,/04 / PROTECTED CURRENT INPUT/AI_SET*%
X92087500Y-100000000D03*
%TO.P,R20,2*%
%TO.N,/04 / PROTECTED CURRENT INPUT/AI_SHUNT*%
X93912500Y-100000000D03*
%TD*%
D14*
%TO.P,C15,1*%
%TO.N,V3V3*%
X97000000Y-89950000D03*
%TO.P,C15,2*%
%TO.N,GND*%
X97000000Y-88050000D03*
%TD*%
D12*
%TO.P,C13,1*%
%TO.N,/03 / ESP32 AND USB/ESP_EN*%
X108050000Y-62000000D03*
%TO.P,C13,2*%
%TO.N,GND*%
X109950000Y-62000000D03*
%TD*%
D10*
%TO.P,R10,1*%
%TO.N,V3V3*%
X136087500Y-75000000D03*
%TO.P,R10,2*%
%TO.N,/03 / ESP32 AND USB/ESP_EN*%
X137912500Y-75000000D03*
%TD*%
D56*
%TO.P,L1,1*%
%TO.N,/02 / POWER AND SENSOR SUPPLY/BUCK_SW*%
X75925000Y-85000000D03*
%TO.P,L1,2*%
%TO.N,V3V3*%
X80075000Y-85000000D03*
%TD*%
D11*
%TO.P,R9,1*%
%TO.N,/02 / POWER AND SENSOR SUPPLY/SENS_RAW*%
X89000000Y-110912500D03*
%TO.P,R9,2*%
%TO.N,SENSOR_PWR*%
X89000000Y-109087500D03*
%TD*%
D31*
%TO.P,U3,1*%
%TO.N,/02 / POWER AND SENSOR SUPPLY/SENS_SET*%
X79850000Y-104700000D03*
%TO.P,U3,2*%
%TO.N,/02 / POWER AND SENSOR SUPPLY/SENS_RAW*%
X79850000Y-107000000D03*
D32*
X86150000Y-107000000D03*
D31*
%TO.P,U3,3*%
%TO.N,V24_PROT*%
X79850000Y-109300000D03*
%TD*%
D12*
%TO.P,C7,1*%
%TO.N,/02 / POWER AND SENSOR SUPPLY/BUCK_VCC*%
X68050000Y-90000000D03*
%TO.P,C7,2*%
%TO.N,GND*%
X69950000Y-90000000D03*
%TD*%
D11*
%TO.P,R2,1*%
%TO.N,/02 / POWER AND SENSOR SUPPLY/EF_UV*%
X59000000Y-102912500D03*
%TO.P,R2,2*%
%TO.N,/02 / POWER AND SENSOR SUPPLY/EF_RTN*%
X59000000Y-101087500D03*
%TD*%
%TO.P,R15,1*%
%TO.N,/03 / ESP32 AND USB/USB_CC1*%
X88000000Y-62912500D03*
%TO.P,R15,2*%
%TO.N,GND*%
X88000000Y-61087500D03*
%TD*%
D10*
%TO.P,R23,1*%
%TO.N,/04 / PROTECTED CURRENT INPUT/AI_SHUNT*%
X103087500Y-97000000D03*
%TO.P,R23,2*%
%TO.N,/04 / PROTECTED CURRENT INPUT/AI_CLAMP*%
X104912500Y-97000000D03*
%TD*%
D27*
%TO.P,D3,1*%
%TO.N,SYS_OK*%
X107350000Y-71800000D03*
%TO.P,D3,2*%
%TO.N,/03 / ESP32 AND USB/ESP_EN*%
X110650000Y-71800000D03*
%TD*%
D10*
%TO.P,R30,1*%
%TO.N,/05 / PRECISION CURRENT OUTPUT/XTR_IS*%
X136087500Y-99000000D03*
%TO.P,R30,2*%
%TO.N,/05 / PRECISION CURRENT OUTPUT/PMOS_SOURCE*%
X137912500Y-99000000D03*
%TD*%
D13*
%TO.P,TP3,1*%
%TO.N,/05 / PRECISION CURRENT OUTPUT/DAC_FILTER*%
X117000000Y-100000000D03*
%TD*%
D55*
%TO.P,U5,1*%
%TO.N,GND*%
X106062500Y-74050000D03*
%TO.P,U5,2*%
%TO.N,SYS_OK*%
X106062500Y-75950000D03*
%TO.P,U5,3*%
%TO.N,V3V3*%
X107937500Y-75000000D03*
%TD*%
D25*
%TO.P,C3,1*%
%TO.N,V24_PROT*%
X78000000Y-99475000D03*
%TO.P,C3,2*%
%TO.N,GND*%
X78000000Y-96525000D03*
%TD*%
D38*
%TO.P,J2,1*%
%TO.N,SENSOR_PWR*%
X89000000Y-123000000D03*
D39*
%TO.P,J2,2*%
%TO.N,AI_IN*%
X94080000Y-123000000D03*
%TO.P,J2,3*%
%TO.N,GND*%
X99160000Y-123000000D03*
%TD*%
D14*
%TO.P,C16,1*%
%TO.N,/04 / PROTECTED CURRENT INPUT/AI_ADC*%
X107000000Y-90950000D03*
%TO.P,C16,2*%
%TO.N,GND*%
X107000000Y-89050000D03*
%TD*%
D10*
%TO.P,R27,1*%
%TO.N,/05 / PRECISION CURRENT OUTPUT/XTR_REG*%
X132087500Y-97000000D03*
%TO.P,R27,2*%
%TO.N,/05 / PRECISION CURRENT OUTPUT/XTR_OD*%
X133912500Y-97000000D03*
%TD*%
%TO.P,R18,1*%
%TO.N,/03 / ESP32 AND USB/USB_DM_ESD*%
X111587500Y-65800000D03*
%TO.P,R18,2*%
%TO.N,/03 / ESP32 AND USB/USB_DM_MCU*%
X113412500Y-65800000D03*
%TD*%
D27*
%TO.P,D5,1*%
%TO.N,/04 / PROTECTED CURRENT INPUT/AI_DIODE*%
X90350000Y-113000000D03*
%TO.P,D5,2*%
%TO.N,AI_IN*%
X93650000Y-113000000D03*
%TD*%
D14*
%TO.P,C6,1*%
%TO.N,/02 / POWER AND SENSOR SUPPLY/BUCK_BOOT*%
X72500000Y-84680000D03*
%TO.P,C6,2*%
%TO.N,/02 / POWER AND SENSOR SUPPLY/BUCK_SW*%
X72500000Y-82780000D03*
%TD*%
D10*
%TO.P,R17,1*%
%TO.N,/03 / ESP32 AND USB/USB_DP_ESD*%
X111587500Y-68800000D03*
%TO.P,R17,2*%
%TO.N,/03 / ESP32 AND USB/USB_DP_MCU*%
X113412500Y-68800000D03*
%TD*%
D55*
%TO.P,Q2,1*%
%TO.N,SYS_OK*%
X114062500Y-111050000D03*
%TO.P,Q2,2*%
%TO.N,GND*%
X114062500Y-112950000D03*
%TO.P,Q2,3*%
%TO.N,/05 / PRECISION CURRENT OUTPUT/OD_MID*%
X115937500Y-112000000D03*
%TD*%
%TO.P,Q4,1*%
%TO.N,/05 / PRECISION CURRENT OUTPUT/PMOS_SOURCE*%
X133062500Y-102050000D03*
%TO.P,Q4,2*%
%TO.N,/05 / PRECISION CURRENT OUTPUT/XTR_IS*%
X133062500Y-103950000D03*
%TO.P,Q4,3*%
%TO.N,/05 / PRECISION CURRENT OUTPUT/XTR_GATE*%
X134937500Y-103000000D03*
%TD*%
D28*
%TO.P,C9,1*%
%TO.N,V3V3*%
X83000000Y-85475000D03*
%TO.P,C9,2*%
%TO.N,GND*%
X83000000Y-82525000D03*
%TD*%
%TO.P,C10,1*%
%TO.N,V3V3*%
X83000000Y-90475000D03*
%TO.P,C10,2*%
%TO.N,GND*%
X83000000Y-87525000D03*
%TD*%
D55*
%TO.P,Q1,1*%
%TO.N,AO_ENABLE*%
X114062500Y-106050000D03*
%TO.P,Q1,2*%
%TO.N,/05 / PRECISION CURRENT OUTPUT/OD_MID*%
X114062500Y-107950000D03*
%TO.P,Q1,3*%
%TO.N,/05 / PRECISION CURRENT OUTPUT/XTR_OD*%
X115937500Y-107000000D03*
%TD*%
D57*
%TO.N,/02 / POWER AND SENSOR SUPPLY/BUCK_FB*%
X76500000Y-90700000D03*
X71000000Y-87100000D03*
%TO.N,/02 / POWER AND SENSOR SUPPLY/EF_ILIM*%
X70500000Y-103975000D03*
X70087500Y-95700000D03*
%TO.N,/02 / POWER AND SENSOR SUPPLY/EF_OV*%
X58354200Y-108311000D03*
X59219500Y-104072000D03*
%TO.N,/02 / POWER AND SENSOR SUPPLY/EF_RTN*%
X72257500Y-98210200D03*
X60370600Y-101088000D03*
X74031100Y-101868000D03*
%TO.N,/02 / POWER AND SENSOR SUPPLY/EF_UV*%
X60694700Y-97073400D03*
X61460400Y-102025000D03*
%TO.N,/02 / POWER AND SENSOR SUPPLY/SENS_RAW*%
X88500000Y-105500000D03*
X88500000Y-104500000D03*
%TO.N,/03 / ESP32 AND USB/BOOT_N*%
X108847000Y-52578100D03*
X116555000Y-72878000D03*
%TO.N,/03 / ESP32 AND USB/ESP_EN*%
X115915400Y-74015400D03*
X112384400Y-70484400D03*
%TO.N,/03 / ESP32 AND USB/LED_STATUS*%
X67290800Y-64203200D03*
X125635000Y-67935800D03*
%TO.N,/03 / ESP32 AND USB/UART_RX*%
X135012000Y-56520000D03*
%TO.N,/03 / ESP32 AND USB/UART_TX*%
X135944000Y-55250000D03*
%TO.N,/03 / ESP32 AND USB/USB_CC2*%
X93437500Y-57589400D03*
X100041100Y-68194300D03*
D58*
%TO.N,/03 / ESP32 AND USB/USB_DM*%
X92400000Y-63225000D03*
X94750000Y-61100000D03*
X95750000Y-61100000D03*
%TO.N,/03 / ESP32 AND USB/USB_DP*%
X95250000Y-60300000D03*
X91600000Y-64950000D03*
X94250000Y-60300000D03*
D57*
%TO.N,/04 / PROTECTED CURRENT INPUT/AI_CLAMP*%
X100789000Y-87700000D03*
X102386000Y-95377100D03*
%TO.N,/04 / PROTECTED CURRENT INPUT/AI_LIMIT_OUT*%
X101500000Y-104700000D03*
X101500000Y-103700000D03*
%TO.N,/04 / PROTECTED CURRENT INPUT/AI_SHUNT*%
X101700000Y-97000000D03*
X105800000Y-104463000D03*
%TO.N,/05 / PRECISION CURRENT OUTPUT/XTR_GATE*%
X124764000Y-102456000D03*
%TO.N,/05 / PRECISION CURRENT OUTPUT/XTR_IS*%
X129692000Y-103889000D03*
X124600000Y-100400000D03*
%TO.N,/05 / PRECISION CURRENT OUTPUT/XTR_OD*%
X134032000Y-98203500D03*
X125282000Y-107000000D03*
X131600000Y-100500000D03*
%TO.N,/05 / PRECISION CURRENT OUTPUT/XTR_REG*%
X124133000Y-109296000D03*
X125758000Y-102653000D03*
X131187000Y-97900400D03*
%TO.N,/05 / PRECISION CURRENT OUTPUT/XTR_SET*%
X124000000Y-104000000D03*
X132000000Y-103000000D03*
%TO.N,AO_ENABLE*%
X121825000Y-70455800D03*
X114180000Y-105245000D03*
%TO.N,AO_FAULT_N*%
X133802000Y-92110800D03*
X123095000Y-70454600D03*
%TO.N,GND*%
X70900000Y-90000000D03*
X131500000Y-99300000D03*
X124000000Y-99800000D03*
X95500000Y-88050000D03*
X111000000Y-51700000D03*
X80850000Y-59200000D03*
X84300000Y-82525000D03*
X112500000Y-84000000D03*
X114200000Y-91050000D03*
X108062000Y-98200000D03*
D58*
X94800000Y-64000000D03*
D57*
X135200000Y-51440000D03*
X114200000Y-87050000D03*
X127300000Y-88050000D03*
D58*
X90800000Y-65200000D03*
D57*
X64000000Y-81900000D03*
X57000000Y-80525000D03*
X108400000Y-89050000D03*
X79500000Y-96525000D03*
D58*
X96800000Y-60600000D03*
D57*
X113000000Y-112950000D03*
X102600000Y-81050000D03*
X110500000Y-63200000D03*
D58*
X90800000Y-63800000D03*
D57*
X84300000Y-87525000D03*
X123000000Y-100100000D03*
X124700000Y-117850000D03*
X70000000Y-105275000D03*
X103500000Y-89650000D03*
X102400000Y-101537000D03*
X114500000Y-94350000D03*
X77100000Y-106000000D03*
X61500000Y-82000000D03*
X143400000Y-115000000D03*
X114300000Y-57050000D03*
X128000000Y-105000000D03*
X76000000Y-94000000D03*
X104000000Y-75900000D03*
X121600000Y-108050000D03*
X77500000Y-112050000D03*
X109700000Y-109088000D03*
X84300000Y-77525000D03*
%TO.N,I2C_SCL*%
X119157000Y-82000000D03*
X121481000Y-91000000D03*
X120485000Y-70455800D03*
%TO.N,I2C_SDA*%
X118327000Y-78148900D03*
X118259000Y-65410000D03*
%TO.N,SYS_OK*%
X105864400Y-75146200D03*
X99391100Y-86348900D03*
X105436000Y-111807000D03*
%TO.N,V24_PROT*%
X126086000Y-99340300D03*
X120362000Y-101526000D03*
%TO.N,V3V3*%
X110030000Y-55919600D03*
X111580100Y-77951600D03*
X113886000Y-89698100D03*
X113600000Y-82050000D03*
%TD*%
D59*
%TO.N,/02 / POWER AND SENSOR SUPPLY/BUCK_BOOT*%
X72185000Y-84365000D02*
X72500000Y-84680000D01*
X69875000Y-84365000D02*
X72185000Y-84365000D01*
D60*
%TO.N,/02 / POWER AND SENSOR SUPPLY/BUCK_FB*%
X73088000Y-92500000D02*
X73087500Y-94000000D01*
X75500000Y-92500000D02*
X73088000Y-92500000D01*
X75500000Y-91000000D02*
X75500000Y-92500000D01*
X76500000Y-90700000D02*
X74912500Y-91000000D01*
X69875000Y-86905000D02*
X71000000Y-87100000D01*
X74912500Y-91000000D02*
X75500000Y-91000000D01*
D61*
%TO.N,/02 / POWER AND SENSOR SUPPLY/BUCK_SW*%
X72185000Y-83095000D02*
X72500000Y-82780000D01*
X72500000Y-82780000D02*
X73705000Y-82780000D01*
X73705000Y-82780000D02*
X75925000Y-85000000D01*
X69875000Y-83095000D02*
X72185000Y-83095000D01*
D60*
%TO.N,/02 / POWER AND SENSOR SUPPLY/BUCK_VCC*%
X69875000Y-85635000D02*
X72000000Y-85635000D01*
X71300000Y-88300000D02*
X68050000Y-88300000D01*
X72000000Y-85635000D02*
X72000000Y-87600000D01*
X68050000Y-88300000D02*
X68050000Y-90000000D01*
X72000000Y-87600000D02*
X71300000Y-88300000D01*
%TO.N,/02 / POWER AND SENSOR SUPPLY/EF_DVDT*%
X70725000Y-103325000D02*
X68862500Y-103325000D01*
X73050000Y-101000000D02*
X70725000Y-103325000D01*
D62*
%TO.N,/02 / POWER AND SENSOR SUPPLY/EF_ILIM*%
X70087500Y-97000000D02*
X70087500Y-95700000D01*
X68862500Y-103975000D02*
X70500000Y-103975000D01*
D60*
%TO.N,/02 / POWER AND SENSOR SUPPLY/EF_OV*%
X58354200Y-108311000D02*
X55601100Y-108311000D01*
X59308800Y-104779000D02*
X59154400Y-104933500D01*
D62*
X59000000Y-105088000D02*
X59000200Y-105088000D01*
D60*
X63137500Y-103325000D02*
X60762500Y-103325000D01*
D62*
X59154400Y-104933500D02*
X59154000Y-104933500D01*
D60*
X59617600Y-104470000D02*
X59219500Y-104072000D01*
X60762500Y-103325000D02*
X59617600Y-104470000D01*
X59617600Y-104470000D02*
X59308800Y-104779000D01*
D62*
X59000200Y-105088000D02*
X59000000Y-105088000D01*
X59154000Y-104933500D02*
X59000000Y-105087500D01*
X59308800Y-104779000D02*
X59308500Y-104779000D01*
D60*
X55601100Y-108311000D02*
X55000000Y-108912000D01*
D62*
X55000000Y-108912500D02*
X55000000Y-108912000D01*
X59308500Y-104779000D02*
X59000200Y-105088000D01*
D60*
X59154400Y-104933500D02*
X59000000Y-105088000D01*
D62*
%TO.N,/02 / POWER AND SENSOR SUPPLY/EF_RTN*%
X64325000Y-105275000D02*
X63137500Y-105275000D01*
X64800000Y-104800000D02*
X66000000Y-104800000D01*
X58271400Y-98118000D02*
X61898500Y-98118000D01*
X55000000Y-101389000D02*
X58271400Y-98118000D01*
X66000000Y-103600000D02*
X66000000Y-103000000D01*
X64800000Y-101020000D02*
X64800000Y-101200000D01*
X55000000Y-107087500D02*
X55000000Y-101389000D01*
X55000000Y-107088000D02*
X55000000Y-107087500D01*
X66000000Y-103000000D02*
X66000000Y-102400000D01*
X71912500Y-97865200D02*
X71912500Y-97000000D01*
X72257500Y-98210200D02*
X71912500Y-97865200D01*
X74081700Y-101868000D02*
X74031100Y-101868000D01*
X64425000Y-103975000D02*
X63137500Y-103975000D01*
X64800000Y-103600000D02*
X64425000Y-103975000D01*
X67200000Y-104800000D02*
X66000000Y-104800000D01*
X64800000Y-103600000D02*
X66000000Y-103600000D01*
X59000500Y-101088000D02*
X59000000Y-101087500D01*
X64800000Y-104800000D02*
X64325000Y-105275000D01*
X59000500Y-101088000D02*
X59000000Y-101088000D01*
X74950000Y-101000000D02*
X74081700Y-101868000D01*
X60370600Y-101088000D02*
X59000500Y-101088000D01*
X61898500Y-98118000D02*
X64800000Y-101020000D01*
D60*
%TO.N,/02 / POWER AND SENSOR SUPPLY/EF_UV*%
X63137500Y-102025000D02*
X61460400Y-102025000D01*
X59014100Y-97073400D02*
X59000000Y-97087500D01*
D62*
X59000000Y-102912500D02*
X59000000Y-102912000D01*
D60*
X60694700Y-97073400D02*
X59014100Y-97073400D01*
X59887500Y-102025000D02*
X59000000Y-102912000D01*
X61460400Y-102025000D02*
X59887500Y-102025000D01*
%TO.N,/02 / POWER AND SENSOR SUPPLY/SENS_RAW*%
X89000000Y-110912000D02*
X90079500Y-109833000D01*
X90079500Y-108625000D02*
X88454100Y-107000000D01*
X90079500Y-109833000D02*
X90079500Y-108625000D01*
X79850000Y-107000000D02*
X86150000Y-107000000D01*
X88454100Y-107000000D02*
X86150000Y-107000000D01*
%TO.N,/02 / POWER AND SENSOR SUPPLY/SENS_SET*%
X81199800Y-111888000D02*
X80087500Y-113000000D01*
X80751100Y-108150000D02*
X81199800Y-108599000D01*
X78514400Y-107728000D02*
X78936600Y-108150000D01*
X78936600Y-108150000D02*
X80751100Y-108150000D01*
X79850000Y-104700000D02*
X78514400Y-106036000D01*
X81199800Y-108599000D02*
X81199800Y-111888000D01*
X78514400Y-106036000D02*
X78514400Y-107728000D01*
D63*
%TO.N,/02 / POWER AND SENSOR SUPPLY/VIN_FUSED*%
X59000000Y-98912500D02*
X57697700Y-100215000D01*
X57697700Y-100215000D02*
X57697700Y-105711000D01*
X67850000Y-114000000D02*
X65450000Y-111600000D01*
D62*
X59249500Y-107162000D02*
X59124800Y-107037000D01*
X59249500Y-107162000D02*
X59124800Y-107037000D01*
X60000000Y-107070000D02*
X60000000Y-107912000D01*
D63*
X61325000Y-98912500D02*
X59000000Y-98912500D01*
X76000000Y-113950000D02*
X74213500Y-115736000D01*
D62*
X62444800Y-104625000D02*
X60000000Y-107070000D01*
X59499500Y-107412000D02*
X59499000Y-107412000D01*
X63137500Y-104625000D02*
X62444800Y-104625000D01*
X59124800Y-107037000D02*
X59000000Y-106912000D01*
X59499000Y-107412000D02*
X59249500Y-107162000D01*
X59000000Y-106912500D02*
X59000000Y-106912000D01*
D63*
X69586500Y-115736000D02*
X67850000Y-114000000D01*
D64*
X63137500Y-101249000D02*
X63137500Y-101375000D01*
D63*
X58899400Y-106912000D02*
X59000000Y-106912000D01*
X59000000Y-106912000D02*
X59499500Y-107412000D01*
X65450000Y-111600000D02*
X60000000Y-111600000D01*
X74213500Y-115736000D02*
X69586500Y-115736000D01*
X63137500Y-101249000D02*
X63137500Y-100725000D01*
X59499500Y-107412000D02*
X60000000Y-107912000D01*
D62*
X59124800Y-107037000D02*
X59000000Y-106912000D01*
D63*
X63137500Y-100725000D02*
X61325000Y-98912500D01*
X57697700Y-105711000D02*
X58899400Y-106912000D01*
X60000000Y-107912000D02*
X60000000Y-111600000D01*
D60*
%TO.N,/03 / ESP32 AND USB/BOOT_N*%
X79847000Y-52578100D02*
X108847000Y-52578100D01*
X77150000Y-54100000D02*
X78325100Y-54100000D01*
X133750000Y-69097200D02*
X133750000Y-67950000D01*
D62*
X115034500Y-72878000D02*
X114912500Y-73000000D01*
D60*
X70850000Y-54100000D02*
X77150000Y-54100000D01*
X78325100Y-54100000D02*
X79847000Y-52578100D01*
D62*
X116555000Y-72878000D02*
X116677000Y-73000000D01*
X116677000Y-73000000D02*
X129847000Y-73000000D01*
D60*
X129847000Y-73000000D02*
X133750000Y-69097200D01*
D62*
X116555000Y-72878000D02*
X115034500Y-72878000D01*
%TO.N,/03 / ESP32 AND USB/ESP_EN*%
X114964000Y-58508300D02*
X112500000Y-60972300D01*
X112500000Y-60972300D02*
X112384400Y-60972300D01*
X110650000Y-71800000D02*
X111965600Y-70484400D01*
X137912500Y-75000000D02*
X136927900Y-74015400D01*
X104558900Y-61349200D02*
X107399200Y-61349200D01*
X136927900Y-74015400D02*
X115915400Y-74015400D01*
X114964000Y-53980000D02*
X114964000Y-58508300D01*
X112384400Y-60972300D02*
X109077700Y-60972300D01*
X102935800Y-59726200D02*
X102935900Y-59726200D01*
D60*
X98135000Y-54925100D02*
X102935800Y-59726200D01*
X88325100Y-54100000D02*
X89150200Y-54925100D01*
X87150000Y-54100000D02*
X88325100Y-54100000D01*
D62*
X102935900Y-59726200D02*
X104558900Y-61349200D01*
D60*
X116250000Y-53980000D02*
X114964000Y-53980000D01*
D62*
X111965600Y-70484400D02*
X112384400Y-70484400D01*
X112384400Y-70484400D02*
X112384400Y-60972300D01*
D60*
X80850000Y-54100000D02*
X87150000Y-54100000D01*
D62*
X109077700Y-60972300D02*
X108050000Y-62000000D01*
X107399200Y-61349200D02*
X108050000Y-62000000D01*
D60*
X89150200Y-54925100D02*
X98135000Y-54925100D01*
%TO.N,/03 / ESP32 AND USB/LED_A*%
X64912500Y-56025000D02*
X64912500Y-60000000D01*
X64937500Y-56000000D02*
X64912500Y-56025000D01*
%TO.N,/03 / ESP32 AND USB/LED_STATUS*%
X63087500Y-60000000D02*
X67290800Y-64203200D01*
X125635000Y-67935800D02*
X125635000Y-69200000D01*
%TO.N,/03 / ESP32 AND USB/UART_RX*%
X133750000Y-56520000D02*
X135012000Y-56520000D01*
%TO.N,/03 / ESP32 AND USB/UART_TX*%
X133750000Y-55250000D02*
X135944000Y-55250000D01*
%TO.N,/03 / ESP32 AND USB/USB_CC1*%
X94930000Y-56474900D02*
X96250000Y-57794900D01*
X86966100Y-60299100D02*
X89330900Y-57934300D01*
X88000000Y-62912500D02*
X86966100Y-61878600D01*
X86966100Y-61878600D02*
X86966100Y-60299100D01*
X90335200Y-56474900D02*
X94930000Y-56474900D01*
X89330900Y-57479200D02*
X90335200Y-56474900D01*
X89330900Y-57934300D02*
X89330900Y-57479200D01*
X96250000Y-57794900D02*
X96250000Y-58845000D01*
%TO.N,/03 / ESP32 AND USB/USB_CC2*%
X93250000Y-57776900D02*
X93437500Y-57589400D01*
D62*
X98502100Y-69128900D02*
X99436700Y-68194300D01*
X98502100Y-70414600D02*
X98502100Y-69128900D01*
D60*
X93250000Y-58845000D02*
X93250000Y-57776900D01*
D62*
X99436700Y-68194300D02*
X100041100Y-68194300D01*
X99500000Y-71412500D02*
X98502100Y-70414600D01*
%TO.N,/03 / ESP32 AND USB/USB_DM*%
X95750000Y-58845000D02*
X95750000Y-61100000D01*
D60*
X92400000Y-63225000D02*
X93862500Y-63050000D01*
D62*
X94750000Y-58845000D02*
X94750000Y-61100000D01*
D60*
%TO.N,/03 / ESP32 AND USB/USB_DM_ESD*%
X102500000Y-64500000D02*
X103000000Y-65000000D01*
X102500000Y-62994500D02*
X102500000Y-64500000D01*
X101500000Y-64500000D02*
X101500000Y-62994500D01*
X97700000Y-63050000D02*
X99650000Y-65000000D01*
X103000000Y-65000000D02*
X108500000Y-65000000D01*
X101500000Y-62994500D02*
X102500000Y-62994500D01*
X101000000Y-65000000D02*
X101500000Y-64500000D01*
X96137500Y-63050000D02*
X97700000Y-63050000D01*
X108500000Y-65000000D02*
X109300000Y-65800000D01*
X99650000Y-65000000D02*
X101000000Y-65000000D01*
X109300000Y-65800000D02*
X111587500Y-65800000D01*
%TO.N,/03 / ESP32 AND USB/USB_DM_MCU*%
X115580000Y-66680000D02*
X116250000Y-66680000D01*
X113412500Y-65800000D02*
X114700000Y-65800000D01*
X114700000Y-65800000D02*
X115580000Y-66680000D01*
%TO.N,/03 / ESP32 AND USB/USB_DP*%
X91600000Y-64950000D02*
X93862500Y-64950000D01*
D62*
X94250000Y-58845000D02*
X94250000Y-60300000D01*
X95250000Y-58845000D02*
X95250000Y-60300000D01*
D60*
%TO.N,/03 / ESP32 AND USB/USB_DP_ESD*%
X96137500Y-64950000D02*
X97784300Y-64950000D01*
X107000000Y-65400000D02*
X110400000Y-68800000D01*
X97784300Y-64950000D02*
X98234300Y-65400000D01*
X98234300Y-65400000D02*
X107000000Y-65400000D01*
X110400000Y-68800000D02*
X111587500Y-68800000D01*
%TO.N,/03 / ESP32 AND USB/USB_DP_MCU*%
X114700000Y-68800000D02*
X115550000Y-67950000D01*
X113412500Y-68800000D02*
X114700000Y-68800000D01*
X115550000Y-67950000D02*
X116250000Y-67950000D01*
D62*
%TO.N,/03 / ESP32 AND USB/USB_VBUS*%
X95724400Y-64000000D02*
X95137700Y-63413300D01*
X94330100Y-61625200D02*
X92550000Y-59845100D01*
X95137700Y-63413300D02*
X95137700Y-61625200D01*
D60*
X97450000Y-58845000D02*
X97450000Y-59895100D01*
D62*
X95137700Y-61625200D02*
X94330100Y-61625200D01*
X96137500Y-64000000D02*
X95724400Y-64000000D01*
X97450000Y-59895100D02*
X97450000Y-60694000D01*
X97450000Y-60694000D02*
X96518800Y-61625200D01*
X96518800Y-61625200D02*
X95137700Y-61625200D01*
X92550000Y-58845000D02*
X92550000Y-59845100D01*
D60*
%TO.N,/04 / PROTECTED CURRENT INPUT/AI_ADC*%
X107725000Y-85638900D02*
X105937000Y-87426800D01*
X107000000Y-90950000D02*
X109950000Y-90950000D01*
X105937000Y-87426800D02*
X105937000Y-89887200D01*
X105937000Y-89887200D02*
X106613000Y-90563000D01*
X105694000Y-91482100D02*
X103414000Y-91482100D01*
X107725000Y-83500000D02*
X107725000Y-85638900D01*
X100282000Y-88350000D02*
X99137500Y-88350000D01*
X106613000Y-90563000D02*
X105694000Y-91482100D01*
X106850000Y-83500000D02*
X107725000Y-83500000D01*
X103414000Y-91482100D02*
X100282000Y-88350000D01*
X109950000Y-90950000D02*
X110000000Y-91000000D01*
X106613000Y-90563000D02*
X107000000Y-90950000D01*
%TO.N,/04 / PROTECTED CURRENT INPUT/AI_CLAMP*%
X111700000Y-96050000D02*
X111700000Y-97650000D01*
X108050000Y-95050000D02*
X108062500Y-95050000D01*
X103289000Y-95377100D02*
X104912000Y-97000000D01*
X110700000Y-95050000D02*
X111700000Y-96050000D01*
X106100000Y-97000000D02*
X108050000Y-95050000D01*
X99137500Y-87700000D02*
X100789000Y-87700000D01*
X102386000Y-95377100D02*
X103289000Y-95377100D01*
X108062500Y-95050000D02*
X110700000Y-95050000D01*
X104912000Y-97000000D02*
X104912500Y-97000000D01*
X111700000Y-97650000D02*
X113000000Y-97650000D01*
X104912500Y-97000000D02*
X106100000Y-97000000D01*
%TO.N,/04 / PROTECTED CURRENT INPUT/AI_DIODE*%
X95537500Y-113000000D02*
X94600900Y-112063000D01*
X91286600Y-112063000D02*
X90350000Y-113000000D01*
X94600900Y-112063000D02*
X91286600Y-112063000D01*
%TO.N,/04 / PROTECTED CURRENT INPUT/AI_LIMIT_OUT*%
X98087500Y-106000000D02*
X92850000Y-106000000D01*
X98087500Y-106000000D02*
X98087500Y-100000000D01*
X99150000Y-106000000D02*
X98087500Y-106000000D01*
%TO.N,/04 / PROTECTED CURRENT INPUT/AI_PROT*%
X101000000Y-113000000D02*
X105000000Y-117000000D01*
X93762500Y-108300000D02*
X98462500Y-113000000D01*
X92850000Y-108300000D02*
X93762500Y-108300000D01*
X98462500Y-113000000D02*
X101000000Y-113000000D01*
%TO.N,/04 / PROTECTED CURRENT INPUT/AI_SET*%
X92850000Y-103700000D02*
X92087500Y-102938000D01*
X92087500Y-102938000D02*
X92087500Y-100000000D01*
%TO.N,/04 / PROTECTED CURRENT INPUT/AI_SHUNT*%
X104092000Y-104554000D02*
X104046000Y-104508000D01*
X104000500Y-104462500D02*
X104001000Y-104463000D01*
X104023000Y-104485000D02*
X104012000Y-104473000D01*
X104003000Y-104465000D02*
X104001000Y-104463000D01*
X104366000Y-104828000D02*
X104732000Y-105194000D01*
X104003000Y-104465000D02*
X104006000Y-104468000D01*
X99912500Y-100000000D02*
X104000000Y-104088000D01*
D62*
X104183000Y-104645000D02*
X104092000Y-104554000D01*
D60*
X104092000Y-104554000D02*
X104183000Y-104645000D01*
D62*
X104092000Y-104554000D02*
X104046000Y-104508000D01*
X104000500Y-104462500D02*
X104000000Y-104462000D01*
X104366000Y-104828000D02*
X104183000Y-104645000D01*
D60*
X104046000Y-104508000D02*
X104092000Y-104554000D01*
X94979100Y-98933400D02*
X98845900Y-98933400D01*
D62*
X104046000Y-104508000D02*
X104023000Y-104485000D01*
X104023000Y-104485000D02*
X104012000Y-104473000D01*
D60*
X104023000Y-104485000D02*
X104046000Y-104508000D01*
D62*
X104012000Y-104473000D02*
X104006000Y-104468000D01*
D60*
X104006000Y-104468000D02*
X104003000Y-104465000D01*
X101700000Y-97000000D02*
X103087500Y-97000000D01*
X104012000Y-104473000D02*
X104006000Y-104468000D01*
X103087500Y-97000000D02*
X103088000Y-97000000D01*
X104732000Y-105194000D02*
X105463000Y-105926000D01*
X104006000Y-104468000D02*
X104012000Y-104473000D01*
D62*
X104006000Y-104468000D02*
X104003000Y-104465000D01*
D60*
X104000000Y-104088000D02*
X104000000Y-104462000D01*
X104732000Y-105194000D02*
X104366000Y-104828000D01*
X106926000Y-105926000D02*
X108000000Y-107000000D01*
X104001000Y-104463000D02*
X104000500Y-104462500D01*
X104000500Y-104462500D02*
X104000000Y-104462000D01*
D62*
X104001000Y-104463000D02*
X104000500Y-104462500D01*
D60*
X104366000Y-104828000D02*
X104183000Y-104645000D01*
X93912500Y-100000000D02*
X94979100Y-98933400D01*
X104012000Y-104473000D02*
X104023000Y-104485000D01*
D62*
X104003000Y-104465000D02*
X104001000Y-104463000D01*
D60*
X104183000Y-104645000D02*
X104092000Y-104554000D01*
X105800000Y-104463000D02*
X104000000Y-104462000D01*
D62*
X104000500Y-104462500D02*
X104000000Y-104462500D01*
D60*
X104000000Y-104462000D02*
X104000500Y-104462500D01*
X98845900Y-98933400D02*
X99912500Y-100000000D01*
X104001000Y-104463000D02*
X104003000Y-104465000D01*
X105463000Y-105926000D02*
X106926000Y-105926000D01*
X104183000Y-104645000D02*
X104366000Y-104828000D01*
X104046000Y-104508000D02*
X104023000Y-104485000D01*
%TO.N,/05 / PRECISION CURRENT OUTPUT/AO_DRAIN*%
X135452000Y-113636000D02*
X134694000Y-114394000D01*
D62*
X134390000Y-114697000D02*
X134088000Y-115000000D01*
D60*
X134694000Y-114394000D02*
X134391000Y-114697000D01*
X134391000Y-114697000D02*
X134088000Y-115000000D01*
D62*
X134693000Y-114394000D02*
X134390000Y-114697000D01*
X134390500Y-114697000D02*
X134087500Y-115000000D01*
D60*
X135904000Y-113636000D02*
X135452000Y-113636000D01*
X139540000Y-110000000D02*
X135904000Y-113636000D01*
D62*
X134391000Y-114697000D02*
X134390500Y-114697000D01*
X134390000Y-114697000D02*
X134088000Y-115000000D01*
X134694000Y-114394000D02*
X134693000Y-114394000D01*
D60*
%TO.N,/05 / PRECISION CURRENT OUTPUT/AO_FILTER*%
X131650000Y-114093000D02*
X133594000Y-116037000D01*
X134876000Y-116037000D02*
X135912000Y-115000000D01*
X131650000Y-114000000D02*
X131650000Y-114093000D01*
X135912500Y-115000000D02*
X140050000Y-115000000D01*
X133594000Y-116037000D02*
X134876000Y-116037000D01*
X135912000Y-115000000D02*
X135912500Y-115000000D01*
D62*
%TO.N,/05 / PRECISION CURRENT OUTPUT/DAC_FILTER*%
X124065000Y-102503000D02*
X123562000Y-102000000D01*
D60*
X122912500Y-96000000D02*
X124000000Y-96000000D01*
D62*
X122451000Y-102000000D02*
X121050000Y-100599000D01*
X127507000Y-103372000D02*
X124862000Y-103372000D01*
D60*
X122912000Y-96000000D02*
X122912500Y-96000000D01*
X128778000Y-103372000D02*
X127507000Y-103372000D01*
D62*
X124862000Y-103372000D02*
X124065000Y-102575000D01*
D60*
X130150000Y-102000000D02*
X128778000Y-103372000D01*
X124000000Y-96000000D02*
X124000000Y-97500000D01*
X124000000Y-97500000D02*
X122550000Y-97500000D01*
D62*
X123562000Y-102000000D02*
X122451000Y-102000000D01*
X124065000Y-102575000D02*
X124065000Y-102503000D01*
D60*
X122550000Y-97500000D02*
X121050000Y-99000000D01*
X119000000Y-99000000D02*
X118000000Y-100000000D01*
D62*
X121050000Y-100599000D02*
X121050000Y-99000000D01*
D60*
X118000000Y-100000000D02*
X117000000Y-100000000D01*
X121050000Y-99000000D02*
X119000000Y-99000000D01*
D65*
%TO.N,/05 / PRECISION CURRENT OUTPUT/DAC_RAW*%
X118800000Y-89500000D02*
X117550000Y-89500000D01*
X117550000Y-94000000D02*
X119800000Y-96000000D01*
X117550000Y-89500000D02*
X117550000Y-94000000D01*
X121087500Y-96000000D02*
X121088000Y-96000000D01*
X119800000Y-96000000D02*
X121087500Y-96000000D01*
%TO.N,/05 / PRECISION CURRENT OUTPUT/DAC_REF*%
X124700000Y-89000000D02*
X125650000Y-89950000D01*
X125650000Y-89950000D02*
X126000000Y-89950000D01*
X123200000Y-89000000D02*
X124700000Y-89000000D01*
D60*
%TO.N,/05 / PRECISION CURRENT OUTPUT/OD_MID*%
X114062300Y-107950200D02*
X115938000Y-109825000D01*
D62*
X115937500Y-112000000D02*
X115938000Y-112000000D01*
D60*
X114062000Y-107950000D02*
X114062300Y-107950200D01*
D62*
X114062500Y-107950000D02*
X114062300Y-107950200D01*
D60*
X115938000Y-109825000D02*
X115938000Y-112000000D01*
D62*
%TO.N,/05 / PRECISION CURRENT OUTPUT/PMOS_SOURCE*%
X137912000Y-99000200D02*
X137912000Y-99000000D01*
D60*
X133062000Y-100435000D02*
X133062000Y-101242000D01*
X136886000Y-97973700D02*
X135524000Y-97973700D01*
D62*
X133062000Y-101242000D02*
X133062000Y-101243000D01*
D60*
X133062000Y-101242000D02*
X133062000Y-101243000D01*
X137912000Y-99000200D02*
X137912000Y-99000000D01*
D62*
X133062000Y-101243000D02*
X133062000Y-101646500D01*
D60*
X135524000Y-97973700D02*
X133062000Y-100435000D01*
D62*
X133062500Y-101647000D02*
X133062500Y-102050000D01*
D60*
X142080000Y-110000000D02*
X142080000Y-103168000D01*
X142080000Y-103168000D02*
X137912000Y-99000500D01*
D62*
X133062000Y-101646500D02*
X133062000Y-102050000D01*
D60*
X137912000Y-99000000D02*
X136886000Y-97973700D01*
D62*
X133062000Y-101646500D02*
X133062500Y-101647000D01*
X137912000Y-99000200D02*
X137912300Y-99000200D01*
D60*
X133062000Y-101646500D02*
X133062000Y-102050000D01*
D62*
X137912300Y-99000200D02*
X137912500Y-99000000D01*
X137912000Y-99000500D02*
X137912000Y-99000200D01*
D60*
X133062000Y-101243000D02*
X133062000Y-101646500D01*
X137912000Y-99000500D02*
X137912000Y-99000200D01*
%TO.N,/05 / PRECISION CURRENT OUTPUT/XTR_GATE*%
X135722000Y-110000000D02*
X137000000Y-110000000D01*
X134938000Y-105950000D02*
X134938000Y-109215000D01*
X134938000Y-103000500D02*
X134938000Y-103001000D01*
X124764000Y-101194000D02*
X124958000Y-101000000D01*
D62*
X134938000Y-104475000D02*
X134938000Y-103738000D01*
X134938000Y-103012000D02*
X134938000Y-103006000D01*
D60*
X134938000Y-103369000D02*
X134938000Y-103738000D01*
X134938000Y-103001000D02*
X134938000Y-103003000D01*
X134938000Y-103006000D02*
X134938000Y-103012000D01*
D62*
X134938000Y-103003000D02*
X134938000Y-103001000D01*
X134938000Y-103000500D02*
X134938000Y-103000000D01*
D60*
X124958000Y-101000000D02*
X125850000Y-101000000D01*
D62*
X134938000Y-103000500D02*
X134937500Y-103000000D01*
X134938000Y-103738000D02*
X134938000Y-103369000D01*
D60*
X124764000Y-102456000D02*
X124764000Y-101194000D01*
X134938000Y-104475000D02*
X134938000Y-105950000D01*
X134938000Y-103003000D02*
X134938000Y-103006000D01*
X134938000Y-103092000D02*
X134938000Y-103184000D01*
D62*
X134938000Y-103001000D02*
X134938000Y-103000500D01*
X134938000Y-103046000D02*
X134938000Y-103023000D01*
D60*
X134938000Y-103000000D02*
X134938000Y-103000500D01*
X134938000Y-109215000D02*
X135722000Y-110000000D01*
D62*
X134938000Y-103369000D02*
X134938000Y-103184000D01*
D60*
X134938000Y-103046000D02*
X134938000Y-103092000D01*
X134938000Y-103738000D02*
X134938000Y-104475000D01*
X134938000Y-103023000D02*
X134938000Y-103046000D01*
D62*
X134938000Y-103184000D02*
X134938000Y-103092000D01*
X134938000Y-103092000D02*
X134938000Y-103046000D01*
X134938000Y-105950000D02*
X134938000Y-104475000D01*
X134938000Y-103023000D02*
X134938000Y-103012000D01*
D60*
X134938000Y-103184000D02*
X134938000Y-103369000D01*
D62*
X134938000Y-103006000D02*
X134938000Y-103003000D01*
D60*
X134938000Y-103012000D02*
X134938000Y-103023000D01*
D62*
%TO.N,/05 / PRECISION CURRENT OUTPUT/XTR_IS*%
X136088000Y-99000000D02*
X136087500Y-99000000D01*
X136088000Y-99359200D02*
X136088000Y-99179600D01*
D60*
X136088000Y-99089800D02*
X136088000Y-99044900D01*
D62*
X133062000Y-103948000D02*
X133062000Y-103949000D01*
D60*
X133062000Y-103935000D02*
X133062000Y-103920000D01*
D62*
X133062000Y-103889000D02*
X129692000Y-103889000D01*
X133062000Y-103828000D02*
X133062000Y-103889000D01*
X136088000Y-99001400D02*
X136088000Y-99000700D01*
X136088000Y-99179600D02*
X136088000Y-99089800D01*
D60*
X133062000Y-103949500D02*
X133062000Y-103949000D01*
X136088000Y-99000300D02*
X136088000Y-99000100D01*
X136088000Y-99022400D02*
X136088000Y-99011200D01*
X136088000Y-99719000D02*
X136088000Y-99718500D01*
X133062000Y-103889000D02*
X133062000Y-103828000D01*
X136088000Y-99001400D02*
X136088000Y-99000700D01*
X136088000Y-99011200D02*
X136088000Y-99005600D01*
X133062000Y-103949000D02*
X133062000Y-103948000D01*
X136088000Y-99000700D02*
X136088000Y-99000300D01*
D62*
X136088000Y-99719000D02*
X136088000Y-99718500D01*
X133062000Y-103707000D02*
X133062000Y-103828000D01*
X136088000Y-99718500D02*
X136088000Y-99359200D01*
D60*
X136088000Y-99044900D02*
X136088000Y-99022400D01*
X133062000Y-103463000D02*
X136088000Y-100438000D01*
D62*
X136088000Y-99022400D02*
X136088000Y-99011200D01*
D60*
X136088000Y-99359200D02*
X136088000Y-99179600D01*
D62*
X133062000Y-103946000D02*
X133062000Y-103948000D01*
D60*
X133062000Y-103950000D02*
X133062000Y-103949500D01*
D62*
X136088000Y-99000100D02*
X136088000Y-99000000D01*
X136088000Y-99044900D02*
X136088000Y-99022400D01*
D60*
X133062000Y-103942000D02*
X133062000Y-103935000D01*
D62*
X125850000Y-100500000D02*
X124600000Y-100400000D01*
X136088000Y-99000700D02*
X136088000Y-99000300D01*
X133062000Y-103949500D02*
X133062500Y-103950000D01*
D60*
X136088000Y-99000100D02*
X136088000Y-99000000D01*
D62*
X133062000Y-103889000D02*
X133062000Y-103920000D01*
D60*
X133062000Y-103828000D02*
X133062000Y-103707000D01*
X133062000Y-103920000D02*
X133062000Y-103889000D01*
X136088000Y-99005600D02*
X136088000Y-99002800D01*
X133062000Y-103707000D02*
X133062000Y-103706000D01*
D62*
X133062000Y-103920000D02*
X133062000Y-103935000D01*
D60*
X133062000Y-103948000D02*
X133062000Y-103946000D01*
X136088000Y-99179600D02*
X136088000Y-99089800D01*
X136088000Y-99002800D02*
X136088000Y-99001400D01*
D62*
X136088000Y-99089800D02*
X136088000Y-99044900D01*
X133062000Y-103706000D02*
X133062000Y-103707000D01*
X136088000Y-99011200D02*
X136088000Y-99005600D01*
X133062000Y-103935000D02*
X133062000Y-103942000D01*
D60*
X133062000Y-103946000D02*
X133062000Y-103942000D01*
X136088000Y-100438000D02*
X136088000Y-99719000D01*
D62*
X133062000Y-103949000D02*
X133062000Y-103949500D01*
X133062000Y-103949500D02*
X133062000Y-103950000D01*
X136088000Y-99005600D02*
X136088000Y-99002800D01*
D60*
X133062000Y-103706000D02*
X133062000Y-103463000D01*
D62*
X136088000Y-99002800D02*
X136088000Y-99001400D01*
X133062000Y-103942000D02*
X133062000Y-103946000D01*
D60*
X136088000Y-99718500D02*
X136088000Y-99359200D01*
D62*
X136088000Y-99000300D02*
X136088000Y-99000100D01*
D60*
%TO.N,/05 / PRECISION CURRENT OUTPUT/XTR_OD*%
X133912000Y-97000200D02*
X134032000Y-97119900D01*
X115938000Y-107000000D02*
X125282000Y-107000000D01*
D62*
X115938000Y-107000000D02*
X115937500Y-107000000D01*
D60*
X133912000Y-97000100D02*
X133912000Y-97000200D01*
X133912000Y-97000000D02*
X133912000Y-97000100D01*
D62*
X133912000Y-97000000D02*
X133912000Y-97000100D01*
D60*
X134032000Y-97119900D02*
X134032000Y-98203500D01*
D62*
X133912000Y-97000000D02*
X133912500Y-97000000D01*
X133912000Y-97000100D02*
X133912000Y-97000200D01*
X130150000Y-100500000D02*
X131600000Y-100500000D01*
%TO.N,/05 / PRECISION CURRENT OUTPUT/XTR_REG*%
X125758000Y-102653000D02*
X125850000Y-102560000D01*
X131187000Y-97900400D02*
X131637500Y-97450200D01*
X131637500Y-97450200D02*
X132087500Y-97000200D01*
X132087500Y-97000200D02*
X132087500Y-97000000D01*
X124133000Y-109296000D02*
X123479000Y-109950000D01*
D65*
X125850000Y-101500000D02*
X125850000Y-102000000D01*
D62*
X125850000Y-102560000D02*
X125850000Y-102000000D01*
X131637500Y-97450200D02*
X132088000Y-97000000D01*
X123479000Y-109950000D02*
X123000000Y-109950000D01*
D60*
%TO.N,/05 / PRECISION CURRENT OUTPUT/XTR_SET*%
X132000000Y-102100000D02*
X131400000Y-101500000D01*
X123000000Y-102956000D02*
X123000000Y-102912500D01*
X131400000Y-101500000D02*
X130150000Y-101500000D01*
X123000000Y-102912000D02*
X123500000Y-103456000D01*
X124000000Y-104000000D02*
X123500000Y-103456000D01*
X123500000Y-103456000D02*
X123000000Y-102956000D01*
X132000000Y-103000000D02*
X132000000Y-102100000D01*
X123000000Y-102912500D02*
X123000000Y-102912000D01*
%TO.N,ADC_RDY*%
X106850000Y-82500000D02*
X108524000Y-82500000D01*
D62*
X116000000Y-78669500D02*
X116000000Y-77087500D01*
D60*
X108524000Y-82500000D02*
X111963000Y-79061400D01*
D62*
X114000000Y-72418800D02*
X114450100Y-71968700D01*
X116000000Y-77087500D02*
X114000000Y-75087500D01*
X114450100Y-71968700D02*
X122671000Y-71968700D01*
X114000000Y-75087500D02*
X111000000Y-75087500D01*
D60*
X115608000Y-79061400D02*
X116000000Y-78669500D01*
X124365000Y-69200000D02*
X124365000Y-70275100D01*
X124365000Y-70275100D02*
X122671000Y-71968700D01*
X111963000Y-79061400D02*
X115608000Y-79061400D01*
D62*
X114000000Y-75087500D02*
X114000000Y-72418800D01*
D60*
%TO.N,AI_IN*%
X94080000Y-123000000D02*
X93650000Y-122570000D01*
X93650000Y-122570000D02*
X93650000Y-113000000D01*
%TO.N,AO_ENABLE*%
X111000000Y-110912000D02*
X112845000Y-109067000D01*
X114062000Y-105706000D02*
X114062000Y-105363000D01*
X112845000Y-107267000D02*
X113454000Y-106658000D01*
X114062000Y-106050000D02*
X114062000Y-105878500D01*
D62*
X114062500Y-105879000D02*
X114062500Y-106050000D01*
D60*
X112845000Y-109067000D02*
X112845000Y-107267000D01*
D62*
X114062000Y-105878500D02*
X114062500Y-105879000D01*
X114062000Y-105706000D02*
X114062000Y-105707000D01*
D60*
X114062000Y-105363000D02*
X114180000Y-105245000D01*
X113454000Y-106658000D02*
X114062000Y-106050000D01*
X121825000Y-69200000D02*
X121825000Y-70455800D01*
X114062000Y-105707000D02*
X114062000Y-105706000D01*
D62*
X114062000Y-105878500D02*
X114062000Y-106050000D01*
X114062000Y-105707000D02*
X114062000Y-105878500D01*
X111000000Y-110912000D02*
X111000000Y-110912500D01*
X113454000Y-106658000D02*
X114062000Y-106050000D01*
D60*
X114062000Y-105878500D02*
X114062000Y-105707000D01*
D62*
%TO.N,AO_FAULT_N*%
X133357000Y-92555400D02*
X133802000Y-92110800D01*
X130150000Y-101000000D02*
X130871000Y-101000000D01*
X133357000Y-92555400D02*
X132912500Y-92999900D01*
X132912500Y-92999900D02*
X132912500Y-93000000D01*
X131844000Y-101088000D02*
X132912000Y-100018000D01*
X123095000Y-69200000D02*
X123095000Y-70454600D01*
X132912000Y-100018000D02*
X132912000Y-93000000D01*
X130958000Y-101088000D02*
X131844000Y-101088000D01*
X132912000Y-93000000D02*
X133357000Y-92555400D01*
X130871000Y-101000000D02*
X130958000Y-101088000D01*
D60*
%TO.N,AO_OUT*%
X128350000Y-122150000D02*
X129150000Y-122150000D01*
X128350000Y-122150000D02*
X128350000Y-114000000D01*
X129150000Y-122150000D02*
X130000000Y-123000000D01*
X123000000Y-122150000D02*
X128350000Y-122150000D01*
D62*
%TO.N,GND*%
X103800000Y-72450000D02*
X104462500Y-72450000D01*
D60*
X104862000Y-87701200D02*
X104862000Y-87700600D01*
X74100000Y-112050000D02*
X72150000Y-114000000D01*
X104862000Y-87710100D02*
X104862000Y-87705000D01*
D62*
X108062500Y-97652600D02*
X108062500Y-96950000D01*
D65*
X110999500Y-109088000D02*
X109700000Y-109088000D01*
D60*
X102400000Y-101537000D02*
X102800000Y-101538000D01*
D62*
X104862000Y-89975500D02*
X104862000Y-90137700D01*
D60*
X104862000Y-90137700D02*
X104862000Y-89975500D01*
D62*
X104862000Y-90137700D02*
X104862500Y-90138200D01*
D60*
X123000000Y-101087500D02*
X123000000Y-100100000D01*
X123000000Y-108050000D02*
X121600000Y-108050000D01*
X78000000Y-96000000D02*
X78000000Y-96525000D01*
D62*
X104862000Y-87700100D02*
X104862000Y-87700000D01*
D60*
X104862000Y-87702500D02*
X104862000Y-87701200D01*
D62*
X114062000Y-112950000D02*
X114062500Y-112950000D01*
D60*
X107000000Y-89050000D02*
X108400000Y-89050000D01*
X98250000Y-59895100D02*
X98250000Y-58845000D01*
X100240000Y-90022200D02*
X100240000Y-90606600D01*
X111150000Y-84000000D02*
X112025000Y-84000000D01*
X104688000Y-89650000D02*
X104514000Y-89650000D01*
X104862000Y-88024500D02*
X104862000Y-87862200D01*
D62*
X104508000Y-88350000D02*
X104862000Y-88350000D01*
D60*
X76000000Y-94000000D02*
X78000000Y-96000000D01*
X99867500Y-89650000D02*
X100240000Y-90022200D01*
D66*
X58500000Y-80525000D02*
X60000000Y-80525000D01*
D60*
X90680000Y-57930000D02*
X90680000Y-59895100D01*
X104862000Y-88350000D02*
X104862000Y-88187500D01*
D62*
X103999500Y-101538000D02*
X104000000Y-101538000D01*
D60*
X104000000Y-81050000D02*
X105025000Y-81050000D01*
D65*
X78000000Y-96525000D02*
X79500000Y-96525000D01*
D60*
X96660600Y-88050000D02*
X97610600Y-89000000D01*
D65*
X123000000Y-117850000D02*
X124700000Y-117850000D01*
D62*
X104862000Y-87702500D02*
X104862000Y-87701200D01*
D60*
X104862000Y-87720200D02*
X104862000Y-87710100D01*
X104862000Y-89975000D02*
X104862000Y-89650000D01*
X104862000Y-87705000D02*
X104862000Y-87702500D01*
D62*
X130150000Y-100000000D02*
X131500000Y-99300000D01*
D65*
X111000000Y-53050000D02*
X111000000Y-51700000D01*
D62*
X104862500Y-88188000D02*
X104862500Y-88350000D01*
D65*
X109950000Y-62000000D02*
X110500000Y-63200000D01*
D62*
X104862000Y-88187500D02*
X104862500Y-88188000D01*
D60*
X106850000Y-82000000D02*
X105975000Y-82000000D01*
X128650000Y-101000000D02*
X128000000Y-101000000D01*
X61500000Y-83410000D02*
X61500000Y-82025000D01*
X97610600Y-89000000D02*
X99137500Y-89000000D01*
X93862500Y-64000000D02*
X94800000Y-64000000D01*
X122950000Y-99000000D02*
X124000000Y-99800000D01*
D62*
X104514000Y-89650000D02*
X104165000Y-89650000D01*
D60*
X89192400Y-59895100D02*
X88000000Y-61087500D01*
X64088700Y-54973800D02*
X63062500Y-56000000D01*
D62*
X99500000Y-69587500D02*
X102362500Y-72450000D01*
X104862000Y-89975000D02*
X104862000Y-89975500D01*
D66*
X60000000Y-80525000D02*
X61500000Y-82025000D01*
D65*
X113000000Y-57050000D02*
X114300000Y-57050000D01*
D60*
X99896300Y-90950000D02*
X99137500Y-90950000D01*
D65*
X104000000Y-77050000D02*
X104000000Y-75900000D01*
D60*
X83000000Y-77525000D02*
X84300000Y-77525000D01*
D62*
X119862000Y-90234700D02*
X119597000Y-90500000D01*
X108062000Y-97887500D02*
X108062000Y-97653100D01*
D65*
X111000000Y-109088000D02*
X110999500Y-109088000D01*
D60*
X104862000Y-87700100D02*
X104862000Y-87700000D01*
X113000000Y-94350000D02*
X114500000Y-94350000D01*
X112610000Y-51440000D02*
X116250000Y-51440000D01*
X104862000Y-87862200D02*
X104862000Y-87781100D01*
X124200000Y-59160000D02*
X123500000Y-59160000D01*
D62*
X104862000Y-87862200D02*
X104862000Y-87781100D01*
D65*
X76000000Y-106000000D02*
X77100000Y-106000000D01*
D60*
X99320000Y-59305100D02*
X98730000Y-59895100D01*
X104165000Y-89650000D02*
X103788000Y-89273300D01*
D62*
X104862000Y-87700600D02*
X104862000Y-87700100D01*
X104000000Y-76112500D02*
X106062500Y-74050000D01*
D60*
X80850000Y-57900000D02*
X77150000Y-57900000D01*
D62*
X104462500Y-72450000D02*
X106062500Y-74050000D01*
D60*
X128000000Y-106050000D02*
X128000000Y-105000000D01*
X104862000Y-89650000D02*
X104688000Y-89650000D01*
X104862000Y-90300000D02*
X104862000Y-90137700D01*
D62*
X118111000Y-87050000D02*
X119862000Y-88801000D01*
D65*
X76000000Y-112050000D02*
X77500000Y-112050000D01*
D62*
X104862500Y-90138200D02*
X104862500Y-90300000D01*
X104862000Y-87700100D02*
X104862000Y-87700000D01*
D60*
X105975000Y-82000000D02*
X105975000Y-83000000D01*
D62*
X104862000Y-87740500D02*
X104862000Y-87720200D01*
D60*
X104862000Y-88187500D02*
X104862000Y-88025000D01*
D62*
X115500000Y-87050000D02*
X118111000Y-87050000D01*
D65*
X141950000Y-115000000D02*
X143400000Y-115000000D01*
D60*
X69950000Y-90000000D02*
X70900000Y-90000000D01*
X87150000Y-57900000D02*
X80850000Y-57900000D01*
X69674900Y-57900000D02*
X66748700Y-54973800D01*
D62*
X104862000Y-90137700D02*
X104862000Y-90300000D01*
D60*
X74912500Y-94000000D02*
X76000000Y-94000000D01*
X105025000Y-81050000D02*
X105975000Y-82000000D01*
D62*
X102800000Y-101538000D02*
X103200000Y-101538000D01*
X102362500Y-72450000D02*
X103800000Y-72450000D01*
D60*
X61500000Y-82025000D02*
X61500000Y-82000000D01*
D62*
X68862500Y-105275000D02*
X70000000Y-105275000D01*
D60*
X91750000Y-59895100D02*
X90680000Y-59895100D01*
D62*
X104862000Y-87700600D02*
X104862000Y-87700100D01*
X104862000Y-87700000D02*
X104862500Y-87700000D01*
X104862000Y-88024500D02*
X104862000Y-87862200D01*
D65*
X133750000Y-51440000D02*
X135200000Y-51440000D01*
D60*
X108062000Y-98200000D02*
X108062000Y-97887500D01*
X83000000Y-87525000D02*
X84300000Y-87525000D01*
X104862000Y-87781100D02*
X104862000Y-87740500D01*
X77150000Y-57900000D02*
X70850000Y-57900000D01*
D62*
X104000000Y-77050000D02*
X104000000Y-76112500D01*
D60*
X100240000Y-90606600D02*
X99896300Y-90950000D01*
D66*
X61500000Y-82025000D02*
X61500000Y-83410000D01*
D62*
X104165000Y-89650000D02*
X103500000Y-89650000D01*
D60*
X58500000Y-80525000D02*
X57000000Y-80525000D01*
X104154000Y-88350000D02*
X104508000Y-88350000D01*
D65*
X111150000Y-84000000D02*
X112025000Y-84000000D01*
D62*
X103200000Y-101538000D02*
X103999500Y-101538000D01*
D60*
X105975000Y-83000000D02*
X106215000Y-83000000D01*
D65*
X80850000Y-57900000D02*
X80850000Y-59200000D01*
D60*
X104514000Y-89650000D02*
X104165000Y-89650000D01*
X97000000Y-88050000D02*
X96660600Y-88050000D01*
X103788000Y-88716100D02*
X104154000Y-88350000D01*
X83000000Y-82525000D02*
X84300000Y-82525000D01*
D65*
X114062000Y-112950000D02*
X113000000Y-112950000D01*
D62*
X104862000Y-87701200D02*
X104862000Y-87700600D01*
D60*
X104862000Y-87740500D02*
X104862000Y-87720200D01*
X102800000Y-101538000D02*
X103200000Y-101538000D01*
D62*
X104862000Y-87781100D02*
X104862000Y-87740500D01*
D60*
X70850000Y-57900000D02*
X69674900Y-57900000D01*
X67650000Y-85000000D02*
X67000000Y-85000000D01*
X66748700Y-54973800D02*
X64088700Y-54973800D01*
X90680000Y-59895100D02*
X89192400Y-59895100D01*
X99320000Y-57930000D02*
X99320000Y-59305100D01*
X105975000Y-83240400D02*
X106215000Y-83000000D01*
X123000000Y-101088000D02*
X123000000Y-101087500D01*
X104862000Y-89975500D02*
X104862000Y-89975000D01*
X115500000Y-91050000D02*
X114200000Y-91050000D01*
D62*
X104862000Y-89650000D02*
X104862500Y-89650000D01*
X108062000Y-97653100D02*
X108062500Y-97652600D01*
D60*
X99137500Y-89650000D02*
X99867500Y-89650000D01*
D62*
X104862000Y-87710100D02*
X104862000Y-87705000D01*
D65*
X112025000Y-84000000D02*
X112500000Y-84000000D01*
D62*
X119862000Y-88801000D02*
X119862000Y-90234700D01*
X104862000Y-89650000D02*
X104688000Y-89650000D01*
D60*
X99137500Y-89000000D02*
X99137500Y-89650000D01*
D62*
X104862000Y-88025000D02*
X104862000Y-88024500D01*
D60*
X112025000Y-83500000D02*
X112025000Y-84000000D01*
X96660600Y-88050000D02*
X95500000Y-88050000D01*
X76000000Y-112050000D02*
X74100000Y-112050000D01*
X106850000Y-84000000D02*
X105975000Y-84000000D01*
X98730000Y-59895100D02*
X98250000Y-59895100D01*
X91750000Y-58845000D02*
X91750000Y-59895100D01*
X111000000Y-53050000D02*
X112610000Y-51440000D01*
X106850000Y-83000000D02*
X106215000Y-83000000D01*
D62*
X119597000Y-90500000D02*
X118800000Y-90500000D01*
D60*
X111150000Y-83500000D02*
X112025000Y-83500000D01*
X105975000Y-84000000D02*
X105975000Y-83240400D01*
D62*
X104688000Y-89650000D02*
X104514000Y-89650000D01*
D66*
X64125000Y-83095000D02*
X61500000Y-83410000D01*
D60*
X104000000Y-81050000D02*
X102600000Y-81050000D01*
X115500000Y-87050000D02*
X114200000Y-87050000D01*
X104862000Y-87700600D02*
X104862000Y-87700100D01*
D62*
X104862000Y-87720200D02*
X104862000Y-87710100D01*
D60*
X104508000Y-88350000D02*
X104862000Y-88350000D01*
X103788000Y-89273300D02*
X103788000Y-88716100D01*
D62*
X104862000Y-87705000D02*
X104862000Y-87702500D01*
X103999500Y-101538000D02*
X104000000Y-101537500D01*
D60*
X104862000Y-88025000D02*
X104862000Y-88024500D01*
D62*
X110999500Y-109088000D02*
X111000000Y-109087500D01*
D60*
X126000000Y-88050000D02*
X127300000Y-88050000D01*
X64125000Y-83095000D02*
X64000000Y-81900000D01*
%TO.N,I2C_SCL*%
X120555000Y-69200000D02*
X120555000Y-70385400D01*
X116912000Y-82000000D02*
X115837000Y-80924700D01*
X119157000Y-82000000D02*
X116912500Y-82000000D01*
X116912500Y-82000000D02*
X116912000Y-82000000D01*
X113100000Y-80924700D02*
X112025000Y-82000000D01*
X112025000Y-82000000D02*
X111150000Y-82000000D01*
X120555000Y-70385400D02*
X120485000Y-70455800D01*
D62*
X123200000Y-91000000D02*
X121481000Y-91000000D01*
D60*
X115837000Y-80924700D02*
X113100000Y-80924700D01*
D62*
%TO.N,I2C_SDA*%
X116912000Y-78004600D02*
X116912000Y-78002300D01*
D60*
X110275000Y-81729800D02*
X112068000Y-79936600D01*
X116912000Y-78001100D02*
X116912000Y-78000500D01*
D62*
X116912000Y-78018400D02*
X116912000Y-78009200D01*
X116912000Y-78002300D02*
X116912000Y-78001100D01*
D60*
X116912000Y-78009200D02*
X116912000Y-78004600D01*
X116912000Y-78000500D02*
X116912000Y-78000200D01*
X116912000Y-78148900D02*
X116912000Y-78074400D01*
X117258000Y-85504600D02*
X111500000Y-85504600D01*
D62*
X116912000Y-78074400D02*
X116912000Y-78073900D01*
D60*
X116912000Y-78002300D02*
X116912000Y-78001100D01*
X111500000Y-85504600D02*
X110275000Y-84279000D01*
X116912000Y-78074400D02*
X116912000Y-78073900D01*
X110275000Y-82500000D02*
X110275000Y-81729800D01*
X110275000Y-84279000D02*
X110275000Y-82500000D01*
D62*
X116912000Y-78000500D02*
X116912000Y-78000200D01*
D60*
X116912000Y-78073900D02*
X116912000Y-78036900D01*
X121753000Y-90000000D02*
X117258000Y-85504600D01*
D62*
X116912000Y-78073900D02*
X116912000Y-78036900D01*
X116912000Y-78000000D02*
X116912500Y-78000000D01*
D60*
X115443000Y-79936600D02*
X116912000Y-78467200D01*
X116912000Y-78000100D02*
X116912000Y-78000000D01*
X116912000Y-78036900D02*
X116912000Y-78018400D01*
X116912000Y-78467200D02*
X116912000Y-78148900D01*
X123200000Y-90000000D02*
X121753000Y-90000000D01*
D62*
X116912000Y-78000200D02*
X116912000Y-78000100D01*
D60*
X116912000Y-78018400D02*
X116912000Y-78009200D01*
X118259000Y-65410000D02*
X116250000Y-65410000D01*
X116912000Y-78000200D02*
X116912000Y-78000100D01*
D62*
X116912000Y-78036900D02*
X116912000Y-78018400D01*
X116912000Y-78001100D02*
X116912000Y-78000500D01*
D60*
X111150000Y-82500000D02*
X110275000Y-82500000D01*
D62*
X116912000Y-78009200D02*
X116912000Y-78004600D01*
D60*
X116912000Y-78004600D02*
X116912000Y-78002300D01*
X112068000Y-79936600D02*
X115443000Y-79936600D01*
X116912000Y-78148900D02*
X118327000Y-78148900D01*
D62*
X116912000Y-78000100D02*
X116912000Y-78000000D01*
X116912000Y-78000100D02*
X116912000Y-78000000D01*
D63*
%TO.N,SENSOR_PWR*%
X89000000Y-123000000D02*
X81912500Y-115912000D01*
X88999800Y-109088000D02*
X88999500Y-109088000D01*
X81912500Y-115912000D02*
X81912500Y-113000000D01*
X88999900Y-109088000D02*
X88999800Y-109088000D01*
X88364900Y-109088000D02*
X84452400Y-113000000D01*
X84452400Y-113000000D02*
X81912500Y-113000000D01*
D62*
X88999800Y-109088000D02*
X88999900Y-109088000D01*
X88999500Y-109088000D02*
X88999800Y-109088000D01*
D63*
X88999500Y-109088000D02*
X88364900Y-109088000D01*
X89000000Y-109088000D02*
X88999900Y-109088000D01*
D62*
X89000000Y-109088000D02*
X89000000Y-109087500D01*
X88999900Y-109088000D02*
X89000000Y-109088000D01*
D60*
%TO.N,SYS_OK*%
X99137500Y-87050000D02*
X99137500Y-86602500D01*
X113305000Y-111807000D02*
X105436000Y-111807000D01*
D62*
X113684000Y-111428000D02*
X113873000Y-111239000D01*
X106121600Y-75403400D02*
X107350000Y-74175000D01*
X107350000Y-74175000D02*
X107350000Y-71800000D01*
X106062500Y-75950000D02*
X106062500Y-75462500D01*
D60*
X113873000Y-111239000D02*
X113684000Y-111428000D01*
X114062000Y-111050000D02*
X113873000Y-111239000D01*
D62*
X113873000Y-111239000D02*
X114062000Y-111050000D01*
X105864400Y-75146200D02*
X106121600Y-75403400D01*
D60*
X113684000Y-111428000D02*
X113305000Y-111807000D01*
D62*
X106062500Y-75462500D02*
X106121600Y-75403400D01*
D60*
X99137500Y-86602500D02*
X99391100Y-86348900D01*
D62*
X113873000Y-111239000D02*
X113873500Y-111239000D01*
X113873500Y-111239000D02*
X114062500Y-111050000D01*
D63*
%TO.N,V24_PROT*%
X76029300Y-99631200D02*
X76029300Y-101971000D01*
D62*
X125850000Y-100000000D02*
X125850000Y-99576600D01*
D63*
X101800000Y-99075200D02*
X114184000Y-99075200D01*
X78000000Y-99475000D02*
X79291000Y-98184000D01*
D66*
X63200000Y-84365000D02*
X62295000Y-85270000D01*
D64*
X68862500Y-101375000D02*
X68862500Y-100983000D01*
D62*
X117583000Y-101526000D02*
X120362000Y-101526000D01*
D63*
X62012500Y-93875000D02*
X62012500Y-85284200D01*
D62*
X125850000Y-99576600D02*
X126086000Y-99340300D01*
D66*
X62295000Y-85270000D02*
X62012500Y-85284200D01*
D63*
X68862500Y-100983000D02*
X68862500Y-100725000D01*
D61*
X58500000Y-83475000D02*
X59000000Y-85270000D01*
X59000000Y-85270000D02*
X61500000Y-85310000D01*
D63*
X120027000Y-104918000D02*
X124968000Y-104918000D01*
X76029300Y-99631200D02*
X76185500Y-99475000D01*
X124968000Y-104918000D02*
X128000000Y-107950000D01*
X117109000Y-102000000D02*
X120027000Y-104918000D01*
X68862500Y-100725000D02*
X69956300Y-99631200D01*
X114184000Y-99075200D02*
X117109000Y-102000000D01*
D66*
X62012500Y-85284200D02*
X61500000Y-85310000D01*
X64125000Y-84365000D02*
X64125000Y-85635000D01*
D63*
X69956300Y-99631200D02*
X76029300Y-99631200D01*
X68862500Y-100725000D02*
X62012500Y-93875000D01*
X79850000Y-109300000D02*
X75300000Y-109300000D01*
D62*
X117109000Y-102000000D02*
X117583000Y-101526000D01*
D63*
X79291000Y-98184000D02*
X100909000Y-98184000D01*
X100909000Y-98184000D02*
X101800000Y-99075200D01*
D66*
X64125000Y-84365000D02*
X63200000Y-84365000D01*
D63*
X76029300Y-101971000D02*
X72000000Y-106000000D01*
X76185500Y-99475000D02*
X78000000Y-99475000D01*
X75300000Y-109300000D02*
X72000000Y-106000000D01*
D61*
%TO.N,V3V3*%
X111000000Y-54950000D02*
X110030000Y-55919600D01*
D62*
X104862000Y-87037600D02*
X104862000Y-87050000D01*
D61*
X103339000Y-82950000D02*
X101747000Y-81358200D01*
D62*
X136087500Y-75000000D02*
X136087500Y-77707500D01*
D61*
X131088000Y-92820900D02*
X131088000Y-92910400D01*
D62*
X124439000Y-90500000D02*
X125505000Y-91566500D01*
D61*
X113240000Y-52710000D02*
X111000000Y-54950000D01*
D62*
X111580100Y-77951600D02*
X111809600Y-77722100D01*
D64*
X104862000Y-87024700D02*
X104862000Y-87025200D01*
D62*
X105589400Y-77826200D02*
X103506000Y-77826200D01*
D67*
X80075000Y-85000000D02*
X81425000Y-84950000D01*
D62*
X115088000Y-82000500D02*
X115088000Y-82000200D01*
X104862000Y-87024700D02*
X104862000Y-87025200D01*
D61*
X101747000Y-81358200D02*
X101747000Y-80709100D01*
D62*
X115088000Y-82000200D02*
X115088000Y-82000000D01*
X114752000Y-89698100D02*
X115500000Y-88950000D01*
X131088000Y-92999500D02*
X131088000Y-93000000D01*
D61*
X131088000Y-92988800D02*
X131088000Y-92994400D01*
D64*
X104862000Y-87025200D02*
X104862000Y-87037600D01*
D62*
X131088000Y-92977600D02*
X131088000Y-92988800D01*
X113886000Y-89698100D02*
X114752000Y-89698100D01*
X131088000Y-92955200D02*
X131088000Y-92977600D01*
X104862500Y-87038100D02*
X104862500Y-87050000D01*
X103506000Y-77826200D02*
X103225000Y-77826200D01*
D61*
X94693900Y-87712600D02*
X96902000Y-85504500D01*
D62*
X112087500Y-78000000D02*
X115087500Y-78000000D01*
D64*
X104862000Y-86999400D02*
X104862000Y-87024700D01*
D62*
X115500000Y-88950000D02*
X118750000Y-88950000D01*
D61*
X116250000Y-52710000D02*
X113240000Y-52710000D01*
D62*
X111000000Y-76912500D02*
X111809600Y-77722100D01*
X109937500Y-73000000D02*
X113087500Y-73000000D01*
D61*
X131551000Y-91103000D02*
X131088000Y-91566500D01*
X104000000Y-85504500D02*
X104000000Y-82950000D01*
D62*
X104862000Y-87025200D02*
X104862000Y-87037600D01*
X110030000Y-55919600D02*
X110030000Y-55980000D01*
X131088000Y-92283700D02*
X131088000Y-92641800D01*
D61*
X115088000Y-82000200D02*
X115088000Y-82000500D01*
X115500000Y-92950000D02*
X116775000Y-91675400D01*
D62*
X131088000Y-92998600D02*
X131088000Y-92999100D01*
D61*
X85500000Y-89563000D02*
X94693900Y-89563000D01*
D62*
X131088000Y-92999500D02*
X131087500Y-93000000D01*
X131088000Y-92998600D02*
X131088000Y-92999100D01*
X131088000Y-92999100D02*
X131088000Y-92999500D01*
X131088000Y-92910400D02*
X131088000Y-92955200D01*
D61*
X131088000Y-92910400D02*
X131088000Y-92955200D01*
X131088000Y-91566500D02*
X131088000Y-92283200D01*
D62*
X119795000Y-91000000D02*
X120382000Y-90412500D01*
D61*
X104000000Y-86136900D02*
X104000000Y-85504500D01*
X123649000Y-83201200D02*
X116289000Y-83201200D01*
D62*
X115088000Y-82000200D02*
X115087700Y-82000200D01*
D61*
X132517000Y-91103000D02*
X141000000Y-82620000D01*
X131088000Y-92283700D02*
X131088000Y-92641800D01*
D62*
X102944100Y-75205900D02*
X103800000Y-74350000D01*
D61*
X131088000Y-92999500D02*
X131088000Y-93000000D01*
X116775000Y-90224600D02*
X115500000Y-88950000D01*
D62*
X109850000Y-76912500D02*
X108176600Y-75239000D01*
D61*
X131088000Y-92641800D02*
X131088000Y-92820900D01*
D59*
X73087500Y-91000000D02*
X73088000Y-89500000D01*
D62*
X131088000Y-92820900D02*
X131088000Y-92910400D01*
X131088000Y-92999500D02*
X131088000Y-93000000D01*
D59*
X76500000Y-89500000D02*
X77475000Y-90475000D01*
D62*
X131088000Y-92283200D02*
X131088000Y-92283700D01*
D61*
X131088000Y-92999100D02*
X131088000Y-92999500D01*
D62*
X125505000Y-91566500D02*
X131088000Y-91566500D01*
X115088000Y-82000200D02*
X115088000Y-82000000D01*
D61*
X104862000Y-86999400D02*
X104000000Y-86136900D01*
D62*
X108176600Y-75239000D02*
X105589400Y-77826200D01*
D67*
X85500000Y-90475000D02*
X83000000Y-90475000D01*
D61*
X115038000Y-82050000D02*
X113600000Y-82050000D01*
D62*
X102944100Y-77545300D02*
X102944100Y-75205900D01*
D61*
X131551000Y-91103000D02*
X132517000Y-91103000D01*
X131088000Y-92955200D02*
X131088000Y-92977600D01*
X94693900Y-89563000D02*
X94693900Y-87712600D01*
D62*
X131088000Y-92997200D02*
X131088000Y-92998600D01*
X85500000Y-85025000D02*
X83450000Y-85025000D01*
X115088000Y-82000500D02*
X115088000Y-82000200D01*
X131088000Y-92999100D02*
X131088000Y-92999500D01*
D61*
X115088000Y-82000000D02*
X115088000Y-82000200D01*
D67*
X85500000Y-89563000D02*
X85500000Y-90475000D01*
D68*
X112650000Y-83000000D02*
X111150000Y-83000000D01*
D61*
X101747000Y-80709100D02*
X103506000Y-78950000D01*
D59*
X73088000Y-89500000D02*
X76500000Y-89500000D01*
D61*
X103887000Y-78950000D02*
X104000000Y-78950000D01*
D62*
X111000000Y-76912500D02*
X109850000Y-76912500D01*
D61*
X104000000Y-82950000D02*
X103339000Y-82950000D01*
X94693900Y-89563000D02*
X96613000Y-89563000D01*
D67*
X85500000Y-80475000D02*
X85500000Y-85025000D01*
D62*
X115087700Y-82000200D02*
X115087500Y-82000000D01*
X108176600Y-75239000D02*
X107937500Y-75000000D01*
X83450000Y-85025000D02*
X83000000Y-85475000D01*
D61*
X131088000Y-92977600D02*
X131088000Y-92988800D01*
X103506000Y-78950000D02*
X103753000Y-78950000D01*
D62*
X122479000Y-90500000D02*
X123200000Y-90500000D01*
X103225000Y-77826200D02*
X102944100Y-77545300D01*
D61*
X115088000Y-82000500D02*
X115038000Y-82050000D01*
D62*
X122392000Y-90412500D02*
X122479000Y-90500000D01*
D61*
X103753000Y-78950000D02*
X103887000Y-78950000D01*
D62*
X118750000Y-88950000D02*
X118800000Y-89000000D01*
X120382000Y-90412500D02*
X122392000Y-90412500D01*
D61*
X131088000Y-92283200D02*
X131088000Y-92283700D01*
X131088000Y-92998600D02*
X131088000Y-92999100D01*
X103753000Y-78950000D02*
X103887000Y-78950000D01*
D64*
X104862000Y-87037600D02*
X104862000Y-87050000D01*
D62*
X123200000Y-90500000D02*
X124439000Y-90500000D01*
D61*
X131088000Y-92997200D02*
X131088000Y-92998600D01*
X131088000Y-92994400D02*
X131088000Y-92997200D01*
D62*
X118800000Y-91000000D02*
X119795000Y-91000000D01*
X131088000Y-92994400D02*
X131088000Y-92997200D01*
X111809600Y-77722100D02*
X112087500Y-78000000D01*
X136087500Y-77707500D02*
X141000000Y-82620000D01*
D67*
X85500000Y-85025000D02*
X85500000Y-89563000D01*
X81425000Y-84950000D02*
X83000000Y-85475000D01*
X83000000Y-80475000D02*
X85500000Y-80475000D01*
D61*
X96902000Y-85504500D02*
X104000000Y-85504500D01*
X113600000Y-82050000D02*
X112650000Y-83000000D01*
X116775000Y-91675400D02*
X116775000Y-90224600D01*
X96613000Y-89563000D02*
X97000000Y-89950000D01*
D62*
X131088000Y-92641800D02*
X131088000Y-92820900D01*
X110030000Y-55980000D02*
X113000000Y-58950000D01*
D59*
X77475000Y-90475000D02*
X83000000Y-90475000D01*
D62*
X107937500Y-75000000D02*
X109937500Y-73000000D01*
X131088000Y-92988800D02*
X131088000Y-92994400D01*
D61*
X131551000Y-91103000D02*
X123649000Y-83201200D01*
X116289000Y-83201200D02*
X115088000Y-82000000D01*
D62*
X104862000Y-87037600D02*
X104862500Y-87038100D01*
X103506000Y-77826200D02*
X103506000Y-78950000D01*
D63*
%TO.N,VIN24*%
X60000000Y-120000000D02*
X60000000Y-114400000D01*
X63000000Y-123000000D02*
X60000000Y-120000000D01*
%TD*%
%TA.AperFunction,Conductor*%
%TO.N,/02 / POWER AND SENSOR SUPPLY/SENS_RAW*%
G36*
X89959191Y-104018907D02*
G01*
X89995155Y-104068407D01*
X90000000Y-104099000D01*
X90000000Y-108427094D01*
X89981093Y-108485285D01*
X89931593Y-108521249D01*
X89870407Y-108521249D01*
X89821748Y-108486424D01*
X89807550Y-108467459D01*
X89807548Y-108467457D01*
X89807546Y-108467454D01*
X89807541Y-108467450D01*
X89692329Y-108381202D01*
X89557488Y-108330910D01*
X89557483Y-108330909D01*
X89557481Y-108330908D01*
X89557477Y-108330908D01*
X89526249Y-108327550D01*
X89497873Y-108324500D01*
X89497870Y-108324500D01*
X88502133Y-108324500D01*
X88502129Y-108324500D01*
X88502128Y-108324501D01*
X88494949Y-108325272D01*
X88442519Y-108330908D01*
X88442514Y-108330909D01*
X88307670Y-108381202D01*
X88192452Y-108467455D01*
X88187444Y-108472463D01*
X88186794Y-108471813D01*
X88151153Y-108499499D01*
X88131323Y-108507713D01*
X88131318Y-108507715D01*
X88068631Y-108533677D01*
X88018851Y-108566939D01*
X88018848Y-108566941D01*
X87966177Y-108602131D01*
X87919235Y-108649073D01*
X85608823Y-110959191D01*
X85597004Y-110971008D01*
X85542486Y-110998782D01*
X85527005Y-111000000D01*
X84099000Y-111000000D01*
X84040809Y-110981093D01*
X84004845Y-110931593D01*
X84000000Y-110901000D01*
X84000000Y-104099000D01*
X84018907Y-104040809D01*
X84068407Y-104004845D01*
X84099000Y-104000000D01*
X89901000Y-104000000D01*
X89959191Y-104018907D01*
G37*
%TD.AperFunction*%
%TA.AperFunction,Conductor*%
G36*
X89932935Y-109654197D02*
G01*
X89981916Y-109690864D01*
X90000000Y-109747905D01*
X90000000Y-110901000D01*
X89981093Y-110959191D01*
X89931593Y-110995155D01*
X89901000Y-111000000D01*
X87576331Y-111000000D01*
X87518140Y-110981093D01*
X87482176Y-110931593D01*
X87482176Y-110870407D01*
X87506332Y-110830992D01*
X87698602Y-110638746D01*
X88457955Y-109879489D01*
X88512471Y-109851717D01*
X88527939Y-109850499D01*
X89497872Y-109850499D01*
X89557483Y-109844091D01*
X89624907Y-109818943D01*
X89692329Y-109793797D01*
X89692329Y-109793796D01*
X89692331Y-109793796D01*
X89807546Y-109707546D01*
X89821747Y-109688576D01*
X89871755Y-109653323D01*
X89932935Y-109654197D01*
G37*
%TD.AperFunction*%
%TD*%
%TA.AperFunction,Conductor*%
%TO.N,/04 / PROTECTED CURRENT INPUT/AI_LIMIT_OUT*%
G36*
X102398308Y-103018907D02*
G01*
X102410125Y-103029001D01*
X102971009Y-103589953D01*
X102974632Y-103597064D01*
X102981093Y-103601759D01*
X102988258Y-103623811D01*
X102998782Y-103644469D01*
X103000000Y-103659950D01*
X103000000Y-103782818D01*
X102981093Y-103841009D01*
X102980254Y-103842147D01*
X102931201Y-103907672D01*
X102880910Y-104042511D01*
X102880908Y-104042522D01*
X102874500Y-104102129D01*
X102874500Y-104822866D01*
X102874501Y-104822870D01*
X102880908Y-104882480D01*
X102880909Y-104882485D01*
X102931203Y-105017330D01*
X102931204Y-105017333D01*
X102980252Y-105082850D01*
X102999990Y-105140764D01*
X103000000Y-105142180D01*
X103000000Y-108901000D01*
X102981093Y-108959191D01*
X102931593Y-108995155D01*
X102901000Y-109000000D01*
X97099000Y-109000000D01*
X97040809Y-108981093D01*
X97004845Y-108931593D01*
X97000000Y-108901000D01*
X97000000Y-103099000D01*
X97018907Y-103040809D01*
X97068407Y-103004845D01*
X97099000Y-103000000D01*
X102340117Y-103000000D01*
X102398308Y-103018907D01*
G37*
%TD.AperFunction*%
%TD*%
M02*
