%TF.GenerationSoftware,KiCad,Pcbnew,9.0.7*%
%TF.CreationDate,2026-09-07T13:16:34+02:00*%
%TF.ProjectId,chatgpt_astra_test2,63686174-6770-4745-9f61-737472615f74,rev?*%
%TF.SameCoordinates,Original*%
%TF.FileFunction,Paste,Top*%
%TF.FilePolarity,Positive*%
%FSLAX46Y46*%
G04 Gerber Fmt 4.6, Leading zero omitted, Abs format (unit mm)*
G04 Created by KiCad (PCBNEW 9.0.7) date 2026-09-07 13:16:34*
%MOMM*%
%LPD*%
G01*
G04 APERTURE LIST*
G04 Aperture macros list*
%AMRoundRect*
0 Rectangle with rounded corners*
0 $1 Rounding radius*
0 $2 $3 $4 $5 $6 $7 $8 $9 X,Y pos of 4 corners*
0 Add a 4 corners polygon primitive as box body*
4,1,4,$2,$3,$4,$5,$6,$7,$8,$9,$2,$3,0*
0 Add four circle primitives for the rounded corners*
1,1,$1+$1,$2,$3*
1,1,$1+$1,$4,$5*
1,1,$1+$1,$6,$7*
1,1,$1+$1,$8,$9*
0 Add four rect primitives between the rounded corners*
20,1,$1+$1,$2,$3,$4,$5,0*
20,1,$1+$1,$4,$5,$6,$7,0*
20,1,$1+$1,$6,$7,$8,$9,0*
20,1,$1+$1,$8,$9,$2,$3,0*%
G04 Aperture macros list end*
%ADD10RoundRect,0.250000X-0.262500X-0.450000X0.262500X-0.450000X0.262500X0.450000X-0.262500X0.450000X0*%
%ADD11RoundRect,0.250000X0.450000X-0.262500X0.450000X0.262500X-0.450000X0.262500X-0.450000X-0.262500X0*%
%ADD12RoundRect,0.250000X-0.250000X-0.475000X0.250000X-0.475000X0.250000X0.475000X-0.250000X0.475000X0*%
%ADD13RoundRect,0.250000X0.475000X-0.250000X0.475000X0.250000X-0.475000X0.250000X-0.475000X-0.250000X0*%
%ADD14RoundRect,0.225000X0.375000X-0.225000X0.375000X0.225000X-0.375000X0.225000X-0.375000X-0.225000X0*%
%ADD15RoundRect,0.100000X-0.637500X-0.100000X0.637500X-0.100000X0.637500X0.100000X-0.637500X0.100000X0*%
%ADD16R,2.400000X3.100000*%
%ADD17R,2.200000X0.500000*%
%ADD18RoundRect,0.250000X0.625000X-0.312500X0.625000X0.312500X-0.625000X0.312500X-0.625000X-0.312500X0*%
%ADD19RoundRect,0.250000X-1.000000X-0.900000X1.000000X-0.900000X1.000000X0.900000X-1.000000X0.900000X0*%
%ADD20R,1.100000X0.250000*%
%ADD21RoundRect,0.250000X1.100000X-0.325000X1.100000X0.325000X-1.100000X0.325000X-1.100000X-0.325000X0*%
%ADD22RoundRect,0.250000X-1.000000X-0.650000X1.000000X-0.650000X1.000000X0.650000X-1.000000X0.650000X0*%
%ADD23RoundRect,0.225000X-0.225000X-0.375000X0.225000X-0.375000X0.225000X0.375000X-0.225000X0.375000X0*%
%ADD24RoundRect,0.250000X0.650000X-0.325000X0.650000X0.325000X-0.650000X0.325000X-0.650000X-0.325000X0*%
%ADD25RoundRect,0.375000X-0.625000X-0.375000X0.625000X-0.375000X0.625000X0.375000X-0.625000X0.375000X0*%
%ADD26RoundRect,0.500000X-0.500000X-1.400000X0.500000X-1.400000X0.500000X1.400000X-0.500000X1.400000X0*%
%ADD27R,0.900000X0.900000*%
%ADD28R,1.500000X0.900000*%
%ADD29R,0.900000X1.500000*%
%ADD30RoundRect,0.250000X0.625000X-0.375000X0.625000X0.375000X-0.625000X0.375000X-0.625000X-0.375000X0*%
%ADD31R,0.600000X1.450000*%
%ADD32R,0.300000X1.450000*%
%ADD33RoundRect,0.075000X-0.650000X-0.075000X0.650000X-0.075000X0.650000X0.075000X-0.650000X0.075000X0*%
%ADD34RoundRect,0.243750X-0.243750X-0.456250X0.243750X-0.456250X0.243750X0.456250X-0.243750X0.456250X0*%
%ADD35R,1.700000X1.000000*%
%ADD36RoundRect,0.185000X-0.185000X-0.195000X0.185000X-0.195000X0.185000X0.195000X-0.185000X0.195000X0*%
%ADD37RoundRect,0.250000X-0.312500X-0.625000X0.312500X-0.625000X0.312500X0.625000X-0.312500X0.625000X0*%
%ADD38RoundRect,0.250000X0.900000X-1.000000X0.900000X1.000000X-0.900000X1.000000X-0.900000X-1.000000X0*%
%ADD39RoundRect,0.150000X-0.512500X-0.150000X0.512500X-0.150000X0.512500X0.150000X-0.512500X0.150000X0*%
%ADD40RoundRect,0.247500X-0.822500X-0.247500X0.822500X-0.247500X0.822500X0.247500X-0.822500X0.247500X0*%
%ADD41RoundRect,0.100000X-0.687500X-0.100000X0.687500X-0.100000X0.687500X0.100000X-0.687500X0.100000X0*%
%ADD42RoundRect,0.150000X-0.587500X-0.150000X0.587500X-0.150000X0.587500X0.150000X-0.587500X0.150000X0*%
%ADD43R,2.350000X5.100000*%
G04 APERTURE END LIST*
D10*
%TO.C,R21*%
X98087500Y-100000000D03*
X99912500Y-100000000D03*
%TD*%
D11*
%TO.C,R1*%
X59000000Y-98912500D03*
X59000000Y-97087500D03*
%TD*%
D12*
%TO.C,C2*%
X73050000Y-101000000D03*
X74950000Y-101000000D03*
%TD*%
D13*
%TO.C,C1*%
X76000000Y-113950000D03*
X76000000Y-112050000D03*
%TD*%
D14*
%TO.C,D7*%
X113000000Y-97650000D03*
X113000000Y-94350000D03*
%TD*%
D13*
%TO.C,C21*%
X126000000Y-89950000D03*
X126000000Y-88050000D03*
%TD*%
D15*
%TO.C,U9*%
X99137500Y-87050000D03*
X99137500Y-87700000D03*
X99137500Y-88350000D03*
X99137500Y-89000000D03*
X99137500Y-89650000D03*
X99137500Y-90300000D03*
X99137500Y-90950000D03*
X104862500Y-90950000D03*
X104862500Y-90300000D03*
X104862500Y-89650000D03*
X104862500Y-89000000D03*
X104862500Y-88350000D03*
X104862500Y-87700000D03*
X104862500Y-87050000D03*
%TD*%
D10*
%TO.C,R14*%
X63087500Y-60000000D03*
X64912500Y-60000000D03*
%TD*%
D16*
%TO.C,U2*%
X67000000Y-85000000D03*
D17*
X64125000Y-83095000D03*
X64125000Y-84365000D03*
X64125000Y-85635000D03*
X64125000Y-86905000D03*
X69875000Y-86905000D03*
X69875000Y-85635000D03*
X69875000Y-84365000D03*
X69875000Y-83095000D03*
%TD*%
D11*
%TO.C,R4*%
X55000000Y-108912500D03*
X55000000Y-107087500D03*
%TD*%
D18*
%TO.C,R22*%
X104000000Y-104462500D03*
X104000000Y-101537500D03*
%TD*%
D19*
%TO.C,D1*%
X67850000Y-114000000D03*
X72150000Y-114000000D03*
%TD*%
D13*
%TO.C,C18*%
X104000000Y-78950000D03*
X104000000Y-77050000D03*
%TD*%
D20*
%TO.C,U10*%
X106850000Y-82000000D03*
X106850000Y-82500000D03*
X106850000Y-83000000D03*
X106850000Y-83500000D03*
X106850000Y-84000000D03*
X111150000Y-84000000D03*
X111150000Y-83500000D03*
X111150000Y-83000000D03*
X111150000Y-82500000D03*
X111150000Y-82000000D03*
%TD*%
D21*
%TO.C,C4*%
X58500000Y-83475000D03*
X58500000Y-80525000D03*
%TD*%
D11*
%TO.C,R24*%
X111000000Y-76912500D03*
X111000000Y-75087500D03*
%TD*%
D10*
%TO.C,R7*%
X73087500Y-94000000D03*
X74912500Y-94000000D03*
%TD*%
D22*
%TO.C,D2*%
X72000000Y-106000000D03*
X76000000Y-106000000D03*
%TD*%
D23*
%TO.C,D8*%
X128350000Y-114000000D03*
X131650000Y-114000000D03*
%TD*%
D24*
%TO.C,C8*%
X83000000Y-80475000D03*
X83000000Y-77525000D03*
%TD*%
D13*
%TO.C,C23*%
X128000000Y-107950000D03*
X128000000Y-106050000D03*
%TD*%
%TO.C,C20*%
X115500000Y-92950000D03*
X115500000Y-91050000D03*
%TD*%
D25*
%TO.C,U7*%
X92850000Y-103700000D03*
X92850000Y-106000000D03*
D26*
X99150000Y-106000000D03*
D25*
X92850000Y-108300000D03*
%TD*%
D13*
%TO.C,C19*%
X115500000Y-88950000D03*
X115500000Y-87050000D03*
%TD*%
D10*
%TO.C,R11*%
X113087500Y-73000000D03*
X114912500Y-73000000D03*
%TD*%
%TO.C,R6*%
X73087500Y-91000000D03*
X74912500Y-91000000D03*
%TD*%
D27*
%TO.C,U4*%
X122100000Y-57760000D03*
X122100000Y-59160000D03*
X122100000Y-60560000D03*
X123500000Y-57760000D03*
X123500000Y-59160000D03*
X123500000Y-60560000D03*
X124900000Y-57760000D03*
X124900000Y-59160000D03*
X124900000Y-60560000D03*
D28*
X116250000Y-51440000D03*
X116250000Y-52710000D03*
X116250000Y-53980000D03*
X116250000Y-55250000D03*
X116250000Y-56520000D03*
X116250000Y-57790000D03*
X116250000Y-59060000D03*
X116250000Y-60330000D03*
X116250000Y-61600000D03*
X116250000Y-62870000D03*
X116250000Y-64140000D03*
X116250000Y-65410000D03*
X116250000Y-66680000D03*
X116250000Y-67950000D03*
D29*
X118015000Y-69200000D03*
X119285000Y-69200000D03*
X120555000Y-69200000D03*
X121825000Y-69200000D03*
X123095000Y-69200000D03*
X124365000Y-69200000D03*
X125635000Y-69200000D03*
X126905000Y-69200000D03*
X128175000Y-69200000D03*
X129445000Y-69200000D03*
X130715000Y-69200000D03*
X131985000Y-69200000D03*
D28*
X133750000Y-67950000D03*
X133750000Y-66680000D03*
X133750000Y-65410000D03*
X133750000Y-64140000D03*
X133750000Y-62870000D03*
X133750000Y-61600000D03*
X133750000Y-60330000D03*
X133750000Y-59060000D03*
X133750000Y-57790000D03*
X133750000Y-56520000D03*
X133750000Y-55250000D03*
X133750000Y-53980000D03*
X133750000Y-52710000D03*
X133750000Y-51440000D03*
%TD*%
D30*
%TO.C,F1*%
X60000000Y-114400000D03*
X60000000Y-111600000D03*
%TD*%
D10*
%TO.C,R25*%
X121087500Y-96000000D03*
X122912500Y-96000000D03*
%TD*%
D31*
%TO.C,J4*%
X98250000Y-58845000D03*
X97450000Y-58845000D03*
D32*
X96250000Y-58845000D03*
X95250000Y-58845000D03*
X94750000Y-58845000D03*
X93750000Y-58845000D03*
D31*
X92550000Y-58845000D03*
X91750000Y-58845000D03*
X91750000Y-58845000D03*
X92550000Y-58845000D03*
D32*
X93250000Y-58845000D03*
X94250000Y-58845000D03*
X95750000Y-58845000D03*
X96750000Y-58845000D03*
D31*
X97450000Y-58845000D03*
X98250000Y-58845000D03*
%TD*%
D11*
%TO.C,R26*%
X123000000Y-102912500D03*
X123000000Y-101087500D03*
%TD*%
%TO.C,R29*%
X111000000Y-110912500D03*
X111000000Y-109087500D03*
%TD*%
D10*
%TO.C,R8*%
X80087500Y-113000000D03*
X81912500Y-113000000D03*
%TD*%
D13*
%TO.C,C5*%
X61500000Y-85310000D03*
X61500000Y-83410000D03*
%TD*%
D12*
%TO.C,C25*%
X140050000Y-115000000D03*
X141950000Y-115000000D03*
%TD*%
%TO.C,C22*%
X121050000Y-99000000D03*
X122950000Y-99000000D03*
%TD*%
D11*
%TO.C,R3*%
X59000000Y-106912500D03*
X59000000Y-105087500D03*
%TD*%
D13*
%TO.C,C17*%
X104000000Y-82950000D03*
X104000000Y-81050000D03*
%TD*%
%TO.C,C14*%
X103800000Y-74350000D03*
X103800000Y-72450000D03*
%TD*%
D10*
%TO.C,R28*%
X131087500Y-93000000D03*
X132912500Y-93000000D03*
%TD*%
D33*
%TO.C,U11*%
X118800000Y-89000000D03*
X118800000Y-89500000D03*
X118800000Y-90000000D03*
X118800000Y-90500000D03*
X118800000Y-91000000D03*
X123200000Y-91000000D03*
X123200000Y-90500000D03*
X123200000Y-90000000D03*
X123200000Y-89500000D03*
X123200000Y-89000000D03*
%TD*%
D13*
%TO.C,C24*%
X123000000Y-109950000D03*
X123000000Y-108050000D03*
%TD*%
D10*
%TO.C,R5*%
X70087500Y-97000000D03*
X71912500Y-97000000D03*
%TD*%
D34*
%TO.C,D4*%
X63062500Y-56000000D03*
X64937500Y-56000000D03*
%TD*%
D13*
%TO.C,C11*%
X111000000Y-54950000D03*
X111000000Y-53050000D03*
%TD*%
D10*
%TO.C,R12*%
X115087500Y-78000000D03*
X116912500Y-78000000D03*
%TD*%
D35*
%TO.C,SW1*%
X80850000Y-54100000D03*
X87150000Y-54100000D03*
X80850000Y-57900000D03*
X87150000Y-57900000D03*
%TD*%
%TO.C,SW2*%
X70850000Y-54100000D03*
X77150000Y-54100000D03*
X70850000Y-57900000D03*
X77150000Y-57900000D03*
%TD*%
D36*
%TO.C,U12*%
X127540000Y-100530000D03*
X127540000Y-101470000D03*
X128460000Y-100530000D03*
X128460000Y-101470000D03*
D33*
X125850000Y-100000000D03*
X125850000Y-100500000D03*
X125850000Y-101000000D03*
X125850000Y-101500000D03*
X125850000Y-102000000D03*
X130150000Y-102000000D03*
X130150000Y-101500000D03*
X130150000Y-101000000D03*
X130150000Y-100500000D03*
X130150000Y-100000000D03*
%TD*%
D37*
%TO.C,R19*%
X95537500Y-113000000D03*
X98462500Y-113000000D03*
%TD*%
D10*
%TO.C,R31*%
X134087500Y-115000000D03*
X135912500Y-115000000D03*
%TD*%
D38*
%TO.C,D9*%
X123000000Y-122150000D03*
X123000000Y-117850000D03*
%TD*%
D11*
%TO.C,R16*%
X99500000Y-71412500D03*
X99500000Y-69587500D03*
%TD*%
D39*
%TO.C,U6*%
X93862500Y-63050000D03*
X93862500Y-64000000D03*
X93862500Y-64950000D03*
X96137500Y-64950000D03*
X96137500Y-64000000D03*
X96137500Y-63050000D03*
%TD*%
D10*
%TO.C,R13*%
X115087500Y-82000000D03*
X116912500Y-82000000D03*
%TD*%
D40*
%TO.C,U1*%
X66000000Y-102385000D03*
X66000000Y-103615000D03*
D41*
X63137500Y-100725000D03*
X63137500Y-101375000D03*
X63137500Y-102025000D03*
X63137500Y-102675000D03*
X63137500Y-103325000D03*
X63137500Y-103975000D03*
X63137500Y-104625000D03*
X63137500Y-105275000D03*
X68862500Y-105275000D03*
X68862500Y-104625000D03*
X68862500Y-103975000D03*
X68862500Y-103325000D03*
X68862500Y-102675000D03*
X68862500Y-102025000D03*
X68862500Y-101375000D03*
X68862500Y-100725000D03*
%TD*%
D13*
%TO.C,C12*%
X113000000Y-58950000D03*
X113000000Y-57050000D03*
%TD*%
D42*
%TO.C,U8*%
X108062500Y-95050000D03*
X108062500Y-96950000D03*
X109937500Y-96000000D03*
%TD*%
D10*
%TO.C,R20*%
X92087500Y-100000000D03*
X93912500Y-100000000D03*
%TD*%
D13*
%TO.C,C15*%
X97000000Y-89950000D03*
X97000000Y-88050000D03*
%TD*%
D12*
%TO.C,C13*%
X108050000Y-62000000D03*
X109950000Y-62000000D03*
%TD*%
D10*
%TO.C,R10*%
X136087500Y-75000000D03*
X137912500Y-75000000D03*
%TD*%
D43*
%TO.C,L1*%
X75925000Y-85000000D03*
X80075000Y-85000000D03*
%TD*%
D11*
%TO.C,R9*%
X89000000Y-110912500D03*
X89000000Y-109087500D03*
%TD*%
D25*
%TO.C,U3*%
X79850000Y-104700000D03*
X79850000Y-107000000D03*
D26*
X86150000Y-107000000D03*
D25*
X79850000Y-109300000D03*
%TD*%
D12*
%TO.C,C7*%
X68050000Y-90000000D03*
X69950000Y-90000000D03*
%TD*%
D11*
%TO.C,R2*%
X59000000Y-102912500D03*
X59000000Y-101087500D03*
%TD*%
%TO.C,R15*%
X88000000Y-62912500D03*
X88000000Y-61087500D03*
%TD*%
D10*
%TO.C,R23*%
X103087500Y-97000000D03*
X104912500Y-97000000D03*
%TD*%
D23*
%TO.C,D3*%
X107350000Y-71800000D03*
X110650000Y-71800000D03*
%TD*%
D10*
%TO.C,R30*%
X136087500Y-99000000D03*
X137912500Y-99000000D03*
%TD*%
D42*
%TO.C,U5*%
X106062500Y-74050000D03*
X106062500Y-75950000D03*
X107937500Y-75000000D03*
%TD*%
D21*
%TO.C,C3*%
X78000000Y-99475000D03*
X78000000Y-96525000D03*
%TD*%
D13*
%TO.C,C16*%
X107000000Y-90950000D03*
X107000000Y-89050000D03*
%TD*%
D10*
%TO.C,R27*%
X132087500Y-97000000D03*
X133912500Y-97000000D03*
%TD*%
%TO.C,R18*%
X111587500Y-65800000D03*
X113412500Y-65800000D03*
%TD*%
D23*
%TO.C,D5*%
X90350000Y-113000000D03*
X93650000Y-113000000D03*
%TD*%
D13*
%TO.C,C6*%
X72500000Y-84680000D03*
X72500000Y-82780000D03*
%TD*%
D10*
%TO.C,R17*%
X111587500Y-68800000D03*
X113412500Y-68800000D03*
%TD*%
D42*
%TO.C,Q2*%
X114062500Y-111050000D03*
X114062500Y-112950000D03*
X115937500Y-112000000D03*
%TD*%
%TO.C,Q4*%
X133062500Y-102050000D03*
X133062500Y-103950000D03*
X134937500Y-103000000D03*
%TD*%
D24*
%TO.C,C9*%
X83000000Y-85475000D03*
X83000000Y-82525000D03*
%TD*%
%TO.C,C10*%
X83000000Y-90475000D03*
X83000000Y-87525000D03*
%TD*%
D42*
%TO.C,Q1*%
X114062500Y-106050000D03*
X114062500Y-107950000D03*
X115937500Y-107000000D03*
%TD*%
M02*
