%TF.GenerationSoftware,KiCad,Pcbnew,9.0.7*%
%TF.CreationDate,2026-09-07T13:03:37+02:00*%
%TF.ProjectId,chatgpt_astra_test2,63686174-6770-4745-9f61-737472615f74,rev?*%
%TF.SameCoordinates,Original*%
%TF.FileFunction,Copper,L2,Inr*%
%TF.FilePolarity,Positive*%
%FSLAX46Y46*%
G04 Gerber Fmt 4.6, Leading zero omitted, Abs format (unit mm)*
G04 Created by KiCad (PCBNEW 9.0.7) date 2026-09-07 13:03:37*
%MOMM*%
%LPD*%
G01*
G04 APERTURE LIST*
G04 Aperture macros list*
%AMRoundRect*
0 Rectangle with rounded corners*
0 $1 Rounding radius*
0 $2 $3 $4 $5 $6 $7 $8 $9 X,Y pos of 4 corners*
0 Add a 4 corners polygon primitive as box body*
4,1,4,$2,$3,$4,$5,$6,$7,$8,$9,$2,$3,0*
0 Add four circle primitives for the rounded corners*
1,1,$1+$1,$2,$3*
1,1,$1+$1,$4,$5*
1,1,$1+$1,$6,$7*
1,1,$1+$1,$8,$9*
0 Add four rect primitives between the rounded corners*
20,1,$1+$1,$2,$3,$4,$5,0*
20,1,$1+$1,$4,$5,$6,$7,0*
20,1,$1+$1,$6,$7,$8,$9,0*
20,1,$1+$1,$8,$9,$2,$3,0*%
G04 Aperture macros list end*
%TA.AperFunction,ComponentPad*%
%ADD10C,0.630000*%
%TD*%
%TA.AperFunction,ComponentPad*%
%ADD11R,1.700000X1.700000*%
%TD*%
%TA.AperFunction,ComponentPad*%
%ADD12C,1.700000*%
%TD*%
%TA.AperFunction,ComponentPad*%
%ADD13RoundRect,0.249999X-0.850001X-0.850001X0.850001X-0.850001X0.850001X0.850001X-0.850001X0.850001X0*%
%TD*%
%TA.AperFunction,ComponentPad*%
%ADD14C,2.200000*%
%TD*%
%TA.AperFunction,HeatsinkPad*%
%ADD15C,0.600000*%
%TD*%
%TA.AperFunction,ComponentPad*%
%ADD16RoundRect,0.250000X-1.050000X-1.050000X1.050000X-1.050000X1.050000X1.050000X-1.050000X1.050000X0*%
%TD*%
%TA.AperFunction,ComponentPad*%
%ADD17C,2.600000*%
%TD*%
%TA.AperFunction,HeatsinkPad*%
%ADD18O,1.000000X2.100000*%
%TD*%
%TA.AperFunction,HeatsinkPad*%
%ADD19O,1.000000X1.600000*%
%TD*%
%TA.AperFunction,ComponentPad*%
%ADD20R,1.905000X2.000000*%
%TD*%
%TA.AperFunction,ComponentPad*%
%ADD21O,1.905000X2.000000*%
%TD*%
%TA.AperFunction,ViaPad*%
%ADD22C,0.600000*%
%TD*%
%TA.AperFunction,ViaPad*%
%ADD23C,0.500000*%
%TD*%
G04 APERTURE END LIST*
D10*
%TO.N,GND*%
%TO.C,U2*%
X66350000Y-83700000D03*
X66350000Y-85000000D03*
X66350000Y-86300000D03*
X67650000Y-83700000D03*
X67650000Y-85000000D03*
X67650000Y-86300000D03*
%TD*%
D11*
%TO.N,GND*%
%TO.C,J5*%
X141000000Y-75000000D03*
D12*
%TO.N,/03 / ESP32 AND USB/UART_TX*%
X141000000Y-77540000D03*
%TO.N,/03 / ESP32 AND USB/UART_RX*%
X141000000Y-80080000D03*
%TO.N,V3V3*%
X141000000Y-82620000D03*
%TD*%
D13*
%TO.N,/04 / PROTECTED CURRENT INPUT/AI_PROT*%
%TO.C,D6*%
X105000000Y-117000000D03*
D14*
%TO.N,GND*%
X115160000Y-117000000D03*
%TD*%
D15*
%TO.N,GND*%
%TO.C,U4*%
X122100000Y-58460000D03*
X122100000Y-59860000D03*
X122800000Y-57760000D03*
X122800000Y-59160000D03*
X122800000Y-60560000D03*
X123500000Y-58460000D03*
X123500000Y-59860000D03*
X124200000Y-57760000D03*
X124200000Y-59160000D03*
X124200000Y-60560000D03*
X124900000Y-58460000D03*
X124900000Y-59860000D03*
%TD*%
D16*
%TO.N,VIN24*%
%TO.C,J1*%
X63000000Y-123000000D03*
D17*
%TO.N,GND*%
X68080000Y-123000000D03*
%TD*%
D18*
%TO.N,GND*%
%TO.C,J4*%
X99320000Y-57930000D03*
D19*
X99320000Y-53750000D03*
D18*
X90680000Y-57930000D03*
D19*
X90680000Y-53750000D03*
%TD*%
D16*
%TO.N,AO_OUT*%
%TO.C,J3*%
X130000000Y-123000000D03*
D17*
%TO.N,GND*%
X135080000Y-123000000D03*
%TD*%
D20*
%TO.N,/05 / PRECISION CURRENT OUTPUT/XTR_GATE*%
%TO.C,Q3*%
X137000000Y-110000000D03*
D21*
%TO.N,/05 / PRECISION CURRENT OUTPUT/AO_DRAIN*%
X139540000Y-110000000D03*
%TO.N,/05 / PRECISION CURRENT OUTPUT/PMOS_SOURCE*%
X142080000Y-110000000D03*
%TD*%
D15*
%TO.N,GND*%
%TO.C,U12*%
X127350000Y-99700000D03*
X127350000Y-101000000D03*
X127350000Y-102300000D03*
X128650000Y-99700000D03*
X128650000Y-101000000D03*
X128650000Y-102300000D03*
%TD*%
%TO.N,/02 / POWER AND SENSOR SUPPLY/EF_RTN*%
%TO.C,U1*%
X64800000Y-101200000D03*
X64800000Y-102400000D03*
X64800000Y-103600000D03*
X64800000Y-104800000D03*
X66000000Y-101200000D03*
X66000000Y-102400000D03*
X66000000Y-103600000D03*
X66000000Y-104800000D03*
X67200000Y-101200000D03*
X67200000Y-102400000D03*
X67200000Y-103600000D03*
X67200000Y-104800000D03*
%TD*%
D16*
%TO.N,SENSOR_PWR*%
%TO.C,J2*%
X89000000Y-123000000D03*
D17*
%TO.N,AI_IN*%
X94080000Y-123000000D03*
%TO.N,GND*%
X99160000Y-123000000D03*
%TD*%
D22*
%TO.N,/02 / POWER AND SENSOR SUPPLY/BUCK_FB*%
X76500000Y-90700000D03*
X71000000Y-87100000D03*
%TO.N,/02 / POWER AND SENSOR SUPPLY/EF_ILIM*%
X70500000Y-103975000D03*
X70087500Y-95700000D03*
%TO.N,/02 / POWER AND SENSOR SUPPLY/EF_OV*%
X58354200Y-108311000D03*
X59219500Y-104072000D03*
%TO.N,/02 / POWER AND SENSOR SUPPLY/EF_RTN*%
X72257500Y-98210200D03*
X60370600Y-101088000D03*
X74031100Y-101868000D03*
%TO.N,/02 / POWER AND SENSOR SUPPLY/EF_UV*%
X60694700Y-97073400D03*
X61460400Y-102025000D03*
%TO.N,/02 / POWER AND SENSOR SUPPLY/SENS_RAW*%
X88500000Y-105500000D03*
X88500000Y-104500000D03*
%TO.N,/03 / ESP32 AND USB/BOOT_N*%
X108847000Y-52578100D03*
X116555000Y-72878000D03*
%TO.N,/03 / ESP32 AND USB/ESP_EN*%
X115915400Y-74015400D03*
X112384400Y-70484400D03*
%TO.N,/03 / ESP32 AND USB/LED_STATUS*%
X67290800Y-64203200D03*
X125635000Y-67935800D03*
%TO.N,/03 / ESP32 AND USB/UART_RX*%
X135012000Y-56520000D03*
%TO.N,/03 / ESP32 AND USB/UART_TX*%
X135944000Y-55250000D03*
%TO.N,/03 / ESP32 AND USB/USB_CC2*%
X93437500Y-57589400D03*
X100041100Y-68194300D03*
D23*
%TO.N,/03 / ESP32 AND USB/USB_DM*%
X92400000Y-63225000D03*
X94750000Y-61100000D03*
X95750000Y-61100000D03*
%TO.N,/03 / ESP32 AND USB/USB_DP*%
X95250000Y-60300000D03*
X91600000Y-64950000D03*
X94250000Y-60300000D03*
D22*
%TO.N,/04 / PROTECTED CURRENT INPUT/AI_CLAMP*%
X100789000Y-87700000D03*
X102386000Y-95377100D03*
%TO.N,/04 / PROTECTED CURRENT INPUT/AI_LIMIT_OUT*%
X101500000Y-104700000D03*
X101500000Y-103700000D03*
%TO.N,/04 / PROTECTED CURRENT INPUT/AI_SHUNT*%
X101700000Y-97000000D03*
X105800000Y-104463000D03*
%TO.N,/05 / PRECISION CURRENT OUTPUT/XTR_GATE*%
X124764000Y-102456000D03*
%TO.N,/05 / PRECISION CURRENT OUTPUT/XTR_IS*%
X129692000Y-103889000D03*
X124600000Y-100400000D03*
%TO.N,/05 / PRECISION CURRENT OUTPUT/XTR_OD*%
X134032000Y-98203500D03*
X125282000Y-107000000D03*
X131600000Y-100500000D03*
%TO.N,/05 / PRECISION CURRENT OUTPUT/XTR_REG*%
X124133000Y-109296000D03*
X125758000Y-102653000D03*
X131187000Y-97900400D03*
%TO.N,/05 / PRECISION CURRENT OUTPUT/XTR_SET*%
X124000000Y-104000000D03*
X132000000Y-103000000D03*
%TO.N,AO_ENABLE*%
X121825000Y-70455800D03*
X114180000Y-105245000D03*
%TO.N,AO_FAULT_N*%
X133802000Y-92110800D03*
X123095000Y-70454600D03*
%TO.N,GND*%
X70900000Y-90000000D03*
X131500000Y-99300000D03*
X124000000Y-99800000D03*
X95500000Y-88050000D03*
X111000000Y-51700000D03*
X80850000Y-59200000D03*
X84300000Y-82525000D03*
X112500000Y-84000000D03*
X114200000Y-91050000D03*
X108062000Y-98200000D03*
D23*
X94800000Y-64000000D03*
D22*
X135200000Y-51440000D03*
X114200000Y-87050000D03*
X127300000Y-88050000D03*
D23*
X90800000Y-65200000D03*
D22*
X64000000Y-81900000D03*
X57000000Y-80525000D03*
X108400000Y-89050000D03*
X79500000Y-96525000D03*
D23*
X96800000Y-60600000D03*
D22*
X113000000Y-112950000D03*
X102600000Y-81050000D03*
X110500000Y-63200000D03*
D23*
X90800000Y-63800000D03*
D22*
X84300000Y-87525000D03*
X123000000Y-100100000D03*
X124700000Y-117850000D03*
X70000000Y-105275000D03*
X103500000Y-89650000D03*
X102400000Y-101537000D03*
X114500000Y-94350000D03*
X77100000Y-106000000D03*
X61500000Y-82000000D03*
X143400000Y-115000000D03*
X114300000Y-57050000D03*
X128000000Y-105000000D03*
X76000000Y-94000000D03*
X104000000Y-75900000D03*
X121600000Y-108050000D03*
X77500000Y-112050000D03*
X109700000Y-109088000D03*
X84300000Y-77525000D03*
%TO.N,I2C_SCL*%
X119157000Y-82000000D03*
X121481000Y-91000000D03*
X120485000Y-70455800D03*
%TO.N,I2C_SDA*%
X118327000Y-78148900D03*
X118259000Y-65410000D03*
%TO.N,SYS_OK*%
X105864400Y-75146200D03*
X99391100Y-86348900D03*
X105436000Y-111807000D03*
%TO.N,V24_PROT*%
X126086000Y-99340300D03*
X120362000Y-101526000D03*
%TO.N,V3V3*%
X110030000Y-55919600D03*
X111580100Y-77951600D03*
X113886000Y-89698100D03*
X113600000Y-82050000D03*
%TD*%
%TA.AperFunction,Conductor*%
%TO.N,GND*%
G36*
X149459191Y-50518907D02*
G01*
X149495155Y-50568407D01*
X149500000Y-50599000D01*
X149500000Y-129401000D01*
X149481093Y-129459191D01*
X149431593Y-129495155D01*
X149401000Y-129500000D01*
X50599000Y-129500000D01*
X50540809Y-129481093D01*
X50504845Y-129431593D01*
X50500000Y-129401000D01*
X50500000Y-125878710D01*
X52149500Y-125878710D01*
X52149500Y-126121289D01*
X52181161Y-126361781D01*
X52181161Y-126361786D01*
X52243944Y-126596092D01*
X52243948Y-126596105D01*
X52336772Y-126820204D01*
X52336774Y-126820208D01*
X52336776Y-126820212D01*
X52458064Y-127030289D01*
X52458066Y-127030292D01*
X52605729Y-127222731D01*
X52605731Y-127222733D01*
X52605735Y-127222738D01*
X52777262Y-127394265D01*
X52777266Y-127394268D01*
X52777268Y-127394270D01*
X52969707Y-127541933D01*
X52969711Y-127541936D01*
X53179788Y-127663224D01*
X53403900Y-127756054D01*
X53638211Y-127818838D01*
X53878712Y-127850500D01*
X53878713Y-127850500D01*
X54121287Y-127850500D01*
X54121288Y-127850500D01*
X54361789Y-127818838D01*
X54596100Y-127756054D01*
X54820212Y-127663224D01*
X55030289Y-127541936D01*
X55222738Y-127394265D01*
X55394265Y-127222738D01*
X55541936Y-127030289D01*
X55663224Y-126820212D01*
X55756054Y-126596100D01*
X55818838Y-126361789D01*
X55850500Y-126121288D01*
X55850500Y-125878712D01*
X55850500Y-125878710D01*
X144149500Y-125878710D01*
X144149500Y-126121289D01*
X144181161Y-126361781D01*
X144181161Y-126361786D01*
X144243944Y-126596092D01*
X144243948Y-126596105D01*
X144336772Y-126820204D01*
X144336774Y-126820208D01*
X144336776Y-126820212D01*
X144458064Y-127030289D01*
X144458066Y-127030292D01*
X144605729Y-127222731D01*
X144605731Y-127222733D01*
X144605735Y-127222738D01*
X144777262Y-127394265D01*
X144777266Y-127394268D01*
X144777268Y-127394270D01*
X144969707Y-127541933D01*
X144969711Y-127541936D01*
X145179788Y-127663224D01*
X145403900Y-127756054D01*
X145638211Y-127818838D01*
X145878712Y-127850500D01*
X145878713Y-127850500D01*
X146121287Y-127850500D01*
X146121288Y-127850500D01*
X146361789Y-127818838D01*
X146596100Y-127756054D01*
X146820212Y-127663224D01*
X147030289Y-127541936D01*
X147222738Y-127394265D01*
X147394265Y-127222738D01*
X147541936Y-127030289D01*
X147663224Y-126820212D01*
X147756054Y-126596100D01*
X147818838Y-126361789D01*
X147850500Y-126121288D01*
X147850500Y-125878712D01*
X147818838Y-125638211D01*
X147756054Y-125403900D01*
X147663224Y-125179788D01*
X147541936Y-124969711D01*
X147394265Y-124777262D01*
X147222738Y-124605735D01*
X147222733Y-124605731D01*
X147222731Y-124605729D01*
X147030292Y-124458066D01*
X147030289Y-124458064D01*
X146820212Y-124336776D01*
X146820208Y-124336774D01*
X146820204Y-124336772D01*
X146596105Y-124243948D01*
X146596104Y-124243947D01*
X146596100Y-124243946D01*
X146361789Y-124181162D01*
X146361786Y-124181161D01*
X146361784Y-124181161D01*
X146121289Y-124149500D01*
X146121288Y-124149500D01*
X145878712Y-124149500D01*
X145878710Y-124149500D01*
X145638218Y-124181161D01*
X145638213Y-124181161D01*
X145403907Y-124243944D01*
X145403894Y-124243948D01*
X145179795Y-124336772D01*
X144969707Y-124458066D01*
X144777268Y-124605729D01*
X144605729Y-124777268D01*
X144458066Y-124969707D01*
X144336772Y-125179795D01*
X144243948Y-125403894D01*
X144243944Y-125403907D01*
X144181161Y-125638213D01*
X144181161Y-125638218D01*
X144149500Y-125878710D01*
X55850500Y-125878710D01*
X55818838Y-125638211D01*
X55756054Y-125403900D01*
X55663224Y-125179788D01*
X55541936Y-124969711D01*
X55394265Y-124777262D01*
X55222738Y-124605735D01*
X55222733Y-124605731D01*
X55222731Y-124605729D01*
X55030292Y-124458066D01*
X55030289Y-124458064D01*
X54820212Y-124336776D01*
X54820208Y-124336774D01*
X54820204Y-124336772D01*
X54596105Y-124243948D01*
X54596104Y-124243947D01*
X54596100Y-124243946D01*
X54361789Y-124181162D01*
X54361786Y-124181161D01*
X54361784Y-124181161D01*
X54121289Y-124149500D01*
X54121288Y-124149500D01*
X53878712Y-124149500D01*
X53878710Y-124149500D01*
X53638218Y-124181161D01*
X53638213Y-124181161D01*
X53403907Y-124243944D01*
X53403894Y-124243948D01*
X53179795Y-124336772D01*
X52969707Y-124458066D01*
X52777268Y-124605729D01*
X52605729Y-124777268D01*
X52458066Y-124969707D01*
X52336772Y-125179795D01*
X52243948Y-125403894D01*
X52243944Y-125403907D01*
X52181161Y-125638213D01*
X52181161Y-125638218D01*
X52149500Y-125878710D01*
X50500000Y-125878710D01*
X50500000Y-121902129D01*
X61449500Y-121902129D01*
X61449500Y-124097866D01*
X61449501Y-124097870D01*
X61455908Y-124157480D01*
X61455909Y-124157485D01*
X61506202Y-124292329D01*
X61592450Y-124407541D01*
X61592454Y-124407546D01*
X61592457Y-124407548D01*
X61592458Y-124407549D01*
X61707670Y-124493797D01*
X61842511Y-124544089D01*
X61842512Y-124544089D01*
X61842517Y-124544091D01*
X61902127Y-124550500D01*
X64097872Y-124550499D01*
X64157483Y-124544091D01*
X64243966Y-124511835D01*
X64292329Y-124493797D01*
X64292329Y-124493796D01*
X64292331Y-124493796D01*
X64407546Y-124407546D01*
X64493796Y-124292331D01*
X64511843Y-124243946D01*
X64544089Y-124157488D01*
X64544090Y-124157485D01*
X64544091Y-124157483D01*
X64550500Y-124097873D01*
X64550499Y-122878008D01*
X66530000Y-122878008D01*
X66530000Y-123121991D01*
X66568164Y-123362954D01*
X66643559Y-123594994D01*
X66754320Y-123812376D01*
X66754322Y-123812380D01*
X66881054Y-123986811D01*
X67526407Y-123341457D01*
X67575112Y-123414351D01*
X67665649Y-123504888D01*
X67738539Y-123553591D01*
X67093187Y-124198943D01*
X67267625Y-124325680D01*
X67485005Y-124436440D01*
X67717045Y-124511835D01*
X67958009Y-124550000D01*
X68201991Y-124550000D01*
X68442954Y-124511835D01*
X68674994Y-124436440D01*
X68892374Y-124325680D01*
X69066811Y-124198943D01*
X68421459Y-123553591D01*
X68494351Y-123504888D01*
X68584888Y-123414351D01*
X68633591Y-123341459D01*
X69278943Y-123986811D01*
X69405680Y-123812374D01*
X69516440Y-123594994D01*
X69591835Y-123362954D01*
X69630000Y-123121991D01*
X69630000Y-122878008D01*
X69591835Y-122637045D01*
X69516440Y-122405005D01*
X69405680Y-122187625D01*
X69278943Y-122013187D01*
X68633591Y-122658539D01*
X68584888Y-122585649D01*
X68494351Y-122495112D01*
X68421458Y-122446407D01*
X68965737Y-121902129D01*
X87449500Y-121902129D01*
X87449500Y-124097866D01*
X87449501Y-124097870D01*
X87455908Y-124157480D01*
X87455909Y-124157485D01*
X87506202Y-124292329D01*
X87592450Y-124407541D01*
X87592454Y-124407546D01*
X87592457Y-124407548D01*
X87592458Y-124407549D01*
X87707670Y-124493797D01*
X87842511Y-124544089D01*
X87842512Y-124544089D01*
X87842517Y-124544091D01*
X87902127Y-124550500D01*
X90097872Y-124550499D01*
X90157483Y-124544091D01*
X90243966Y-124511835D01*
X90292329Y-124493797D01*
X90292329Y-124493796D01*
X90292331Y-124493796D01*
X90407546Y-124407546D01*
X90493796Y-124292331D01*
X90511843Y-124243946D01*
X90544089Y-124157488D01*
X90544090Y-124157485D01*
X90544091Y-124157483D01*
X90550500Y-124097873D01*
X90550499Y-122877969D01*
X92529500Y-122877969D01*
X92529500Y-123122030D01*
X92567677Y-123363071D01*
X92643096Y-123595185D01*
X92753892Y-123812637D01*
X92832348Y-123920623D01*
X92897345Y-124010083D01*
X93069917Y-124182655D01*
X93154280Y-124243948D01*
X93267362Y-124326107D01*
X93376088Y-124381505D01*
X93484815Y-124436904D01*
X93716924Y-124512321D01*
X93716925Y-124512321D01*
X93716928Y-124512322D01*
X93957970Y-124550500D01*
X93957973Y-124550500D01*
X94202030Y-124550500D01*
X94443071Y-124512322D01*
X94443072Y-124512321D01*
X94443076Y-124512321D01*
X94675185Y-124436904D01*
X94892639Y-124326106D01*
X95090083Y-124182655D01*
X95262655Y-124010083D01*
X95406106Y-123812639D01*
X95516904Y-123595185D01*
X95592321Y-123363076D01*
X95592322Y-123363071D01*
X95630500Y-123122030D01*
X95630500Y-122878008D01*
X97610000Y-122878008D01*
X97610000Y-123121991D01*
X97648164Y-123362954D01*
X97723559Y-123594994D01*
X97834320Y-123812376D01*
X97834322Y-123812380D01*
X97961054Y-123986811D01*
X98606407Y-123341457D01*
X98655112Y-123414351D01*
X98745649Y-123504888D01*
X98818539Y-123553591D01*
X98173187Y-124198943D01*
X98347625Y-124325680D01*
X98565005Y-124436440D01*
X98797045Y-124511835D01*
X99038009Y-124550000D01*
X99281991Y-124550000D01*
X99522954Y-124511835D01*
X99754994Y-124436440D01*
X99972374Y-124325680D01*
X100146811Y-124198943D01*
X99501459Y-123553591D01*
X99574351Y-123504888D01*
X99664888Y-123414351D01*
X99713591Y-123341459D01*
X100358943Y-123986811D01*
X100485680Y-123812374D01*
X100596440Y-123594994D01*
X100671835Y-123362954D01*
X100710000Y-123121991D01*
X100710000Y-122878008D01*
X100671835Y-122637045D01*
X100596440Y-122405005D01*
X100485680Y-122187625D01*
X100358943Y-122013187D01*
X99713591Y-122658539D01*
X99664888Y-122585649D01*
X99574351Y-122495112D01*
X99501458Y-122446407D01*
X100045737Y-121902129D01*
X128449500Y-121902129D01*
X128449500Y-124097866D01*
X128449501Y-124097870D01*
X128455908Y-124157480D01*
X128455909Y-124157485D01*
X128506202Y-124292329D01*
X128592450Y-124407541D01*
X128592454Y-124407546D01*
X128592457Y-124407548D01*
X128592458Y-124407549D01*
X128707670Y-124493797D01*
X128842511Y-124544089D01*
X128842512Y-124544089D01*
X128842517Y-124544091D01*
X128902127Y-124550500D01*
X131097872Y-124550499D01*
X131157483Y-124544091D01*
X131243966Y-124511835D01*
X131292329Y-124493797D01*
X131292329Y-124493796D01*
X131292331Y-124493796D01*
X131407546Y-124407546D01*
X131493796Y-124292331D01*
X131511843Y-124243946D01*
X131544089Y-124157488D01*
X131544090Y-124157485D01*
X131544091Y-124157483D01*
X131550500Y-124097873D01*
X131550499Y-122878008D01*
X133530000Y-122878008D01*
X133530000Y-123121991D01*
X133568164Y-123362954D01*
X133643559Y-123594994D01*
X133754320Y-123812376D01*
X133754322Y-123812380D01*
X133881054Y-123986811D01*
X134526407Y-123341457D01*
X134575112Y-123414351D01*
X134665649Y-123504888D01*
X134738539Y-123553591D01*
X134093187Y-124198943D01*
X134267625Y-124325680D01*
X134485005Y-124436440D01*
X134717045Y-124511835D01*
X134958009Y-124550000D01*
X135201991Y-124550000D01*
X135442954Y-124511835D01*
X135674994Y-124436440D01*
X135892374Y-124325680D01*
X136066811Y-124198943D01*
X135421459Y-123553591D01*
X135494351Y-123504888D01*
X135584888Y-123414351D01*
X135633591Y-123341459D01*
X136278943Y-123986811D01*
X136405680Y-123812374D01*
X136516440Y-123594994D01*
X136591835Y-123362954D01*
X136630000Y-123121991D01*
X136630000Y-122878008D01*
X136591835Y-122637045D01*
X136516440Y-122405005D01*
X136405680Y-122187625D01*
X136278943Y-122013187D01*
X135633591Y-122658539D01*
X135584888Y-122585649D01*
X135494351Y-122495112D01*
X135421457Y-122446407D01*
X136066811Y-121801054D01*
X135892380Y-121674322D01*
X135892376Y-121674320D01*
X135674994Y-121563559D01*
X135442954Y-121488164D01*
X135201991Y-121450000D01*
X134958009Y-121450000D01*
X134717045Y-121488164D01*
X134485005Y-121563559D01*
X134267623Y-121674320D01*
X134267619Y-121674322D01*
X134093187Y-121801054D01*
X134738540Y-122446407D01*
X134665649Y-122495112D01*
X134575112Y-122585649D01*
X134526407Y-122658540D01*
X133881054Y-122013187D01*
X133754322Y-122187619D01*
X133754320Y-122187623D01*
X133643559Y-122405005D01*
X133568164Y-122637045D01*
X133530000Y-122878008D01*
X131550499Y-122878008D01*
X131550499Y-121902128D01*
X131544091Y-121842517D01*
X131539226Y-121829472D01*
X131493797Y-121707670D01*
X131407549Y-121592458D01*
X131407548Y-121592457D01*
X131407546Y-121592454D01*
X131407541Y-121592450D01*
X131292329Y-121506202D01*
X131157488Y-121455910D01*
X131157483Y-121455909D01*
X131157481Y-121455908D01*
X131157477Y-121455908D01*
X131126249Y-121452550D01*
X131097873Y-121449500D01*
X131097870Y-121449500D01*
X128902133Y-121449500D01*
X128902129Y-121449500D01*
X128902128Y-121449501D01*
X128897486Y-121450000D01*
X128842519Y-121455908D01*
X128842514Y-121455909D01*
X128707670Y-121506202D01*
X128592458Y-121592450D01*
X128592450Y-121592458D01*
X128506202Y-121707670D01*
X128455910Y-121842511D01*
X128455908Y-121842522D01*
X128449500Y-121902129D01*
X100045737Y-121902129D01*
X100118394Y-121829472D01*
X100146811Y-121801054D01*
X99972380Y-121674322D01*
X99972376Y-121674320D01*
X99754994Y-121563559D01*
X99522954Y-121488164D01*
X99281991Y-121450000D01*
X99038009Y-121450000D01*
X98797045Y-121488164D01*
X98565005Y-121563559D01*
X98347623Y-121674320D01*
X98347619Y-121674322D01*
X98173187Y-121801054D01*
X98818540Y-122446407D01*
X98745649Y-122495112D01*
X98655112Y-122585649D01*
X98606407Y-122658540D01*
X97961054Y-122013187D01*
X97834322Y-122187619D01*
X97834320Y-122187623D01*
X97723559Y-122405005D01*
X97648164Y-122637045D01*
X97610000Y-122878008D01*
X95630500Y-122878008D01*
X95630500Y-122877969D01*
X95592322Y-122636928D01*
X95592321Y-122636924D01*
X95516904Y-122404815D01*
X95406241Y-122187625D01*
X95406107Y-122187362D01*
X95366878Y-122133369D01*
X95262655Y-121989917D01*
X95090083Y-121817345D01*
X94939128Y-121707670D01*
X94892637Y-121673892D01*
X94675185Y-121563096D01*
X94443071Y-121487677D01*
X94202030Y-121449500D01*
X94202027Y-121449500D01*
X93957973Y-121449500D01*
X93957970Y-121449500D01*
X93716928Y-121487677D01*
X93484814Y-121563096D01*
X93267362Y-121673892D01*
X93069918Y-121817344D01*
X92897344Y-121989918D01*
X92753892Y-122187362D01*
X92643096Y-122404814D01*
X92567677Y-122636928D01*
X92529500Y-122877969D01*
X90550499Y-122877969D01*
X90550499Y-121902128D01*
X90544091Y-121842517D01*
X90539226Y-121829472D01*
X90493797Y-121707670D01*
X90407549Y-121592458D01*
X90407548Y-121592457D01*
X90407546Y-121592454D01*
X90407541Y-121592450D01*
X90292329Y-121506202D01*
X90157488Y-121455910D01*
X90157483Y-121455909D01*
X90157481Y-121455908D01*
X90157477Y-121455908D01*
X90126249Y-121452550D01*
X90097873Y-121449500D01*
X90097870Y-121449500D01*
X87902133Y-121449500D01*
X87902129Y-121449500D01*
X87902128Y-121449501D01*
X87897486Y-121450000D01*
X87842519Y-121455908D01*
X87842514Y-121455909D01*
X87707670Y-121506202D01*
X87592458Y-121592450D01*
X87592450Y-121592458D01*
X87506202Y-121707670D01*
X87455910Y-121842511D01*
X87455908Y-121842522D01*
X87449500Y-121902129D01*
X68965737Y-121902129D01*
X69038394Y-121829472D01*
X69066811Y-121801054D01*
X68892380Y-121674322D01*
X68892376Y-121674320D01*
X68674994Y-121563559D01*
X68442954Y-121488164D01*
X68201991Y-121450000D01*
X67958009Y-121450000D01*
X67717045Y-121488164D01*
X67485005Y-121563559D01*
X67267623Y-121674320D01*
X67267619Y-121674322D01*
X67093187Y-121801054D01*
X67738540Y-122446407D01*
X67665649Y-122495112D01*
X67575112Y-122585649D01*
X67526407Y-122658540D01*
X66881054Y-122013187D01*
X66754322Y-122187619D01*
X66754320Y-122187623D01*
X66643559Y-122405005D01*
X66568164Y-122637045D01*
X66530000Y-122878008D01*
X64550499Y-122878008D01*
X64550499Y-121902128D01*
X64544091Y-121842517D01*
X64539226Y-121829472D01*
X64493797Y-121707670D01*
X64407549Y-121592458D01*
X64407548Y-121592457D01*
X64407546Y-121592454D01*
X64407541Y-121592450D01*
X64292329Y-121506202D01*
X64157488Y-121455910D01*
X64157483Y-121455909D01*
X64157481Y-121455908D01*
X64157477Y-121455908D01*
X64126249Y-121452550D01*
X64097873Y-121449500D01*
X64097870Y-121449500D01*
X61902133Y-121449500D01*
X61902129Y-121449500D01*
X61902128Y-121449501D01*
X61897486Y-121450000D01*
X61842519Y-121455908D01*
X61842514Y-121455909D01*
X61707670Y-121506202D01*
X61592458Y-121592450D01*
X61592450Y-121592458D01*
X61506202Y-121707670D01*
X61455910Y-121842511D01*
X61455908Y-121842522D01*
X61449500Y-121902129D01*
X50500000Y-121902129D01*
X50500000Y-116102128D01*
X103649500Y-116102128D01*
X103649500Y-117897871D01*
X103655908Y-117957478D01*
X103655910Y-117957489D01*
X103706202Y-118092329D01*
X103752832Y-118154619D01*
X103792453Y-118207547D01*
X103850627Y-118251095D01*
X103907670Y-118293797D01*
X104042510Y-118344089D01*
X104042511Y-118344089D01*
X104042516Y-118344091D01*
X104102126Y-118350500D01*
X104102129Y-118350500D01*
X105897871Y-118350500D01*
X105897874Y-118350500D01*
X105957484Y-118344091D01*
X106004303Y-118326628D01*
X106092329Y-118293797D01*
X106092329Y-118293796D01*
X106092331Y-118293796D01*
X106207547Y-118207547D01*
X106293796Y-118092331D01*
X106344091Y-117957484D01*
X106350500Y-117897874D01*
X106350500Y-116893749D01*
X113810000Y-116893749D01*
X113810000Y-117106250D01*
X113843240Y-117316121D01*
X113908904Y-117518215D01*
X114005375Y-117707551D01*
X114104240Y-117843626D01*
X114679725Y-117268139D01*
X114719890Y-117337708D01*
X114822292Y-117440110D01*
X114891857Y-117480273D01*
X114316372Y-118055758D01*
X114316372Y-118055759D01*
X114452440Y-118154619D01*
X114452446Y-118154623D01*
X114641784Y-118251095D01*
X114843878Y-118316759D01*
X115053750Y-118350000D01*
X115266250Y-118350000D01*
X115476121Y-118316759D01*
X115678215Y-118251095D01*
X115867553Y-118154623D01*
X115867559Y-118154619D01*
X116003626Y-118055759D01*
X116003626Y-118055758D01*
X115428141Y-117480273D01*
X115497708Y-117440110D01*
X115600110Y-117337708D01*
X115640273Y-117268141D01*
X116215758Y-117843626D01*
X116215759Y-117843626D01*
X116314619Y-117707559D01*
X116314623Y-117707553D01*
X116411095Y-117518215D01*
X116476759Y-117316121D01*
X116510000Y-117106250D01*
X116510000Y-116893749D01*
X116476759Y-116683878D01*
X116411095Y-116481784D01*
X116314623Y-116292446D01*
X116314619Y-116292440D01*
X116215759Y-116156372D01*
X116215758Y-116156372D01*
X115640273Y-116731857D01*
X115600110Y-116662292D01*
X115497708Y-116559890D01*
X115428139Y-116519725D01*
X116003626Y-115944240D01*
X115867551Y-115845375D01*
X115678215Y-115748904D01*
X115476121Y-115683240D01*
X115266250Y-115650000D01*
X115053750Y-115650000D01*
X114843878Y-115683240D01*
X114641784Y-115748904D01*
X114452446Y-115845376D01*
X114452442Y-115845378D01*
X114316372Y-115944239D01*
X114891859Y-116519726D01*
X114822292Y-116559890D01*
X114719890Y-116662292D01*
X114679726Y-116731859D01*
X114104239Y-116156372D01*
X114005378Y-116292442D01*
X114005376Y-116292446D01*
X113908904Y-116481784D01*
X113843240Y-116683878D01*
X113810000Y-116893749D01*
X106350500Y-116893749D01*
X106350500Y-116102126D01*
X106344091Y-116042516D01*
X106293796Y-115907669D01*
X106207547Y-115792453D01*
X106149372Y-115748904D01*
X106092329Y-115706202D01*
X105957489Y-115655910D01*
X105957484Y-115655909D01*
X105957482Y-115655908D01*
X105957478Y-115655908D01*
X105926250Y-115652550D01*
X105897874Y-115649500D01*
X104102126Y-115649500D01*
X104077635Y-115652133D01*
X104042521Y-115655908D01*
X104042510Y-115655910D01*
X103907670Y-115706202D01*
X103792455Y-115792451D01*
X103792451Y-115792455D01*
X103706202Y-115907670D01*
X103655910Y-116042510D01*
X103655908Y-116042521D01*
X103649500Y-116102128D01*
X50500000Y-116102128D01*
X50500000Y-111734525D01*
X104885500Y-111734525D01*
X104885500Y-111879474D01*
X104923017Y-112019489D01*
X104995487Y-112145010D01*
X104995489Y-112145012D01*
X104995491Y-112145015D01*
X105097985Y-112247509D01*
X105097987Y-112247510D01*
X105097989Y-112247512D01*
X105223511Y-112319982D01*
X105223512Y-112319982D01*
X105223515Y-112319984D01*
X105363525Y-112357500D01*
X105363526Y-112357500D01*
X105508474Y-112357500D01*
X105508475Y-112357500D01*
X105648485Y-112319984D01*
X105648487Y-112319982D01*
X105648489Y-112319982D01*
X105774010Y-112247512D01*
X105774010Y-112247511D01*
X105774015Y-112247509D01*
X105876509Y-112145015D01*
X105948984Y-112019485D01*
X105986500Y-111879475D01*
X105986500Y-111734525D01*
X105948984Y-111594515D01*
X105948982Y-111594512D01*
X105948982Y-111594510D01*
X105876512Y-111468989D01*
X105876510Y-111468987D01*
X105876509Y-111468985D01*
X105774015Y-111366491D01*
X105774012Y-111366489D01*
X105774010Y-111366487D01*
X105648488Y-111294017D01*
X105648489Y-111294017D01*
X105618896Y-111286087D01*
X105508475Y-111256500D01*
X105363525Y-111256500D01*
X105301790Y-111273041D01*
X105223510Y-111294017D01*
X105097989Y-111366487D01*
X104995487Y-111468989D01*
X104923017Y-111594510D01*
X104885500Y-111734525D01*
X50500000Y-111734525D01*
X50500000Y-109223525D01*
X123582500Y-109223525D01*
X123582500Y-109368474D01*
X123620017Y-109508489D01*
X123692487Y-109634010D01*
X123692489Y-109634012D01*
X123692491Y-109634015D01*
X123794985Y-109736509D01*
X123794987Y-109736510D01*
X123794989Y-109736512D01*
X123920511Y-109808982D01*
X123920512Y-109808982D01*
X123920515Y-109808984D01*
X124060525Y-109846500D01*
X124060526Y-109846500D01*
X124205474Y-109846500D01*
X124205475Y-109846500D01*
X124345485Y-109808984D01*
X124345487Y-109808982D01*
X124345489Y-109808982D01*
X124471010Y-109736512D01*
X124471010Y-109736511D01*
X124471015Y-109736509D01*
X124573509Y-109634015D01*
X124645984Y-109508485D01*
X124683500Y-109368475D01*
X124683500Y-109223525D01*
X124645984Y-109083515D01*
X124645982Y-109083512D01*
X124645982Y-109083510D01*
X124609293Y-109019965D01*
X124583521Y-108975327D01*
X135797000Y-108975327D01*
X135797000Y-111024672D01*
X135797001Y-111024684D01*
X135811533Y-111097736D01*
X135811535Y-111097742D01*
X135866897Y-111180599D01*
X135866899Y-111180601D01*
X135949760Y-111235966D01*
X136005308Y-111247015D01*
X136022815Y-111250498D01*
X136022820Y-111250498D01*
X136022826Y-111250500D01*
X136022827Y-111250500D01*
X137977173Y-111250500D01*
X137977174Y-111250500D01*
X138050240Y-111235966D01*
X138133101Y-111180601D01*
X138188466Y-111097740D01*
X138203000Y-111024674D01*
X138203000Y-110450689D01*
X138221907Y-110392498D01*
X138271407Y-110356534D01*
X138332593Y-110356534D01*
X138382093Y-110392498D01*
X138396155Y-110420097D01*
X138425136Y-110509292D01*
X138511102Y-110678009D01*
X138622403Y-110831202D01*
X138756298Y-110965097D01*
X138909491Y-111076398D01*
X139078208Y-111162364D01*
X139258297Y-111220878D01*
X139333107Y-111232726D01*
X139445319Y-111250500D01*
X139445322Y-111250500D01*
X139634681Y-111250500D01*
X139728190Y-111235689D01*
X139821703Y-111220878D01*
X140001792Y-111162364D01*
X140170509Y-111076398D01*
X140323702Y-110965097D01*
X140457597Y-110831202D01*
X140568898Y-110678009D01*
X140654864Y-110509292D01*
X140713378Y-110329203D01*
X140713379Y-110329190D01*
X140713735Y-110327715D01*
X140714004Y-110327275D01*
X140714580Y-110325504D01*
X140715005Y-110325642D01*
X140745705Y-110275547D01*
X140802233Y-110252132D01*
X140861728Y-110266416D01*
X140901464Y-110312942D01*
X140906265Y-110327715D01*
X140906623Y-110329207D01*
X140927187Y-110392498D01*
X140965136Y-110509292D01*
X141051102Y-110678009D01*
X141162403Y-110831202D01*
X141296298Y-110965097D01*
X141449491Y-111076398D01*
X141618208Y-111162364D01*
X141798297Y-111220878D01*
X141873107Y-111232726D01*
X141985319Y-111250500D01*
X141985322Y-111250500D01*
X142174681Y-111250500D01*
X142268190Y-111235689D01*
X142361703Y-111220878D01*
X142541792Y-111162364D01*
X142710509Y-111076398D01*
X142863702Y-110965097D01*
X142997597Y-110831202D01*
X143108898Y-110678009D01*
X143194864Y-110509292D01*
X143253378Y-110329203D01*
X143283000Y-110142178D01*
X143283000Y-109857822D01*
X143283000Y-109857818D01*
X143261877Y-109724455D01*
X143253378Y-109670797D01*
X143194864Y-109490708D01*
X143108898Y-109321991D01*
X142997597Y-109168798D01*
X142863702Y-109034903D01*
X142710509Y-108923602D01*
X142710508Y-108923601D01*
X142710506Y-108923600D01*
X142541790Y-108837635D01*
X142361700Y-108779121D01*
X142174681Y-108749500D01*
X142174678Y-108749500D01*
X141985322Y-108749500D01*
X141985319Y-108749500D01*
X141798299Y-108779121D01*
X141618209Y-108837635D01*
X141449493Y-108923600D01*
X141296299Y-109034902D01*
X141162402Y-109168799D01*
X141051100Y-109321993D01*
X140965135Y-109490709D01*
X140906622Y-109670795D01*
X140906264Y-109672288D01*
X140905994Y-109672727D01*
X140905420Y-109674496D01*
X140904995Y-109674358D01*
X140874292Y-109724455D01*
X140817763Y-109747867D01*
X140758269Y-109733581D01*
X140718534Y-109687053D01*
X140713736Y-109672288D01*
X140713378Y-109670799D01*
X140713378Y-109670797D01*
X140654864Y-109490708D01*
X140568898Y-109321991D01*
X140457597Y-109168798D01*
X140323702Y-109034903D01*
X140170509Y-108923602D01*
X140170508Y-108923601D01*
X140170506Y-108923600D01*
X140001790Y-108837635D01*
X139821700Y-108779121D01*
X139634681Y-108749500D01*
X139634678Y-108749500D01*
X139445322Y-108749500D01*
X139445319Y-108749500D01*
X139258299Y-108779121D01*
X139078209Y-108837635D01*
X138909493Y-108923600D01*
X138756299Y-109034902D01*
X138622402Y-109168799D01*
X138511100Y-109321993D01*
X138425136Y-109490707D01*
X138396155Y-109579903D01*
X138360191Y-109629403D01*
X138302000Y-109648310D01*
X138243809Y-109629403D01*
X138207845Y-109579903D01*
X138203000Y-109549310D01*
X138203000Y-108975327D01*
X138202998Y-108975315D01*
X138192711Y-108923600D01*
X138188466Y-108902260D01*
X138161232Y-108861500D01*
X138133102Y-108819400D01*
X138133099Y-108819397D01*
X138050242Y-108764035D01*
X138050240Y-108764034D01*
X138050237Y-108764033D01*
X138050236Y-108764033D01*
X137977184Y-108749501D01*
X137977174Y-108749500D01*
X136022826Y-108749500D01*
X136022825Y-108749500D01*
X136022815Y-108749501D01*
X135949763Y-108764033D01*
X135949757Y-108764035D01*
X135866900Y-108819397D01*
X135866897Y-108819400D01*
X135811535Y-108902257D01*
X135811533Y-108902263D01*
X135797001Y-108975315D01*
X135797000Y-108975327D01*
X124583521Y-108975327D01*
X124573509Y-108957985D01*
X124471015Y-108855491D01*
X124471012Y-108855489D01*
X124471010Y-108855487D01*
X124345488Y-108783017D01*
X124345489Y-108783017D01*
X124315896Y-108775087D01*
X124205475Y-108745500D01*
X124060525Y-108745500D01*
X123998790Y-108762041D01*
X123920510Y-108783017D01*
X123794989Y-108855487D01*
X123692487Y-108957989D01*
X123620017Y-109083510D01*
X123582500Y-109223525D01*
X50500000Y-109223525D01*
X50500000Y-108238525D01*
X57803700Y-108238525D01*
X57803700Y-108383474D01*
X57841217Y-108523489D01*
X57913687Y-108649010D01*
X57913689Y-108649012D01*
X57913691Y-108649015D01*
X58016185Y-108751509D01*
X58016187Y-108751510D01*
X58016189Y-108751512D01*
X58141711Y-108823982D01*
X58141712Y-108823982D01*
X58141715Y-108823984D01*
X58281725Y-108861500D01*
X58281726Y-108861500D01*
X58426674Y-108861500D01*
X58426675Y-108861500D01*
X58566685Y-108823984D01*
X58566687Y-108823982D01*
X58566689Y-108823982D01*
X58692210Y-108751512D01*
X58692210Y-108751511D01*
X58692215Y-108751509D01*
X58794709Y-108649015D01*
X58867184Y-108523485D01*
X58904700Y-108383475D01*
X58904700Y-108238525D01*
X58867184Y-108098515D01*
X58867182Y-108098512D01*
X58867182Y-108098510D01*
X58794712Y-107972989D01*
X58794710Y-107972987D01*
X58794709Y-107972985D01*
X58692215Y-107870491D01*
X58692212Y-107870489D01*
X58692210Y-107870487D01*
X58566688Y-107798017D01*
X58566689Y-107798017D01*
X58537096Y-107790087D01*
X58426675Y-107760500D01*
X58281725Y-107760500D01*
X58219990Y-107777041D01*
X58141710Y-107798017D01*
X58016189Y-107870487D01*
X57913687Y-107972989D01*
X57841217Y-108098510D01*
X57803700Y-108238525D01*
X50500000Y-108238525D01*
X50500000Y-106927525D01*
X124731500Y-106927525D01*
X124731500Y-107072474D01*
X124769017Y-107212489D01*
X124841487Y-107338010D01*
X124841489Y-107338012D01*
X124841491Y-107338015D01*
X124943985Y-107440509D01*
X124943987Y-107440510D01*
X124943989Y-107440512D01*
X125069511Y-107512982D01*
X125069512Y-107512982D01*
X125069515Y-107512984D01*
X125209525Y-107550500D01*
X125209526Y-107550500D01*
X125354474Y-107550500D01*
X125354475Y-107550500D01*
X125494485Y-107512984D01*
X125494487Y-107512982D01*
X125494489Y-107512982D01*
X125620010Y-107440512D01*
X125620010Y-107440511D01*
X125620015Y-107440509D01*
X125722509Y-107338015D01*
X125794984Y-107212485D01*
X125832500Y-107072475D01*
X125832500Y-106927525D01*
X125794984Y-106787515D01*
X125794982Y-106787512D01*
X125794982Y-106787510D01*
X125722512Y-106661989D01*
X125722510Y-106661987D01*
X125722509Y-106661985D01*
X125620015Y-106559491D01*
X125620012Y-106559489D01*
X125620010Y-106559487D01*
X125494488Y-106487017D01*
X125494489Y-106487017D01*
X125464896Y-106479087D01*
X125354475Y-106449500D01*
X125209525Y-106449500D01*
X125147790Y-106466041D01*
X125069510Y-106487017D01*
X124943989Y-106559487D01*
X124841487Y-106661989D01*
X124769017Y-106787510D01*
X124731500Y-106927525D01*
X50500000Y-106927525D01*
X50500000Y-103999525D01*
X58669000Y-103999525D01*
X58669000Y-104144475D01*
X58691117Y-104227015D01*
X58706517Y-104284489D01*
X58778987Y-104410010D01*
X58778989Y-104410012D01*
X58778991Y-104410015D01*
X58881485Y-104512509D01*
X58881487Y-104512510D01*
X58881489Y-104512512D01*
X59007011Y-104584982D01*
X59007012Y-104584982D01*
X59007015Y-104584984D01*
X59147025Y-104622500D01*
X59147026Y-104622500D01*
X59291974Y-104622500D01*
X59291975Y-104622500D01*
X59431985Y-104584984D01*
X59431987Y-104584982D01*
X59431989Y-104584982D01*
X59557510Y-104512512D01*
X59557510Y-104512511D01*
X59557515Y-104512509D01*
X59660009Y-104410015D01*
X59687737Y-104361989D01*
X59732482Y-104284489D01*
X59732482Y-104284487D01*
X59732484Y-104284485D01*
X59770000Y-104144475D01*
X59770000Y-103999525D01*
X59732484Y-103859515D01*
X59732482Y-103859512D01*
X59732482Y-103859510D01*
X59660012Y-103733989D01*
X59660010Y-103733987D01*
X59660009Y-103733985D01*
X59557515Y-103631491D01*
X59557512Y-103631489D01*
X59557510Y-103631487D01*
X59431988Y-103559017D01*
X59431989Y-103559017D01*
X59400203Y-103550500D01*
X59291975Y-103521500D01*
X59147025Y-103521500D01*
X59085290Y-103538041D01*
X59007010Y-103559017D01*
X58881489Y-103631487D01*
X58778987Y-103733989D01*
X58706517Y-103859510D01*
X58672352Y-103987016D01*
X58669000Y-103999525D01*
X50500000Y-103999525D01*
X50500000Y-101952525D01*
X60909900Y-101952525D01*
X60909900Y-102097475D01*
X60915396Y-102117985D01*
X60947417Y-102237489D01*
X61019887Y-102363010D01*
X61019889Y-102363012D01*
X61019891Y-102363015D01*
X61122385Y-102465509D01*
X61122387Y-102465510D01*
X61122389Y-102465512D01*
X61247911Y-102537982D01*
X61247912Y-102537982D01*
X61247915Y-102537984D01*
X61387925Y-102575500D01*
X61387926Y-102575500D01*
X61532874Y-102575500D01*
X61532875Y-102575500D01*
X61672885Y-102537984D01*
X61672887Y-102537982D01*
X61672889Y-102537982D01*
X61798410Y-102465512D01*
X61798410Y-102465511D01*
X61798415Y-102465509D01*
X61900909Y-102363015D01*
X61914053Y-102340249D01*
X61973382Y-102237489D01*
X61973382Y-102237487D01*
X61973384Y-102237485D01*
X62010900Y-102097475D01*
X62010900Y-101952525D01*
X61973384Y-101812515D01*
X61973382Y-101812512D01*
X61973382Y-101812510D01*
X61900912Y-101686989D01*
X61900910Y-101686987D01*
X61900909Y-101686985D01*
X61798415Y-101584491D01*
X61798412Y-101584489D01*
X61798410Y-101584487D01*
X61672888Y-101512017D01*
X61672889Y-101512017D01*
X61643296Y-101504087D01*
X61532875Y-101474500D01*
X61387925Y-101474500D01*
X61326190Y-101491041D01*
X61247910Y-101512017D01*
X61122389Y-101584487D01*
X61019887Y-101686989D01*
X60947417Y-101812510D01*
X60927796Y-101885736D01*
X60909900Y-101952525D01*
X50500000Y-101952525D01*
X50500000Y-101015525D01*
X59820100Y-101015525D01*
X59820100Y-101160475D01*
X59833985Y-101212295D01*
X59857617Y-101300489D01*
X59930087Y-101426010D01*
X59930089Y-101426012D01*
X59930091Y-101426015D01*
X60032585Y-101528509D01*
X60032587Y-101528510D01*
X60032589Y-101528512D01*
X60158111Y-101600982D01*
X60158112Y-101600982D01*
X60158115Y-101600984D01*
X60298125Y-101638500D01*
X60298126Y-101638500D01*
X60443074Y-101638500D01*
X60443075Y-101638500D01*
X60583085Y-101600984D01*
X60583087Y-101600982D01*
X60583089Y-101600982D01*
X60708610Y-101528512D01*
X60708610Y-101528511D01*
X60708615Y-101528509D01*
X60811109Y-101426015D01*
X60835842Y-101383176D01*
X60883582Y-101300489D01*
X60883582Y-101300487D01*
X60883584Y-101300485D01*
X60921100Y-101160475D01*
X60921100Y-101127525D01*
X64249500Y-101127525D01*
X64249500Y-101272475D01*
X64260497Y-101313515D01*
X64287017Y-101412489D01*
X64359487Y-101538010D01*
X64359489Y-101538012D01*
X64359491Y-101538015D01*
X64461985Y-101640509D01*
X64461987Y-101640510D01*
X64461989Y-101640512D01*
X64589730Y-101714264D01*
X64630671Y-101759733D01*
X64637067Y-101820584D01*
X64606474Y-101873572D01*
X64589730Y-101885736D01*
X64461989Y-101959487D01*
X64359487Y-102061989D01*
X64287017Y-102187510D01*
X64269991Y-102251053D01*
X64249500Y-102327525D01*
X64249500Y-102472475D01*
X64253397Y-102487017D01*
X64287017Y-102612489D01*
X64359487Y-102738010D01*
X64359489Y-102738012D01*
X64359491Y-102738015D01*
X64461985Y-102840509D01*
X64461987Y-102840510D01*
X64461989Y-102840512D01*
X64589730Y-102914264D01*
X64630671Y-102959733D01*
X64637067Y-103020584D01*
X64606474Y-103073572D01*
X64589730Y-103085736D01*
X64461989Y-103159487D01*
X64359487Y-103261989D01*
X64287017Y-103387510D01*
X64249500Y-103527525D01*
X64249500Y-103672474D01*
X64287017Y-103812489D01*
X64359487Y-103938010D01*
X64359489Y-103938012D01*
X64359491Y-103938015D01*
X64461985Y-104040509D01*
X64461987Y-104040510D01*
X64461989Y-104040512D01*
X64589730Y-104114264D01*
X64630671Y-104159733D01*
X64637067Y-104220584D01*
X64606474Y-104273572D01*
X64589730Y-104285736D01*
X64461989Y-104359487D01*
X64359487Y-104461989D01*
X64287017Y-104587510D01*
X64276295Y-104627525D01*
X64249500Y-104727525D01*
X64249500Y-104872475D01*
X64258747Y-104906985D01*
X64287017Y-105012489D01*
X64359487Y-105138010D01*
X64359489Y-105138012D01*
X64359491Y-105138015D01*
X64461985Y-105240509D01*
X64461987Y-105240510D01*
X64461989Y-105240512D01*
X64587511Y-105312982D01*
X64587512Y-105312982D01*
X64587515Y-105312984D01*
X64727525Y-105350500D01*
X64727526Y-105350500D01*
X64872474Y-105350500D01*
X64872475Y-105350500D01*
X65012485Y-105312984D01*
X65012487Y-105312982D01*
X65012489Y-105312982D01*
X65138010Y-105240512D01*
X65138010Y-105240511D01*
X65138015Y-105240509D01*
X65240509Y-105138015D01*
X65264748Y-105096032D01*
X65314264Y-105010269D01*
X65359733Y-104969328D01*
X65420583Y-104962932D01*
X65473571Y-104993525D01*
X65485736Y-105010269D01*
X65559487Y-105138010D01*
X65559489Y-105138012D01*
X65559491Y-105138015D01*
X65661985Y-105240509D01*
X65661987Y-105240510D01*
X65661989Y-105240512D01*
X65787511Y-105312982D01*
X65787512Y-105312982D01*
X65787515Y-105312984D01*
X65927525Y-105350500D01*
X65927526Y-105350500D01*
X66072474Y-105350500D01*
X66072475Y-105350500D01*
X66212485Y-105312984D01*
X66212487Y-105312982D01*
X66212489Y-105312982D01*
X66338010Y-105240512D01*
X66338010Y-105240511D01*
X66338015Y-105240509D01*
X66440509Y-105138015D01*
X66464748Y-105096032D01*
X66514264Y-105010269D01*
X66559733Y-104969328D01*
X66620583Y-104962932D01*
X66673571Y-104993525D01*
X66685736Y-105010269D01*
X66759487Y-105138010D01*
X66759489Y-105138012D01*
X66759491Y-105138015D01*
X66861985Y-105240509D01*
X66861987Y-105240510D01*
X66861989Y-105240512D01*
X66987511Y-105312982D01*
X66987512Y-105312982D01*
X66987515Y-105312984D01*
X67127525Y-105350500D01*
X67127526Y-105350500D01*
X67272474Y-105350500D01*
X67272475Y-105350500D01*
X67412485Y-105312984D01*
X67412487Y-105312982D01*
X67412489Y-105312982D01*
X67538010Y-105240512D01*
X67538010Y-105240511D01*
X67538015Y-105240509D01*
X67640509Y-105138015D01*
X67664748Y-105096032D01*
X67712982Y-105012489D01*
X67712982Y-105012487D01*
X67712984Y-105012485D01*
X67750500Y-104872475D01*
X67750500Y-104727525D01*
X67712984Y-104587515D01*
X67712982Y-104587512D01*
X67712982Y-104587510D01*
X67640512Y-104461989D01*
X67640510Y-104461987D01*
X67640509Y-104461985D01*
X67538015Y-104359491D01*
X67538012Y-104359489D01*
X67538010Y-104359487D01*
X67410269Y-104285736D01*
X67369328Y-104240267D01*
X67362932Y-104179417D01*
X67393525Y-104126429D01*
X67410269Y-104114264D01*
X67538010Y-104040512D01*
X67538010Y-104040511D01*
X67538015Y-104040509D01*
X67640509Y-103938015D01*
X67660999Y-103902525D01*
X69949500Y-103902525D01*
X69949500Y-104047474D01*
X69987017Y-104187489D01*
X70059487Y-104313010D01*
X70059489Y-104313012D01*
X70059491Y-104313015D01*
X70161985Y-104415509D01*
X70161987Y-104415510D01*
X70161989Y-104415512D01*
X70287511Y-104487982D01*
X70287512Y-104487982D01*
X70287515Y-104487984D01*
X70427525Y-104525500D01*
X70427526Y-104525500D01*
X70572474Y-104525500D01*
X70572475Y-104525500D01*
X70712485Y-104487984D01*
X70712487Y-104487982D01*
X70712489Y-104487982D01*
X70817203Y-104427525D01*
X87949500Y-104427525D01*
X87949500Y-104572475D01*
X87952852Y-104584984D01*
X87987017Y-104712489D01*
X88059487Y-104838010D01*
X88059489Y-104838012D01*
X88059491Y-104838015D01*
X88151474Y-104929998D01*
X88179250Y-104984513D01*
X88169679Y-105044945D01*
X88151475Y-105070000D01*
X88083466Y-105138010D01*
X88059488Y-105161988D01*
X88059487Y-105161989D01*
X87987017Y-105287510D01*
X87949500Y-105427525D01*
X87949500Y-105572474D01*
X87987017Y-105712489D01*
X88059487Y-105838010D01*
X88059489Y-105838012D01*
X88059491Y-105838015D01*
X88161985Y-105940509D01*
X88161987Y-105940510D01*
X88161989Y-105940512D01*
X88287511Y-106012982D01*
X88287512Y-106012982D01*
X88287515Y-106012984D01*
X88427525Y-106050500D01*
X88427526Y-106050500D01*
X88572474Y-106050500D01*
X88572475Y-106050500D01*
X88712485Y-106012984D01*
X88712487Y-106012982D01*
X88712489Y-106012982D01*
X88838010Y-105940512D01*
X88838010Y-105940511D01*
X88838015Y-105940509D01*
X88940509Y-105838015D01*
X89012984Y-105712485D01*
X89050500Y-105572475D01*
X89050500Y-105427525D01*
X89012984Y-105287515D01*
X89012982Y-105287512D01*
X89012982Y-105287510D01*
X88940512Y-105161989D01*
X88940510Y-105161987D01*
X88940509Y-105161985D01*
X88848525Y-105070001D01*
X88820750Y-105015487D01*
X88830321Y-104955055D01*
X88848524Y-104929999D01*
X88940509Y-104838015D01*
X88959864Y-104804491D01*
X89012982Y-104712489D01*
X89012982Y-104712487D01*
X89012984Y-104712485D01*
X89050500Y-104572475D01*
X89050500Y-104427525D01*
X89012984Y-104287515D01*
X89012982Y-104287512D01*
X89012982Y-104287510D01*
X88940512Y-104161989D01*
X88940510Y-104161987D01*
X88940509Y-104161985D01*
X88838015Y-104059491D01*
X88838012Y-104059489D01*
X88838010Y-104059487D01*
X88712488Y-103987017D01*
X88712489Y-103987017D01*
X88682896Y-103979087D01*
X88572475Y-103949500D01*
X88427525Y-103949500D01*
X88382838Y-103961474D01*
X88287510Y-103987017D01*
X88161989Y-104059487D01*
X88059487Y-104161989D01*
X87987017Y-104287510D01*
X87959414Y-104390525D01*
X87949500Y-104427525D01*
X70817203Y-104427525D01*
X70838010Y-104415512D01*
X70838010Y-104415511D01*
X70838015Y-104415509D01*
X70940509Y-104313015D01*
X70940512Y-104313010D01*
X71012982Y-104187489D01*
X71012982Y-104187487D01*
X71012984Y-104187485D01*
X71050500Y-104047475D01*
X71050500Y-103902525D01*
X71012984Y-103762515D01*
X70940509Y-103636985D01*
X70931049Y-103627525D01*
X100949500Y-103627525D01*
X100949500Y-103772475D01*
X100957730Y-103803190D01*
X100987017Y-103912489D01*
X101059487Y-104038010D01*
X101059489Y-104038012D01*
X101059491Y-104038015D01*
X101151474Y-104129998D01*
X101179250Y-104184513D01*
X101169679Y-104244945D01*
X101151475Y-104270000D01*
X101091967Y-104329509D01*
X101059488Y-104361988D01*
X101059487Y-104361989D01*
X100987017Y-104487510D01*
X100976838Y-104525500D01*
X100949500Y-104627525D01*
X100949500Y-104772475D01*
X100958078Y-104804487D01*
X100987017Y-104912489D01*
X101059487Y-105038010D01*
X101059489Y-105038012D01*
X101059491Y-105038015D01*
X101161985Y-105140509D01*
X101161987Y-105140510D01*
X101161989Y-105140512D01*
X101287511Y-105212982D01*
X101287512Y-105212982D01*
X101287515Y-105212984D01*
X101427525Y-105250500D01*
X101427526Y-105250500D01*
X101572474Y-105250500D01*
X101572475Y-105250500D01*
X101712485Y-105212984D01*
X101712487Y-105212982D01*
X101712489Y-105212982D01*
X101782562Y-105172525D01*
X113629500Y-105172525D01*
X113629500Y-105317474D01*
X113667017Y-105457489D01*
X113739487Y-105583010D01*
X113739489Y-105583012D01*
X113739491Y-105583015D01*
X113841985Y-105685509D01*
X113841987Y-105685510D01*
X113841989Y-105685512D01*
X113967511Y-105757982D01*
X113967512Y-105757982D01*
X113967515Y-105757984D01*
X114107525Y-105795500D01*
X114107526Y-105795500D01*
X114252474Y-105795500D01*
X114252475Y-105795500D01*
X114392485Y-105757984D01*
X114392487Y-105757982D01*
X114392489Y-105757982D01*
X114518010Y-105685512D01*
X114518010Y-105685511D01*
X114518015Y-105685509D01*
X114620509Y-105583015D01*
X114692984Y-105457485D01*
X114730500Y-105317475D01*
X114730500Y-105172525D01*
X114692984Y-105032515D01*
X114692982Y-105032512D01*
X114692982Y-105032510D01*
X114620512Y-104906989D01*
X114620510Y-104906987D01*
X114620509Y-104906985D01*
X114518015Y-104804491D01*
X114518012Y-104804489D01*
X114518010Y-104804487D01*
X114392488Y-104732017D01*
X114392489Y-104732017D01*
X114319595Y-104712485D01*
X114252475Y-104694500D01*
X114107525Y-104694500D01*
X114045790Y-104711041D01*
X113967510Y-104732017D01*
X113841989Y-104804487D01*
X113739487Y-104906989D01*
X113667017Y-105032510D01*
X113629500Y-105172525D01*
X101782562Y-105172525D01*
X101838010Y-105140512D01*
X101838010Y-105140511D01*
X101838015Y-105140509D01*
X101940509Y-105038015D01*
X101940512Y-105038010D01*
X102012982Y-104912489D01*
X102012982Y-104912487D01*
X102012984Y-104912485D01*
X102050500Y-104772475D01*
X102050500Y-104627525D01*
X102012984Y-104487515D01*
X102012982Y-104487512D01*
X102012982Y-104487510D01*
X101981820Y-104433536D01*
X101956987Y-104390525D01*
X105249500Y-104390525D01*
X105249500Y-104535474D01*
X105287017Y-104675489D01*
X105359487Y-104801010D01*
X105359489Y-104801012D01*
X105359491Y-104801015D01*
X105461985Y-104903509D01*
X105461987Y-104903510D01*
X105461989Y-104903512D01*
X105587511Y-104975982D01*
X105587512Y-104975982D01*
X105587515Y-104975984D01*
X105727525Y-105013500D01*
X105727526Y-105013500D01*
X105872474Y-105013500D01*
X105872475Y-105013500D01*
X106012485Y-104975984D01*
X106012487Y-104975982D01*
X106012489Y-104975982D01*
X106138010Y-104903512D01*
X106138010Y-104903511D01*
X106138015Y-104903509D01*
X106240509Y-104801015D01*
X106312984Y-104675485D01*
X106350500Y-104535475D01*
X106350500Y-104390525D01*
X106312984Y-104250515D01*
X106312982Y-104250512D01*
X106312982Y-104250510D01*
X106240512Y-104124989D01*
X106240510Y-104124987D01*
X106240509Y-104124985D01*
X106138015Y-104022491D01*
X106110789Y-104006772D01*
X106110788Y-104006770D01*
X106012488Y-103950017D01*
X106012489Y-103950017D01*
X105967690Y-103938013D01*
X105928549Y-103927525D01*
X123449500Y-103927525D01*
X123449500Y-104072475D01*
X123478155Y-104179417D01*
X123487017Y-104212489D01*
X123559487Y-104338010D01*
X123559489Y-104338012D01*
X123559491Y-104338015D01*
X123661985Y-104440509D01*
X123661987Y-104440510D01*
X123661989Y-104440512D01*
X123787511Y-104512982D01*
X123787512Y-104512982D01*
X123787515Y-104512984D01*
X123927525Y-104550500D01*
X123927526Y-104550500D01*
X124072474Y-104550500D01*
X124072475Y-104550500D01*
X124212485Y-104512984D01*
X124212487Y-104512982D01*
X124212489Y-104512982D01*
X124338010Y-104440512D01*
X124338010Y-104440511D01*
X124338015Y-104440509D01*
X124440509Y-104338015D01*
X124469668Y-104287510D01*
X124512982Y-104212489D01*
X124512982Y-104212487D01*
X124512984Y-104212485D01*
X124550500Y-104072475D01*
X124550500Y-103927525D01*
X124520757Y-103816525D01*
X129141500Y-103816525D01*
X129141500Y-103961474D01*
X129179017Y-104101489D01*
X129251487Y-104227010D01*
X129251489Y-104227012D01*
X129251491Y-104227015D01*
X129353985Y-104329509D01*
X129353987Y-104329510D01*
X129353989Y-104329512D01*
X129479511Y-104401982D01*
X129479512Y-104401982D01*
X129479515Y-104401984D01*
X129619525Y-104439500D01*
X129619526Y-104439500D01*
X129764474Y-104439500D01*
X129764475Y-104439500D01*
X129904485Y-104401984D01*
X129904487Y-104401982D01*
X129904489Y-104401982D01*
X130030010Y-104329512D01*
X130030010Y-104329511D01*
X130030015Y-104329509D01*
X130132509Y-104227015D01*
X130148106Y-104200000D01*
X130204982Y-104101489D01*
X130204982Y-104101487D01*
X130204984Y-104101485D01*
X130242500Y-103961475D01*
X130242500Y-103816525D01*
X130204984Y-103676515D01*
X130204982Y-103676512D01*
X130204982Y-103676510D01*
X130132512Y-103550989D01*
X130132510Y-103550987D01*
X130132509Y-103550985D01*
X130030015Y-103448491D01*
X130030012Y-103448489D01*
X130030010Y-103448487D01*
X129904488Y-103376017D01*
X129904489Y-103376017D01*
X129852121Y-103361985D01*
X129764475Y-103338500D01*
X129619525Y-103338500D01*
X129557790Y-103355041D01*
X129479510Y-103376017D01*
X129353989Y-103448487D01*
X129251487Y-103550989D01*
X129179017Y-103676510D01*
X129141500Y-103816525D01*
X124520757Y-103816525D01*
X124512984Y-103787515D01*
X124504301Y-103772475D01*
X124440512Y-103661989D01*
X124440510Y-103661987D01*
X124440509Y-103661985D01*
X124338015Y-103559491D01*
X124338012Y-103559489D01*
X124338010Y-103559487D01*
X124212488Y-103487017D01*
X124212489Y-103487017D01*
X124182896Y-103479087D01*
X124072475Y-103449500D01*
X123927525Y-103449500D01*
X123865790Y-103466041D01*
X123787510Y-103487017D01*
X123661989Y-103559487D01*
X123559487Y-103661989D01*
X123487017Y-103787510D01*
X123471201Y-103846535D01*
X123449500Y-103927525D01*
X105928549Y-103927525D01*
X105872475Y-103912500D01*
X105727525Y-103912500D01*
X105671452Y-103927525D01*
X105587510Y-103950017D01*
X105461989Y-104022487D01*
X105359487Y-104124989D01*
X105287017Y-104250510D01*
X105249500Y-104390525D01*
X101956987Y-104390525D01*
X101940512Y-104361989D01*
X101940510Y-104361987D01*
X101940509Y-104361985D01*
X101848525Y-104270001D01*
X101820750Y-104215487D01*
X101830321Y-104155055D01*
X101848524Y-104129999D01*
X101940509Y-104038015D01*
X101949472Y-104022491D01*
X102012982Y-103912489D01*
X102012982Y-103912487D01*
X102012984Y-103912485D01*
X102050500Y-103772475D01*
X102050500Y-103627525D01*
X102012984Y-103487515D01*
X102012982Y-103487512D01*
X102012982Y-103487510D01*
X101940512Y-103361989D01*
X101940510Y-103361987D01*
X101940509Y-103361985D01*
X101838015Y-103259491D01*
X101838012Y-103259489D01*
X101838010Y-103259487D01*
X101712488Y-103187017D01*
X101712489Y-103187017D01*
X101609761Y-103159491D01*
X101572475Y-103149500D01*
X101427525Y-103149500D01*
X101390239Y-103159491D01*
X101287510Y-103187017D01*
X101161989Y-103259487D01*
X101059487Y-103361989D01*
X100987017Y-103487510D01*
X100970139Y-103550500D01*
X100949500Y-103627525D01*
X70931049Y-103627525D01*
X70838015Y-103534491D01*
X70838012Y-103534489D01*
X70838010Y-103534487D01*
X70712488Y-103462017D01*
X70712489Y-103462017D01*
X70665775Y-103449500D01*
X70572475Y-103424500D01*
X70427525Y-103424500D01*
X70404495Y-103430671D01*
X70287510Y-103462017D01*
X70161989Y-103534487D01*
X70059487Y-103636989D01*
X69987017Y-103762510D01*
X69949500Y-103902525D01*
X67660999Y-103902525D01*
X67712984Y-103812485D01*
X67750500Y-103672475D01*
X67750500Y-103527525D01*
X67712984Y-103387515D01*
X67712982Y-103387512D01*
X67712982Y-103387510D01*
X67640512Y-103261989D01*
X67640510Y-103261987D01*
X67640509Y-103261985D01*
X67538015Y-103159491D01*
X67538012Y-103159489D01*
X67538010Y-103159487D01*
X67410269Y-103085736D01*
X67369328Y-103040267D01*
X67362932Y-102979417D01*
X67393525Y-102926429D01*
X67410269Y-102914264D01*
X67538010Y-102840512D01*
X67538010Y-102840511D01*
X67538015Y-102840509D01*
X67640509Y-102738015D01*
X67680650Y-102668489D01*
X67712982Y-102612489D01*
X67712982Y-102612487D01*
X67712984Y-102612485D01*
X67750500Y-102472475D01*
X67750500Y-102327525D01*
X67712984Y-102187515D01*
X67712982Y-102187512D01*
X67712982Y-102187510D01*
X67640512Y-102061989D01*
X67640510Y-102061987D01*
X67640509Y-102061985D01*
X67538015Y-101959491D01*
X67538012Y-101959489D01*
X67538010Y-101959487D01*
X67410269Y-101885736D01*
X67403191Y-101877875D01*
X67393525Y-101873572D01*
X67383174Y-101855645D01*
X67369328Y-101840267D01*
X67368222Y-101829746D01*
X67362932Y-101820584D01*
X67365095Y-101800000D01*
X67364625Y-101795525D01*
X73480600Y-101795525D01*
X73480600Y-101940475D01*
X73487576Y-101966509D01*
X73518117Y-102080489D01*
X73590587Y-102206010D01*
X73590589Y-102206012D01*
X73590591Y-102206015D01*
X73693085Y-102308509D01*
X73693087Y-102308510D01*
X73693089Y-102308512D01*
X73818611Y-102380982D01*
X73818612Y-102380982D01*
X73818615Y-102380984D01*
X73958625Y-102418500D01*
X73958626Y-102418500D01*
X74103574Y-102418500D01*
X74103575Y-102418500D01*
X74234102Y-102383525D01*
X124213500Y-102383525D01*
X124213500Y-102528475D01*
X124227447Y-102580525D01*
X124251017Y-102668489D01*
X124323487Y-102794010D01*
X124323489Y-102794012D01*
X124323491Y-102794015D01*
X124425985Y-102896509D01*
X124425987Y-102896510D01*
X124425989Y-102896512D01*
X124551511Y-102968982D01*
X124551512Y-102968982D01*
X124551515Y-102968984D01*
X124691525Y-103006500D01*
X124691526Y-103006500D01*
X124836474Y-103006500D01*
X124836475Y-103006500D01*
X124976485Y-102968984D01*
X124976487Y-102968982D01*
X124976489Y-102968982D01*
X125102010Y-102896512D01*
X125102010Y-102896511D01*
X125102015Y-102896509D01*
X125112798Y-102885725D01*
X125167312Y-102857947D01*
X125227744Y-102867517D01*
X125268538Y-102906228D01*
X125317487Y-102991010D01*
X125317489Y-102991012D01*
X125317491Y-102991015D01*
X125419985Y-103093509D01*
X125419987Y-103093510D01*
X125419989Y-103093512D01*
X125545511Y-103165982D01*
X125545512Y-103165982D01*
X125545515Y-103165984D01*
X125685525Y-103203500D01*
X125685526Y-103203500D01*
X125830474Y-103203500D01*
X125830475Y-103203500D01*
X125970485Y-103165984D01*
X125970487Y-103165982D01*
X125970489Y-103165982D01*
X126096010Y-103093512D01*
X126096010Y-103093511D01*
X126096015Y-103093509D01*
X126198509Y-102991015D01*
X126216570Y-102959733D01*
X126235165Y-102927525D01*
X131449500Y-102927525D01*
X131449500Y-103072475D01*
X131455136Y-103093509D01*
X131487017Y-103212489D01*
X131559487Y-103338010D01*
X131559489Y-103338012D01*
X131559491Y-103338015D01*
X131661985Y-103440509D01*
X131661987Y-103440510D01*
X131661989Y-103440512D01*
X131787511Y-103512982D01*
X131787512Y-103512982D01*
X131787515Y-103512984D01*
X131927525Y-103550500D01*
X131927526Y-103550500D01*
X132072474Y-103550500D01*
X132072475Y-103550500D01*
X132212485Y-103512984D01*
X132212487Y-103512982D01*
X132212489Y-103512982D01*
X132338010Y-103440512D01*
X132338010Y-103440511D01*
X132338015Y-103440509D01*
X132440509Y-103338015D01*
X132485845Y-103259491D01*
X132512982Y-103212489D01*
X132512982Y-103212487D01*
X132512984Y-103212485D01*
X132550500Y-103072475D01*
X132550500Y-102927525D01*
X132512984Y-102787515D01*
X132512982Y-102787512D01*
X132512982Y-102787510D01*
X132440512Y-102661989D01*
X132440510Y-102661987D01*
X132440509Y-102661985D01*
X132338015Y-102559491D01*
X132338012Y-102559489D01*
X132338010Y-102559487D01*
X132212488Y-102487017D01*
X132212489Y-102487017D01*
X132158214Y-102472474D01*
X132072475Y-102449500D01*
X131927525Y-102449500D01*
X131867779Y-102465509D01*
X131787510Y-102487017D01*
X131661989Y-102559487D01*
X131559487Y-102661989D01*
X131487017Y-102787510D01*
X131466124Y-102865485D01*
X131449500Y-102927525D01*
X126235165Y-102927525D01*
X126270982Y-102865489D01*
X126270982Y-102865487D01*
X126270984Y-102865485D01*
X126293817Y-102780272D01*
X127081858Y-102780272D01*
X127137706Y-102812516D01*
X127277593Y-102850000D01*
X127422407Y-102850000D01*
X127562295Y-102812516D01*
X127618140Y-102780273D01*
X127618139Y-102780272D01*
X128381858Y-102780272D01*
X128437706Y-102812516D01*
X128577593Y-102850000D01*
X128722407Y-102850000D01*
X128814180Y-102825409D01*
X128814181Y-102825408D01*
X128862294Y-102812516D01*
X128918140Y-102780273D01*
X128649999Y-102512132D01*
X128381858Y-102780272D01*
X127618139Y-102780272D01*
X127349999Y-102512132D01*
X127081858Y-102780272D01*
X126293817Y-102780272D01*
X126308500Y-102725475D01*
X126308500Y-102580525D01*
X126270984Y-102440515D01*
X126270982Y-102440512D01*
X126270982Y-102440510D01*
X126198512Y-102314989D01*
X126198510Y-102314987D01*
X126198509Y-102314985D01*
X126111116Y-102227592D01*
X126800000Y-102227592D01*
X126800000Y-102372407D01*
X126837482Y-102512292D01*
X126869726Y-102568140D01*
X127137867Y-102300000D01*
X127108030Y-102270163D01*
X127200000Y-102270163D01*
X127200000Y-102329837D01*
X127222836Y-102384968D01*
X127265032Y-102427164D01*
X127320163Y-102450000D01*
X127379837Y-102450000D01*
X127434968Y-102427164D01*
X127477164Y-102384968D01*
X127500000Y-102329837D01*
X127500000Y-102299999D01*
X127562132Y-102299999D01*
X127830273Y-102568140D01*
X127862516Y-102512295D01*
X127900000Y-102372407D01*
X127900000Y-102227592D01*
X128100000Y-102227592D01*
X128100000Y-102372407D01*
X128137482Y-102512292D01*
X128169726Y-102568140D01*
X128437867Y-102300000D01*
X128408030Y-102270163D01*
X128500000Y-102270163D01*
X128500000Y-102329837D01*
X128522836Y-102384968D01*
X128565032Y-102427164D01*
X128620163Y-102450000D01*
X128679837Y-102450000D01*
X128734968Y-102427164D01*
X128777164Y-102384968D01*
X128800000Y-102329837D01*
X128800000Y-102299999D01*
X128862132Y-102299999D01*
X129130273Y-102568140D01*
X129162516Y-102512295D01*
X129200000Y-102372407D01*
X129200000Y-102227592D01*
X129162516Y-102087706D01*
X129130272Y-102031858D01*
X128862132Y-102299999D01*
X128800000Y-102299999D01*
X128800000Y-102270163D01*
X128777164Y-102215032D01*
X128734968Y-102172836D01*
X128679837Y-102150000D01*
X128620163Y-102150000D01*
X128565032Y-102172836D01*
X128522836Y-102215032D01*
X128500000Y-102270163D01*
X128408030Y-102270163D01*
X128169725Y-102031858D01*
X128137483Y-102087705D01*
X128100000Y-102227592D01*
X127900000Y-102227592D01*
X127862516Y-102087706D01*
X127830272Y-102031858D01*
X127562132Y-102299999D01*
X127500000Y-102299999D01*
X127500000Y-102270163D01*
X127477164Y-102215032D01*
X127434968Y-102172836D01*
X127379837Y-102150000D01*
X127320163Y-102150000D01*
X127265032Y-102172836D01*
X127222836Y-102215032D01*
X127200000Y-102270163D01*
X127108030Y-102270163D01*
X126869725Y-102031858D01*
X126837483Y-102087705D01*
X126800000Y-102227592D01*
X126111116Y-102227592D01*
X126096015Y-102212491D01*
X126096012Y-102212489D01*
X126096010Y-102212487D01*
X125970488Y-102140017D01*
X125970489Y-102140017D01*
X125888265Y-102117985D01*
X125830475Y-102102500D01*
X125685525Y-102102500D01*
X125627735Y-102117985D01*
X125545510Y-102140017D01*
X125419989Y-102212487D01*
X125419983Y-102212492D01*
X125409198Y-102223277D01*
X125354681Y-102251053D01*
X125294249Y-102241479D01*
X125253461Y-102202771D01*
X125204512Y-102117989D01*
X125204510Y-102117987D01*
X125204509Y-102117985D01*
X125102015Y-102015491D01*
X125102012Y-102015489D01*
X125102010Y-102015487D01*
X124976488Y-101943017D01*
X124976489Y-101943017D01*
X124946896Y-101935087D01*
X124836475Y-101905500D01*
X124691525Y-101905500D01*
X124629790Y-101922041D01*
X124551510Y-101943017D01*
X124425989Y-102015487D01*
X124323487Y-102117989D01*
X124251017Y-102243510D01*
X124235881Y-102299999D01*
X124213500Y-102383525D01*
X74234102Y-102383525D01*
X74243585Y-102380984D01*
X74243587Y-102380982D01*
X74243589Y-102380982D01*
X74369110Y-102308512D01*
X74369110Y-102308511D01*
X74369115Y-102308509D01*
X74471609Y-102206015D01*
X74490765Y-102172836D01*
X74544082Y-102080489D01*
X74544082Y-102080487D01*
X74544084Y-102080485D01*
X74581600Y-101940475D01*
X74581600Y-101795525D01*
X74544084Y-101655515D01*
X74544082Y-101655512D01*
X74544082Y-101655510D01*
X74471612Y-101529989D01*
X74471610Y-101529987D01*
X74471609Y-101529985D01*
X74395149Y-101453525D01*
X119811500Y-101453525D01*
X119811500Y-101598475D01*
X119835218Y-101686989D01*
X119849017Y-101738489D01*
X119921487Y-101864010D01*
X119921489Y-101864012D01*
X119921491Y-101864015D01*
X120023985Y-101966509D01*
X120023987Y-101966510D01*
X120023989Y-101966512D01*
X120149511Y-102038982D01*
X120149512Y-102038982D01*
X120149515Y-102038984D01*
X120289525Y-102076500D01*
X120289526Y-102076500D01*
X120434474Y-102076500D01*
X120434475Y-102076500D01*
X120574485Y-102038984D01*
X120574487Y-102038982D01*
X120574489Y-102038982D01*
X120700010Y-101966512D01*
X120700010Y-101966511D01*
X120700015Y-101966509D01*
X120802509Y-101864015D01*
X120802512Y-101864010D01*
X120828080Y-101819725D01*
X127081858Y-101819725D01*
X127350000Y-102087867D01*
X127618140Y-101819726D01*
X127618141Y-101819726D01*
X127618139Y-101819725D01*
X128381858Y-101819725D01*
X128650000Y-102087867D01*
X128918140Y-101819726D01*
X128918141Y-101819726D01*
X128862292Y-101787482D01*
X128722407Y-101750000D01*
X128577593Y-101750000D01*
X128437705Y-101787483D01*
X128381858Y-101819725D01*
X127618139Y-101819725D01*
X127562292Y-101787482D01*
X127422407Y-101750000D01*
X127277593Y-101750000D01*
X127137705Y-101787483D01*
X127081858Y-101819725D01*
X120828080Y-101819725D01*
X120874982Y-101738489D01*
X120874982Y-101738487D01*
X120874984Y-101738485D01*
X120912500Y-101598475D01*
X120912500Y-101480272D01*
X127081858Y-101480272D01*
X127137706Y-101512516D01*
X127277593Y-101550000D01*
X127422407Y-101550000D01*
X127562295Y-101512516D01*
X127618140Y-101480273D01*
X127618139Y-101480272D01*
X128381858Y-101480272D01*
X128437706Y-101512516D01*
X128577593Y-101550000D01*
X128722407Y-101550000D01*
X128862295Y-101512516D01*
X128918140Y-101480273D01*
X128649999Y-101212132D01*
X128381858Y-101480272D01*
X127618139Y-101480272D01*
X127349999Y-101212132D01*
X127081858Y-101480272D01*
X120912500Y-101480272D01*
X120912500Y-101453525D01*
X120874984Y-101313515D01*
X120874982Y-101313512D01*
X120874982Y-101313510D01*
X120802512Y-101187989D01*
X120802510Y-101187987D01*
X120802509Y-101187985D01*
X120700015Y-101085491D01*
X120700012Y-101085489D01*
X120700010Y-101085487D01*
X120574488Y-101013017D01*
X120574489Y-101013017D01*
X120487581Y-100989730D01*
X120434475Y-100975500D01*
X120289525Y-100975500D01*
X120244704Y-100987510D01*
X120149510Y-101013017D01*
X120023989Y-101085487D01*
X119921487Y-101187989D01*
X119849017Y-101313510D01*
X119822497Y-101412485D01*
X119811500Y-101453525D01*
X74395149Y-101453525D01*
X74369115Y-101427491D01*
X74369112Y-101427489D01*
X74369110Y-101427487D01*
X74243588Y-101355017D01*
X74243589Y-101355017D01*
X74213996Y-101347087D01*
X74103575Y-101317500D01*
X73958625Y-101317500D01*
X73896890Y-101334041D01*
X73818610Y-101355017D01*
X73693089Y-101427487D01*
X73590587Y-101529989D01*
X73518117Y-101655510D01*
X73487371Y-101770254D01*
X73480600Y-101795525D01*
X67364625Y-101795525D01*
X67362932Y-101779417D01*
X67368222Y-101770254D01*
X67369328Y-101759733D01*
X67383176Y-101744352D01*
X67393525Y-101726429D01*
X67410269Y-101714264D01*
X67429245Y-101703308D01*
X67429251Y-101703303D01*
X67538015Y-101640509D01*
X67640509Y-101538015D01*
X67655520Y-101512016D01*
X67712982Y-101412489D01*
X67712982Y-101412487D01*
X67712984Y-101412485D01*
X67750500Y-101272475D01*
X67750500Y-101127525D01*
X67712984Y-100987515D01*
X67712982Y-100987512D01*
X67712982Y-100987510D01*
X67640512Y-100861989D01*
X67640510Y-100861987D01*
X67640509Y-100861985D01*
X67538015Y-100759491D01*
X67538012Y-100759489D01*
X67538010Y-100759487D01*
X67412488Y-100687017D01*
X67412489Y-100687017D01*
X67382896Y-100679087D01*
X67272475Y-100649500D01*
X67127525Y-100649500D01*
X67065790Y-100666041D01*
X66987510Y-100687017D01*
X66861989Y-100759487D01*
X66759487Y-100861989D01*
X66685736Y-100989730D01*
X66640267Y-101030671D01*
X66579416Y-101037067D01*
X66526428Y-101006474D01*
X66514264Y-100989730D01*
X66440512Y-100861989D01*
X66440510Y-100861987D01*
X66440509Y-100861985D01*
X66338015Y-100759491D01*
X66338012Y-100759489D01*
X66338010Y-100759487D01*
X66212488Y-100687017D01*
X66212489Y-100687017D01*
X66182896Y-100679087D01*
X66072475Y-100649500D01*
X65927525Y-100649500D01*
X65865790Y-100666041D01*
X65787510Y-100687017D01*
X65661989Y-100759487D01*
X65559487Y-100861989D01*
X65485736Y-100989730D01*
X65440267Y-101030671D01*
X65379416Y-101037067D01*
X65326428Y-101006474D01*
X65314264Y-100989730D01*
X65240512Y-100861989D01*
X65240510Y-100861987D01*
X65240509Y-100861985D01*
X65138015Y-100759491D01*
X65138012Y-100759489D01*
X65138010Y-100759487D01*
X65012488Y-100687017D01*
X65012489Y-100687017D01*
X64982896Y-100679087D01*
X64872475Y-100649500D01*
X64727525Y-100649500D01*
X64665790Y-100666041D01*
X64587510Y-100687017D01*
X64461989Y-100759487D01*
X64359487Y-100861989D01*
X64287017Y-100987510D01*
X64275452Y-101030671D01*
X64249500Y-101127525D01*
X60921100Y-101127525D01*
X60921100Y-101015525D01*
X60883584Y-100875515D01*
X60883582Y-100875512D01*
X60883582Y-100875510D01*
X60811112Y-100749989D01*
X60811110Y-100749987D01*
X60811109Y-100749985D01*
X60708615Y-100647491D01*
X60708612Y-100647489D01*
X60708610Y-100647487D01*
X60583088Y-100575017D01*
X60583089Y-100575017D01*
X60553496Y-100567087D01*
X60443075Y-100537500D01*
X60298125Y-100537500D01*
X60236390Y-100554041D01*
X60158110Y-100575017D01*
X60032589Y-100647487D01*
X59930087Y-100749989D01*
X59857617Y-100875510D01*
X59832255Y-100970163D01*
X59820100Y-101015525D01*
X50500000Y-101015525D01*
X50500000Y-100327525D01*
X124049500Y-100327525D01*
X124049500Y-100472475D01*
X124066924Y-100537500D01*
X124087017Y-100612489D01*
X124159487Y-100738010D01*
X124159489Y-100738012D01*
X124159491Y-100738015D01*
X124261985Y-100840509D01*
X124261987Y-100840510D01*
X124261989Y-100840512D01*
X124387511Y-100912982D01*
X124387512Y-100912982D01*
X124387515Y-100912984D01*
X124527525Y-100950500D01*
X124527526Y-100950500D01*
X124672474Y-100950500D01*
X124672475Y-100950500D01*
X124757968Y-100927592D01*
X126800000Y-100927592D01*
X126800000Y-101072407D01*
X126837482Y-101212292D01*
X126869726Y-101268140D01*
X127137867Y-101000000D01*
X127108030Y-100970163D01*
X127200000Y-100970163D01*
X127200000Y-101029837D01*
X127222836Y-101084968D01*
X127265032Y-101127164D01*
X127320163Y-101150000D01*
X127379837Y-101150000D01*
X127434968Y-101127164D01*
X127477164Y-101084968D01*
X127500000Y-101029837D01*
X127500000Y-100999999D01*
X127562132Y-100999999D01*
X127830273Y-101268140D01*
X127862516Y-101212295D01*
X127900000Y-101072407D01*
X127900000Y-100927592D01*
X128100000Y-100927592D01*
X128100000Y-101072407D01*
X128137482Y-101212292D01*
X128169726Y-101268140D01*
X128437867Y-101000000D01*
X128408030Y-100970163D01*
X128500000Y-100970163D01*
X128500000Y-101029837D01*
X128522836Y-101084968D01*
X128565032Y-101127164D01*
X128620163Y-101150000D01*
X128679837Y-101150000D01*
X128734968Y-101127164D01*
X128777164Y-101084968D01*
X128800000Y-101029837D01*
X128800000Y-100999999D01*
X128862132Y-100999999D01*
X129130273Y-101268140D01*
X129162516Y-101212295D01*
X129200000Y-101072407D01*
X129200000Y-100927592D01*
X129162516Y-100787706D01*
X129130272Y-100731858D01*
X128862132Y-100999999D01*
X128800000Y-100999999D01*
X128800000Y-100970163D01*
X128777164Y-100915032D01*
X128734968Y-100872836D01*
X128679837Y-100850000D01*
X128620163Y-100850000D01*
X128565032Y-100872836D01*
X128522836Y-100915032D01*
X128500000Y-100970163D01*
X128408030Y-100970163D01*
X128169725Y-100731858D01*
X128137483Y-100787705D01*
X128100000Y-100927592D01*
X127900000Y-100927592D01*
X127862516Y-100787706D01*
X127830272Y-100731858D01*
X127562132Y-100999999D01*
X127500000Y-100999999D01*
X127500000Y-100970163D01*
X127477164Y-100915032D01*
X127434968Y-100872836D01*
X127379837Y-100850000D01*
X127320163Y-100850000D01*
X127265032Y-100872836D01*
X127222836Y-100915032D01*
X127200000Y-100970163D01*
X127108030Y-100970163D01*
X126869725Y-100731858D01*
X126837483Y-100787705D01*
X126800000Y-100927592D01*
X124757968Y-100927592D01*
X124812485Y-100912984D01*
X124812487Y-100912982D01*
X124812489Y-100912982D01*
X124938008Y-100840513D01*
X124938007Y-100840513D01*
X124938015Y-100840509D01*
X125040509Y-100738015D01*
X125044064Y-100731858D01*
X125112982Y-100612489D01*
X125112982Y-100612487D01*
X125112984Y-100612485D01*
X125137839Y-100519725D01*
X127081858Y-100519725D01*
X127350000Y-100787867D01*
X127618140Y-100519726D01*
X127618141Y-100519726D01*
X127618139Y-100519725D01*
X128381858Y-100519725D01*
X128650000Y-100787867D01*
X128918140Y-100519726D01*
X128918141Y-100519726D01*
X128895704Y-100506773D01*
X128862292Y-100487482D01*
X128722407Y-100450000D01*
X128577593Y-100450000D01*
X128437705Y-100487483D01*
X128381858Y-100519725D01*
X127618139Y-100519725D01*
X127562292Y-100487482D01*
X127422407Y-100450000D01*
X127277593Y-100450000D01*
X127137705Y-100487483D01*
X127081858Y-100519725D01*
X125137839Y-100519725D01*
X125150500Y-100472475D01*
X125150500Y-100427525D01*
X131049500Y-100427525D01*
X131049500Y-100572474D01*
X131087017Y-100712489D01*
X131159487Y-100838010D01*
X131159489Y-100838012D01*
X131159491Y-100838015D01*
X131261985Y-100940509D01*
X131261987Y-100940510D01*
X131261989Y-100940512D01*
X131387511Y-101012982D01*
X131387512Y-101012982D01*
X131387515Y-101012984D01*
X131527525Y-101050500D01*
X131527526Y-101050500D01*
X131672474Y-101050500D01*
X131672475Y-101050500D01*
X131812485Y-101012984D01*
X131812487Y-101012982D01*
X131812489Y-101012982D01*
X131938010Y-100940512D01*
X131938010Y-100940511D01*
X131938015Y-100940509D01*
X132040509Y-100838015D01*
X132085845Y-100759491D01*
X132112982Y-100712489D01*
X132112982Y-100712487D01*
X132112984Y-100712485D01*
X132150500Y-100572475D01*
X132150500Y-100427525D01*
X132112984Y-100287515D01*
X132112982Y-100287512D01*
X132112982Y-100287510D01*
X132040512Y-100161989D01*
X132040510Y-100161987D01*
X132040509Y-100161985D01*
X131938015Y-100059491D01*
X131938012Y-100059489D01*
X131938010Y-100059487D01*
X131812488Y-99987017D01*
X131812489Y-99987017D01*
X131782896Y-99979087D01*
X131672475Y-99949500D01*
X131527525Y-99949500D01*
X131490239Y-99959491D01*
X131387510Y-99987017D01*
X131261989Y-100059487D01*
X131159487Y-100161989D01*
X131087017Y-100287510D01*
X131049500Y-100427525D01*
X125150500Y-100427525D01*
X125150500Y-100327525D01*
X125112984Y-100187515D01*
X125108802Y-100180272D01*
X127081858Y-100180272D01*
X127137706Y-100212516D01*
X127277593Y-100250000D01*
X127422407Y-100250000D01*
X127562295Y-100212516D01*
X127618140Y-100180273D01*
X127618139Y-100180272D01*
X128381858Y-100180272D01*
X128437706Y-100212516D01*
X128577593Y-100250000D01*
X128722407Y-100250000D01*
X128862295Y-100212516D01*
X128918140Y-100180273D01*
X128649999Y-99912132D01*
X128381858Y-100180272D01*
X127618139Y-100180272D01*
X127349999Y-99912132D01*
X127081858Y-100180272D01*
X125108802Y-100180272D01*
X125098244Y-100161985D01*
X125040512Y-100061989D01*
X125040510Y-100061987D01*
X125040509Y-100061985D01*
X124938015Y-99959491D01*
X124938012Y-99959489D01*
X124938010Y-99959487D01*
X124812488Y-99887017D01*
X124812489Y-99887017D01*
X124782896Y-99879087D01*
X124672475Y-99849500D01*
X124527525Y-99849500D01*
X124465790Y-99866041D01*
X124387510Y-99887017D01*
X124261989Y-99959487D01*
X124159487Y-100061989D01*
X124087017Y-100187510D01*
X124087016Y-100187515D01*
X124049500Y-100327525D01*
X50500000Y-100327525D01*
X50500000Y-99267825D01*
X125535500Y-99267825D01*
X125535500Y-99412775D01*
X125555578Y-99487705D01*
X125573017Y-99552789D01*
X125645487Y-99678310D01*
X125645489Y-99678312D01*
X125645491Y-99678315D01*
X125747985Y-99780809D01*
X125747987Y-99780810D01*
X125747989Y-99780812D01*
X125873511Y-99853282D01*
X125873512Y-99853282D01*
X125873515Y-99853284D01*
X126013525Y-99890800D01*
X126013526Y-99890800D01*
X126158474Y-99890800D01*
X126158475Y-99890800D01*
X126298485Y-99853284D01*
X126298487Y-99853282D01*
X126298489Y-99853282D01*
X126424010Y-99780812D01*
X126424010Y-99780811D01*
X126424015Y-99780809D01*
X126526509Y-99678315D01*
X126555794Y-99627592D01*
X126800000Y-99627592D01*
X126800000Y-99772407D01*
X126837482Y-99912292D01*
X126869726Y-99968140D01*
X127137867Y-99700000D01*
X127108030Y-99670163D01*
X127200000Y-99670163D01*
X127200000Y-99729837D01*
X127222836Y-99784968D01*
X127265032Y-99827164D01*
X127320163Y-99850000D01*
X127379837Y-99850000D01*
X127434968Y-99827164D01*
X127477164Y-99784968D01*
X127500000Y-99729837D01*
X127500000Y-99699999D01*
X127562132Y-99699999D01*
X127830273Y-99968140D01*
X127862516Y-99912295D01*
X127900000Y-99772407D01*
X127900000Y-99627592D01*
X128100000Y-99627592D01*
X128100000Y-99772407D01*
X128137482Y-99912292D01*
X128169726Y-99968140D01*
X128437867Y-99700000D01*
X128408030Y-99670163D01*
X128500000Y-99670163D01*
X128500000Y-99729837D01*
X128522836Y-99784968D01*
X128565032Y-99827164D01*
X128620163Y-99850000D01*
X128679837Y-99850000D01*
X128734968Y-99827164D01*
X128777164Y-99784968D01*
X128800000Y-99729837D01*
X128800000Y-99699999D01*
X128862132Y-99699999D01*
X129130273Y-99968140D01*
X129162516Y-99912295D01*
X129200000Y-99772407D01*
X129200000Y-99627592D01*
X129162516Y-99487706D01*
X129130272Y-99431858D01*
X128862132Y-99699999D01*
X128800000Y-99699999D01*
X128800000Y-99670163D01*
X128777164Y-99615032D01*
X128734968Y-99572836D01*
X128679837Y-99550000D01*
X128620163Y-99550000D01*
X128565032Y-99572836D01*
X128522836Y-99615032D01*
X128500000Y-99670163D01*
X128408030Y-99670163D01*
X128169725Y-99431858D01*
X128137483Y-99487705D01*
X128100000Y-99627592D01*
X127900000Y-99627592D01*
X127862516Y-99487706D01*
X127830272Y-99431858D01*
X127562132Y-99699999D01*
X127500000Y-99699999D01*
X127500000Y-99670163D01*
X127477164Y-99615032D01*
X127434968Y-99572836D01*
X127379837Y-99550000D01*
X127320163Y-99550000D01*
X127265032Y-99572836D01*
X127222836Y-99615032D01*
X127200000Y-99670163D01*
X127108030Y-99670163D01*
X126869725Y-99431858D01*
X126837483Y-99487705D01*
X126800000Y-99627592D01*
X126555794Y-99627592D01*
X126598984Y-99552785D01*
X126636500Y-99412775D01*
X126636500Y-99267825D01*
X126623611Y-99219725D01*
X127081858Y-99219725D01*
X127350000Y-99487867D01*
X127618140Y-99219726D01*
X127618141Y-99219726D01*
X127618139Y-99219725D01*
X128381858Y-99219725D01*
X128650000Y-99487867D01*
X128918140Y-99219726D01*
X128918141Y-99219726D01*
X128862292Y-99187482D01*
X128722407Y-99150000D01*
X128577593Y-99150000D01*
X128437705Y-99187483D01*
X128381858Y-99219725D01*
X127618139Y-99219725D01*
X127562292Y-99187482D01*
X127422407Y-99150000D01*
X127277593Y-99150000D01*
X127137705Y-99187483D01*
X127081858Y-99219725D01*
X126623611Y-99219725D01*
X126598984Y-99127815D01*
X126598982Y-99127812D01*
X126598982Y-99127810D01*
X126526512Y-99002289D01*
X126526510Y-99002287D01*
X126526509Y-99002285D01*
X126424015Y-98899791D01*
X126424012Y-98899789D01*
X126424010Y-98899787D01*
X126298488Y-98827317D01*
X126298489Y-98827317D01*
X126268896Y-98819387D01*
X126158475Y-98789800D01*
X126013525Y-98789800D01*
X125951790Y-98806341D01*
X125873510Y-98827317D01*
X125747989Y-98899787D01*
X125645487Y-99002289D01*
X125573017Y-99127810D01*
X125548388Y-99219726D01*
X125535500Y-99267825D01*
X50500000Y-99267825D01*
X50500000Y-98137725D01*
X71707000Y-98137725D01*
X71707000Y-98282674D01*
X71744517Y-98422689D01*
X71816987Y-98548210D01*
X71816989Y-98548212D01*
X71816991Y-98548215D01*
X71919485Y-98650709D01*
X71919487Y-98650710D01*
X71919489Y-98650712D01*
X72045011Y-98723182D01*
X72045012Y-98723182D01*
X72045015Y-98723184D01*
X72185025Y-98760700D01*
X72185026Y-98760700D01*
X72329974Y-98760700D01*
X72329975Y-98760700D01*
X72469985Y-98723184D01*
X72469987Y-98723182D01*
X72469989Y-98723182D01*
X72595510Y-98650712D01*
X72595510Y-98650711D01*
X72595515Y-98650709D01*
X72698009Y-98548215D01*
X72770484Y-98422685D01*
X72808000Y-98282675D01*
X72808000Y-98137725D01*
X72770484Y-97997715D01*
X72698009Y-97872185D01*
X72653749Y-97827925D01*
X130636500Y-97827925D01*
X130636500Y-97972875D01*
X130643156Y-97997715D01*
X130674017Y-98112889D01*
X130746487Y-98238410D01*
X130746489Y-98238412D01*
X130746491Y-98238415D01*
X130848985Y-98340909D01*
X130848987Y-98340910D01*
X130848989Y-98340912D01*
X130974511Y-98413382D01*
X130974512Y-98413382D01*
X130974515Y-98413384D01*
X131114525Y-98450900D01*
X131114526Y-98450900D01*
X131259474Y-98450900D01*
X131259475Y-98450900D01*
X131399485Y-98413384D01*
X131399487Y-98413382D01*
X131399489Y-98413382D01*
X131525010Y-98340912D01*
X131525010Y-98340911D01*
X131525015Y-98340909D01*
X131627509Y-98238415D01*
X131689511Y-98131025D01*
X133481500Y-98131025D01*
X133481500Y-98275975D01*
X133498899Y-98340909D01*
X133519017Y-98415989D01*
X133591487Y-98541510D01*
X133591489Y-98541512D01*
X133591491Y-98541515D01*
X133693985Y-98644009D01*
X133693987Y-98644010D01*
X133693989Y-98644012D01*
X133819511Y-98716482D01*
X133819512Y-98716482D01*
X133819515Y-98716484D01*
X133959525Y-98754000D01*
X133959526Y-98754000D01*
X134104474Y-98754000D01*
X134104475Y-98754000D01*
X134244485Y-98716484D01*
X134244487Y-98716482D01*
X134244489Y-98716482D01*
X134370010Y-98644012D01*
X134370010Y-98644011D01*
X134370015Y-98644009D01*
X134472509Y-98541515D01*
X134524826Y-98450900D01*
X134544982Y-98415989D01*
X134544982Y-98415987D01*
X134544984Y-98415985D01*
X134582500Y-98275975D01*
X134582500Y-98131025D01*
X134544984Y-97991015D01*
X134544982Y-97991012D01*
X134544982Y-97991010D01*
X134472512Y-97865489D01*
X134472510Y-97865487D01*
X134472509Y-97865485D01*
X134370015Y-97762991D01*
X134370012Y-97762989D01*
X134370010Y-97762987D01*
X134244488Y-97690517D01*
X134244489Y-97690517D01*
X134129479Y-97659700D01*
X134104475Y-97653000D01*
X133959525Y-97653000D01*
X133934521Y-97659700D01*
X133819510Y-97690517D01*
X133693989Y-97762987D01*
X133591487Y-97865489D01*
X133519017Y-97991010D01*
X133490105Y-98098912D01*
X133481500Y-98131025D01*
X131689511Y-98131025D01*
X131699984Y-98112885D01*
X131737500Y-97972875D01*
X131737500Y-97827925D01*
X131699984Y-97687915D01*
X131699982Y-97687912D01*
X131699982Y-97687910D01*
X131627512Y-97562389D01*
X131627510Y-97562387D01*
X131627509Y-97562385D01*
X131525015Y-97459891D01*
X131525012Y-97459889D01*
X131525010Y-97459887D01*
X131399488Y-97387417D01*
X131399489Y-97387417D01*
X131369896Y-97379487D01*
X131259475Y-97349900D01*
X131114525Y-97349900D01*
X131052790Y-97366441D01*
X130974510Y-97387417D01*
X130848989Y-97459887D01*
X130746487Y-97562389D01*
X130674017Y-97687910D01*
X130653900Y-97762987D01*
X130636500Y-97827925D01*
X72653749Y-97827925D01*
X72595515Y-97769691D01*
X72595512Y-97769689D01*
X72595510Y-97769687D01*
X72469988Y-97697217D01*
X72469989Y-97697217D01*
X72435255Y-97687910D01*
X72329975Y-97659700D01*
X72185025Y-97659700D01*
X72123290Y-97676241D01*
X72045010Y-97697217D01*
X71919489Y-97769687D01*
X71816987Y-97872189D01*
X71744517Y-97997710D01*
X71707000Y-98137725D01*
X50500000Y-98137725D01*
X50500000Y-97000925D01*
X60144200Y-97000925D01*
X60144200Y-97145874D01*
X60181717Y-97285889D01*
X60254187Y-97411410D01*
X60254189Y-97411412D01*
X60254191Y-97411415D01*
X60356685Y-97513909D01*
X60356687Y-97513910D01*
X60356689Y-97513912D01*
X60482211Y-97586382D01*
X60482212Y-97586382D01*
X60482215Y-97586384D01*
X60622225Y-97623900D01*
X60622226Y-97623900D01*
X60767174Y-97623900D01*
X60767175Y-97623900D01*
X60907185Y-97586384D01*
X60907187Y-97586382D01*
X60907189Y-97586382D01*
X61032710Y-97513912D01*
X61032710Y-97513911D01*
X61032715Y-97513909D01*
X61135209Y-97411415D01*
X61207684Y-97285885D01*
X61245200Y-97145875D01*
X61245200Y-97000925D01*
X61225532Y-96927525D01*
X101149500Y-96927525D01*
X101149500Y-97072475D01*
X101169168Y-97145875D01*
X101187017Y-97212489D01*
X101259487Y-97338010D01*
X101259489Y-97338012D01*
X101259491Y-97338015D01*
X101361985Y-97440509D01*
X101361987Y-97440510D01*
X101361989Y-97440512D01*
X101487511Y-97512982D01*
X101487512Y-97512982D01*
X101487515Y-97512984D01*
X101627525Y-97550500D01*
X101627526Y-97550500D01*
X101772474Y-97550500D01*
X101772475Y-97550500D01*
X101912485Y-97512984D01*
X101912487Y-97512982D01*
X101912489Y-97512982D01*
X102038010Y-97440512D01*
X102038010Y-97440511D01*
X102038015Y-97440509D01*
X102140509Y-97338015D01*
X102170604Y-97285889D01*
X102212982Y-97212489D01*
X102212982Y-97212487D01*
X102212984Y-97212485D01*
X102250500Y-97072475D01*
X102250500Y-96927525D01*
X102212984Y-96787515D01*
X102212982Y-96787512D01*
X102212982Y-96787510D01*
X102140512Y-96661989D01*
X102140510Y-96661987D01*
X102140509Y-96661985D01*
X102038015Y-96559491D01*
X102038012Y-96559489D01*
X102038010Y-96559487D01*
X101912488Y-96487017D01*
X101912489Y-96487017D01*
X101882896Y-96479087D01*
X101772475Y-96449500D01*
X101627525Y-96449500D01*
X101565790Y-96466041D01*
X101487510Y-96487017D01*
X101361989Y-96559487D01*
X101259487Y-96661989D01*
X101187017Y-96787510D01*
X101167348Y-96860915D01*
X101149500Y-96927525D01*
X61225532Y-96927525D01*
X61207684Y-96860915D01*
X61207681Y-96860909D01*
X61135212Y-96735389D01*
X61135210Y-96735387D01*
X61135209Y-96735385D01*
X61032715Y-96632891D01*
X61032712Y-96632889D01*
X61032710Y-96632887D01*
X60907188Y-96560417D01*
X60907189Y-96560417D01*
X60877596Y-96552487D01*
X60767175Y-96522900D01*
X60622225Y-96522900D01*
X60560490Y-96539441D01*
X60482210Y-96560417D01*
X60356689Y-96632887D01*
X60254187Y-96735389D01*
X60181717Y-96860910D01*
X60144200Y-97000925D01*
X50500000Y-97000925D01*
X50500000Y-95627525D01*
X69537000Y-95627525D01*
X69537000Y-95772474D01*
X69574517Y-95912489D01*
X69646987Y-96038010D01*
X69646989Y-96038012D01*
X69646991Y-96038015D01*
X69749485Y-96140509D01*
X69749487Y-96140510D01*
X69749489Y-96140512D01*
X69875011Y-96212982D01*
X69875012Y-96212982D01*
X69875015Y-96212984D01*
X70015025Y-96250500D01*
X70015026Y-96250500D01*
X70159974Y-96250500D01*
X70159975Y-96250500D01*
X70299985Y-96212984D01*
X70299987Y-96212982D01*
X70299989Y-96212982D01*
X70425510Y-96140512D01*
X70425510Y-96140511D01*
X70425515Y-96140509D01*
X70528009Y-96038015D01*
X70528012Y-96038010D01*
X70600482Y-95912489D01*
X70600482Y-95912487D01*
X70600484Y-95912485D01*
X70638000Y-95772475D01*
X70638000Y-95627525D01*
X70600484Y-95487515D01*
X70600482Y-95487512D01*
X70600482Y-95487510D01*
X70528012Y-95361989D01*
X70528010Y-95361987D01*
X70528009Y-95361985D01*
X70470649Y-95304625D01*
X101835500Y-95304625D01*
X101835500Y-95449574D01*
X101873017Y-95589589D01*
X101945487Y-95715110D01*
X101945489Y-95715112D01*
X101945491Y-95715115D01*
X102047985Y-95817609D01*
X102047987Y-95817610D01*
X102047989Y-95817612D01*
X102173511Y-95890082D01*
X102173512Y-95890082D01*
X102173515Y-95890084D01*
X102313525Y-95927600D01*
X102313526Y-95927600D01*
X102458474Y-95927600D01*
X102458475Y-95927600D01*
X102598485Y-95890084D01*
X102598487Y-95890082D01*
X102598489Y-95890082D01*
X102724010Y-95817612D01*
X102724010Y-95817611D01*
X102724015Y-95817609D01*
X102826509Y-95715115D01*
X102826512Y-95715110D01*
X102898982Y-95589589D01*
X102898982Y-95589587D01*
X102898984Y-95589585D01*
X102936500Y-95449575D01*
X102936500Y-95304625D01*
X102898984Y-95164615D01*
X102898982Y-95164612D01*
X102898982Y-95164610D01*
X102826512Y-95039089D01*
X102826510Y-95039087D01*
X102826509Y-95039085D01*
X102724015Y-94936591D01*
X102724012Y-94936589D01*
X102724010Y-94936587D01*
X102598488Y-94864117D01*
X102598489Y-94864117D01*
X102568896Y-94856187D01*
X102458475Y-94826600D01*
X102313525Y-94826600D01*
X102251790Y-94843141D01*
X102173510Y-94864117D01*
X102047989Y-94936587D01*
X101945487Y-95039089D01*
X101873017Y-95164610D01*
X101835500Y-95304625D01*
X70470649Y-95304625D01*
X70425515Y-95259491D01*
X70425512Y-95259489D01*
X70425510Y-95259487D01*
X70299988Y-95187017D01*
X70299989Y-95187017D01*
X70216384Y-95164615D01*
X70159975Y-95149500D01*
X70015025Y-95149500D01*
X69958634Y-95164610D01*
X69875010Y-95187017D01*
X69749489Y-95259487D01*
X69646987Y-95361989D01*
X69574517Y-95487510D01*
X69537000Y-95627525D01*
X50500000Y-95627525D01*
X50500000Y-92038325D01*
X133251500Y-92038325D01*
X133251500Y-92183274D01*
X133289017Y-92323289D01*
X133361487Y-92448810D01*
X133361489Y-92448812D01*
X133361491Y-92448815D01*
X133463985Y-92551309D01*
X133463987Y-92551310D01*
X133463989Y-92551312D01*
X133589511Y-92623782D01*
X133589512Y-92623782D01*
X133589515Y-92623784D01*
X133729525Y-92661300D01*
X133729526Y-92661300D01*
X133874474Y-92661300D01*
X133874475Y-92661300D01*
X134014485Y-92623784D01*
X134014487Y-92623782D01*
X134014489Y-92623782D01*
X134140010Y-92551312D01*
X134140010Y-92551311D01*
X134140015Y-92551309D01*
X134242509Y-92448815D01*
X134314984Y-92323285D01*
X134352500Y-92183275D01*
X134352500Y-92038325D01*
X134314984Y-91898315D01*
X134314982Y-91898312D01*
X134314982Y-91898310D01*
X134242512Y-91772789D01*
X134242510Y-91772787D01*
X134242509Y-91772785D01*
X134140015Y-91670291D01*
X134140012Y-91670289D01*
X134140010Y-91670287D01*
X134014488Y-91597817D01*
X134014489Y-91597817D01*
X133984896Y-91589887D01*
X133874475Y-91560300D01*
X133729525Y-91560300D01*
X133667790Y-91576841D01*
X133589510Y-91597817D01*
X133463989Y-91670287D01*
X133361487Y-91772789D01*
X133289017Y-91898310D01*
X133251500Y-92038325D01*
X50500000Y-92038325D01*
X50500000Y-90627525D01*
X75949500Y-90627525D01*
X75949500Y-90772474D01*
X75987017Y-90912489D01*
X76059487Y-91038010D01*
X76059489Y-91038012D01*
X76059491Y-91038015D01*
X76161985Y-91140509D01*
X76161987Y-91140510D01*
X76161989Y-91140512D01*
X76287511Y-91212982D01*
X76287512Y-91212982D01*
X76287515Y-91212984D01*
X76427525Y-91250500D01*
X76427526Y-91250500D01*
X76572474Y-91250500D01*
X76572475Y-91250500D01*
X76712485Y-91212984D01*
X76712487Y-91212982D01*
X76712489Y-91212982D01*
X76838010Y-91140512D01*
X76838010Y-91140511D01*
X76838015Y-91140509D01*
X76940509Y-91038015D01*
X77004301Y-90927525D01*
X120930500Y-90927525D01*
X120930500Y-91072474D01*
X120968017Y-91212489D01*
X121040487Y-91338010D01*
X121040489Y-91338012D01*
X121040491Y-91338015D01*
X121142985Y-91440509D01*
X121142987Y-91440510D01*
X121142989Y-91440512D01*
X121268511Y-91512982D01*
X121268512Y-91512982D01*
X121268515Y-91512984D01*
X121408525Y-91550500D01*
X121408526Y-91550500D01*
X121553474Y-91550500D01*
X121553475Y-91550500D01*
X121693485Y-91512984D01*
X121693487Y-91512982D01*
X121693489Y-91512982D01*
X121819010Y-91440512D01*
X121819010Y-91440511D01*
X121819015Y-91440509D01*
X121921509Y-91338015D01*
X121993984Y-91212485D01*
X122031500Y-91072475D01*
X122031500Y-90927525D01*
X121993984Y-90787515D01*
X121993982Y-90787512D01*
X121993982Y-90787510D01*
X121921512Y-90661989D01*
X121921510Y-90661987D01*
X121921509Y-90661985D01*
X121819015Y-90559491D01*
X121819012Y-90559489D01*
X121819010Y-90559487D01*
X121693488Y-90487017D01*
X121693489Y-90487017D01*
X121663896Y-90479087D01*
X121553475Y-90449500D01*
X121408525Y-90449500D01*
X121346790Y-90466041D01*
X121268510Y-90487017D01*
X121142989Y-90559487D01*
X121040487Y-90661989D01*
X120968017Y-90787510D01*
X120930500Y-90927525D01*
X77004301Y-90927525D01*
X77012984Y-90912485D01*
X77050500Y-90772475D01*
X77050500Y-90627525D01*
X77012984Y-90487515D01*
X77012982Y-90487512D01*
X77012982Y-90487510D01*
X76940512Y-90361989D01*
X76940510Y-90361987D01*
X76940509Y-90361985D01*
X76838015Y-90259491D01*
X76838012Y-90259489D01*
X76838010Y-90259487D01*
X76712488Y-90187017D01*
X76712489Y-90187017D01*
X76682896Y-90179087D01*
X76572475Y-90149500D01*
X76427525Y-90149500D01*
X76365790Y-90166041D01*
X76287510Y-90187017D01*
X76161989Y-90259487D01*
X76059487Y-90361989D01*
X75987017Y-90487510D01*
X75949500Y-90627525D01*
X50500000Y-90627525D01*
X50500000Y-89625625D01*
X113335500Y-89625625D01*
X113335500Y-89770574D01*
X113373017Y-89910589D01*
X113445487Y-90036110D01*
X113445489Y-90036112D01*
X113445491Y-90036115D01*
X113547985Y-90138609D01*
X113547987Y-90138610D01*
X113547989Y-90138612D01*
X113673511Y-90211082D01*
X113673512Y-90211082D01*
X113673515Y-90211084D01*
X113813525Y-90248600D01*
X113813526Y-90248600D01*
X113958474Y-90248600D01*
X113958475Y-90248600D01*
X114098485Y-90211084D01*
X114098487Y-90211082D01*
X114098489Y-90211082D01*
X114224010Y-90138612D01*
X114224010Y-90138611D01*
X114224015Y-90138609D01*
X114326509Y-90036115D01*
X114398984Y-89910585D01*
X114436500Y-89770575D01*
X114436500Y-89625625D01*
X114398984Y-89485615D01*
X114398982Y-89485612D01*
X114398982Y-89485610D01*
X114326512Y-89360089D01*
X114326510Y-89360087D01*
X114326509Y-89360085D01*
X114224015Y-89257591D01*
X114224012Y-89257589D01*
X114224010Y-89257587D01*
X114098488Y-89185117D01*
X114098489Y-89185117D01*
X114068896Y-89177187D01*
X113958475Y-89147600D01*
X113813525Y-89147600D01*
X113751790Y-89164141D01*
X113673510Y-89185117D01*
X113547989Y-89257587D01*
X113445487Y-89360089D01*
X113373017Y-89485610D01*
X113335500Y-89625625D01*
X50500000Y-89625625D01*
X50500000Y-87027525D01*
X70449500Y-87027525D01*
X70449500Y-87172475D01*
X70453397Y-87187017D01*
X70487017Y-87312489D01*
X70559487Y-87438010D01*
X70559489Y-87438012D01*
X70559491Y-87438015D01*
X70661985Y-87540509D01*
X70661987Y-87540510D01*
X70661989Y-87540512D01*
X70787511Y-87612982D01*
X70787512Y-87612982D01*
X70787515Y-87612984D01*
X70927525Y-87650500D01*
X70927526Y-87650500D01*
X71072474Y-87650500D01*
X71072475Y-87650500D01*
X71158218Y-87627525D01*
X100238500Y-87627525D01*
X100238500Y-87772474D01*
X100276017Y-87912489D01*
X100348487Y-88038010D01*
X100348489Y-88038012D01*
X100348491Y-88038015D01*
X100450985Y-88140509D01*
X100450987Y-88140510D01*
X100450989Y-88140512D01*
X100576511Y-88212982D01*
X100576512Y-88212982D01*
X100576515Y-88212984D01*
X100716525Y-88250500D01*
X100716526Y-88250500D01*
X100861474Y-88250500D01*
X100861475Y-88250500D01*
X101001485Y-88212984D01*
X101001487Y-88212982D01*
X101001489Y-88212982D01*
X101127010Y-88140512D01*
X101127010Y-88140511D01*
X101127015Y-88140509D01*
X101229509Y-88038015D01*
X101301984Y-87912485D01*
X101339500Y-87772475D01*
X101339500Y-87627525D01*
X101301984Y-87487515D01*
X101301982Y-87487512D01*
X101301982Y-87487510D01*
X101229512Y-87361989D01*
X101229510Y-87361987D01*
X101229509Y-87361985D01*
X101127015Y-87259491D01*
X101127012Y-87259489D01*
X101127010Y-87259487D01*
X101001488Y-87187017D01*
X101001489Y-87187017D01*
X100947214Y-87172474D01*
X100861475Y-87149500D01*
X100716525Y-87149500D01*
X100654790Y-87166041D01*
X100576510Y-87187017D01*
X100450989Y-87259487D01*
X100348487Y-87361989D01*
X100276017Y-87487510D01*
X100238500Y-87627525D01*
X71158218Y-87627525D01*
X71212485Y-87612984D01*
X71212487Y-87612982D01*
X71212489Y-87612982D01*
X71338008Y-87540513D01*
X71338007Y-87540513D01*
X71338015Y-87540509D01*
X71440509Y-87438015D01*
X71512984Y-87312485D01*
X71550500Y-87172475D01*
X71550500Y-87027525D01*
X71512984Y-86887515D01*
X71512982Y-86887512D01*
X71512982Y-86887510D01*
X71440512Y-86761989D01*
X71440510Y-86761987D01*
X71440509Y-86761985D01*
X71338015Y-86659491D01*
X71338012Y-86659489D01*
X71338010Y-86659487D01*
X71212488Y-86587017D01*
X71212489Y-86587017D01*
X71182896Y-86579087D01*
X71072475Y-86549500D01*
X70927525Y-86549500D01*
X70883170Y-86561385D01*
X70787510Y-86587017D01*
X70661989Y-86659487D01*
X70559487Y-86761989D01*
X70487017Y-86887510D01*
X70487016Y-86887515D01*
X70449500Y-87027525D01*
X50500000Y-87027525D01*
X50500000Y-86791253D01*
X66070877Y-86791253D01*
X66131916Y-86826495D01*
X66275618Y-86865000D01*
X66424382Y-86865000D01*
X66568084Y-86826494D01*
X66629121Y-86791254D01*
X66629120Y-86791253D01*
X67370877Y-86791253D01*
X67431916Y-86826495D01*
X67575618Y-86865000D01*
X67724382Y-86865000D01*
X67868084Y-86826494D01*
X67929121Y-86791254D01*
X67649999Y-86512132D01*
X67370877Y-86791253D01*
X66629120Y-86791253D01*
X66349999Y-86512132D01*
X66070877Y-86791253D01*
X50500000Y-86791253D01*
X50500000Y-86225617D01*
X65785000Y-86225617D01*
X65785000Y-86374382D01*
X65823504Y-86518081D01*
X65858745Y-86579121D01*
X66137867Y-86300000D01*
X66105046Y-86267179D01*
X66185000Y-86267179D01*
X66185000Y-86332821D01*
X66210119Y-86393465D01*
X66256535Y-86439881D01*
X66317179Y-86465000D01*
X66382821Y-86465000D01*
X66443465Y-86439881D01*
X66489881Y-86393465D01*
X66515000Y-86332821D01*
X66515000Y-86299999D01*
X66562132Y-86299999D01*
X66841254Y-86579121D01*
X66876494Y-86518084D01*
X66904373Y-86414042D01*
X66937697Y-86362728D01*
X66994819Y-86340801D01*
X67053919Y-86356637D01*
X67092424Y-86404187D01*
X67095627Y-86414042D01*
X67123504Y-86518081D01*
X67158745Y-86579121D01*
X67437867Y-86300000D01*
X67405046Y-86267179D01*
X67485000Y-86267179D01*
X67485000Y-86332821D01*
X67510119Y-86393465D01*
X67556535Y-86439881D01*
X67617179Y-86465000D01*
X67682821Y-86465000D01*
X67743465Y-86439881D01*
X67789881Y-86393465D01*
X67815000Y-86332821D01*
X67815000Y-86299999D01*
X67862132Y-86299999D01*
X68141254Y-86579121D01*
X68176494Y-86518084D01*
X68215000Y-86374382D01*
X68215000Y-86276425D01*
X98840600Y-86276425D01*
X98840600Y-86421375D01*
X98864919Y-86512132D01*
X98878117Y-86561389D01*
X98950587Y-86686910D01*
X98950589Y-86686912D01*
X98950591Y-86686915D01*
X99053085Y-86789409D01*
X99053087Y-86789410D01*
X99053089Y-86789412D01*
X99178611Y-86861882D01*
X99178612Y-86861882D01*
X99178615Y-86861884D01*
X99318625Y-86899400D01*
X99318626Y-86899400D01*
X99463574Y-86899400D01*
X99463575Y-86899400D01*
X99603585Y-86861884D01*
X99603587Y-86861882D01*
X99603589Y-86861882D01*
X99729110Y-86789412D01*
X99729110Y-86789411D01*
X99729115Y-86789409D01*
X99831609Y-86686915D01*
X99847445Y-86659487D01*
X99904082Y-86561389D01*
X99904082Y-86561387D01*
X99904084Y-86561385D01*
X99941600Y-86421375D01*
X99941600Y-86276425D01*
X99904084Y-86136415D01*
X99904082Y-86136412D01*
X99904082Y-86136410D01*
X99831612Y-86010889D01*
X99831610Y-86010887D01*
X99831609Y-86010885D01*
X99729115Y-85908391D01*
X99729112Y-85908389D01*
X99729110Y-85908387D01*
X99603588Y-85835917D01*
X99603589Y-85835917D01*
X99573996Y-85827987D01*
X99463575Y-85798400D01*
X99318625Y-85798400D01*
X99256890Y-85814941D01*
X99178610Y-85835917D01*
X99053089Y-85908387D01*
X98950587Y-86010889D01*
X98878117Y-86136410D01*
X98878116Y-86136415D01*
X98840600Y-86276425D01*
X68215000Y-86276425D01*
X68215000Y-86225617D01*
X68176495Y-86081916D01*
X68141253Y-86020877D01*
X67862132Y-86299999D01*
X67815000Y-86299999D01*
X67815000Y-86267179D01*
X67789881Y-86206535D01*
X67743465Y-86160119D01*
X67682821Y-86135000D01*
X67617179Y-86135000D01*
X67556535Y-86160119D01*
X67510119Y-86206535D01*
X67485000Y-86267179D01*
X67405046Y-86267179D01*
X67158744Y-86020877D01*
X67123504Y-86081916D01*
X67095627Y-86185957D01*
X67062303Y-86237272D01*
X67005181Y-86259198D01*
X66946081Y-86243362D01*
X66907575Y-86195812D01*
X66904373Y-86185957D01*
X66876495Y-86081916D01*
X66841253Y-86020877D01*
X66562132Y-86299999D01*
X66515000Y-86299999D01*
X66515000Y-86267179D01*
X66489881Y-86206535D01*
X66443465Y-86160119D01*
X66382821Y-86135000D01*
X66317179Y-86135000D01*
X66256535Y-86160119D01*
X66210119Y-86206535D01*
X66185000Y-86267179D01*
X66105046Y-86267179D01*
X65858744Y-86020877D01*
X65823504Y-86081916D01*
X65785000Y-86225617D01*
X50500000Y-86225617D01*
X50500000Y-85491253D01*
X66070877Y-85491253D01*
X66131916Y-85526495D01*
X66235957Y-85554373D01*
X66287272Y-85587697D01*
X66309198Y-85644819D01*
X66293362Y-85703919D01*
X66245812Y-85742425D01*
X66235957Y-85745627D01*
X66131916Y-85773504D01*
X66070877Y-85808744D01*
X66350000Y-86087867D01*
X66629121Y-85808745D01*
X66629122Y-85808745D01*
X66568081Y-85773504D01*
X66464042Y-85745627D01*
X66412728Y-85712303D01*
X66390801Y-85655181D01*
X66406637Y-85596081D01*
X66454187Y-85557576D01*
X66464042Y-85554373D01*
X66568084Y-85526494D01*
X66629121Y-85491254D01*
X66629120Y-85491253D01*
X67370877Y-85491253D01*
X67431916Y-85526495D01*
X67535957Y-85554373D01*
X67587272Y-85587697D01*
X67609198Y-85644819D01*
X67593362Y-85703919D01*
X67545812Y-85742425D01*
X67535957Y-85745627D01*
X67431916Y-85773504D01*
X67370877Y-85808744D01*
X67650000Y-86087867D01*
X67929121Y-85808745D01*
X67929122Y-85808745D01*
X67868081Y-85773504D01*
X67764042Y-85745627D01*
X67712728Y-85712303D01*
X67690801Y-85655181D01*
X67706637Y-85596081D01*
X67754187Y-85557576D01*
X67764042Y-85554373D01*
X67868084Y-85526494D01*
X67929121Y-85491254D01*
X67649999Y-85212132D01*
X67370877Y-85491253D01*
X66629120Y-85491253D01*
X66349999Y-85212132D01*
X66070877Y-85491253D01*
X50500000Y-85491253D01*
X50500000Y-84925617D01*
X65785000Y-84925617D01*
X65785000Y-85074382D01*
X65823504Y-85218081D01*
X65858745Y-85279121D01*
X66137867Y-85000000D01*
X66105046Y-84967179D01*
X66185000Y-84967179D01*
X66185000Y-85032821D01*
X66210119Y-85093465D01*
X66256535Y-85139881D01*
X66317179Y-85165000D01*
X66382821Y-85165000D01*
X66443465Y-85139881D01*
X66489881Y-85093465D01*
X66515000Y-85032821D01*
X66515000Y-84999999D01*
X66562132Y-84999999D01*
X66841254Y-85279121D01*
X66876494Y-85218084D01*
X66904373Y-85114042D01*
X66937697Y-85062728D01*
X66994819Y-85040801D01*
X67053919Y-85056637D01*
X67092424Y-85104187D01*
X67095627Y-85114042D01*
X67123504Y-85218081D01*
X67158745Y-85279121D01*
X67437867Y-85000000D01*
X67405046Y-84967179D01*
X67485000Y-84967179D01*
X67485000Y-85032821D01*
X67510119Y-85093465D01*
X67556535Y-85139881D01*
X67617179Y-85165000D01*
X67682821Y-85165000D01*
X67743465Y-85139881D01*
X67789881Y-85093465D01*
X67815000Y-85032821D01*
X67815000Y-84999999D01*
X67862132Y-84999999D01*
X68141254Y-85279121D01*
X68176494Y-85218084D01*
X68215000Y-85074382D01*
X68215000Y-84925617D01*
X68176495Y-84781916D01*
X68141253Y-84720877D01*
X67862132Y-84999999D01*
X67815000Y-84999999D01*
X67815000Y-84967179D01*
X67789881Y-84906535D01*
X67743465Y-84860119D01*
X67682821Y-84835000D01*
X67617179Y-84835000D01*
X67556535Y-84860119D01*
X67510119Y-84906535D01*
X67485000Y-84967179D01*
X67405046Y-84967179D01*
X67158744Y-84720877D01*
X67123504Y-84781916D01*
X67095627Y-84885957D01*
X67062303Y-84937272D01*
X67005181Y-84959198D01*
X66946081Y-84943362D01*
X66907575Y-84895812D01*
X66904373Y-84885957D01*
X66876495Y-84781916D01*
X66841253Y-84720877D01*
X66562132Y-84999999D01*
X66515000Y-84999999D01*
X66515000Y-84967179D01*
X66489881Y-84906535D01*
X66443465Y-84860119D01*
X66382821Y-84835000D01*
X66317179Y-84835000D01*
X66256535Y-84860119D01*
X66210119Y-84906535D01*
X66185000Y-84967179D01*
X66105046Y-84967179D01*
X65858744Y-84720877D01*
X65823504Y-84781916D01*
X65785000Y-84925617D01*
X50500000Y-84925617D01*
X50500000Y-84191253D01*
X66070877Y-84191253D01*
X66131916Y-84226495D01*
X66235957Y-84254373D01*
X66287272Y-84287697D01*
X66309198Y-84344819D01*
X66293362Y-84403919D01*
X66245812Y-84442425D01*
X66235957Y-84445627D01*
X66131916Y-84473504D01*
X66070877Y-84508744D01*
X66350000Y-84787867D01*
X66629121Y-84508745D01*
X66629122Y-84508745D01*
X66568081Y-84473504D01*
X66464042Y-84445627D01*
X66412728Y-84412303D01*
X66390801Y-84355181D01*
X66406637Y-84296081D01*
X66454187Y-84257576D01*
X66464042Y-84254373D01*
X66568084Y-84226494D01*
X66629121Y-84191254D01*
X66629120Y-84191253D01*
X67370877Y-84191253D01*
X67431916Y-84226495D01*
X67535957Y-84254373D01*
X67587272Y-84287697D01*
X67609198Y-84344819D01*
X67593362Y-84403919D01*
X67545812Y-84442425D01*
X67535957Y-84445627D01*
X67431916Y-84473504D01*
X67370877Y-84508744D01*
X67650000Y-84787867D01*
X67929121Y-84508745D01*
X67929122Y-84508745D01*
X67868081Y-84473504D01*
X67764042Y-84445627D01*
X67712728Y-84412303D01*
X67690801Y-84355181D01*
X67706637Y-84296081D01*
X67754187Y-84257576D01*
X67764042Y-84254373D01*
X67868084Y-84226494D01*
X67929121Y-84191254D01*
X67649999Y-83912132D01*
X67370877Y-84191253D01*
X66629120Y-84191253D01*
X66349999Y-83912132D01*
X66070877Y-84191253D01*
X50500000Y-84191253D01*
X50500000Y-83625617D01*
X65785000Y-83625617D01*
X65785000Y-83774382D01*
X65823504Y-83918081D01*
X65858745Y-83979121D01*
X66137867Y-83700000D01*
X66105046Y-83667179D01*
X66185000Y-83667179D01*
X66185000Y-83732821D01*
X66210119Y-83793465D01*
X66256535Y-83839881D01*
X66317179Y-83865000D01*
X66382821Y-83865000D01*
X66443465Y-83839881D01*
X66489881Y-83793465D01*
X66515000Y-83732821D01*
X66515000Y-83699999D01*
X66562132Y-83699999D01*
X66841254Y-83979121D01*
X66876494Y-83918084D01*
X66904373Y-83814042D01*
X66937697Y-83762728D01*
X66994819Y-83740801D01*
X67053919Y-83756637D01*
X67092424Y-83804187D01*
X67095627Y-83814042D01*
X67123504Y-83918081D01*
X67158745Y-83979121D01*
X67437867Y-83700000D01*
X67405046Y-83667179D01*
X67485000Y-83667179D01*
X67485000Y-83732821D01*
X67510119Y-83793465D01*
X67556535Y-83839881D01*
X67617179Y-83865000D01*
X67682821Y-83865000D01*
X67743465Y-83839881D01*
X67789881Y-83793465D01*
X67815000Y-83732821D01*
X67815000Y-83699999D01*
X67862132Y-83699999D01*
X68141254Y-83979121D01*
X68176494Y-83918084D01*
X68215000Y-83774382D01*
X68215000Y-83625617D01*
X68176495Y-83481916D01*
X68141253Y-83420877D01*
X67862132Y-83699999D01*
X67815000Y-83699999D01*
X67815000Y-83667179D01*
X67789881Y-83606535D01*
X67743465Y-83560119D01*
X67682821Y-83535000D01*
X67617179Y-83535000D01*
X67556535Y-83560119D01*
X67510119Y-83606535D01*
X67485000Y-83667179D01*
X67405046Y-83667179D01*
X67158744Y-83420877D01*
X67123504Y-83481916D01*
X67095627Y-83585957D01*
X67062303Y-83637272D01*
X67005181Y-83659198D01*
X66946081Y-83643362D01*
X66907575Y-83595812D01*
X66904373Y-83585957D01*
X66876495Y-83481916D01*
X66841253Y-83420877D01*
X66562132Y-83699999D01*
X66515000Y-83699999D01*
X66515000Y-83667179D01*
X66489881Y-83606535D01*
X66443465Y-83560119D01*
X66382821Y-83535000D01*
X66317179Y-83535000D01*
X66256535Y-83560119D01*
X66210119Y-83606535D01*
X66185000Y-83667179D01*
X66105046Y-83667179D01*
X65858744Y-83420877D01*
X65823504Y-83481916D01*
X65785000Y-83625617D01*
X50500000Y-83625617D01*
X50500000Y-83208744D01*
X66070877Y-83208744D01*
X66350000Y-83487867D01*
X66629121Y-83208745D01*
X66629122Y-83208745D01*
X66629120Y-83208744D01*
X67370877Y-83208744D01*
X67650000Y-83487867D01*
X67929121Y-83208745D01*
X67929122Y-83208745D01*
X67868081Y-83173504D01*
X67724382Y-83135000D01*
X67575618Y-83135000D01*
X67431916Y-83173504D01*
X67370877Y-83208744D01*
X66629120Y-83208744D01*
X66568081Y-83173504D01*
X66424382Y-83135000D01*
X66275618Y-83135000D01*
X66131916Y-83173504D01*
X66070877Y-83208744D01*
X50500000Y-83208744D01*
X50500000Y-81977525D01*
X113049500Y-81977525D01*
X113049500Y-82122475D01*
X113079087Y-82232896D01*
X113087017Y-82262489D01*
X113159487Y-82388010D01*
X113159489Y-82388012D01*
X113159491Y-82388015D01*
X113261985Y-82490509D01*
X113261987Y-82490510D01*
X113261989Y-82490512D01*
X113387511Y-82562982D01*
X113387512Y-82562982D01*
X113387515Y-82562984D01*
X113527525Y-82600500D01*
X113527526Y-82600500D01*
X113672474Y-82600500D01*
X113672475Y-82600500D01*
X113812485Y-82562984D01*
X113812487Y-82562982D01*
X113812489Y-82562982D01*
X113938010Y-82490512D01*
X113938010Y-82490511D01*
X113938015Y-82490509D01*
X114040509Y-82388015D01*
X114069377Y-82338015D01*
X114112982Y-82262489D01*
X114112982Y-82262487D01*
X114112984Y-82262485D01*
X114150500Y-82122475D01*
X114150500Y-81977525D01*
X114137102Y-81927525D01*
X118606500Y-81927525D01*
X118606500Y-82072474D01*
X118644017Y-82212489D01*
X118716487Y-82338010D01*
X118716489Y-82338012D01*
X118716491Y-82338015D01*
X118818985Y-82440509D01*
X118818987Y-82440510D01*
X118818989Y-82440512D01*
X118944511Y-82512982D01*
X118944512Y-82512982D01*
X118944515Y-82512984D01*
X119084525Y-82550500D01*
X119084526Y-82550500D01*
X119229474Y-82550500D01*
X119229475Y-82550500D01*
X119293348Y-82533385D01*
X139899500Y-82533385D01*
X139899500Y-82706614D01*
X139926597Y-82877702D01*
X139926598Y-82877706D01*
X139980123Y-83042438D01*
X139980125Y-83042441D01*
X140027285Y-83135000D01*
X140058768Y-83196788D01*
X140160586Y-83336928D01*
X140283072Y-83459414D01*
X140423212Y-83561232D01*
X140577555Y-83639873D01*
X140577557Y-83639873D01*
X140577558Y-83639874D01*
X140577561Y-83639876D01*
X140742293Y-83693401D01*
X140742297Y-83693402D01*
X140913386Y-83720500D01*
X140913389Y-83720500D01*
X141086614Y-83720500D01*
X141257702Y-83693402D01*
X141257706Y-83693401D01*
X141422438Y-83639876D01*
X141422440Y-83639874D01*
X141422445Y-83639873D01*
X141576788Y-83561232D01*
X141716928Y-83459414D01*
X141839414Y-83336928D01*
X141941232Y-83196788D01*
X142019873Y-83042445D01*
X142019874Y-83042440D01*
X142019876Y-83042438D01*
X142073401Y-82877706D01*
X142073402Y-82877702D01*
X142100500Y-82706614D01*
X142100500Y-82533385D01*
X142073402Y-82362297D01*
X142073401Y-82362293D01*
X142019876Y-82197561D01*
X142019874Y-82197558D01*
X142019873Y-82197557D01*
X142019873Y-82197555D01*
X141941232Y-82043212D01*
X141839414Y-81903072D01*
X141716928Y-81780586D01*
X141576788Y-81678768D01*
X141576787Y-81678767D01*
X141576785Y-81678766D01*
X141422441Y-81600125D01*
X141422438Y-81600123D01*
X141257706Y-81546598D01*
X141257702Y-81546597D01*
X141086614Y-81519500D01*
X141086611Y-81519500D01*
X140913389Y-81519500D01*
X140913386Y-81519500D01*
X140742297Y-81546597D01*
X140742293Y-81546598D01*
X140577561Y-81600123D01*
X140577558Y-81600125D01*
X140423214Y-81678766D01*
X140283073Y-81780585D01*
X140160585Y-81903073D01*
X140058766Y-82043214D01*
X139980125Y-82197558D01*
X139980123Y-82197561D01*
X139926598Y-82362293D01*
X139926597Y-82362297D01*
X139899500Y-82533385D01*
X119293348Y-82533385D01*
X119369485Y-82512984D01*
X119369487Y-82512982D01*
X119369489Y-82512982D01*
X119489366Y-82443771D01*
X119489374Y-82443765D01*
X119495015Y-82440509D01*
X119597509Y-82338015D01*
X119641114Y-82262489D01*
X119669982Y-82212489D01*
X119669982Y-82212487D01*
X119669984Y-82212485D01*
X119707500Y-82072475D01*
X119707500Y-81927525D01*
X119669984Y-81787515D01*
X119669982Y-81787512D01*
X119669982Y-81787510D01*
X119597512Y-81661989D01*
X119597510Y-81661987D01*
X119597509Y-81661985D01*
X119495015Y-81559491D01*
X119495012Y-81559489D01*
X119495010Y-81559487D01*
X119369488Y-81487017D01*
X119369489Y-81487017D01*
X119339896Y-81479087D01*
X119229475Y-81449500D01*
X119084525Y-81449500D01*
X119022790Y-81466041D01*
X118944510Y-81487017D01*
X118818989Y-81559487D01*
X118716487Y-81661989D01*
X118644017Y-81787510D01*
X118606500Y-81927525D01*
X114137102Y-81927525D01*
X114112984Y-81837515D01*
X114112982Y-81837512D01*
X114112982Y-81837510D01*
X114040512Y-81711989D01*
X114040510Y-81711987D01*
X114040509Y-81711985D01*
X113938015Y-81609491D01*
X113938012Y-81609489D01*
X113938010Y-81609487D01*
X113812488Y-81537017D01*
X113812489Y-81537017D01*
X113747115Y-81519500D01*
X113672475Y-81499500D01*
X113527525Y-81499500D01*
X113465790Y-81516041D01*
X113387510Y-81537017D01*
X113261989Y-81609487D01*
X113159487Y-81711989D01*
X113087017Y-81837510D01*
X113057771Y-81946659D01*
X113049500Y-81977525D01*
X50500000Y-81977525D01*
X50500000Y-79993385D01*
X139899500Y-79993385D01*
X139899500Y-80166614D01*
X139926597Y-80337702D01*
X139926598Y-80337706D01*
X139980123Y-80502438D01*
X139980125Y-80502441D01*
X139980126Y-80502444D01*
X139980127Y-80502445D01*
X140058768Y-80656788D01*
X140160586Y-80796928D01*
X140283072Y-80919414D01*
X140423212Y-81021232D01*
X140577555Y-81099873D01*
X140577557Y-81099873D01*
X140577558Y-81099874D01*
X140577561Y-81099876D01*
X140742293Y-81153401D01*
X140742297Y-81153402D01*
X140913386Y-81180500D01*
X140913389Y-81180500D01*
X141086614Y-81180500D01*
X141257702Y-81153402D01*
X141257706Y-81153401D01*
X141422438Y-81099876D01*
X141422440Y-81099874D01*
X141422445Y-81099873D01*
X141576788Y-81021232D01*
X141716928Y-80919414D01*
X141839414Y-80796928D01*
X141941232Y-80656788D01*
X142019873Y-80502445D01*
X142019874Y-80502440D01*
X142019876Y-80502438D01*
X142073401Y-80337706D01*
X142073402Y-80337702D01*
X142100500Y-80166614D01*
X142100500Y-79993385D01*
X142073402Y-79822297D01*
X142073401Y-79822293D01*
X142019876Y-79657561D01*
X142019874Y-79657558D01*
X142019873Y-79657557D01*
X142019873Y-79657555D01*
X141941232Y-79503212D01*
X141839414Y-79363072D01*
X141716928Y-79240586D01*
X141576788Y-79138768D01*
X141576787Y-79138767D01*
X141576785Y-79138766D01*
X141422441Y-79060125D01*
X141422438Y-79060123D01*
X141257706Y-79006598D01*
X141257702Y-79006597D01*
X141086614Y-78979500D01*
X141086611Y-78979500D01*
X140913389Y-78979500D01*
X140913386Y-78979500D01*
X140742297Y-79006597D01*
X140742293Y-79006598D01*
X140577561Y-79060123D01*
X140577558Y-79060125D01*
X140423214Y-79138766D01*
X140283073Y-79240585D01*
X140160585Y-79363073D01*
X140058766Y-79503214D01*
X139980125Y-79657558D01*
X139980123Y-79657561D01*
X139926598Y-79822293D01*
X139926597Y-79822297D01*
X139899500Y-79993385D01*
X50500000Y-79993385D01*
X50500000Y-77879125D01*
X111029600Y-77879125D01*
X111029600Y-78024075D01*
X111035023Y-78044312D01*
X111067117Y-78164089D01*
X111139587Y-78289610D01*
X111139589Y-78289612D01*
X111139591Y-78289615D01*
X111242085Y-78392109D01*
X111242087Y-78392110D01*
X111242089Y-78392112D01*
X111367611Y-78464582D01*
X111367612Y-78464582D01*
X111367615Y-78464584D01*
X111507625Y-78502100D01*
X111507626Y-78502100D01*
X111652574Y-78502100D01*
X111652575Y-78502100D01*
X111792585Y-78464584D01*
X111792587Y-78464582D01*
X111792589Y-78464582D01*
X111918110Y-78392112D01*
X111918110Y-78392111D01*
X111918115Y-78392109D01*
X112020609Y-78289615D01*
X112093084Y-78164085D01*
X112116573Y-78076425D01*
X117776500Y-78076425D01*
X117776500Y-78221374D01*
X117814017Y-78361389D01*
X117886487Y-78486910D01*
X117886489Y-78486912D01*
X117886491Y-78486915D01*
X117988985Y-78589409D01*
X117988987Y-78589410D01*
X117988989Y-78589412D01*
X118114511Y-78661882D01*
X118114512Y-78661882D01*
X118114515Y-78661884D01*
X118254525Y-78699400D01*
X118254526Y-78699400D01*
X118399474Y-78699400D01*
X118399475Y-78699400D01*
X118539485Y-78661884D01*
X118539487Y-78661882D01*
X118539489Y-78661882D01*
X118665010Y-78589412D01*
X118665010Y-78589411D01*
X118665015Y-78589409D01*
X118767509Y-78486915D01*
X118822244Y-78392112D01*
X118839982Y-78361389D01*
X118839982Y-78361387D01*
X118839984Y-78361385D01*
X118877500Y-78221375D01*
X118877500Y-78076425D01*
X118839984Y-77936415D01*
X118839982Y-77936412D01*
X118839982Y-77936410D01*
X118767512Y-77810889D01*
X118767510Y-77810887D01*
X118767509Y-77810885D01*
X118665015Y-77708391D01*
X118665012Y-77708389D01*
X118665010Y-77708387D01*
X118539488Y-77635917D01*
X118539489Y-77635917D01*
X118456160Y-77613589D01*
X118399475Y-77598400D01*
X118254525Y-77598400D01*
X118197840Y-77613589D01*
X118114510Y-77635917D01*
X117988989Y-77708387D01*
X117886487Y-77810889D01*
X117814017Y-77936410D01*
X117776500Y-78076425D01*
X112116573Y-78076425D01*
X112130600Y-78024075D01*
X112130600Y-77879125D01*
X112093084Y-77739115D01*
X112093082Y-77739112D01*
X112093082Y-77739110D01*
X112020612Y-77613589D01*
X112020610Y-77613587D01*
X112020609Y-77613585D01*
X111918115Y-77511091D01*
X111918112Y-77511089D01*
X111918110Y-77511087D01*
X111818167Y-77453385D01*
X139899500Y-77453385D01*
X139899500Y-77626614D01*
X139926597Y-77797702D01*
X139926598Y-77797706D01*
X139980123Y-77962438D01*
X139980125Y-77962441D01*
X139980126Y-77962444D01*
X139980127Y-77962445D01*
X140058768Y-78116788D01*
X140160586Y-78256928D01*
X140283072Y-78379414D01*
X140423212Y-78481232D01*
X140577555Y-78559873D01*
X140577557Y-78559873D01*
X140577558Y-78559874D01*
X140577561Y-78559876D01*
X140742293Y-78613401D01*
X140742297Y-78613402D01*
X140913386Y-78640500D01*
X140913389Y-78640500D01*
X141086614Y-78640500D01*
X141257702Y-78613402D01*
X141257706Y-78613401D01*
X141422438Y-78559876D01*
X141422440Y-78559874D01*
X141422445Y-78559873D01*
X141576788Y-78481232D01*
X141716928Y-78379414D01*
X141839414Y-78256928D01*
X141941232Y-78116788D01*
X142019873Y-77962445D01*
X142019874Y-77962440D01*
X142019876Y-77962438D01*
X142073401Y-77797706D01*
X142073402Y-77797702D01*
X142100500Y-77626614D01*
X142100500Y-77453385D01*
X142073402Y-77282297D01*
X142073401Y-77282293D01*
X142019876Y-77117561D01*
X142019874Y-77117558D01*
X142019873Y-77117557D01*
X142019873Y-77117555D01*
X141941232Y-76963212D01*
X141839414Y-76823072D01*
X141716928Y-76700586D01*
X141576788Y-76598768D01*
X141576787Y-76598767D01*
X141576785Y-76598766D01*
X141422441Y-76520125D01*
X141422438Y-76520123D01*
X141257706Y-76466598D01*
X141257702Y-76466597D01*
X141086614Y-76439500D01*
X141086611Y-76439500D01*
X140913389Y-76439500D01*
X140913386Y-76439500D01*
X140742297Y-76466597D01*
X140742293Y-76466598D01*
X140577561Y-76520123D01*
X140577558Y-76520125D01*
X140423214Y-76598766D01*
X140283073Y-76700585D01*
X140160585Y-76823073D01*
X140058766Y-76963214D01*
X139980125Y-77117558D01*
X139980123Y-77117561D01*
X139926598Y-77282293D01*
X139926597Y-77282297D01*
X139899500Y-77453385D01*
X111818167Y-77453385D01*
X111792588Y-77438617D01*
X111792589Y-77438617D01*
X111762996Y-77430687D01*
X111652575Y-77401100D01*
X111507625Y-77401100D01*
X111445890Y-77417641D01*
X111367610Y-77438617D01*
X111242089Y-77511087D01*
X111139587Y-77613589D01*
X111067117Y-77739110D01*
X111067116Y-77739115D01*
X111029600Y-77879125D01*
X50500000Y-77879125D01*
X50500000Y-75073725D01*
X105313900Y-75073725D01*
X105313900Y-75218674D01*
X105351417Y-75358689D01*
X105423887Y-75484210D01*
X105423889Y-75484212D01*
X105423891Y-75484215D01*
X105526385Y-75586709D01*
X105526387Y-75586710D01*
X105526389Y-75586712D01*
X105651911Y-75659182D01*
X105651912Y-75659182D01*
X105651915Y-75659184D01*
X105791925Y-75696700D01*
X105791926Y-75696700D01*
X105936874Y-75696700D01*
X105936875Y-75696700D01*
X106076885Y-75659184D01*
X106076887Y-75659182D01*
X106076889Y-75659182D01*
X106202410Y-75586712D01*
X106202410Y-75586711D01*
X106202415Y-75586709D01*
X106304909Y-75484215D01*
X106377384Y-75358685D01*
X106414900Y-75218675D01*
X106414900Y-75073725D01*
X106377384Y-74933715D01*
X106377382Y-74933712D01*
X106377382Y-74933710D01*
X106304912Y-74808189D01*
X106304910Y-74808187D01*
X106304909Y-74808185D01*
X106202415Y-74705691D01*
X106202412Y-74705689D01*
X106202410Y-74705687D01*
X106076888Y-74633217D01*
X106076889Y-74633217D01*
X106047296Y-74625287D01*
X105936875Y-74595700D01*
X105791925Y-74595700D01*
X105730190Y-74612241D01*
X105651910Y-74633217D01*
X105526389Y-74705687D01*
X105423887Y-74808189D01*
X105351417Y-74933710D01*
X105313900Y-75073725D01*
X50500000Y-75073725D01*
X50500000Y-73942925D01*
X115364900Y-73942925D01*
X115364900Y-74087875D01*
X115374948Y-74125375D01*
X115402417Y-74227889D01*
X115474887Y-74353410D01*
X115474889Y-74353412D01*
X115474891Y-74353415D01*
X115577385Y-74455909D01*
X115577387Y-74455910D01*
X115577389Y-74455912D01*
X115702911Y-74528382D01*
X115702912Y-74528382D01*
X115702915Y-74528384D01*
X115842925Y-74565900D01*
X115842926Y-74565900D01*
X115987874Y-74565900D01*
X115987875Y-74565900D01*
X116127885Y-74528384D01*
X116127887Y-74528382D01*
X116127889Y-74528382D01*
X116253410Y-74455912D01*
X116253410Y-74455911D01*
X116253415Y-74455909D01*
X116355909Y-74353415D01*
X116428384Y-74227885D01*
X116455852Y-74125375D01*
X139900000Y-74125375D01*
X139900000Y-74849999D01*
X139900001Y-74850000D01*
X140522555Y-74850000D01*
X140500000Y-74934174D01*
X140500000Y-75065826D01*
X140522555Y-75150000D01*
X139900001Y-75150000D01*
X139900000Y-75150001D01*
X139900000Y-75874624D01*
X139914506Y-75947546D01*
X139914507Y-75947548D01*
X139969758Y-76030237D01*
X139969762Y-76030241D01*
X140052451Y-76085492D01*
X140052453Y-76085493D01*
X140125375Y-76099999D01*
X140125377Y-76100000D01*
X140849999Y-76100000D01*
X140850000Y-76099999D01*
X140850000Y-75477445D01*
X140934174Y-75500000D01*
X141065826Y-75500000D01*
X141150000Y-75477445D01*
X141150000Y-76099999D01*
X141150001Y-76100000D01*
X141874623Y-76100000D01*
X141874624Y-76099999D01*
X141947546Y-76085493D01*
X141947548Y-76085492D01*
X142030237Y-76030241D01*
X142030241Y-76030237D01*
X142085492Y-75947548D01*
X142085493Y-75947546D01*
X142099999Y-75874624D01*
X142100000Y-75874622D01*
X142100000Y-75150001D01*
X142099999Y-75150000D01*
X141477445Y-75150000D01*
X141500000Y-75065826D01*
X141500000Y-74934174D01*
X141477445Y-74850000D01*
X142099999Y-74850000D01*
X142100000Y-74849999D01*
X142100000Y-74125377D01*
X142099999Y-74125375D01*
X142085493Y-74052453D01*
X142085492Y-74052451D01*
X142030241Y-73969762D01*
X142030237Y-73969758D01*
X141947548Y-73914507D01*
X141947546Y-73914506D01*
X141874624Y-73900000D01*
X141150001Y-73900000D01*
X141150000Y-73900001D01*
X141150000Y-74522554D01*
X141065826Y-74500000D01*
X140934174Y-74500000D01*
X140850000Y-74522554D01*
X140850000Y-73900001D01*
X140849999Y-73900000D01*
X140125375Y-73900000D01*
X140052453Y-73914506D01*
X140052451Y-73914507D01*
X139969762Y-73969758D01*
X139969758Y-73969762D01*
X139914507Y-74052451D01*
X139914506Y-74052453D01*
X139900000Y-74125375D01*
X116455852Y-74125375D01*
X116465900Y-74087875D01*
X116465900Y-73942925D01*
X116428384Y-73802915D01*
X116428382Y-73802912D01*
X116428382Y-73802910D01*
X116355912Y-73677389D01*
X116355910Y-73677387D01*
X116355909Y-73677385D01*
X116253415Y-73574891D01*
X116253412Y-73574889D01*
X116253410Y-73574887D01*
X116127888Y-73502417D01*
X116127889Y-73502417D01*
X116098296Y-73494487D01*
X115987875Y-73464900D01*
X115842925Y-73464900D01*
X115781190Y-73481441D01*
X115702910Y-73502417D01*
X115577389Y-73574887D01*
X115474887Y-73677389D01*
X115402417Y-73802910D01*
X115372515Y-73914506D01*
X115364900Y-73942925D01*
X50500000Y-73942925D01*
X50500000Y-72805525D01*
X116004500Y-72805525D01*
X116004500Y-72950474D01*
X116042017Y-73090489D01*
X116114487Y-73216010D01*
X116114489Y-73216012D01*
X116114491Y-73216015D01*
X116216985Y-73318509D01*
X116216987Y-73318510D01*
X116216989Y-73318512D01*
X116342511Y-73390982D01*
X116342512Y-73390982D01*
X116342515Y-73390984D01*
X116482525Y-73428500D01*
X116482526Y-73428500D01*
X116627474Y-73428500D01*
X116627475Y-73428500D01*
X116767485Y-73390984D01*
X116767487Y-73390982D01*
X116767489Y-73390982D01*
X116893010Y-73318512D01*
X116893010Y-73318511D01*
X116893015Y-73318509D01*
X116995509Y-73216015D01*
X117067984Y-73090485D01*
X117105500Y-72950475D01*
X117105500Y-72805525D01*
X117067984Y-72665515D01*
X117067982Y-72665512D01*
X117067982Y-72665510D01*
X116995512Y-72539989D01*
X116995510Y-72539987D01*
X116995509Y-72539985D01*
X116893015Y-72437491D01*
X116893012Y-72437489D01*
X116893010Y-72437487D01*
X116767488Y-72365017D01*
X116767489Y-72365017D01*
X116737896Y-72357087D01*
X116627475Y-72327500D01*
X116482525Y-72327500D01*
X116420790Y-72344041D01*
X116342510Y-72365017D01*
X116216989Y-72437487D01*
X116114487Y-72539989D01*
X116042017Y-72665510D01*
X116004500Y-72805525D01*
X50500000Y-72805525D01*
X50500000Y-70411925D01*
X111833900Y-70411925D01*
X111833900Y-70556875D01*
X111837202Y-70569198D01*
X111871417Y-70696889D01*
X111943887Y-70822410D01*
X111943889Y-70822412D01*
X111943891Y-70822415D01*
X112046385Y-70924909D01*
X112046387Y-70924910D01*
X112046389Y-70924912D01*
X112171911Y-70997382D01*
X112171912Y-70997382D01*
X112171915Y-70997384D01*
X112311925Y-71034900D01*
X112311926Y-71034900D01*
X112456874Y-71034900D01*
X112456875Y-71034900D01*
X112596885Y-70997384D01*
X112596887Y-70997382D01*
X112596889Y-70997382D01*
X112722410Y-70924912D01*
X112722410Y-70924911D01*
X112722415Y-70924909D01*
X112824909Y-70822415D01*
X112897384Y-70696885D01*
X112934900Y-70556875D01*
X112934900Y-70411925D01*
X112927237Y-70383325D01*
X119934500Y-70383325D01*
X119934500Y-70528275D01*
X119945466Y-70569199D01*
X119972017Y-70668289D01*
X120044487Y-70793810D01*
X120044489Y-70793812D01*
X120044491Y-70793815D01*
X120146985Y-70896309D01*
X120146987Y-70896310D01*
X120146989Y-70896312D01*
X120272511Y-70968782D01*
X120272512Y-70968782D01*
X120272515Y-70968784D01*
X120412525Y-71006300D01*
X120412526Y-71006300D01*
X120557474Y-71006300D01*
X120557475Y-71006300D01*
X120697485Y-70968784D01*
X120697487Y-70968782D01*
X120697489Y-70968782D01*
X120823010Y-70896312D01*
X120823010Y-70896311D01*
X120823015Y-70896309D01*
X120925509Y-70793815D01*
X120926205Y-70792610D01*
X120997982Y-70668289D01*
X120997982Y-70668287D01*
X120997984Y-70668285D01*
X121035500Y-70528275D01*
X121035500Y-70383325D01*
X121274500Y-70383325D01*
X121274500Y-70528275D01*
X121285466Y-70569199D01*
X121312017Y-70668289D01*
X121384487Y-70793810D01*
X121384489Y-70793812D01*
X121384491Y-70793815D01*
X121486985Y-70896309D01*
X121486987Y-70896310D01*
X121486989Y-70896312D01*
X121612511Y-70968782D01*
X121612512Y-70968782D01*
X121612515Y-70968784D01*
X121752525Y-71006300D01*
X121752526Y-71006300D01*
X121897474Y-71006300D01*
X121897475Y-71006300D01*
X122037485Y-70968784D01*
X122037487Y-70968782D01*
X122037489Y-70968782D01*
X122163010Y-70896312D01*
X122163010Y-70896311D01*
X122163015Y-70896309D01*
X122265509Y-70793815D01*
X122266205Y-70792610D01*
X122337982Y-70668289D01*
X122337982Y-70668287D01*
X122337984Y-70668285D01*
X122364535Y-70569195D01*
X122397857Y-70517885D01*
X122454978Y-70495958D01*
X122514079Y-70511793D01*
X122552584Y-70559343D01*
X122555786Y-70569198D01*
X122582015Y-70667084D01*
X122582017Y-70667088D01*
X122654487Y-70792610D01*
X122654489Y-70792612D01*
X122654491Y-70792615D01*
X122756985Y-70895109D01*
X122756987Y-70895110D01*
X122756989Y-70895112D01*
X122882511Y-70967582D01*
X122882512Y-70967582D01*
X122882515Y-70967584D01*
X123022525Y-71005100D01*
X123022526Y-71005100D01*
X123167474Y-71005100D01*
X123167475Y-71005100D01*
X123307485Y-70967584D01*
X123307487Y-70967582D01*
X123307489Y-70967582D01*
X123433010Y-70895112D01*
X123433010Y-70895111D01*
X123433015Y-70895109D01*
X123535509Y-70792615D01*
X123607984Y-70667085D01*
X123645500Y-70527075D01*
X123645500Y-70382125D01*
X123607984Y-70242115D01*
X123607982Y-70242111D01*
X123607982Y-70242110D01*
X123535512Y-70116589D01*
X123535510Y-70116587D01*
X123535509Y-70116585D01*
X123433015Y-70014091D01*
X123433012Y-70014089D01*
X123433010Y-70014087D01*
X123307488Y-69941617D01*
X123307489Y-69941617D01*
X123277896Y-69933687D01*
X123167475Y-69904100D01*
X123022525Y-69904100D01*
X122960790Y-69920641D01*
X122882510Y-69941617D01*
X122756989Y-70014087D01*
X122654487Y-70116589D01*
X122582017Y-70242111D01*
X122582015Y-70242115D01*
X122555465Y-70341201D01*
X122522141Y-70392515D01*
X122465020Y-70414441D01*
X122405919Y-70398605D01*
X122367414Y-70351055D01*
X122364214Y-70341208D01*
X122337984Y-70243315D01*
X122337982Y-70243312D01*
X122337982Y-70243310D01*
X122265512Y-70117789D01*
X122265510Y-70117787D01*
X122265509Y-70117785D01*
X122163015Y-70015291D01*
X122163012Y-70015289D01*
X122163010Y-70015287D01*
X122037488Y-69942817D01*
X122037489Y-69942817D01*
X122004210Y-69933900D01*
X121897475Y-69905300D01*
X121752525Y-69905300D01*
X121690790Y-69921841D01*
X121612510Y-69942817D01*
X121486989Y-70015287D01*
X121384487Y-70117789D01*
X121312017Y-70243310D01*
X121285787Y-70341200D01*
X121274500Y-70383325D01*
X121035500Y-70383325D01*
X120997984Y-70243315D01*
X120997982Y-70243312D01*
X120997982Y-70243310D01*
X120925512Y-70117789D01*
X120925510Y-70117787D01*
X120925509Y-70117785D01*
X120823015Y-70015291D01*
X120823012Y-70015289D01*
X120823010Y-70015287D01*
X120697488Y-69942817D01*
X120697489Y-69942817D01*
X120664210Y-69933900D01*
X120557475Y-69905300D01*
X120412525Y-69905300D01*
X120350790Y-69921841D01*
X120272510Y-69942817D01*
X120146989Y-70015287D01*
X120044487Y-70117789D01*
X119972017Y-70243310D01*
X119945787Y-70341200D01*
X119934500Y-70383325D01*
X112927237Y-70383325D01*
X112897384Y-70271915D01*
X112897382Y-70271912D01*
X112897382Y-70271910D01*
X112824912Y-70146389D01*
X112824910Y-70146387D01*
X112824909Y-70146385D01*
X112722415Y-70043891D01*
X112722412Y-70043889D01*
X112722410Y-70043887D01*
X112596888Y-69971417D01*
X112596889Y-69971417D01*
X112490153Y-69942817D01*
X112456875Y-69933900D01*
X112311925Y-69933900D01*
X112278647Y-69942817D01*
X112171910Y-69971417D01*
X112046389Y-70043887D01*
X111943887Y-70146389D01*
X111871417Y-70271910D01*
X111850210Y-70351055D01*
X111833900Y-70411925D01*
X50500000Y-70411925D01*
X50500000Y-68121825D01*
X99490600Y-68121825D01*
X99490600Y-68266775D01*
X99519950Y-68376309D01*
X99528117Y-68406789D01*
X99600587Y-68532310D01*
X99600589Y-68532312D01*
X99600591Y-68532315D01*
X99703085Y-68634809D01*
X99703087Y-68634810D01*
X99703089Y-68634812D01*
X99828611Y-68707282D01*
X99828612Y-68707282D01*
X99828615Y-68707284D01*
X99968625Y-68744800D01*
X99968626Y-68744800D01*
X100113574Y-68744800D01*
X100113575Y-68744800D01*
X100253585Y-68707284D01*
X100253587Y-68707282D01*
X100253589Y-68707282D01*
X100379110Y-68634812D01*
X100379110Y-68634811D01*
X100379115Y-68634809D01*
X100481609Y-68532315D01*
X100554084Y-68406785D01*
X100591600Y-68266775D01*
X100591600Y-68121825D01*
X100554084Y-67981815D01*
X100554082Y-67981812D01*
X100554082Y-67981810D01*
X100510507Y-67906336D01*
X100485674Y-67863325D01*
X125084500Y-67863325D01*
X125084500Y-68008274D01*
X125122017Y-68148289D01*
X125194487Y-68273810D01*
X125194489Y-68273812D01*
X125194491Y-68273815D01*
X125296985Y-68376309D01*
X125296987Y-68376310D01*
X125296989Y-68376312D01*
X125422511Y-68448782D01*
X125422512Y-68448782D01*
X125422515Y-68448784D01*
X125562525Y-68486300D01*
X125562526Y-68486300D01*
X125707474Y-68486300D01*
X125707475Y-68486300D01*
X125847485Y-68448784D01*
X125847487Y-68448782D01*
X125847489Y-68448782D01*
X125973010Y-68376312D01*
X125973010Y-68376311D01*
X125973015Y-68376309D01*
X126075509Y-68273815D01*
X126147984Y-68148285D01*
X126185500Y-68008275D01*
X126185500Y-67863325D01*
X126147984Y-67723315D01*
X126147982Y-67723312D01*
X126147982Y-67723310D01*
X126075512Y-67597789D01*
X126075510Y-67597787D01*
X126075509Y-67597785D01*
X125973015Y-67495291D01*
X125973012Y-67495289D01*
X125973010Y-67495287D01*
X125847488Y-67422817D01*
X125847489Y-67422817D01*
X125817896Y-67414887D01*
X125707475Y-67385300D01*
X125562525Y-67385300D01*
X125500790Y-67401841D01*
X125422510Y-67422817D01*
X125296989Y-67495287D01*
X125194487Y-67597789D01*
X125122017Y-67723310D01*
X125084500Y-67863325D01*
X100485674Y-67863325D01*
X100481612Y-67856289D01*
X100481610Y-67856287D01*
X100481609Y-67856285D01*
X100379115Y-67753791D01*
X100379112Y-67753789D01*
X100379110Y-67753787D01*
X100253588Y-67681317D01*
X100253589Y-67681317D01*
X100223996Y-67673387D01*
X100113575Y-67643800D01*
X99968625Y-67643800D01*
X99906890Y-67660341D01*
X99828610Y-67681317D01*
X99703089Y-67753787D01*
X99600587Y-67856289D01*
X99528117Y-67981810D01*
X99528116Y-67981815D01*
X99490600Y-68121825D01*
X50500000Y-68121825D01*
X50500000Y-64884108D01*
X91099500Y-64884108D01*
X91099500Y-65015892D01*
X91114530Y-65071985D01*
X91133609Y-65143190D01*
X91199496Y-65257309D01*
X91199498Y-65257311D01*
X91199500Y-65257314D01*
X91292686Y-65350500D01*
X91292688Y-65350501D01*
X91292690Y-65350503D01*
X91406810Y-65416390D01*
X91406808Y-65416390D01*
X91406812Y-65416391D01*
X91406814Y-65416392D01*
X91534108Y-65450500D01*
X91534110Y-65450500D01*
X91665890Y-65450500D01*
X91665892Y-65450500D01*
X91793186Y-65416392D01*
X91793188Y-65416390D01*
X91793190Y-65416390D01*
X91907309Y-65350503D01*
X91907309Y-65350502D01*
X91907314Y-65350500D01*
X91920289Y-65337525D01*
X117708500Y-65337525D01*
X117708500Y-65482474D01*
X117746017Y-65622489D01*
X117818487Y-65748010D01*
X117818489Y-65748012D01*
X117818491Y-65748015D01*
X117920985Y-65850509D01*
X117920987Y-65850510D01*
X117920989Y-65850512D01*
X118046511Y-65922982D01*
X118046512Y-65922982D01*
X118046515Y-65922984D01*
X118186525Y-65960500D01*
X118186526Y-65960500D01*
X118331474Y-65960500D01*
X118331475Y-65960500D01*
X118471485Y-65922984D01*
X118471487Y-65922982D01*
X118471489Y-65922982D01*
X118597010Y-65850512D01*
X118597010Y-65850511D01*
X118597015Y-65850509D01*
X118699509Y-65748015D01*
X118771984Y-65622485D01*
X118809500Y-65482475D01*
X118809500Y-65337525D01*
X118771984Y-65197515D01*
X118771982Y-65197512D01*
X118771982Y-65197510D01*
X118699512Y-65071989D01*
X118699510Y-65071987D01*
X118699509Y-65071985D01*
X118597015Y-64969491D01*
X118597012Y-64969489D01*
X118597010Y-64969487D01*
X118471488Y-64897017D01*
X118471489Y-64897017D01*
X118423312Y-64884108D01*
X118331475Y-64859500D01*
X118186525Y-64859500D01*
X118124790Y-64876041D01*
X118046510Y-64897017D01*
X117920989Y-64969487D01*
X117818487Y-65071989D01*
X117746017Y-65197510D01*
X117708500Y-65337525D01*
X91920289Y-65337525D01*
X92000500Y-65257314D01*
X92066392Y-65143186D01*
X92100500Y-65015892D01*
X92100500Y-64884108D01*
X92066392Y-64756814D01*
X92066390Y-64756811D01*
X92066390Y-64756809D01*
X92000503Y-64642690D01*
X92000501Y-64642688D01*
X92000500Y-64642686D01*
X91907314Y-64549500D01*
X91907311Y-64549498D01*
X91907309Y-64549496D01*
X91793189Y-64483609D01*
X91793191Y-64483609D01*
X91743799Y-64470375D01*
X91665892Y-64449500D01*
X91534108Y-64449500D01*
X91456200Y-64470375D01*
X91406809Y-64483609D01*
X91292690Y-64549496D01*
X91199496Y-64642690D01*
X91133609Y-64756809D01*
X91133608Y-64756814D01*
X91099500Y-64884108D01*
X50500000Y-64884108D01*
X50500000Y-64130725D01*
X66740300Y-64130725D01*
X66740300Y-64275674D01*
X66777817Y-64415689D01*
X66850287Y-64541210D01*
X66850289Y-64541212D01*
X66850291Y-64541215D01*
X66952785Y-64643709D01*
X66952787Y-64643710D01*
X66952789Y-64643712D01*
X67078311Y-64716182D01*
X67078312Y-64716182D01*
X67078315Y-64716184D01*
X67218325Y-64753700D01*
X67218326Y-64753700D01*
X67363274Y-64753700D01*
X67363275Y-64753700D01*
X67503285Y-64716184D01*
X67503287Y-64716182D01*
X67503289Y-64716182D01*
X67628810Y-64643712D01*
X67628810Y-64643711D01*
X67628815Y-64643709D01*
X67731309Y-64541215D01*
X67803784Y-64415685D01*
X67841300Y-64275675D01*
X67841300Y-64130725D01*
X67803784Y-63990715D01*
X67803782Y-63990712D01*
X67803782Y-63990710D01*
X67731312Y-63865189D01*
X67731310Y-63865187D01*
X67731309Y-63865185D01*
X67628815Y-63762691D01*
X67628812Y-63762689D01*
X67628810Y-63762687D01*
X67503288Y-63690217D01*
X67503289Y-63690217D01*
X67473696Y-63682287D01*
X67363275Y-63652700D01*
X67218325Y-63652700D01*
X67156590Y-63669241D01*
X67078310Y-63690217D01*
X66952789Y-63762687D01*
X66850287Y-63865189D01*
X66777817Y-63990710D01*
X66740300Y-64130725D01*
X50500000Y-64130725D01*
X50500000Y-63159108D01*
X91899500Y-63159108D01*
X91899500Y-63290892D01*
X91929579Y-63403151D01*
X91933609Y-63418190D01*
X91999496Y-63532309D01*
X91999498Y-63532311D01*
X91999500Y-63532314D01*
X92092686Y-63625500D01*
X92092688Y-63625501D01*
X92092690Y-63625503D01*
X92206810Y-63691390D01*
X92206808Y-63691390D01*
X92206812Y-63691391D01*
X92206814Y-63691392D01*
X92334108Y-63725500D01*
X92334110Y-63725500D01*
X92465890Y-63725500D01*
X92465892Y-63725500D01*
X92593186Y-63691392D01*
X92593188Y-63691390D01*
X92593190Y-63691390D01*
X92707309Y-63625503D01*
X92707309Y-63625502D01*
X92707314Y-63625500D01*
X92800500Y-63532314D01*
X92866392Y-63418186D01*
X92900500Y-63290892D01*
X92900500Y-63159108D01*
X92866392Y-63031814D01*
X92866390Y-63031811D01*
X92866390Y-63031809D01*
X92800503Y-62917690D01*
X92800501Y-62917688D01*
X92800500Y-62917686D01*
X92707314Y-62824500D01*
X92707311Y-62824498D01*
X92707309Y-62824496D01*
X92593189Y-62758609D01*
X92593191Y-62758609D01*
X92543799Y-62745375D01*
X92465892Y-62724500D01*
X92334108Y-62724500D01*
X92256200Y-62745375D01*
X92206809Y-62758609D01*
X92092690Y-62824496D01*
X91999496Y-62917690D01*
X91933609Y-63031809D01*
X91933608Y-63031814D01*
X91899500Y-63159108D01*
X50500000Y-63159108D01*
X50500000Y-60234108D01*
X93749500Y-60234108D01*
X93749500Y-60365892D01*
X93778702Y-60474877D01*
X93783609Y-60493190D01*
X93849496Y-60607309D01*
X93849498Y-60607311D01*
X93849500Y-60607314D01*
X93942686Y-60700500D01*
X93942688Y-60700501D01*
X93942690Y-60700503D01*
X94056810Y-60766390D01*
X94056808Y-60766390D01*
X94056812Y-60766391D01*
X94056814Y-60766392D01*
X94184108Y-60800500D01*
X94184110Y-60800500D01*
X94190542Y-60801347D01*
X94190342Y-60802861D01*
X94241267Y-60819407D01*
X94277231Y-60868907D01*
X94278702Y-60925120D01*
X94249500Y-61034108D01*
X94249500Y-61165892D01*
X94279579Y-61278151D01*
X94283609Y-61293190D01*
X94349496Y-61407309D01*
X94349498Y-61407311D01*
X94349500Y-61407314D01*
X94442686Y-61500500D01*
X94442688Y-61500501D01*
X94442690Y-61500503D01*
X94556810Y-61566390D01*
X94556808Y-61566390D01*
X94556812Y-61566391D01*
X94556814Y-61566392D01*
X94684108Y-61600500D01*
X94684110Y-61600500D01*
X94815890Y-61600500D01*
X94815892Y-61600500D01*
X94943186Y-61566392D01*
X94943188Y-61566390D01*
X94943190Y-61566390D01*
X95057309Y-61500503D01*
X95057309Y-61500502D01*
X95057314Y-61500500D01*
X95150500Y-61407314D01*
X95164264Y-61383474D01*
X95209733Y-61342534D01*
X95270583Y-61336138D01*
X95323571Y-61366731D01*
X95335734Y-61383471D01*
X95349500Y-61407314D01*
X95442686Y-61500500D01*
X95442688Y-61500501D01*
X95442690Y-61500503D01*
X95556810Y-61566390D01*
X95556808Y-61566390D01*
X95556812Y-61566391D01*
X95556814Y-61566392D01*
X95684108Y-61600500D01*
X95684110Y-61600500D01*
X95815890Y-61600500D01*
X95815892Y-61600500D01*
X95943186Y-61566392D01*
X95943188Y-61566390D01*
X95943190Y-61566390D01*
X96057309Y-61500503D01*
X96057309Y-61500502D01*
X96057314Y-61500500D01*
X96150500Y-61407314D01*
X96150503Y-61407309D01*
X96216390Y-61293190D01*
X96216390Y-61293188D01*
X96216392Y-61293186D01*
X96250500Y-61165892D01*
X96250500Y-61034108D01*
X96216392Y-60906814D01*
X96216390Y-60906811D01*
X96216390Y-60906809D01*
X96150503Y-60792690D01*
X96150501Y-60792688D01*
X96150500Y-60792686D01*
X96057314Y-60699500D01*
X96057311Y-60699498D01*
X96057309Y-60699496D01*
X95943189Y-60633609D01*
X95943191Y-60633609D01*
X95815889Y-60599499D01*
X95809458Y-60598653D01*
X95809657Y-60597138D01*
X95758733Y-60580593D01*
X95722769Y-60531093D01*
X95721297Y-60474879D01*
X95750500Y-60365892D01*
X95750500Y-60234108D01*
X95716392Y-60106814D01*
X95716390Y-60106811D01*
X95716390Y-60106809D01*
X95650503Y-59992690D01*
X95650501Y-59992688D01*
X95650500Y-59992686D01*
X95557314Y-59899500D01*
X95557311Y-59899498D01*
X95557309Y-59899496D01*
X95443189Y-59833609D01*
X95443191Y-59833609D01*
X95393799Y-59820375D01*
X95315892Y-59799500D01*
X95184108Y-59799500D01*
X95106200Y-59820375D01*
X95056809Y-59833609D01*
X94942690Y-59899496D01*
X94849498Y-59992688D01*
X94835736Y-60016525D01*
X94790266Y-60057465D01*
X94729416Y-60063860D01*
X94676428Y-60033267D01*
X94664264Y-60016525D01*
X94650501Y-59992688D01*
X94650500Y-59992686D01*
X94557314Y-59899500D01*
X94557311Y-59899498D01*
X94557309Y-59899496D01*
X94443189Y-59833609D01*
X94443191Y-59833609D01*
X94393799Y-59820375D01*
X94315892Y-59799500D01*
X94184108Y-59799500D01*
X94106200Y-59820375D01*
X94056809Y-59833609D01*
X93942690Y-59899496D01*
X93849496Y-59992690D01*
X93783609Y-60106809D01*
X93783608Y-60106814D01*
X93749500Y-60234108D01*
X50500000Y-60234108D01*
X50500000Y-57306128D01*
X89930000Y-57306128D01*
X89930000Y-57779999D01*
X89930001Y-57780000D01*
X90380000Y-57780000D01*
X90380000Y-58080000D01*
X89930001Y-58080000D01*
X89930000Y-58080001D01*
X89930000Y-58553871D01*
X89958821Y-58698764D01*
X89958823Y-58698770D01*
X90015358Y-58835257D01*
X90097434Y-58958093D01*
X90201906Y-59062565D01*
X90324742Y-59144641D01*
X90461235Y-59201178D01*
X90461234Y-59201178D01*
X90530000Y-59214855D01*
X90530000Y-58739808D01*
X90564204Y-58759556D01*
X90640504Y-58780000D01*
X90719496Y-58780000D01*
X90795796Y-58759556D01*
X90830000Y-58739808D01*
X90830000Y-59214854D01*
X90898765Y-59201178D01*
X91035257Y-59144641D01*
X91158093Y-59062565D01*
X91262565Y-58958093D01*
X91344641Y-58835257D01*
X91401176Y-58698770D01*
X91401178Y-58698764D01*
X91429999Y-58553871D01*
X91430000Y-58553867D01*
X91430000Y-58080001D01*
X91429999Y-58080000D01*
X90980000Y-58080000D01*
X90980000Y-57780000D01*
X91429999Y-57780000D01*
X91430000Y-57779999D01*
X91430000Y-57742679D01*
X91448907Y-57684488D01*
X91498407Y-57648524D01*
X91559593Y-57648524D01*
X91609093Y-57684488D01*
X91614732Y-57693171D01*
X91649485Y-57753365D01*
X91756635Y-57860515D01*
X91756637Y-57860516D01*
X91756639Y-57860518D01*
X91887861Y-57936279D01*
X91887859Y-57936279D01*
X91887863Y-57936280D01*
X91887865Y-57936281D01*
X92034234Y-57975500D01*
X92034236Y-57975500D01*
X92185764Y-57975500D01*
X92185766Y-57975500D01*
X92332135Y-57936281D01*
X92332137Y-57936279D01*
X92332139Y-57936279D01*
X92463360Y-57860518D01*
X92463360Y-57860517D01*
X92463365Y-57860515D01*
X92570515Y-57753365D01*
X92605264Y-57693179D01*
X92646279Y-57622139D01*
X92646279Y-57622137D01*
X92646281Y-57622135D01*
X92674472Y-57516925D01*
X92887000Y-57516925D01*
X92887000Y-57661875D01*
X92893059Y-57684488D01*
X92924517Y-57801889D01*
X92996987Y-57927410D01*
X92996989Y-57927412D01*
X92996991Y-57927415D01*
X93099485Y-58029909D01*
X93099487Y-58029910D01*
X93099489Y-58029912D01*
X93225011Y-58102382D01*
X93225012Y-58102382D01*
X93225015Y-58102384D01*
X93365025Y-58139900D01*
X93365026Y-58139900D01*
X93509974Y-58139900D01*
X93509975Y-58139900D01*
X93649985Y-58102384D01*
X93649987Y-58102382D01*
X93649989Y-58102382D01*
X93775510Y-58029912D01*
X93775510Y-58029911D01*
X93775515Y-58029909D01*
X93878009Y-57927415D01*
X93950484Y-57801885D01*
X93988000Y-57661875D01*
X93988000Y-57516925D01*
X93950484Y-57376915D01*
X93944900Y-57367244D01*
X93944900Y-57367242D01*
X93920069Y-57324234D01*
X97314500Y-57324234D01*
X97314500Y-57475766D01*
X97349086Y-57604847D01*
X97353720Y-57622139D01*
X97429481Y-57753360D01*
X97429483Y-57753362D01*
X97429485Y-57753365D01*
X97536635Y-57860515D01*
X97536637Y-57860516D01*
X97536639Y-57860518D01*
X97667861Y-57936279D01*
X97667859Y-57936279D01*
X97667863Y-57936280D01*
X97667865Y-57936281D01*
X97814234Y-57975500D01*
X97814236Y-57975500D01*
X97965764Y-57975500D01*
X97965766Y-57975500D01*
X98112135Y-57936281D01*
X98112137Y-57936279D01*
X98112139Y-57936279D01*
X98243360Y-57860518D01*
X98243360Y-57860517D01*
X98243365Y-57860515D01*
X98350515Y-57753365D01*
X98385264Y-57693177D01*
X98430733Y-57652238D01*
X98491583Y-57645842D01*
X98544571Y-57676435D01*
X98569458Y-57732331D01*
X98570000Y-57742679D01*
X98570000Y-57779999D01*
X98570001Y-57780000D01*
X99020000Y-57780000D01*
X99020000Y-58080000D01*
X98570001Y-58080000D01*
X98570000Y-58080001D01*
X98570000Y-58553871D01*
X98598821Y-58698764D01*
X98598823Y-58698770D01*
X98655358Y-58835257D01*
X98737434Y-58958093D01*
X98841906Y-59062565D01*
X98964742Y-59144641D01*
X99101235Y-59201178D01*
X99101234Y-59201178D01*
X99170000Y-59214855D01*
X99170000Y-58739808D01*
X99204204Y-58759556D01*
X99280504Y-58780000D01*
X99359496Y-58780000D01*
X99435796Y-58759556D01*
X99470000Y-58739808D01*
X99470000Y-59214854D01*
X99538765Y-59201178D01*
X99675257Y-59144641D01*
X99798093Y-59062565D01*
X99902565Y-58958093D01*
X99984641Y-58835257D01*
X100041176Y-58698770D01*
X100041178Y-58698764D01*
X100069999Y-58553871D01*
X100070000Y-58553867D01*
X100070000Y-58080001D01*
X100069999Y-58080000D01*
X99620000Y-58080000D01*
X99620000Y-57780000D01*
X100069999Y-57780000D01*
X100070000Y-57779999D01*
X100070000Y-57306132D01*
X100069999Y-57306128D01*
X100041178Y-57161235D01*
X100041176Y-57161229D01*
X99984641Y-57024742D01*
X99902565Y-56901906D01*
X99798093Y-56797434D01*
X99675257Y-56715358D01*
X99538767Y-56658822D01*
X99470000Y-56645143D01*
X99470000Y-57120191D01*
X99435796Y-57100444D01*
X99359496Y-57080000D01*
X99280504Y-57080000D01*
X99204204Y-57100444D01*
X99170000Y-57120191D01*
X99170000Y-56645143D01*
X99101232Y-56658822D01*
X98964742Y-56715358D01*
X98841906Y-56797434D01*
X98737434Y-56901906D01*
X98655358Y-57024742D01*
X98599558Y-57159455D01*
X98559821Y-57205981D01*
X98500326Y-57220264D01*
X98443798Y-57196849D01*
X98422358Y-57171069D01*
X98350518Y-57046639D01*
X98350516Y-57046637D01*
X98350515Y-57046635D01*
X98243365Y-56939485D01*
X98243362Y-56939483D01*
X98243360Y-56939481D01*
X98112138Y-56863720D01*
X98112140Y-56863720D01*
X98055347Y-56848503D01*
X97965766Y-56824500D01*
X97814234Y-56824500D01*
X97724652Y-56848503D01*
X97667860Y-56863720D01*
X97536639Y-56939481D01*
X97429481Y-57046639D01*
X97353720Y-57177860D01*
X97331793Y-57259693D01*
X97314500Y-57324234D01*
X93920069Y-57324234D01*
X93878012Y-57251389D01*
X93878010Y-57251387D01*
X93878009Y-57251385D01*
X93775515Y-57148891D01*
X93775512Y-57148889D01*
X93775510Y-57148887D01*
X93649988Y-57076417D01*
X93649989Y-57076417D01*
X93620396Y-57068487D01*
X93509975Y-57038900D01*
X93365025Y-57038900D01*
X93303290Y-57055441D01*
X93225010Y-57076417D01*
X93099489Y-57148887D01*
X92996987Y-57251389D01*
X92924517Y-57376910D01*
X92924516Y-57376915D01*
X92887000Y-57516925D01*
X92674472Y-57516925D01*
X92685500Y-57475766D01*
X92685500Y-57324234D01*
X92646281Y-57177865D01*
X92646279Y-57177862D01*
X92646279Y-57177860D01*
X92570518Y-57046639D01*
X92570516Y-57046637D01*
X92570515Y-57046635D01*
X92463365Y-56939485D01*
X92463362Y-56939483D01*
X92463360Y-56939481D01*
X92332138Y-56863720D01*
X92332140Y-56863720D01*
X92275347Y-56848503D01*
X92185766Y-56824500D01*
X92034234Y-56824500D01*
X91944652Y-56848503D01*
X91887860Y-56863720D01*
X91756639Y-56939481D01*
X91649483Y-57046637D01*
X91577641Y-57171070D01*
X91532171Y-57212010D01*
X91471321Y-57218405D01*
X91418333Y-57187812D01*
X91400441Y-57159455D01*
X91344641Y-57024742D01*
X91262565Y-56901906D01*
X91158093Y-56797434D01*
X91035257Y-56715358D01*
X90898767Y-56658822D01*
X90830000Y-56645143D01*
X90830000Y-57120191D01*
X90795796Y-57100444D01*
X90719496Y-57080000D01*
X90640504Y-57080000D01*
X90564204Y-57100444D01*
X90530000Y-57120191D01*
X90530000Y-56645143D01*
X90461232Y-56658822D01*
X90324742Y-56715358D01*
X90201906Y-56797434D01*
X90097434Y-56901906D01*
X90015358Y-57024742D01*
X89958823Y-57161229D01*
X89958821Y-57161235D01*
X89930000Y-57306128D01*
X50500000Y-57306128D01*
X50500000Y-53878710D01*
X52149500Y-53878710D01*
X52149500Y-54121289D01*
X52181161Y-54361781D01*
X52181161Y-54361786D01*
X52243944Y-54596092D01*
X52243948Y-54596105D01*
X52336772Y-54820204D01*
X52336774Y-54820208D01*
X52336776Y-54820212D01*
X52458064Y-55030289D01*
X52458066Y-55030292D01*
X52605729Y-55222731D01*
X52605731Y-55222733D01*
X52605735Y-55222738D01*
X52777262Y-55394265D01*
X52777266Y-55394268D01*
X52777268Y-55394270D01*
X52969707Y-55541933D01*
X52969711Y-55541936D01*
X53179788Y-55663224D01*
X53403900Y-55756054D01*
X53638211Y-55818838D01*
X53878712Y-55850500D01*
X53878713Y-55850500D01*
X54121287Y-55850500D01*
X54121288Y-55850500D01*
X54146924Y-55847125D01*
X109479500Y-55847125D01*
X109479500Y-55992075D01*
X109483504Y-56007017D01*
X109517017Y-56132089D01*
X109589487Y-56257610D01*
X109589489Y-56257612D01*
X109589491Y-56257615D01*
X109691985Y-56360109D01*
X109691987Y-56360110D01*
X109691989Y-56360112D01*
X109817511Y-56432582D01*
X109817512Y-56432582D01*
X109817515Y-56432584D01*
X109957525Y-56470100D01*
X109957526Y-56470100D01*
X110102474Y-56470100D01*
X110102475Y-56470100D01*
X110186725Y-56447525D01*
X134461500Y-56447525D01*
X134461500Y-56592474D01*
X134499017Y-56732489D01*
X134571487Y-56858010D01*
X134571489Y-56858012D01*
X134571491Y-56858015D01*
X134673985Y-56960509D01*
X134673987Y-56960510D01*
X134673989Y-56960512D01*
X134799511Y-57032982D01*
X134799512Y-57032982D01*
X134799515Y-57032984D01*
X134939525Y-57070500D01*
X134939526Y-57070500D01*
X135084474Y-57070500D01*
X135084475Y-57070500D01*
X135224485Y-57032984D01*
X135224487Y-57032982D01*
X135224489Y-57032982D01*
X135350010Y-56960512D01*
X135350010Y-56960511D01*
X135350015Y-56960509D01*
X135452509Y-56858015D01*
X135524984Y-56732485D01*
X135562500Y-56592475D01*
X135562500Y-56447525D01*
X135524984Y-56307515D01*
X135524982Y-56307512D01*
X135524982Y-56307510D01*
X135452512Y-56181989D01*
X135452510Y-56181987D01*
X135452509Y-56181985D01*
X135350015Y-56079491D01*
X135350012Y-56079489D01*
X135350010Y-56079487D01*
X135224488Y-56007017D01*
X135224489Y-56007017D01*
X135168721Y-55992074D01*
X135084475Y-55969500D01*
X134939525Y-55969500D01*
X134877790Y-55986041D01*
X134799510Y-56007017D01*
X134673989Y-56079487D01*
X134571487Y-56181989D01*
X134499017Y-56307510D01*
X134461500Y-56447525D01*
X110186725Y-56447525D01*
X110242485Y-56432584D01*
X110242487Y-56432582D01*
X110242489Y-56432582D01*
X110368010Y-56360112D01*
X110368010Y-56360111D01*
X110368015Y-56360109D01*
X110470509Y-56257615D01*
X110542984Y-56132085D01*
X110580500Y-55992075D01*
X110580500Y-55847125D01*
X110542984Y-55707115D01*
X110542982Y-55707112D01*
X110542982Y-55707110D01*
X110470512Y-55581589D01*
X110470510Y-55581587D01*
X110470509Y-55581585D01*
X110368015Y-55479091D01*
X110368012Y-55479089D01*
X110368010Y-55479087D01*
X110242488Y-55406617D01*
X110242489Y-55406617D01*
X110212896Y-55398687D01*
X110102475Y-55369100D01*
X109957525Y-55369100D01*
X109895790Y-55385641D01*
X109817510Y-55406617D01*
X109691989Y-55479087D01*
X109589487Y-55581589D01*
X109517017Y-55707110D01*
X109479500Y-55847125D01*
X54146924Y-55847125D01*
X54361789Y-55818838D01*
X54596100Y-55756054D01*
X54820212Y-55663224D01*
X55030289Y-55541936D01*
X55222738Y-55394265D01*
X55394265Y-55222738D01*
X55428958Y-55177525D01*
X135393500Y-55177525D01*
X135393500Y-55322474D01*
X135431017Y-55462489D01*
X135503487Y-55588010D01*
X135503489Y-55588012D01*
X135503491Y-55588015D01*
X135605985Y-55690509D01*
X135605987Y-55690510D01*
X135605989Y-55690512D01*
X135731511Y-55762982D01*
X135731512Y-55762982D01*
X135731515Y-55762984D01*
X135871525Y-55800500D01*
X135871526Y-55800500D01*
X136016474Y-55800500D01*
X136016475Y-55800500D01*
X136156485Y-55762984D01*
X136156487Y-55762982D01*
X136156489Y-55762982D01*
X136282010Y-55690512D01*
X136282010Y-55690511D01*
X136282015Y-55690509D01*
X136384509Y-55588015D01*
X136411115Y-55541933D01*
X136456982Y-55462489D01*
X136456982Y-55462487D01*
X136456984Y-55462485D01*
X136494500Y-55322475D01*
X136494500Y-55177525D01*
X136456984Y-55037515D01*
X136456982Y-55037512D01*
X136456982Y-55037510D01*
X136384512Y-54911989D01*
X136384510Y-54911987D01*
X136384509Y-54911985D01*
X136282015Y-54809491D01*
X136282012Y-54809489D01*
X136282010Y-54809487D01*
X136156488Y-54737017D01*
X136156489Y-54737017D01*
X136072981Y-54714641D01*
X136016475Y-54699500D01*
X135871525Y-54699500D01*
X135815019Y-54714641D01*
X135731510Y-54737017D01*
X135605989Y-54809487D01*
X135503487Y-54911989D01*
X135431017Y-55037510D01*
X135393500Y-55177525D01*
X55428958Y-55177525D01*
X55541936Y-55030289D01*
X55663224Y-54820212D01*
X55756054Y-54596100D01*
X55818838Y-54361789D01*
X55850500Y-54121288D01*
X55850500Y-53878712D01*
X55818838Y-53638211D01*
X55756054Y-53403900D01*
X55744552Y-53376132D01*
X55744550Y-53376128D01*
X89930000Y-53376128D01*
X89930000Y-53599999D01*
X89930001Y-53600000D01*
X90380000Y-53600000D01*
X90380000Y-53900000D01*
X89930001Y-53900000D01*
X89930000Y-53900001D01*
X89930000Y-54123871D01*
X89958821Y-54268764D01*
X89958823Y-54268770D01*
X90015358Y-54405257D01*
X90097434Y-54528093D01*
X90201906Y-54632565D01*
X90324742Y-54714641D01*
X90461235Y-54771178D01*
X90461234Y-54771178D01*
X90530000Y-54784855D01*
X90530000Y-54309808D01*
X90564204Y-54329556D01*
X90640504Y-54350000D01*
X90719496Y-54350000D01*
X90795796Y-54329556D01*
X90830000Y-54309808D01*
X90830000Y-54784854D01*
X90898765Y-54771178D01*
X91035257Y-54714641D01*
X91158093Y-54632565D01*
X91262565Y-54528093D01*
X91344641Y-54405257D01*
X91401176Y-54268770D01*
X91401178Y-54268764D01*
X91429999Y-54123871D01*
X91430000Y-54123867D01*
X91430000Y-53900001D01*
X91429999Y-53900000D01*
X90980000Y-53900000D01*
X90980000Y-53600000D01*
X91429999Y-53600000D01*
X91430000Y-53599999D01*
X91430000Y-53376132D01*
X91429999Y-53376128D01*
X98570000Y-53376128D01*
X98570000Y-53599999D01*
X98570001Y-53600000D01*
X99020000Y-53600000D01*
X99020000Y-53900000D01*
X98570001Y-53900000D01*
X98570000Y-53900001D01*
X98570000Y-54123871D01*
X98598821Y-54268764D01*
X98598823Y-54268770D01*
X98655358Y-54405257D01*
X98737434Y-54528093D01*
X98841906Y-54632565D01*
X98964742Y-54714641D01*
X99101235Y-54771178D01*
X99101234Y-54771178D01*
X99170000Y-54784855D01*
X99170000Y-54309808D01*
X99204204Y-54329556D01*
X99280504Y-54350000D01*
X99359496Y-54350000D01*
X99435796Y-54329556D01*
X99470000Y-54309808D01*
X99470000Y-54784854D01*
X99538765Y-54771178D01*
X99675257Y-54714641D01*
X99798093Y-54632565D01*
X99902565Y-54528093D01*
X99984641Y-54405257D01*
X100041176Y-54268770D01*
X100041178Y-54268764D01*
X100069999Y-54123871D01*
X100070000Y-54123867D01*
X100070000Y-53900001D01*
X100069999Y-53900000D01*
X99620000Y-53900000D01*
X99620000Y-53878710D01*
X144149500Y-53878710D01*
X144149500Y-54121289D01*
X144181161Y-54361781D01*
X144181161Y-54361786D01*
X144243944Y-54596092D01*
X144243948Y-54596105D01*
X144336772Y-54820204D01*
X144336774Y-54820208D01*
X144336776Y-54820212D01*
X144458064Y-55030289D01*
X144458066Y-55030292D01*
X144605729Y-55222731D01*
X144605731Y-55222733D01*
X144605735Y-55222738D01*
X144777262Y-55394265D01*
X144777266Y-55394268D01*
X144777268Y-55394270D01*
X144969707Y-55541933D01*
X144969711Y-55541936D01*
X145179788Y-55663224D01*
X145403900Y-55756054D01*
X145638211Y-55818838D01*
X145878712Y-55850500D01*
X145878713Y-55850500D01*
X146121287Y-55850500D01*
X146121288Y-55850500D01*
X146361789Y-55818838D01*
X146596100Y-55756054D01*
X146820212Y-55663224D01*
X147030289Y-55541936D01*
X147222738Y-55394265D01*
X147394265Y-55222738D01*
X147541936Y-55030289D01*
X147663224Y-54820212D01*
X147756054Y-54596100D01*
X147818838Y-54361789D01*
X147850500Y-54121288D01*
X147850500Y-53878712D01*
X147818838Y-53638211D01*
X147756054Y-53403900D01*
X147663224Y-53179788D01*
X147541936Y-52969711D01*
X147541933Y-52969707D01*
X147394270Y-52777268D01*
X147394268Y-52777266D01*
X147394265Y-52777262D01*
X147222738Y-52605735D01*
X147222733Y-52605731D01*
X147222731Y-52605729D01*
X147030292Y-52458066D01*
X147030289Y-52458064D01*
X146820212Y-52336776D01*
X146820208Y-52336774D01*
X146820204Y-52336772D01*
X146596105Y-52243948D01*
X146596104Y-52243947D01*
X146596100Y-52243946D01*
X146361789Y-52181162D01*
X146361786Y-52181161D01*
X146361784Y-52181161D01*
X146121289Y-52149500D01*
X146121288Y-52149500D01*
X145878712Y-52149500D01*
X145878710Y-52149500D01*
X145638218Y-52181161D01*
X145638213Y-52181161D01*
X145403907Y-52243944D01*
X145403894Y-52243948D01*
X145179795Y-52336772D01*
X144969707Y-52458066D01*
X144777268Y-52605729D01*
X144605729Y-52777268D01*
X144458066Y-52969707D01*
X144336772Y-53179795D01*
X144243948Y-53403894D01*
X144243944Y-53403907D01*
X144181161Y-53638213D01*
X144181161Y-53638218D01*
X144149500Y-53878710D01*
X99620000Y-53878710D01*
X99620000Y-53600000D01*
X100069999Y-53600000D01*
X100070000Y-53599999D01*
X100070000Y-53376132D01*
X100069999Y-53376128D01*
X100041178Y-53231235D01*
X100041176Y-53231229D01*
X99984641Y-53094742D01*
X99902565Y-52971906D01*
X99798093Y-52867434D01*
X99675257Y-52785358D01*
X99538767Y-52728822D01*
X99470000Y-52715143D01*
X99470000Y-53190191D01*
X99435796Y-53170444D01*
X99359496Y-53150000D01*
X99280504Y-53150000D01*
X99204204Y-53170444D01*
X99170000Y-53190191D01*
X99170000Y-52715143D01*
X99101232Y-52728822D01*
X98964742Y-52785358D01*
X98841906Y-52867434D01*
X98737434Y-52971906D01*
X98655358Y-53094742D01*
X98598823Y-53231229D01*
X98598821Y-53231235D01*
X98570000Y-53376128D01*
X91429999Y-53376128D01*
X91401178Y-53231235D01*
X91401176Y-53231229D01*
X91344641Y-53094742D01*
X91262565Y-52971906D01*
X91158093Y-52867434D01*
X91035257Y-52785358D01*
X90898767Y-52728822D01*
X90830000Y-52715143D01*
X90830000Y-53190191D01*
X90795796Y-53170444D01*
X90719496Y-53150000D01*
X90640504Y-53150000D01*
X90564204Y-53170444D01*
X90530000Y-53190191D01*
X90530000Y-52715143D01*
X90461232Y-52728822D01*
X90324742Y-52785358D01*
X90201906Y-52867434D01*
X90097434Y-52971906D01*
X90015358Y-53094742D01*
X89958823Y-53231229D01*
X89958821Y-53231235D01*
X89930000Y-53376128D01*
X55744550Y-53376128D01*
X55663227Y-53179795D01*
X55663226Y-53179794D01*
X55663224Y-53179788D01*
X55541936Y-52969711D01*
X55541933Y-52969707D01*
X55394270Y-52777268D01*
X55394268Y-52777266D01*
X55394265Y-52777262D01*
X55222738Y-52605735D01*
X55222733Y-52605731D01*
X55222731Y-52605729D01*
X55186174Y-52577678D01*
X55092272Y-52505625D01*
X108296500Y-52505625D01*
X108296500Y-52650575D01*
X108326087Y-52760996D01*
X108334017Y-52790589D01*
X108406487Y-52916110D01*
X108406489Y-52916112D01*
X108406491Y-52916115D01*
X108508985Y-53018609D01*
X108508987Y-53018610D01*
X108508989Y-53018612D01*
X108634511Y-53091082D01*
X108634512Y-53091082D01*
X108634515Y-53091084D01*
X108774525Y-53128600D01*
X108774526Y-53128600D01*
X108919474Y-53128600D01*
X108919475Y-53128600D01*
X109059485Y-53091084D01*
X109059487Y-53091082D01*
X109059489Y-53091082D01*
X109185010Y-53018612D01*
X109185010Y-53018611D01*
X109185015Y-53018609D01*
X109287509Y-52916115D01*
X109359984Y-52790585D01*
X109397500Y-52650575D01*
X109397500Y-52505625D01*
X109359984Y-52365615D01*
X109359982Y-52365612D01*
X109359982Y-52365610D01*
X109287512Y-52240089D01*
X109287510Y-52240087D01*
X109287509Y-52240085D01*
X109185015Y-52137591D01*
X109185012Y-52137589D01*
X109185010Y-52137587D01*
X109059488Y-52065117D01*
X109059489Y-52065117D01*
X109029896Y-52057187D01*
X108919475Y-52027600D01*
X108774525Y-52027600D01*
X108712790Y-52044141D01*
X108634510Y-52065117D01*
X108508989Y-52137587D01*
X108406487Y-52240089D01*
X108334017Y-52365610D01*
X108296500Y-52505625D01*
X55092272Y-52505625D01*
X55030292Y-52458066D01*
X55030289Y-52458064D01*
X54820212Y-52336776D01*
X54820208Y-52336774D01*
X54820204Y-52336772D01*
X54596105Y-52243948D01*
X54596104Y-52243947D01*
X54596100Y-52243946D01*
X54361789Y-52181162D01*
X54361786Y-52181161D01*
X54361784Y-52181161D01*
X54121289Y-52149500D01*
X54121288Y-52149500D01*
X53878712Y-52149500D01*
X53878710Y-52149500D01*
X53638218Y-52181161D01*
X53638213Y-52181161D01*
X53403907Y-52243944D01*
X53403894Y-52243948D01*
X53179795Y-52336772D01*
X52969707Y-52458066D01*
X52777268Y-52605729D01*
X52605729Y-52777268D01*
X52458066Y-52969707D01*
X52336772Y-53179795D01*
X52243948Y-53403894D01*
X52243944Y-53403907D01*
X52181161Y-53638213D01*
X52181161Y-53638218D01*
X52149500Y-53878710D01*
X50500000Y-53878710D01*
X50500000Y-50599000D01*
X50518907Y-50540809D01*
X50568407Y-50504845D01*
X50599000Y-50500000D01*
X149401000Y-50500000D01*
X149459191Y-50518907D01*
G37*
%TD.AperFunction*%
%TD*%
M02*
