M48
; DRILL file {KiCad 9.0.7} date 2026-09-07T13:16:34+0200
; FORMAT={-:-/ absolute / metric / decimal}
; #@! TF.CreationDate,2026-09-07T13:16:34+02:00
; #@! TF.GenerationSoftware,Kicad,Pcbnew,9.0.7
; #@! TF.FileFunction,Plated,1,4,PTH
FMAT,2
METRIC
; #@! TA.AperFunction,Plated,PTH,ViaDrill
T1C0.250
; #@! TA.AperFunction,Plated,PTH,ViaDrill
T2C0.300
; #@! TA.AperFunction,Plated,PTH,ComponentDrill
T3C0.300
; #@! TA.AperFunction,Plated,PTH,ComponentDrill
T4C0.330
; #@! TA.AperFunction,Plated,PTH,ComponentDrill
T5C0.600
; #@! TA.AperFunction,Plated,PTH,ComponentDrill
T6C1.000
; #@! TA.AperFunction,Plated,PTH,ComponentDrill
T7C1.100
; #@! TA.AperFunction,Plated,PTH,ComponentDrill
T8C1.300
%
G90
G05
T1
X90.8Y-63.8
X90.8Y-65.2
X91.6Y-64.95
X92.4Y-63.225
X94.25Y-60.3
X94.75Y-61.1
X94.8Y-64.0
X95.25Y-60.3
X95.75Y-61.1
X96.8Y-60.6
T2
X57.0Y-80.525
X58.354Y-108.311
X59.219Y-104.072
X60.371Y-101.088
X60.695Y-97.073
X61.46Y-102.025
X61.5Y-82.0
X64.0Y-81.9
X67.291Y-64.203
X70.0Y-105.275
X70.087Y-95.7
X70.5Y-103.975
X70.9Y-90.0
X71.0Y-87.1
X72.257Y-98.21
X74.031Y-101.868
X76.0Y-94.0
X76.5Y-90.7
X77.1Y-106.0
X77.5Y-112.05
X79.5Y-96.525
X80.85Y-59.2
X84.3Y-77.525
X84.3Y-82.525
X84.3Y-87.525
X88.5Y-104.5
X88.5Y-105.5
X93.438Y-57.589
X95.5Y-88.05
X99.391Y-86.349
X100.041Y-68.194
X100.789Y-87.7
X101.5Y-103.7
X101.5Y-104.7
X101.7Y-97.0
X102.386Y-95.377
X102.4Y-101.537
X102.6Y-81.05
X103.5Y-89.65
X104.0Y-75.9
X105.436Y-111.807
X105.8Y-104.463
X105.864Y-75.146
X108.062Y-98.2
X108.4Y-89.05
X108.847Y-52.578
X109.7Y-109.088
X110.03Y-55.92
X110.5Y-63.2
X111.0Y-51.7
X111.58Y-77.952
X112.384Y-70.484
X112.5Y-84.0
X113.0Y-112.95
X113.6Y-82.05
X113.886Y-89.698
X114.18Y-105.245
X114.2Y-87.05
X114.2Y-91.05
X114.3Y-57.05
X114.5Y-94.35
X115.915Y-74.015
X116.555Y-72.878
X118.259Y-65.41
X118.327Y-78.149
X119.157Y-82.0
X120.362Y-101.526
X120.485Y-70.456
X121.481Y-91.0
X121.6Y-108.05
X121.825Y-70.456
X123.0Y-100.1
X123.095Y-70.455
X124.0Y-99.8
X124.0Y-104.0
X124.133Y-109.296
X124.6Y-100.4
X124.7Y-117.85
X124.764Y-102.456
X125.282Y-107.0
X125.635Y-67.936
X125.758Y-102.653
X126.086Y-99.34
X127.3Y-88.05
X128.0Y-105.0
X129.692Y-103.889
X131.187Y-97.9
X131.5Y-99.3
X131.6Y-100.5
X132.0Y-103.0
X133.802Y-92.111
X134.032Y-98.203
X135.012Y-56.52
X135.2Y-51.44
X135.944Y-55.25
X143.4Y-115.0
T3
X64.8Y-101.2
X64.8Y-102.4
X64.8Y-103.6
X64.8Y-104.8
X66.0Y-101.2
X66.0Y-102.4
X66.0Y-103.6
X66.0Y-104.8
X67.2Y-101.2
X67.2Y-102.4
X67.2Y-103.6
X67.2Y-104.8
X122.1Y-58.46
X122.1Y-59.86
X122.8Y-57.76
X122.8Y-59.16
X122.8Y-60.56
X123.5Y-58.46
X123.5Y-59.86
X124.2Y-57.76
X124.2Y-59.16
X124.2Y-60.56
X124.9Y-58.46
X124.9Y-59.86
X127.35Y-99.7
X127.35Y-101.0
X127.35Y-102.3
X128.65Y-99.7
X128.65Y-101.0
X128.65Y-102.3
T4
X66.35Y-83.7
X66.35Y-85.0
X66.35Y-86.3
X67.65Y-83.7
X67.65Y-85.0
X67.65Y-86.3
T6
X141.0Y-75.0
X141.0Y-77.54
X141.0Y-80.08
X141.0Y-82.62
T7
X105.0Y-117.0
X115.16Y-117.0
X137.0Y-110.0
X139.54Y-110.0
X142.08Y-110.0
T8
X63.0Y-123.0
X68.08Y-123.0
X89.0Y-123.0
X94.08Y-123.0
X99.16Y-123.0
X130.0Y-123.0
X135.08Y-123.0
T5
X90.68Y-54.05G85X90.68Y-53.45
G05
X90.68Y-58.48G85X90.68Y-57.38
G05
X99.32Y-54.05G85X99.32Y-53.45
G05
X99.32Y-58.48G85X99.32Y-57.38
G05
M30
